<svg width="30" height="15" viewBox="0 0 30 15" fill="none" xmlns="http://www.w3.org/2000/svg">
<path fill-rule="evenodd" clip-rule="evenodd" d="M25.5363 1H29C29.5523 1 30 1.44772 30 2C30 2.55228 29.5523 3 29 3H25.8075C25.4736 3.87389 24.5726 4.5 23.5135 4.5C22.4544 4.5 21.5534 3.87389 21.2195 3H1C0.447715 3 0 2.55228 0 2C0 1.44772 0.447715 1 1 1H21.4907C21.927 0.397007 22.6702 0 23.5135 0C24.3569 0 25.1 0.397007 25.5363 1ZM1 6.25C0.447715 6.25 0 6.69772 0 7.25C0 7.80228 0.447715 8.25 1 8.25H4.19246C4.52639 9.12389 5.42739 9.75 6.48649 9.75C7.54558 9.75 8.44659 9.12389 8.78051 8.25H29C29.5523 8.25 30 7.80228 30 7.25C30 6.69772 29.5523 6.25 29 6.25H8.50931C8.07295 5.64701 7.32984 5.25 6.48649 5.25C5.64313 5.25 4.90002 5.64701 4.46366 6.25H1ZM0 12.5C0 11.9477 0.447715 11.5 1 11.5H12.5718C13.0081 10.897 13.7512 10.5 14.5946 10.5C15.438 10.5 16.1811 10.897 16.6174 11.5H29C29.5523 11.5 30 11.9477 30 12.5C30 13.0523 29.5523 13.5 29 13.5H16.8886C16.5547 14.3739 15.6537 15 14.5946 15C13.5355 15 12.6345 14.3739 12.3006 13.5H1C0.447715 13.5 0 13.0523 0 12.5Z" fill="#74767A"/>
</svg>
