<svg width="16" height="19" viewBox="0 0 16 19" fill="none" xmlns="http://www.w3.org/2000/svg">
<path d="M8.23405 9.25189L4.72405 10.2419C4.15405 10.4019 3.55405 10.2519 3.13405 9.84189L0.494051 7.32189C0.0740507 6.91189 -0.0859493 6.32189 0.0440507 5.76189L0.944051 2.24189C1.08405 1.69189 1.52405 1.24189 2.08405 1.09189L5.60405 0.101885C6.17405 -0.0581147 6.77405 0.0918853 7.19405 0.501885L9.82405 3.03189C10.2441 3.44189 10.4241 4.03189 10.2741 4.59189L9.37405 8.09189C9.24405 8.65189 8.80405 9.10189 8.23405 9.25189Z" fill="#B1F8DF"/>
<path d="M14.9341 10.932L13.3041 11.392C13.0441 11.462 12.7641 11.392 12.5741 11.212L11.3541 10.042C11.1641 9.85203 11.0841 9.58203 11.1441 9.32203L11.5641 7.70203C11.6341 7.44203 11.8241 7.23203 12.0941 7.16203L13.7141 6.70203C13.9741 6.63203 14.2541 6.70203 14.4441 6.88203L15.6541 8.05203C15.8441 8.24203 15.9341 8.51203 15.8641 8.77203L15.4541 10.392C15.3941 10.652 15.1841 10.862 14.9341 10.932Z" fill="#34B9AC"/>
<path d="M8.73402 12.0918L8.76402 12.1018L10.544 13.8118C10.574 13.8418 10.574 13.8718 10.574 13.9018L9.96402 16.2918C9.95402 16.3318 9.92402 16.3618 9.89402 16.3618L7.50402 17.0518C7.47402 17.0618 7.44402 17.0518 7.40402 17.0318C7.39402 17.0318 7.39402 17.0318 7.38402 17.0218L5.59402 15.3018C5.56402 15.2918 5.55402 15.2518 5.56402 15.2118L6.17402 12.8218C6.18402 12.7818 6.21402 12.7518 6.24402 12.7518L8.63402 12.0818C8.66402 12.0718 8.70402 12.0718 8.73402 12.0918ZM9.20402 11.2118C8.95402 11.0718 8.65402 11.0418 8.37402 11.1218L5.97402 11.7918C5.58402 11.9018 5.29402 12.2018 5.19402 12.5918L4.58402 14.9818C4.48402 15.3618 4.60402 15.7718 4.89402 16.0418L6.68402 17.7618C6.75402 17.8318 6.84402 17.8918 6.93402 17.9418C7.19402 18.0818 7.48402 18.1118 7.76402 18.0418L10.154 17.3718C10.544 17.2618 10.834 16.9618 10.934 16.5718L11.544 14.1818C11.644 13.8018 11.524 13.3918 11.234 13.1218L9.45402 11.4118C9.37402 11.3118 9.29402 11.2618 9.20402 11.2118Z" fill="#48EAD1"/>
</svg>
