<svg width="8" height="7" viewBox="0 0 8 7" fill="none" xmlns="http://www.w3.org/2000/svg">
<path d="M3.8247 0.0436363C4.1047 -0.0363637 4.4047 -0.00636353 4.6547 0.133636C4.7447 0.183636 4.8247 0.233636 4.9047 0.333636L6.6847 2.04364C6.9747 2.31364 7.0947 2.72364 6.9947 3.10364L6.3847 5.49364C6.2847 5.88364 5.9947 6.18364 5.6047 6.29364L3.2147 6.96364C2.9347 7.03364 2.6447 7.00364 2.3847 6.86364C2.2947 6.81364 2.2047 6.75364 2.1347 6.68364L0.344702 4.96364C0.0547018 4.69364 -0.0652981 4.28364 0.0347019 3.90364L0.644702 1.51364C0.744702 1.12364 1.0347 0.823636 1.4247 0.713636L3.8247 0.0436363Z" fill="#48EAD1"/>
</svg>
