<svg width="16" height="19" viewBox="0 0 16 19" fill="none" xmlns="http://www.w3.org/2000/svg">
<path d="M8.23405 9.29095L4.72405 10.2809C4.15405 10.4409 3.55405 10.2909 3.13405 9.88095L0.494051 7.36095C0.0740507 6.95095 -0.0859493 6.36095 0.0440507 5.80095L0.944051 2.28095C1.08405 1.73095 1.52405 1.28095 2.08405 1.13095L5.60405 0.140948C6.17405 -0.0190522 6.77405 0.130948 7.19405 0.540948L9.82405 3.07095C10.2441 3.48095 10.4241 4.07095 10.2741 4.63095L9.37405 8.13095C9.24405 8.69095 8.80405 9.14095 8.23405 9.29095Z" fill="#5CC8FF"/>
<path d="M14.9341 10.9711L13.3041 11.4311C13.0441 11.5011 12.7641 11.4311 12.5741 11.2511L11.3541 10.0811C11.1641 9.89109 11.0841 9.62109 11.1441 9.36109L11.5641 7.74109C11.6341 7.48109 11.8241 7.27109 12.0941 7.20109L13.7141 6.74109C13.9741 6.67109 14.2541 6.74109 14.4441 6.92109L15.6541 8.09109C15.8441 8.28109 15.9341 8.55109 15.8641 8.81109L15.4541 10.4311C15.3941 10.6911 15.1841 10.9011 14.9341 10.9711Z" fill="#1087CC"/>
<path d="M8.73402 12.1308L8.76402 12.1408L10.544 13.8508C10.574 13.8808 10.574 13.9108 10.574 13.9408L9.96402 16.3308C9.95402 16.3708 9.92402 16.4008 9.89402 16.4008L7.50402 17.0908C7.47402 17.1008 7.44402 17.0908 7.40402 17.0708C7.39402 17.0708 7.39402 17.0708 7.38402 17.0608L5.59402 15.3408C5.56402 15.3308 5.55402 15.2908 5.56402 15.2508L6.17402 12.8608C6.18402 12.8208 6.21402 12.7908 6.24402 12.7908L8.63402 12.1208C8.66402 12.1108 8.70402 12.1108 8.73402 12.1308ZM9.20402 11.2508C8.95402 11.1108 8.65402 11.0808 8.37402 11.1608L5.97402 11.8308C5.58402 11.9408 5.29402 12.2408 5.19402 12.6308L4.58402 15.0208C4.48402 15.4008 4.60402 15.8108 4.89402 16.0808L6.68402 17.8008C6.75402 17.8708 6.84402 17.9308 6.93402 17.9808C7.19402 18.1208 7.48402 18.1508 7.76402 18.0808L10.154 17.4108C10.544 17.3008 10.834 17.0008 10.934 16.6108L11.544 14.2208C11.644 13.8408 11.524 13.4308 11.234 13.1608L9.45402 11.4508C9.37402 11.3508 9.29402 11.3008 9.20402 11.2508Z" fill="#16ACFF"/>
</svg>
