<svg width="1900" height="849" viewBox="0 0 1900 849" fill="none" xmlns="http://www.w3.org/2000/svg">
    <path opacity="0.75"
          d="M566.23 460.833L566.063 459.848L566.23 460.833L66.5523 545.964C-13.1683 559.548 -79.7358 615.031 -108.085 691.533L-285.739 1170.98C-314.088 1247.48 -299.899 1333.36 -248.52 1396.28L73.4981 1790.58C124.877 1853.49 205.633 1883.88 285.353 1870.29L785.031 1785.16C864.752 1771.58 931.32 1716.1 959.669 1639.59L1137.32 1160.15C1165.66 1083.65 1151.47 997.769 1100.1 934.856L1100.87 934.224L1100.1 934.856L778.086 540.543C726.707 477.639 645.95 447.249 566.23 460.833Z"
          stroke="currentcolor" class="theme-tint-15" stroke-width="2"/>
    <path d="M1921.93 243.468L1921.73 242.487L1921.93 243.468L1657.48 296.023C1615.45 304.376 1581 334.729 1567.1 375.664L1479.63 633.186C1465.72 674.121 1474.49 719.405 1502.62 751.982L1679.59 956.944C1707.72 989.515 1750.93 1004.44 1792.96 996.084L2057.4 943.529C2099.43 935.176 2133.88 904.823 2147.79 863.888L2235.25 606.366C2249.15 565.434 2240.39 520.15 2212.26 487.574L2035.29 282.607C2007.16 250.036 1963.95 235.115 1921.93 243.468Z"
          stroke="currentcolor" class="secondary" stroke-width="2"/>
    <path d="M1540.37 371.826L1448.19 627.698C1433.42 668.704 1398.13 698.668 1355.6 706.312L1090.23 754.003C1047.71 761.647 1004.41 745.801 976.659 712.444L803.477 504.267C775.724 470.906 767.728 425.096 782.502 384.09L874.683 128.218C889.457 87.2125 924.75 57.2481 967.276 49.6041L1232.64 1.91296C1275.17 -5.73103 1318.46 10.115 1346.22 43.472L1519.39 251.653C1547.15 285.014 1555.14 330.824 1540.37 371.826Z"
          fill="currentcolor" class="secondary-tint-10"/>
</svg>
