<svg width="428" height="784" viewBox="0 0 428 784" fill="none" xmlns="http://www.w3.org/2000/svg">
    <path d="M686.989 566.758C700.955 651.917 668.429 738.058 601.662 792.733L392.079 964.359C325.312 1019.03 234.449 1033.94 153.716 1003.45L-99.7088 907.76C-180.442 877.276 -238.779 806.037 -252.745 720.878L-296.586 453.56C-310.553 368.401 -278.026 282.26 -211.26 227.586L-1.67626 55.9594C65.0903 1.28471 155.954 -13.6172 236.687 16.867L490.111 112.558C570.844 143.043 629.181 214.282 643.148 299.441L686.989 566.758Z"
          stroke="url(#bg-bottom-multi-3-mobile-a)" stroke-width="1.625"/>
    <path d="M713.602 323.193C770.536 378.176 793.811 459.357 774.661 536.154L688.956 879.853C669.806 956.65 611.14 1017.4 535.056 1039.21L194.552 1136.84C118.468 1158.65 36.5258 1138.22 -20.4077 1083.24L-275.207 837.165C-332.141 782.182 -355.416 701.001 -336.266 624.204L-250.561 280.505C-231.411 203.707 -172.744 142.96 -96.6606 121.146L243.843 23.5189C319.927 1.70473 401.869 22.1378 458.803 77.1211L713.602 323.193Z"
          fill="url(#bg-bottom-multi-3-mobile-b)"/>
    <defs>
        <linearGradient id="bg-bottom-multi-3-mobile-a" x1="621.292" y1="161.196" x2="-230.911" y2="859.058"
                        gradientUnits="userSpaceOnUse">
            <stop stop-color="currentcolor" class="theme"/>
            <stop offset="1" stop-color="currentcolor" class="secondary"/>
        </linearGradient>
        <radialGradient id="bg-bottom-multi-3-mobile-b" cx="0" cy="0" r="1" gradientUnits="userSpaceOnUse"
                        gradientTransform="translate(161.417 -41.1868) rotate(134.124) scale(525.943 611.833)">
            <stop stop-color="currentcolor" class="theme"/>
            <stop offset="1" stop-color="currentcolor" class="theme-shade-15"/>
        </radialGradient>
    </defs>
</svg>
