<svg width="1440" height="869" viewBox="0 0 1440 869" fill="none" xmlns="http://www.w3.org/2000/svg">
<path d="M1628.29 1123.86C1654.07 1281.08 1594.02 1440.11 1470.76 1541.05L1083.84 1857.89C960.576 1958.83 792.828 1986.34 643.783 1930.06L175.922 1753.4C26.877 1697.13 -80.8225 1565.61 -106.607 1408.39L-187.544 914.881C-213.328 757.664 -153.279 598.635 -30.0179 497.697L356.905 180.848C480.167 79.9104 647.915 52.3991 796.96 108.678L1264.82 285.339C1413.87 341.617 1521.57 473.136 1547.35 630.352L1628.29 1123.86Z" stroke="url(bg-bottom-multi-3-laptop-a)" stroke-width="3"/>
<path d="M1677.42 674.201C1782.53 775.709 1825.5 925.58 1790.14 1067.36L1631.92 1701.88C1596.56 1843.66 1488.26 1955.81 1347.8 1996.08L719.172 2176.32C578.71 2216.59 427.432 2178.87 322.324 2077.36L-148.075 1623.07C-253.183 1521.56 -296.153 1371.69 -260.799 1229.91L-102.575 595.392C-67.2203 453.612 41.0872 341.463 181.55 301.191L810.172 120.957C950.635 80.6843 1101.91 118.407 1207.02 219.915L1677.42 674.201Z" fill="url(#bg-bottom-multi-3-laptop-b)"/>
<defs>
    <linearGradient id="bg-bottom-multi-3-laptop-a" x1="1507" y1="375.131" x2="-66.2966" y2="1663.49" gradientUnits="userSpaceOnUse">
        <stop stop-color="currentcolor" class="theme"/>
        <stop offset="1" stop-color="currentcolor" class="secondary"/>
    </linearGradient>
    <radialGradient id="bg-bottom-multi-3-laptop-b" cx="0" cy="0" r="1" gradientUnits="userSpaceOnUse" gradientTransform="translate(658 1.50002) rotate(108.793) scale(783.786 911.784)">
        <stop stop-color="currentcolor" class="theme"/>
        <stop offset="1" stop-color="currentcolor" class="theme-shade-15"/>
    </radialGradient>
</defs>
</svg>
