<svg width="1440" height="777" viewBox="0 0 1440 777" fill="none" xmlns="http://www.w3.org/2000/svg">
    <path opacity="0.75"
          d="M419.92 352.52L419.744 351.536L419.92 352.52L34.6081 421.522C-26.7853 432.518 -77.7629 475.741 -99.1287 534.928L-233.189 906.331C-254.555 965.519 -243.052 1031.66 -203.016 1079.85L48.2295 1382.24C88.2643 1430.42 150.743 1453.33 212.136 1442.34L597.448 1373.33C658.841 1362.34 709.819 1319.11 731.184 1259.93L865.245 888.524C886.605 829.342 875.101 763.199 835.066 715.013L835.835 714.374L835.066 715.013L583.826 412.613C543.791 364.435 481.312 341.524 419.92 352.52Z"
          stroke="currentcolor" class="theme-tint-15" stroke-width="2"/>
    <path d="M1520.38 211.332L1520.18 210.353L1520.38 211.332L1316.51 253.642C1284.2 260.351 1257.85 283.957 1247.41 315.582L1181.54 515.02C1171.1 546.646 1178.14 581.474 1200.02 606.386L1338.03 763.51C1359.91 788.417 1393.29 799.63 1425.61 792.922L1629.48 750.611C1661.8 743.903 1688.14 720.297 1698.59 688.672L1764.45 489.234C1774.89 457.611 1767.85 422.783 1745.97 397.871L1746.72 397.211L1745.97 397.871L1607.97 240.744C1586.09 215.837 1552.7 204.624 1520.38 211.332Z"
          stroke="currentcolor" class="secondary" stroke-width="2"/>
    <path d="M1226.53 312.721L1157.01 510.916C1145.87 542.677 1118.81 566.047 1086.02 572.228L881.408 610.788C848.618 616.969 815.083 605.014 793.433 579.436L658.337 419.805C636.688 394.224 630.214 358.9 641.356 327.138L710.871 128.943C722.012 97.1815 749.071 73.8117 781.861 67.6312L986.475 29.0708C1019.27 22.8903 1052.8 34.8446 1074.45 60.4228L1209.54 220.057C1231.19 245.638 1237.67 280.962 1226.53 312.721Z"
          fill="currentcolor" class="secondary-tint-10"/>
</svg>
