<svg width="360" height="357" viewBox="0 0 360 357" fill="none" xmlns="http://www.w3.org/2000/svg">
    <path d="M236.936 226.49L159.482 328.429C147.069 344.765 126.995 353.252 106.817 350.693L-19.0939 334.726C-39.2721 332.168 -56.4847 318.951 -64.2506 300.058L-112.706 182.153C-120.471 163.259 -117.608 141.556 -105.195 125.22L-27.741 23.2806C-15.328 6.94442 4.74592 -1.5418 24.9241 1.01654L150.835 16.9839C171.013 19.5422 188.226 32.7592 195.992 51.652L244.445 169.557C252.21 188.452 249.347 210.154 236.936 226.49Z"
          fill="currentcolor" class="theme-tint-10"/>
    <path d="M334.534 124.925L312.143 154.394C308.555 159.117 302.752 161.57 296.918 160.83L260.519 156.214C254.686 155.475 249.71 151.654 247.465 146.192L233.457 112.107C231.212 106.645 232.04 100.371 235.628 95.6486L258.019 66.1791C261.608 61.4564 267.411 59.0032 273.244 59.7428L309.644 64.3587C315.477 65.0983 320.453 68.9192 322.698 74.3809L336.705 108.466C338.95 113.928 338.122 120.202 334.534 124.925Z"
          fill="url(#bg-left-multi-1-mobile-a)"/>
    <path d="M224.193 254.63L223.459 254.072L224.193 254.63C218.778 261.757 217.53 271.224 220.916 279.463L242.825 332.773C246.21 341.01 253.713 346.768 262.505 347.883L319.434 355.103C328.227 356.217 336.981 352.52 342.396 345.393L377.416 299.302C382.831 292.175 384.078 282.708 380.692 274.469L381.538 274.122L380.692 274.469L358.785 221.159C358.785 221.159 358.785 221.159 358.785 221.159C355.399 212.923 347.897 207.164 339.105 206.049L339.205 205.257L339.105 206.049L282.175 198.83C273.382 197.715 264.629 201.412 259.214 208.539L224.193 254.63Z"
          stroke="url(#bg-left-multi-1-mobile-b)" stroke-width="1.84502"/>
    <defs>
        <linearGradient id="bg-left-multi-1-mobile-a" x1="336.585" y1="103.159" x2="233.464" y2="116.516"
                        gradientUnits="userSpaceOnUse">
            <stop stop-color="currentcolor" class="theme-tint-5"/>
            <stop offset="1" stop-color="currentcolor" class="theme-shade-5"/>
        </linearGradient>
        <linearGradient id="bg-left-multi-1-mobile-b" x1="381.358" y1="265.819" x2="220.074" y2="286.71"
                        gradientUnits="userSpaceOnUse">
            <stop stop-color="currentcolor" class="theme-tint-5"/>
            <stop offset="1" stop-color="currentcolor" class="theme-shade-5"/>
        </linearGradient>
    </defs>
</svg>
