<svg width="698" height="600" viewBox="0 0 698 600" fill="none" xmlns="http://www.w3.org/2000/svg">
    <path d="M450.829 380.612L320.352 552.337C299.441 579.856 265.625 594.152 231.634 589.842L19.5281 562.944C-14.4635 558.634 -43.4593 536.369 -56.5415 504.543L-138.168 305.925C-151.249 274.095 -146.426 237.536 -125.516 210.016L4.9615 38.2921C25.8721 10.7725 59.688 -3.52312 93.6796 0.786589L305.785 27.6847C339.777 31.9944 368.773 54.2593 381.855 86.0856L463.478 284.706C476.559 316.535 471.735 353.094 450.829 380.612Z"
          fill="currentcolor" class="theme-tint-10"/>
    <path d="M615.24 209.518L577.52 259.161C571.475 267.117 561.699 271.25 551.873 270.004L490.555 262.228C480.729 260.982 472.346 254.545 468.564 245.345L444.967 187.926C441.185 178.725 442.58 168.156 448.625 160.201L486.344 110.557C492.389 102.601 502.165 98.4686 511.992 99.7145L573.309 107.49C583.136 108.736 591.518 115.173 595.3 124.373L618.896 181.792C622.678 190.994 621.283 201.563 615.24 209.518Z"
          fill="url(#bg-left-multi-1-laptop-a)"/>
    <path d="M628.526 580.945L687.52 503.302C687.52 503.302 687.52 503.302 687.52 503.302C696.652 491.281 698.757 475.313 693.046 461.416L694.419 460.852L693.046 461.416L656.141 371.612C656.141 371.612 656.141 371.612 656.141 371.612C650.43 357.718 637.776 348.004 622.945 346.124L623.134 344.637L622.945 346.124L527.043 333.962C512.212 332.082 497.447 338.319 488.313 350.339L429.319 427.983C420.185 440.005 418.08 455.973 423.791 469.87L460.698 559.673C466.409 573.567 479.063 583.281 493.894 585.161L589.796 597.323C604.627 599.203 619.392 592.966 628.526 580.945Z"
          stroke="url(#bg-left-multi-1-laptop-b)" stroke-width="3"/>
    <defs>
        <linearGradient id="bg-left-multi-1-laptop-a" x1="618.694" y1="172.853" x2="444.979" y2="195.354"
                        gradientUnits="userSpaceOnUse">
            <stop stop-color="currentcolor" class="theme-tint-5"/>
            <stop offset="1" stop-color="currentcolor" class="theme-shade-5"/>
        </linearGradient>
        <linearGradient id="bg-left-multi-1-laptop-b" x1="694.118" y1="446.864" x2="422.423" y2="482.056"
                        gradientUnits="userSpaceOnUse">
            <stop stop-color="currentcolor" class="theme-tint-5"/>
            <stop offset="1" stop-color="currentcolor" class="theme-shade-5"/>
        </linearGradient>
    </defs>
</svg>
