<svg width="282" height="875" viewBox="0 0 282 875" fill="none" xmlns="http://www.w3.org/2000/svg">
  <path d="M806.495 356.219L744.1 640.489C734.1 686.045 700.797 722.727 656.73 736.724L381.747 824.064C337.679 838.062 289.547 827.24 255.48 795.686L42.8968 598.759C8.82963 567.2 -5.99574 519.697 4.00478 474.141L66.4 189.871C76.4005 144.314 109.703 107.633 153.77 93.6354L428.753 6.29621C472.821 -7.7017 520.953 3.12 555.02 34.6739L767.599 231.606C801.666 263.164 816.492 310.667 806.495 356.219Z"
   fill="currentcolor" class="theme-tint-15" />
  <path d="M180.919 756.568L181.594 755.84L180.919 756.568L138.652 717.412C132.141 711.381 122.946 709.315 114.529 711.989L114.226 711.036L114.529 711.989L59.8536 729.354C51.4357 732.028 45.0683 739.037 43.1557 747.75L30.7496 804.272C28.8368 812.985 31.6733 822.069 38.1854 828.102L80.4534 867.257C86.9644 873.288 96.1598 875.353 104.577 872.68L159.252 855.314C167.67 852.64 174.037 845.631 175.95 836.918L188.356 780.396C190.268 771.684 187.431 762.6 180.919 756.568Z"
   stroke="currentcolor" class="theme-tint-5" stroke-width="2" />
</svg>
