<svg width="698" height="600" viewBox="0 0 698 600" fill="none" xmlns="http://www.w3.org/2000/svg">
    <path d="M247.482 380.612L377.96 552.337C398.87 579.856 432.686 594.152 466.678 589.842L678.783 562.944C712.775 558.634 741.771 536.369 754.853 504.543L836.48 305.925C849.561 274.095 844.738 237.536 823.827 210.016L693.35 38.2921C672.439 10.7725 638.623 -3.52312 604.632 0.786589L392.526 27.6847C358.535 31.9944 329.539 54.2593 316.457 86.0856L234.834 284.706C221.753 316.535 226.576 353.094 247.482 380.612Z"
          fill="currentcolor" class="theme-tint-15"/>
    <path d="M83.072 209.518L120.791 259.161C126.836 267.117 136.612 271.25 146.439 270.004L207.756 262.228C217.583 260.982 225.965 254.545 229.747 245.345L253.345 187.926C257.126 178.725 255.732 168.156 249.687 160.201L211.967 110.557C205.922 102.601 196.146 98.4686 186.32 99.7145L125.002 107.49C115.176 108.736 106.794 115.173 103.012 124.373L79.4154 181.792C75.6339 190.994 77.0282 201.563 83.072 209.518Z"
          fill="currentcolor" class="theme-tint-10"/>
    <path d="M69.7858 580.945L10.7917 503.302C10.7917 503.302 10.7917 503.302 10.7917 503.302C1.65903 491.281 -0.445398 475.313 5.26578 461.416L3.89291 460.852L5.26579 461.416L42.1707 371.612C42.1708 371.612 42.1708 371.612 42.1708 371.611C47.8817 357.718 60.5359 348.004 75.3663 346.124L75.1777 344.637L75.3663 346.124L171.268 333.962C186.1 332.082 200.864 338.319 209.998 350.339L268.992 427.983C278.127 440.005 280.231 455.973 274.52 469.87L237.613 559.673C231.902 573.567 219.248 583.28 204.418 585.161L108.516 597.323C93.6843 599.203 78.9197 592.966 69.7858 580.945Z"
          stroke="url(#paint0_linear_0_1)" stroke-width="3"/>
    <defs>
        <linearGradient id="paint0_linear_0_1" x1="4.19377" y1="446.864" x2="275.889" y2="482.056"
                        gradientUnits="userSpaceOnUse">
            <stop stop-color="currentcolor" class="theme-tint-5"/>
            <stop offset="1" stop-color="currentcolor" class="theme-shade-5"/>
        </linearGradient>
    </defs>
</svg>
