<svg width="360" height="357" viewBox="0 0 360 357" fill="none" xmlns="http://www.w3.org/2000/svg">
    <path d="M135.063 226.49L212.517 328.429C224.93 344.765 245.004 353.252 265.182 350.693L391.093 334.726C411.271 332.168 428.484 318.951 436.25 300.058L484.705 182.153C492.47 163.259 489.607 141.556 477.194 125.22L399.74 23.2806C387.327 6.94442 367.253 -1.5418 347.075 1.01654L221.164 16.9839C200.986 19.5422 183.773 32.7592 176.007 51.652L127.554 169.557C119.789 188.452 122.652 210.154 135.063 226.49Z"
          fill="currentcolor" class="theme-tint-15"/>
    <path d="M37.4646 124.925L59.8557 154.394C63.4442 159.117 69.2473 161.57 75.0806 160.83L111.48 156.214C117.313 155.475 122.289 151.654 124.534 146.192L138.542 112.107C140.787 106.645 139.959 100.371 136.371 95.6486L113.98 66.1791C110.391 61.4564 104.588 59.0032 98.7549 59.7428L62.3555 64.3587C56.5222 65.0983 51.5462 68.9192 49.3012 74.3809L35.294 108.466C33.0491 113.928 33.8768 120.202 37.4646 124.925Z"
          fill="currentcolor" class="theme-tint-10"/>
    <path d="M147.806 254.63L148.54 254.072L147.806 254.63C153.221 261.757 154.469 271.224 151.083 279.463L129.174 332.773C125.789 341.01 118.286 346.768 109.494 347.883L52.5648 355.103C43.7719 356.217 35.0185 352.52 29.6033 345.393L-5.41699 299.302C-10.8315 292.175 -12.0791 282.708 -8.69315 274.469L-9.5394 274.122L-8.69315 274.469L13.2145 221.159C13.2145 221.159 13.2145 221.159 13.2145 221.159C16.6003 212.923 24.1024 207.164 32.8945 206.049L32.794 205.257L32.8945 206.049L89.824 198.83C98.6169 197.715 107.37 201.412 112.786 208.539L147.806 254.63Z"
          stroke="url(#bg-right-multi-3-mobile)" stroke-width="1.84502"/>
    <defs>
        <linearGradient id="bg-right-multi-3-mobile" x1="-9.35919" y1="265.819" x2="151.925" y2="286.71"
                        gradientUnits="userSpaceOnUse">
            <stop stop-color="currentcolor" class="theme-tint-5"/>
            <stop offset="1" stop-color="currentcolor" class="theme-shade-5"/>
        </linearGradient>
    </defs>
</svg>
