<svg width="774" height="934" viewBox="0 0 774 934" fill="none" xmlns="http://www.w3.org/2000/svg">
  <path d="M896.428 356.219L834.033 640.489C824.032 686.045 790.73 722.727 746.662 736.724L471.679 824.064C427.612 838.062 379.48 827.24 345.413 795.686L132.829 598.759C98.7622 567.2 83.9369 519.697 93.9374 474.141L156.333 189.871C166.333 144.314 199.635 107.633 243.703 93.6354L518.686 6.29621C562.754 -7.7017 610.886 3.12 644.953 34.6739L857.532 231.606C891.599 263.164 906.424 310.667 896.428 356.219Z"
   fill="currentcolor" class="theme-tint-15" />
  <path d="M133.131 679.235L132.829 678.282L133.131 679.235L48.0201 706.268C34.7246 710.491 24.6712 721.56 21.6517 735.315L2.33943 823.301C-0.680261 837.057 3.79715 851.399 14.0799 860.924L79.8775 921.876C90.1592 931.399 104.682 934.663 117.977 930.44L203.088 903.407C216.383 899.184 226.437 888.115 229.456 874.36L248.768 786.374C251.787 772.619 247.309 758.278 237.027 748.752L237.706 748.019L237.027 748.752L171.23 687.799C160.949 678.276 146.426 675.012 133.131 679.235Z"
   stroke="currentcolor" class="theme-tint-5" stroke-width="2" />
</svg>
