<svg width="316" height="725" viewBox="0 0 316 725" fill="none" xmlns="http://www.w3.org/2000/svg">
    <path d="M517.988 329.982L401.488 454.341C382.818 474.27 355.079 482.757 328.715 476.607L164.203 438.231C137.838 432.081 116.859 412.227 109.164 386.151L61.1524 223.419C53.4584 197.341 60.2199 169 78.8903 149.071L195.39 24.7126C214.061 4.78377 241.799 -3.70342 268.163 2.44598L432.676 40.8225C459.04 46.9719 480.019 66.8266 487.714 92.9027L535.722 255.635C543.416 281.714 536.655 310.054 517.988 329.982Z"
          fill="currentcolor" class="theme-tint-15"/>
    <path d="M260.089 640.781L194.336 710.969C183.798 722.217 168.143 727.007 153.263 723.536L60.4117 701.876C45.5315 698.406 33.6909 687.2 29.3477 672.482L2.24995 580.636C-2.09257 565.918 1.72366 549.922 12.2613 538.674L78.0139 468.486C88.5515 457.238 104.207 452.448 119.087 455.919L211.938 477.578C226.818 481.049 238.659 492.255 243.002 506.973L270.098 598.819C274.441 613.538 270.624 629.533 260.089 640.781Z"
          fill="currentcolor" class="theme-tint-15"/>
</svg>
