<svg width="719" height="867" viewBox="0 0 719 867" fill="none" xmlns="http://www.w3.org/2000/svg">
    <path d="M843.987 471.982L727.488 596.341C708.817 616.27 681.079 624.757 654.714 618.607L490.202 580.231C463.838 574.081 442.859 554.227 435.163 528.151L387.152 365.419C379.458 339.341 386.219 311 404.89 291.071L521.39 166.713C540.06 146.784 567.798 138.297 594.163 144.446L758.675 182.822C785.04 188.972 806.019 208.827 813.714 234.903L861.722 397.635C869.416 423.714 862.654 452.054 843.987 471.982Z"
          fill="currentcolor" class="theme-tint-15"/>
    <path d="M322.72 231.84L240.988 319.086C227.889 333.068 208.429 339.022 189.933 334.708L74.5159 307.784C56.0195 303.47 41.3012 289.54 35.9025 271.246L2.21913 157.079C-3.17875 138.783 1.56493 118.9 14.6635 104.919L96.3961 17.6726C109.495 3.69109 128.955 -2.26326 147.451 2.05097L262.868 28.9747C281.365 33.2889 296.083 47.2184 301.482 65.5125L335.162 179.681C340.56 197.976 335.817 217.859 322.72 231.84Z"
          fill="currentcolor" class="theme-tint-15"/>
    <path d="M586.089 782.781L520.336 852.969C509.798 864.217 494.143 869.007 479.263 865.536L386.412 843.876C371.532 840.406 359.691 829.2 355.348 814.482L328.25 722.636C323.907 707.918 327.724 691.922 338.261 680.674L404.014 610.486C414.552 599.238 430.207 594.448 445.087 597.919L537.938 619.578C552.818 623.049 564.659 634.255 569.002 648.973L596.098 740.819C600.441 755.538 596.624 771.533 586.089 782.781Z"
          fill="currentcolor" class="theme-tint-15"/>
</svg>
