<svg width="360" height="2531" viewBox="0 0 360 2531" fill="none" xmlns="http://www.w3.org/2000/svg">
	<path d="M1450.75 1440.1L881.009 2047.78C789.702 2145.16 654.09 2186.59 525.223 2156.48L-278.895 1968.55C-407.761 1938.44 -510.274 1841.34 -547.839 1713.85L-782.21 918.267C-819.768 790.772 -786.659 652.246 -695.351 554.864L-125.609 -52.8112C-34.3012 -150.193 101.311 -191.626 230.177 -161.512L1034.29 26.4158C1163.16 56.5292 1265.67 153.628 1303.24 281.113L1537.59 1076.7C1575.15 1204.2 1542.04 1342.73 1450.75 1440.1Z" fill="url(#bg-top-multi-9-mobile-a)"/>
	<path d="M404.467 773.845L346.53 835.639C337.245 845.541 323.455 849.755 310.351 846.692L228.581 827.582C215.477 824.52 205.053 814.646 201.233 801.682L177.4 720.78C173.58 707.816 176.947 693.729 186.232 683.826L244.169 622.033C253.454 612.13 267.244 607.917 280.348 610.979L362.118 630.089C375.222 633.151 385.646 643.025 389.466 655.989L413.297 736.892C417.117 749.856 413.75 763.943 404.467 773.845Z" fill="currentcolor" class="theme-tint-10"/>
	<path opacity="0.6" d="M513.703 177.126L320.122 383.596C289.098 416.683 243.022 430.761 199.237 420.529L-73.9781 356.677C-117.763 346.445 -152.594 313.454 -165.357 270.139L-244.989 -0.177415C-257.751 -43.4965 -246.501 -90.5634 -215.477 -123.651L-21.8964 -330.12C9.12724 -363.208 55.2041 -377.285 98.989 -367.054L372.204 -303.201C415.989 -292.97 450.82 -259.978 463.583 -216.663L543.209 53.6547C555.971 96.9738 544.721 144.041 513.703 177.126Z" fill="white"/>
	<path d="M38.3353 416.206L38.4685 415.636L38.3352 416.206L-9.14845 405.109C-16.5521 403.379 -24.3471 405.759 -29.5973 411.358L-63.2409 447.242C-68.4914 452.842 -70.3943 460.807 -68.2354 468.135L-54.3957 515.115C-52.2367 522.442 -46.3461 528.02 -38.9429 529.75L8.54079 540.847C15.9445 542.577 23.7394 540.198 28.9896 534.598L62.6333 498.715C67.8828 493.115 69.7856 485.15 67.6268 477.822L68.1887 477.656L67.6268 477.822L53.788 430.842C53.788 430.842 53.788 430.842 53.788 430.842C51.629 423.515 45.7384 417.936 38.3353 416.206Z" stroke="url(#bg-top-multi-9-mobile-b)" stroke-width="1.17153"/>
	<path d="M391.065 461.147L370.592 482.983C367.311 486.482 362.438 487.971 357.808 486.889L328.913 480.136C324.282 479.054 320.598 475.564 319.249 470.983L310.827 442.395C309.477 437.814 310.667 432.836 313.948 429.337L334.421 407.501C337.702 404.001 342.575 402.512 347.206 403.595L376.1 410.347C380.731 411.43 384.415 414.919 385.765 419.5L394.186 448.088C395.536 452.67 394.346 457.647 391.065 461.147Z" fill="currentcolor" class="theme-tint-10"/>
	<defs>
		<linearGradient id="bg-top-multi-9-mobile-a" x1="31.5121" y1="-120.113" x2="806.283" y2="2340.47" gradientUnits="userSpaceOnUse">
			<stop stop-color="currentcolor" class="theme-tint-15"/>
			<stop offset="1" stop-color="currentcolor" class="theme-tint-15" stop-opacity="0"/>
		</linearGradient>
		<linearGradient id="bg-top-multi-9-mobile-b" x1="68.7587" y1="470.625" x2="-69.3929" y2="474.13" gradientUnits="userSpaceOnUse">
			<stop stop-color="currentcolor" class="theme-tint-5"/>
			<stop offset="1" stop-color="currentcolor" class="theme-shade-5"/>
		</linearGradient>
	</defs>
</svg>
