<svg width="1440" height="803" viewBox="0 0 1440 803" fill="none" xmlns="http://www.w3.org/2000/svg">
    <path d="M1211.17 -408.712L1425.31 92.8823C1452.74 157.119 1443.81 231.106 1401.89 286.974L1074.56 723.223C1032.65 779.091 964.107 808.352 894.765 799.983L353.301 734.638C283.959 726.269 224.348 681.543 196.924 617.306L-17.2169 115.712C-44.6408 51.4757 -35.7118 -22.5116 6.20666 -78.3796L333.53 -514.628C375.448 -570.496 443.987 -599.757 513.33 -591.389L1054.79 -526.043C1124.14 -517.675 1183.75 -472.948 1211.17 -408.712Z"
          stroke="currentcolor" class="theme-shade-5" stroke-width="3"/>
    <path d="M868.234 -691.822C931.249 -701.233 994.977 -680.056 1039.83 -634.802L1493.62 -176.922C1546.68 -123.393 1565.13 -44.5872 1541.37 26.9321L1371.14 539.221C1347.37 610.74 1285.42 662.828 1210.88 673.959L573.293 769.179C510.278 778.59 446.549 757.413 401.699 712.159L-52.0975 254.279C-105.149 200.75 -123.605 121.944 -99.8398 50.4244L70.3908 -461.864C94.1562 -533.384 156.108 -585.471 230.646 -596.603L868.234 -691.822Z"
          fill="url(#paint0_radial_0_1)"/>
    <defs>
        <radialGradient id="paint0_radial_0_1" cx="0" cy="0" r="1" gradientUnits="userSpaceOnUse"
                        gradientTransform="translate(1014.5 241) rotate(134.91) scale(766.93 536.766)">
            <stop stop-color="currentcolor" class="theme-shade-10"/>
            <stop offset="0.912806" stop-color="currentcolor" class="theme-shade-15"/>
        </radialGradient>
    </defs>
</svg>
