<svg width="1900" height="494" viewBox="0 0 1900 494" fill="none" xmlns="http://www.w3.org/2000/svg">
  <path d="M268.341 135.666L221.207 350.406C213.652 384.82 188.496 412.529 155.207 423.103L-52.5176 489.08C-85.8066 499.654 -122.166 491.479 -147.9 467.643L-308.487 318.882C-334.222 295.043 -345.421 259.159 -337.867 224.746L-290.733 10.0054C-283.178 -24.4081 -258.022 -52.1173 -224.733 -62.6914L-17.0083 -128.668C16.2807 -139.242 52.6399 -131.067 78.3744 -107.231L238.958 41.5324C264.693 65.3717 275.892 101.256 268.341 135.666Z"
   fill="currentcolor" class="theme-tint-15" />
  <path d="M479.011 264.974L478.331 265.708L419.35 211.067C410.16 202.556 397.18 199.639 385.298 203.413L384.996 202.46L385.298 203.413L309.002 227.646C297.119 231.421 288.134 241.314 285.435 253.609L268.123 332.482C265.423 344.777 269.426 357.596 278.616 366.11L337.599 420.749C346.789 429.26 359.769 432.177 371.65 428.403L447.947 404.17C459.829 400.395 468.815 390.502 471.514 378.207L488.826 299.334C491.524 287.04 487.522 274.221 478.331 265.708L479.011 264.974Z"
   stroke="currentcolor" class="theme-tint-10" stroke-width="2" />
  <path d="M2487.69 -1272.6L2268.53 -274.091C2233.4 -114.074 2116.42 14.7695 1961.64 63.9375L995.752 370.719C840.963 419.887 671.899 381.875 552.238 271.041L-194.467 -420.671C-314.129 -531.52 -366.203 -698.375 -331.076 -858.392L-111.911 -1856.9C-76.7841 -2016.92 40.1906 -2145.76 194.979 -2194.93L1160.86 -2501.71C1315.65 -2550.88 1484.72 -2512.87 1604.38 -2402.03L2351.07 -1710.3C2470.73 -1599.46 2522.8 -1432.6 2487.69 -1272.6Z"
   fill="currentcolor" class="theme-tint-15" />
</svg>
