<svg width="1900" height="2239" viewBox="0 0 1900 2239" fill="none" xmlns="http://www.w3.org/2000/svg">
    <g clip-path="url(#bg-top-multi-1-c)">
        <rect y="28" width="1900" height="1815" fill="currentcolor" class="theme-tint-15"/>
        <path d="M1900 1843H0V1874.68L112.198 1995.87C296.74 2195.19 574.906 2280.52 841.982 2219.73L1675.25 2030.06L1900 1972.51V1843Z"
              fill="currentcolor" class="theme-tint-15"/>
        <path d="M1936.96 823.13L1281.9 1459.37C1176.92 1561.33 1026.29 1599.75 886.719 1560.17L15.7868 1313.16C-123.787 1273.58 -231.069 1162 -265.671 1020.47L-481.544 137.23C-516.139 -4.31141 -466.268 -697.927 -361.288 -799.886L287.254 -892.513C392.234 -994.473 542.862 -1032.89 682.436 -993.313L1553.37 -746.301C1692.94 -706.72 1800.22 -595.135 1834.83 -453.605L2050.68 429.635C2085.28 571.177 2041.92 721.175 1936.96 823.13Z"
              fill="url(#bg-top-multi-1-a)"/>
        <path d="M2052.99 1588.21L1908.94 1728.13C1885.86 1750.55 1852.74 1759 1822.04 1750.29L1630.52 1695.98C1599.83 1687.27 1576.23 1662.73 1568.63 1631.61L1521.15 1437.38C1513.55 1406.26 1523.08 1373.27 1546.17 1350.85L1690.22 1210.94C1713.3 1188.51 1746.43 1180.07 1777.12 1188.77L1968.64 1243.09C1999.33 1251.79 2022.93 1276.33 2030.54 1307.45L2078 1501.68C2085.61 1532.81 2076.08 1565.79 2052.99 1588.21Z"
              fill="url(#bg-top-multi-1-b)"/>
        <path d="M1487.03 1483.75L1487.31 1482.79L1487.03 1483.75L1424.46 1466.01C1414.78 1463.26 1404.33 1465.93 1397.04 1473.01L1349.98 1518.72C1342.69 1525.8 1339.68 1536.21 1342.08 1546.03L1357.59 1609.49C1359.99 1619.31 1367.43 1627.04 1377.11 1629.79L1439.68 1647.54C1449.36 1650.28 1459.82 1647.62 1467.11 1640.54L1514.17 1594.83C1521.46 1587.75 1524.46 1577.34 1522.06 1567.51L1523.03 1567.28L1522.06 1567.51L1506.56 1504.06C1504.15 1494.24 1496.71 1486.5 1487.03 1483.75Z"
              stroke="currentcolor" class="theme-tint-10" stroke-width="2"/>
        <path d="M486.693 1636.7L430.263 1691.51C421.219 1700.29 408.243 1703.6 396.219 1700.19L321.192 1678.91C309.168 1675.5 299.926 1665.89 296.945 1653.7L278.349 1577.61C275.368 1565.42 279.103 1552.49 288.147 1543.71L344.578 1488.9C353.621 1480.12 366.597 1476.81 378.621 1480.22L453.648 1501.5C465.672 1504.91 474.914 1514.52 477.895 1526.71L496.49 1602.8C499.47 1614.99 495.735 1627.91 486.693 1636.7Z"
              fill="currentcolor" class="secondary-tint-10"/>
    </g>
    <path d="M900.181 1785.9L901.153 1785.66L900.181 1785.9L866.144 1646.62C860.772 1624.65 844.121 1607.33 822.46 1601.19L822.733 1600.23L822.46 1601.19L685.125 1562.24C663.463 1556.1 640.08 1562.06 623.779 1577.89L520.485 1678.22L519.789 1677.5L520.485 1678.22C504.184 1694.05 497.454 1717.34 502.824 1739.31L536.865 1878.59C542.236 1900.56 558.888 1917.88 580.548 1924.02L717.883 1962.97C739.545 1969.11 762.929 1963.15 779.229 1947.32L882.523 1846.99C898.821 1831.16 905.552 1807.87 900.181 1785.9Z"
          stroke="white" stroke-width="2"/>
    <defs>
        <linearGradient id="bg-top-multi-1-a" x1="620.466" y1="1102.18" x2="1244.98" y2="183.152"
                        gradientUnits="userSpaceOnUse">
            <stop stop-color="currentcolor" class="theme-tint-10"/>
            <stop offset="0.899048" stop-color="white"/>
        </linearGradient>
        <linearGradient id="bg-top-multi-1-b" x1="1595.05" y1="1387.59" x2="2000.04" y2="1658.06"
                        gradientUnits="userSpaceOnUse">
            <stop stop-color="currentcolor" class="theme-tint-10"/>
            <stop offset="1" stop-color="currentcolor" class="theme"/>
        </linearGradient>
        <clipPath id="bg-top-multi-1-c">
            <rect width="1900" height="2239" fill="white"/>
        </clipPath>
    </defs>
</svg>
