<svg width="1920" height="1128" viewBox="0 0 1920 1128" fill="none" xmlns="http://www.w3.org/2000/svg">
    <g clip-path="url(#bg-top-multi-3)">
        <path d="M2859.18 -84.2709L2242.69 514.516C2143.89 610.474 2002.13 646.632 1870.77 609.381L1051.11 376.912C919.753 339.661 818.787 234.645 786.223 101.447L583.058 -729.792C550.5 -863 591.306 -1004.17 690.105 -1100.13L1306.6 -1698.91C1405.4 -1794.87 1547.16 -1831.03 1678.51 -1793.78L2498.17 -1561.31C2629.53 -1524.06 2730.5 -1419.04 2763.06 -1285.84L2966.21 -454.601C2998.77 -321.392 2957.96 -180.224 2859.18 -84.2709Z"
              fill="currentcolor" class="theme-tint-10"/>
        <path d="M1830.88 909.603L1714.27 1022.87C1695.58 1041.02 1668.77 1047.86 1643.92 1040.81L1488.88 996.838C1464.03 989.791 1444.94 969.927 1438.78 944.732L1400.35 787.5C1394.19 762.303 1401.91 735.6 1420.59 717.45L1537.21 604.186C1555.89 586.036 1582.71 579.196 1607.56 586.242L1762.6 630.215C1787.45 637.261 1806.54 657.125 1812.7 682.32L1851.13 839.553C1857.29 864.75 1849.57 891.453 1830.88 909.603Z"
              fill="currentcolor" class="theme-tint-15"/>
        <path d="M994.501 575.328L994.248 576.222L994.501 575.328L1057.81 593.284C1067.61 596.063 1078.19 593.367 1085.57 586.201L1133.19 539.951C1140.56 532.785 1143.61 522.244 1141.18 512.301L1142.15 512.064L1141.18 512.301L1125.49 448.096C1123.06 438.155 1115.53 430.322 1105.73 427.543L1105.97 426.683L1105.73 427.543L1042.42 409.587C1032.62 406.808 1022.04 409.504 1014.66 416.67L967.041 462.92C959.662 470.086 956.617 480.628 959.047 490.57L974.74 554.776C977.17 564.716 984.703 572.549 994.501 575.328Z"
              stroke="currentcolor" class="theme-tint-10" stroke-width="2"/>
    </g>
    <defs>
        <clipPath id="bg-top-multi-3">
            <rect width="1920" height="1128" fill="white"/>
        </clipPath>
    </defs>
</svg>
