<svg width="1900" height="1242" viewBox="0 0 1900 1242" fill="none" xmlns="http://www.w3.org/2000/svg">
    <path d="M2139.46 512.371L2139.74 511.409L2139.46 512.371L1862.72 433.88C1818.71 421.401 1771.22 433.513 1738.11 465.666L1529.96 667.84C1496.85 699.993 1483.18 747.294 1494.09 791.925L1562.69 1072.58C1573.6 1117.21 1607.42 1152.39 1651.42 1164.87L1928.17 1243.36C1972.18 1255.84 2019.67 1243.73 2052.78 1211.57L2260.93 1009.4C2294.03 977.246 2307.7 929.945 2296.79 885.315L2228.2 604.654C2217.29 560.029 2183.47 524.85 2139.46 512.371Z"
      stroke="currentcolor" class="secondary-tint-5" stroke-width="2"/>
    <path d="M277.483 234.018L134.218 373.169C111.258 395.468 78.3144 403.871 47.7884 395.215L-142.691 341.191C-173.217 332.535 -196.681 308.13 -204.248 277.176L-251.461 84.006C-259.027 53.0497 -249.545 20.2439 -226.585 -2.05554L-83.3193 -141.207C-60.3593 -163.506 -27.4158 -171.909 3.11018 -163.252L193.59 -109.229C224.116 -100.572 247.579 -76.1679 255.147 -45.2143L302.356 147.957C309.922 178.913 300.439 211.719 277.483 234.018Z"
      fill="currentcolor" class="theme-tint-10"/>
    <path d="M1412.58 797.555L1329.21 878.531C1315.85 891.508 1296.68 896.397 1278.91 891.36L1168.07 859.922C1150.3 854.885 1136.65 840.683 1132.24 822.67L1104.77 710.259C1100.37 692.245 1105.89 673.154 1119.25 660.177L1202.62 579.201C1215.98 566.225 1235.15 561.335 1252.91 566.373L1363.76 597.81C1381.52 602.848 1395.18 617.049 1399.58 635.062L1427.05 747.474C1431.45 765.488 1425.94 784.579 1412.58 797.555Z"
      fill="currentcolor" class="secondary-tint-10"/>
    <path d="M2112.94 -53.1288L1580.19 464.323C1494.81 547.246 1372.3 578.493 1258.79 546.302L550.467 345.41C436.952 313.219 349.701 222.467 321.56 107.362L145.992 -610.966C117.856 -726.081 153.119 -848.073 238.498 -930.996L771.249 -1448.45C856.628 -1531.37 979.133 -1562.62 1092.65 -1530.43L1800.97 -1329.54C1914.48 -1297.34 2001.74 -1206.59 2029.88 -1091.49L2205.43 -373.155C2233.56 -258.041 2198.3 -136.048 2112.94 -53.1288Z"
      fill="currentcolor" class="theme-tint-15"/>
</svg>
