<svg width="768" height="2048" viewBox="0 0 768 2048" fill="none" xmlns="http://www.w3.org/2000/svg">
<rect x="-11" width="779" height="1920" fill="currentcolor" class="theme-tint-15"/>
<path fill-rule="evenodd" clip-rule="evenodd" d="M240.359 1833.2L-10.8584 1759.01V1919.71H768V1725L653.827 1839.39C603.11 1890.21 528.756 1910.02 458.756 1891.38L240.359 1833.2Z" fill="white"/>
<path d="M-169.566 -93.452C-155.703 -145.189 -115.291 -185.601 -63.5542 -199.464L372.719 -316.363C424.457 -330.226 479.66 -315.434 517.534 -277.56L836.908 41.8146C874.782 79.6889 889.574 134.892 875.711 186.629L758.812 622.903C744.949 674.64 704.538 715.051 652.8 728.914L216.527 845.813C164.79 859.676 109.587 844.885 71.7124 807.011L-247.662 487.636C-285.536 449.762 -300.328 394.559 -286.465 342.822L-169.566 -93.452Z" fill="white"/>
<path d="M980.21 340.773C1021.06 344.823 1056.64 370.357 1073.56 407.758L1235.29 765.33C1252.21 802.731 1247.89 846.315 1223.96 879.666L995.159 1198.52C971.227 1231.87 931.322 1249.92 890.473 1245.87L499.939 1207.15C459.091 1203.1 423.506 1177.57 406.589 1140.16L244.854 782.592C227.938 745.192 232.259 701.607 256.19 668.257L484.99 349.404C508.921 316.053 548.827 298.003 589.675 302.053L980.21 340.773Z" stroke="url(#bg-top-multi-8-tablet-a)" stroke-width="2.66317"/>
<path d="M572.085 290.794C601.447 261.432 644.243 249.965 684.352 260.712L1063.43 362.286C1103.54 373.033 1134.87 404.362 1145.61 444.471L1247.19 823.548C1257.93 863.657 1246.47 906.453 1217.11 935.815L939.602 1213.32C910.24 1242.68 867.444 1254.15 827.335 1243.4L448.258 1141.83C408.149 1131.08 376.82 1099.75 366.073 1059.64L264.5 680.565C253.752 640.456 265.219 597.66 294.582 568.298L572.085 290.794Z" fill="url(#bg-top-multi-8-tablet-b)"/>
<path d="M104.187 1233.99C108.346 1218.47 120.47 1206.35 135.991 1202.19L252.355 1171.01C267.876 1166.85 284.437 1171.29 295.8 1182.65L380.984 1267.83C392.347 1279.2 396.784 1295.76 392.625 1311.28L361.446 1427.64C357.287 1443.16 345.163 1455.29 329.642 1459.45L213.278 1490.63C197.756 1494.78 181.195 1490.35 169.833 1478.98L84.6485 1393.8C73.2862 1382.44 68.8487 1365.88 73.0076 1350.36L104.187 1233.99Z" fill="currentcolor" class="theme-tint-10"/>
<path d="M426.017 1372.13C428.395 1363.26 435.328 1356.32 444.204 1353.95L513.656 1335.34C522.531 1332.96 532.002 1335.5 538.499 1341.99L589.341 1392.83C595.839 1399.33 598.377 1408.8 595.998 1417.68L577.389 1487.13C575.01 1496.01 568.078 1502.94 559.202 1505.32L489.75 1523.93C480.874 1526.3 471.404 1523.77 464.907 1517.27L414.064 1466.43C407.567 1459.93 405.029 1450.46 407.408 1441.58L426.017 1372.13Z" stroke="currentcolor" class="theme-shade-5" stroke-width="2.24885"/>
<path d="M-258.238 1601.64C-251.062 1574.86 -230.142 1553.94 -203.36 1546.76L-2.56705 1492.96C24.2155 1485.78 52.7922 1493.44 72.3984 1513.05L219.389 1660.04C238.995 1679.64 246.652 1708.22 239.476 1735L185.674 1935.8C178.497 1962.58 157.578 1983.5 130.795 1990.67L-69.9977 2044.48C-96.7803 2051.65 -125.357 2044 -144.963 2024.39L-291.954 1877.4C-311.56 1857.79 -319.217 1829.22 -312.041 1802.43L-258.238 1601.64Z" fill="currentcolor" class="theme-shade-5"/>
<defs>
    <linearGradient id="bg-top-multi-8-tablet-a" x1="523.025" y1="294.079" x2="957.113" y2="1253.78" gradientUnits="userSpaceOnUse">
        <stop stop-color="currentcolor" class="theme-tint-5"/>
        <stop offset="1" stop-color="currentcolor" class="theme-shade-5"/>
    </linearGradient>
    <linearGradient id="bg-top-multi-8-tablet-b" x1="247.106" y1="615.733" x2="1264.53" y2="888.35" gradientUnits="userSpaceOnUse">
        <stop stop-color="currentcolor" class="theme-tint-5"/>
        <stop offset="1" stop-color="currentcolor" class="theme-shade-5"/>
    </linearGradient>
</defs>
</svg>
