<svg width="1440" height="421" viewBox="0 0 1440 421" fill="none" xmlns="http://www.w3.org/2000/svg">
  <path d="M192.586 139.304L155.625 307.695C149.701 334.681 129.974 356.41 103.87 364.702L-59.0199 416.438C-85.124 424.73 -113.636 418.32 -133.816 399.628L-259.742 282.976C-279.922 264.282 -288.704 236.143 -282.78 209.157L-245.82 40.7655C-239.896 13.7797 -220.169 -7.9489 -194.065 -16.2408L-31.1749 -67.9773C-5.07078 -76.2691 23.4408 -69.8587 43.6208 -51.1674L169.545 65.4878C189.725 84.1818 198.507 112.321 192.586 139.304Z"
   fill="currentcolor" class="theme-tint-15" />
  <path d="M358.36 240.437L357.68 241.171L311.429 198.324C304.279 191.702 294.182 189.433 284.939 192.369L284.636 191.416L284.939 192.369L225.11 211.372C215.867 214.308 208.875 222.004 206.775 231.571L193.2 293.42C191.099 302.988 194.214 312.962 201.364 319.586L247.616 362.432C254.766 369.054 264.863 371.322 274.106 368.386L333.935 349.384C343.179 346.448 350.17 338.751 352.27 329.184L365.846 267.335C367.945 257.769 364.831 247.795 357.68 241.171L358.36 240.437Z"
   stroke="currentcolor" class="theme-tint-10" stroke-width="2" />
  <path d="M1933.49 -965.272L1761.63 -182.278C1734.09 -56.7986 1642.36 44.2357 1520.98 82.7915L763.569 323.358C642.189 361.914 509.615 332.107 415.781 245.195L-169.757 -297.221C-263.592 -384.145 -304.427 -514.987 -276.881 -640.466L-105.02 -1423.46C-77.4749 -1548.94 14.2525 -1649.97 135.632 -1688.53L893.044 -1929.1C1014.42 -1967.65 1147 -1937.84 1240.83 -1850.93L1826.36 -1308.5C1920.19 -1221.58 1961.03 -1090.74 1933.49 -965.272Z"
   fill="currentcolor" class="theme-tint-15" />
</svg>
