<svg width="1440" height="1099" viewBox="0 0 1440 1099" fill="none" xmlns="http://www.w3.org/2000/svg">
    <path opacity="0.5"
          d="M256.705 -179.445L257.003 -180.4L256.705 -179.445L18.8054 -253.489C-18.9768 -265.244 -60.2771 -255.99 -89.534 -229.201L-273.733 -60.5452C-302.99 -33.756 -315.754 6.48515 -307.226 45.0283L-253.518 287.724C-244.99 326.267 -216.464 357.254 -178.681 369.012L59.2209 443.051C97.0031 454.807 138.303 445.553 167.56 418.763L351.76 250.107C381.016 223.318 393.78 183.077 385.252 144.534L331.545 -98.1619C323.015 -136.7 294.488 -167.686 256.705 -179.445Z"
          stroke="url(#bg-top-multi-5-laptop-a)" stroke-width="2"/>
    <path d="M1600.39 246.658L1257.95 573.244C1203.07 625.581 1124.84 644.777 1052.7 623.607L602.576 491.496C530.44 470.326 475.377 411.999 458.117 338.499L350.433 -120.189C333.176 -193.695 356.352 -271.215 411.232 -323.551L753.67 -650.137C808.549 -702.473 886.782 -721.669 958.918 -700.5L1409.04 -568.388C1481.18 -547.219 1536.24 -488.891 1553.5 -415.391L1661.18 43.2984C1678.43 116.805 1655.26 194.325 1600.39 246.658Z"
          fill="url(#bg-top-multi-5-laptop-b)"/>
    <path d="M358.706 916.919L199.695 1070.29C174.212 1094.87 137.738 1104.04 104.004 1094.35L-106.492 1033.86C-140.226 1024.17 -166.087 997.08 -174.339 962.81L-225.824 748.949C-234.074 714.677 -223.459 678.424 -197.975 653.845L-38.9643 500.469C-13.4809 475.89 22.9927 466.722 56.7265 476.415L267.223 536.905C300.957 546.598 326.818 573.684 335.07 607.953L386.55 821.816C394.8 856.088 384.185 892.341 358.706 916.919Z"
          fill="currentcolor" class="theme"/>
    <path opacity="0.35"
          d="M449.172 367.273L465.432 451.102C468.037 464.536 463.248 478.365 452.868 487.381L388.093 543.643C377.712 552.66 363.318 555.492 350.333 551.075L269.299 523.508C256.313 519.09 246.709 508.093 244.103 494.659L227.843 410.829C225.238 397.395 230.026 383.567 240.407 374.55L305.182 318.288C315.563 309.272 329.957 306.44 342.942 310.856L423.975 338.425C436.961 342.843 446.566 353.84 449.172 367.273Z"
          fill="currentcolor" class="theme-tint-15"/>
    <defs>
        <linearGradient id="bg-top-multi-5-laptop-a" x1="118.99" y1="540.147" x2="265.831" y2="94.7816"
                        gradientUnits="userSpaceOnUse">
            <stop stop-color="currentcolor" class="theme-shade-15"/>
            <stop offset="1" stop-color="currentcolor" class="theme-tint-15"/>
        </linearGradient>
        <linearGradient id="bg-top-multi-5-laptop-b" x1="885.814" y1="0.248073" x2="655.839" y2="532.631"
                        gradientUnits="userSpaceOnUse">
            <stop stop-color="currentcolor" class="theme-tint-5"/>
            <stop offset="1" stop-color="currentcolor" class="theme-tint-15"/>
        </linearGradient>
    </defs>
</svg>
