<svg width="360" height="346" viewBox="0 0 360 346" fill="none" xmlns="http://www.w3.org/2000/svg">
    <path d="M383.219 163.948L234.133 308.752C210.241 331.958 175.959 340.702 144.193 331.693L-54.0258 275.475C-85.792 266.467 -110.209 241.071 -118.084 208.86L-167.215 7.84122C-175.088 -24.3727 -165.221 -58.5114 -141.328 -81.7167L7.75818 -226.521C31.6509 -249.727 65.9329 -258.471 97.6991 -249.463L295.917 -193.245C327.684 -184.236 352.1 -158.84 359.975 -126.629L409.102 74.3907C416.976 106.605 407.108 140.743 383.219 163.948Z"
          fill="url(#bg-top-multi-2-mobile-a)"/>
    <path d="M455.179 305.443L420.545 339.082C414.995 344.473 407.031 346.505 399.651 344.412L353.604 331.352C346.225 329.259 340.552 323.36 338.723 315.877L327.309 269.179C325.48 261.695 327.773 253.765 333.323 248.374L367.957 214.735C373.507 209.344 381.471 207.313 388.851 209.405L434.898 222.465C442.278 224.558 447.95 230.458 449.779 237.941L461.192 284.639C463.021 292.122 460.728 300.053 455.179 305.443Z"
          fill="currentcolor" class="theme-tint-5"/>
    <defs>
        <linearGradient id="bg-top-multi-2-mobile-a" x1="412.91" y1="44.8238" x2="-170.878" y2="32.326"
                        gradientUnits="userSpaceOnUse">
            <stop stop-color="currentcolor" class="theme-tint-5"/>
            <stop offset="1" stop-color="currentcolor" class="secondary"/>
        </linearGradient>
    </defs>
</svg>
