<svg width="1440" height="553" viewBox="0 0 1440 553" fill="none" xmlns="http://www.w3.org/2000/svg">
<g clip-path="url(#clip0_1410_316)">
<path d="M1193.76 42.8054L780.414 444.283C714.17 508.621 619.122 532.865 531.048 507.888L-18.5207 352.021C-106.594 327.045 -174.29 256.633 -196.124 167.326L-332.343 -390.007C-354.172 -479.321 -326.813 -573.972 -260.569 -638.31L152.778 -1039.79C219.022 -1104.13 314.07 -1128.37 402.143 -1103.39L951.712 -947.526C1039.79 -922.549 1107.48 -852.138 1129.32 -762.831L1265.52 -205.495C1287.35 -116.181 1259.99 -21.5296 1193.76 42.8054Z" fill="currentcolor" class="theme-tint-10"/>
<path opacity="0.5" d="M1393.27 435.109L1297.25 528.374C1281.86 543.321 1259.78 548.953 1239.32 543.15L1111.65 506.941C1091.19 501.139 1075.46 484.782 1070.39 464.036L1038.75 334.563C1033.68 313.815 1040.03 291.827 1055.42 276.881L1151.44 183.615C1166.83 168.669 1188.91 163.037 1209.37 168.839L1337.04 205.048C1357.5 210.85 1373.23 227.207 1378.3 247.954L1409.94 377.427C1415.01 398.175 1408.66 420.163 1393.27 435.109Z" fill="currentcolor" class="theme-tint-15"/>
<path d="M1297.7 -9.82502L1298.4 -9.10767C1286.94 2.0221 1282.21 18.3944 1285.98 33.8396L1310.07 132.381C1313.84 147.823 1325.55 159.994 1340.77 164.311L1437.94 191.87C1453.16 196.188 1469.6 191.998 1481.06 180.869L1554.14 109.884C1565.6 98.7552 1570.33 82.3828 1566.55 66.9376L1567.53 66.7002L1566.55 66.9376L1542.47 -31.6038C1542.47 -31.6038 1542.47 -31.6039 1542.47 -31.6039C1538.7 -47.0464 1526.99 -59.2175 1511.77 -63.5348L1512.04 -64.4969L1511.77 -63.5348L1414.6 -91.0934C1399.38 -95.4109 1382.94 -91.2214 1371.48 -80.0921L1298.4 -9.10768L1297.7 -9.82502Z" stroke="currentcolor" class="theme-shade-5" stroke-width="2"/>
</g>
<defs>
<clipPath id="clip0_1410_316">
<rect width="1440" height="553" fill="white"/>
</clipPath>
</defs>
</svg>
