<svg width="428" height="2078" viewBox="0 0 428 2078" fill="none" xmlns="http://www.w3.org/2000/svg">
<rect width="428" height="1864" fill="currentcolor" class="theme-tint-15"/>
<path d="M-214.617 -166.605C-200.754 -218.342 -160.342 -258.754 -108.605 -272.617L327.668 -389.516C379.405 -403.379 434.609 -388.587 472.483 -350.713L791.857 -31.3386C829.731 6.53572 844.523 61.7388 830.66 113.476L713.761 549.749C699.898 601.487 659.487 641.898 607.749 655.761L171.476 772.66C119.739 786.523 64.5357 771.732 26.6614 733.857L-292.713 414.483C-330.587 376.609 -345.379 321.406 -331.516 269.668L-214.617 -166.605Z" fill="white"/>
<path d="M669.209 316.773C710.058 320.823 745.642 346.357 762.559 383.758L924.294 741.33C941.211 778.731 936.889 822.315 912.958 855.666L684.159 1174.52C660.227 1207.87 620.321 1225.92 579.473 1221.87L188.939 1183.15C148.09 1179.1 112.506 1153.57 95.5891 1116.16L-66.1458 758.592C-83.0625 721.192 -78.7413 677.607 -54.8099 644.257L173.99 325.404C197.921 292.053 237.827 274.003 278.675 278.053L669.209 316.773Z" stroke="url(#paint0_linear_0_1)" stroke-width="2.66317"/>
<path d="M261.085 266.794C290.447 237.432 333.243 225.965 373.352 236.712L752.429 338.286C792.538 349.033 823.867 380.362 834.614 420.471L936.188 799.548C946.935 839.657 935.468 882.453 906.106 911.815L628.602 1189.32C599.24 1218.68 556.444 1230.15 516.335 1219.4L137.258 1117.83C97.149 1107.08 65.8201 1075.75 55.0728 1035.64L-46.5005 656.565C-57.2477 616.456 -45.7805 573.66 -16.4185 544.298L261.085 266.794Z" fill="url(#paint1_linear_0_1)"/>
<path d="M-78.8126 1275.99C-74.6538 1260.47 -62.5303 1248.35 -47.0092 1244.19L69.3553 1213.01C84.8765 1208.85 101.437 1213.29 112.8 1224.65L197.984 1309.83C209.347 1321.2 213.784 1337.76 209.625 1353.28L178.446 1469.64C174.287 1485.16 162.163 1497.29 146.642 1501.45L30.2775 1532.63C14.7564 1536.78 -1.80453 1532.35 -13.1668 1520.98L-98.3515 1435.8C-109.714 1424.44 -114.151 1407.88 -109.992 1392.36L-78.8126 1275.99Z" fill="currentcolor" class="theme-tint-10"/>
<path d="M264.715 1319.99C267.105 1311.07 274.071 1304.1 282.99 1301.72L352.442 1283.11C361.36 1280.72 370.876 1283.27 377.405 1289.79L428.248 1340.64C434.776 1347.17 437.326 1356.68 434.937 1365.6L416.327 1435.05C413.937 1443.97 406.971 1450.94 398.052 1453.33L328.601 1471.94C319.682 1474.33 310.166 1471.78 303.637 1465.25L252.795 1414.41C246.266 1407.88 243.716 1398.36 246.106 1389.44L264.715 1319.99Z" stroke="currentcolor" class="theme-shade-5" stroke-width="2"/>
<path d="M-27.2384 1631.64C-20.062 1604.86 0.857563 1583.94 27.6401 1576.76L228.433 1522.96C255.216 1515.78 283.792 1523.44 303.398 1543.05L450.389 1690.04C469.995 1709.64 477.652 1738.22 470.476 1765L416.674 1965.8C409.497 1992.58 388.578 2013.5 361.795 2020.67L161.002 2074.48C134.22 2081.65 105.643 2074 86.0368 2054.39L-60.9537 1907.4C-80.5599 1887.79 -88.217 1859.22 -81.0407 1832.43L-27.2384 1631.64Z" fill="currentcolor" class="theme-shade-5"/>
<defs>
<linearGradient id="paint0_linear_0_1" x1="212.025" y1="270.079" x2="646.112" y2="1229.78" gradientUnits="userSpaceOnUse">
<stop stop-color="currentcolor" class="theme-tint-5"/>
<stop offset="1" stop-color="currentcolor" class="theme-shade-5"/>
</linearGradient>
<linearGradient id="paint1_linear_0_1" x1="-63.8937" y1="591.733" x2="953.528" y2="864.35" gradientUnits="userSpaceOnUse">
<stop stop-color="currentcolor" class="theme-tint-5"/>
<stop offset="1" stop-color="currentcolor" class="theme-shade-5"/>
</linearGradient>
</defs>
</svg>
