<svg width="768" height="305" viewBox="0 0 768 305" fill="none" xmlns="http://www.w3.org/2000/svg">
  <path d="M53.6935 145.579L32.8047 240.748C29.4567 255.999 18.3077 268.279 3.55468 272.966L-88.5048 302.205C-103.258 306.891 -119.372 303.269 -130.777 292.705L-201.946 226.777C-213.351 216.212 -218.314 200.309 -214.966 185.057L-194.077 89.8887C-190.729 74.6373 -179.58 62.3571 -164.827 57.6709L-72.7677 28.4313C-58.0147 23.745 -41.901 27.3679 -30.496 37.9316L40.6718 103.861C52.0769 114.426 57.0401 130.329 53.6935 145.579Z"
   fill="currentcolor" class="theme-tint-15" />
  <path d="M99.6344 274.634L99.9371 275.587L99.6344 274.634L133.447 263.894C138.522 262.282 142.363 258.056 143.517 252.799L151.189 217.844C151.189 217.844 151.189 217.844 151.189 217.844C152.343 212.588 150.631 207.108 146.703 203.469L146.703 203.469L120.564 179.254C116.637 175.617 111.094 174.372 106.02 175.984L105.717 175.031L106.02 175.984L72.207 186.723C67.1324 188.335 63.2915 192.562 62.1376 197.818L54.4652 232.773C53.3111 238.031 55.0228 243.511 58.9504 247.149L85.0904 271.364C85.0904 271.364 85.0904 271.364 85.0904 271.364C89.0169 275 94.5606 276.245 99.6344 274.634Z"
   stroke="currentcolor" class="theme-tint-10" stroke-width="2" />
  <path d="M1037.59 -478.687L940.462 -36.1673C924.894 34.7492 873.053 91.8501 804.454 113.64L376.392 249.6C307.793 271.39 232.867 254.544 179.835 205.425L-151.09 -101.129C-204.122 -150.255 -227.2 -224.202 -211.632 -295.119L-114.503 -737.638C-98.935 -808.555 -47.0941 -865.655 21.5053 -887.446L449.567 -1023.41C518.166 -1045.2 593.092 -1028.35 646.124 -979.23L977.043 -672.67C1030.07 -623.543 1053.15 -549.596 1037.59 -478.687Z"
   fill="currentcolor" class="theme-tint-15" />
</svg>
