<svg width="1440" height="542" viewBox="0 0 1440 542" fill="none" xmlns="http://www.w3.org/2000/svg">
    <path d="M1193.76 38.8054L780.414 440.283C714.17 504.621 619.122 528.865 531.048 503.888L-18.5207 348.021C-106.594 323.045 -174.29 252.633 -196.124 163.326L-332.343 -394.007C-354.172 -483.321 -326.813 -577.972 -260.569 -642.31L152.778 -1043.79C219.022 -1108.13 314.07 -1132.37 402.143 -1107.39L951.712 -951.526C1039.79 -926.549 1107.48 -856.138 1129.32 -766.831L1265.52 -209.495C1287.35 -120.181 1259.99 -25.5296 1193.76 38.8054Z"
          fill="url(#bg-top-multi-2-laptop-a)"/>
    <path d="M1393.27 431.109L1297.25 524.374C1281.86 539.321 1259.78 544.953 1239.32 539.15L1111.65 502.941C1091.19 497.139 1075.46 480.782 1070.39 460.036L1038.75 330.563C1033.68 309.815 1040.03 287.827 1055.42 272.881L1151.44 179.615C1166.83 164.669 1188.91 159.037 1209.37 164.839L1337.04 201.048C1357.5 206.85 1373.23 223.207 1378.3 243.954L1409.94 373.427C1415.01 394.175 1408.66 416.163 1393.27 431.109Z"
          fill="currentcolor" class="theme-tint-10"/>
    <path d="M1297.7 -13.825L1298.4 -13.1077C1286.94 -1.9779 1282.21 14.3944 1285.98 29.8396L1310.07 128.381C1313.84 143.823 1325.55 155.994 1340.77 160.311L1437.94 187.87C1453.16 192.188 1469.6 187.998 1481.06 176.869L1554.14 105.884C1565.6 94.7552 1570.33 78.3828 1566.55 62.9376L1567.53 62.7002L1566.55 62.9376L1542.47 -35.6038C1542.47 -35.6038 1542.47 -35.6039 1542.47 -35.6039C1538.7 -51.0464 1526.99 -63.2175 1511.77 -67.5348L1512.04 -68.4969L1511.77 -67.5348L1414.6 -95.0934C1399.38 -99.4109 1382.94 -95.2214 1371.48 -84.0921L1298.4 -13.1077L1297.7 -13.825Z"
          stroke="currentcolor" class="secondary" stroke-width="2"/>
    <defs>
        <linearGradient id="bg-top-multi-2-laptop-a" x1="1276.08" y1="-291.471" x2="-342.498" y2="-326.121"
                        gradientUnits="userSpaceOnUse">
            <stop stop-color="currentcolor" class="theme-tint-5"/>
            <stop offset="1" stop-color="currentcolor" class="secondary"/>
        </linearGradient>
    </defs>
</svg>
