<svg width="360" height="474" viewBox="0 0 360 474" fill="none" xmlns="http://www.w3.org/2000/svg">
  <path d="M732.589 -105.016L393.78 224.064C339.482 276.8 261.573 296.672 189.382 276.199L-261.084 148.44C-333.275 127.967 -388.764 70.2529 -406.661 -2.94954L-518.315 -459.78C-536.208 -532.988 -513.783 -610.571 -459.485 -663.307L-120.675 -992.387C-66.3771 -1045.12 11.5314 -1064.99 83.7224 -1044.52L534.189 -916.763C606.38 -896.29 661.869 -838.576 679.765 -765.373L791.41 -308.541C809.303 -235.332 786.878 -157.749 732.589 -105.016Z"
   fill="url(#bg-top-multi-4-light-mobile)" />
  <path d="M44.8317 374.537L-3.98269 421.949C-11.8058 429.547 -23.0305 432.41 -33.4315 429.461L-98.3331 411.053C-108.734 408.104 -116.729 399.789 -119.307 389.242L-135.394 323.423C-137.972 312.876 -134.741 301.698 -126.918 294.1L-78.1035 246.687C-70.2804 239.089 -59.0556 236.226 -48.6546 239.176L16.2469 257.583C26.648 260.533 34.6426 268.848 37.2211 279.395L53.3065 345.213C55.8844 355.761 52.6534 366.939 44.8317 374.537Z"
   fill="currentcolor" class="theme-tint-10" />
  <path d="M447.114 432.519L411.75 466.867C406.083 472.371 397.951 474.445 390.416 472.308L343.398 458.973C335.863 456.836 330.071 450.812 328.203 443.172L316.549 395.49C314.682 387.849 317.023 379.751 322.69 374.247L358.053 339.899C363.721 334.394 371.853 332.32 379.388 334.457L426.405 347.792C433.94 349.929 439.732 355.953 441.6 363.593L453.253 411.276C455.121 418.917 452.78 427.015 447.114 432.519Z"
   fill="currentcolor" class="secondary-tint-10" />
  <defs>
    <linearGradient id="bg-top-multi-4-light-mobile" x1="116.01%" y1="78.94%" x2="-16.01%" y2="21.06%" gradientUnits="userSpaceOnUse">
      <stop offset="0.134" stop-color="currentcolor" class="theme" />
      <stop offset="0.866" stop-color="currentcolor" class="theme-tint-15" />
    </linearGradient>
  </defs>
</svg>
