<svg width="1440" height="1345" viewBox="0 0 1440 1345" fill="none" xmlns="http://www.w3.org/2000/svg">
<g clip-path="url(#clip0_711_75)">
<path opacity="0.5" d="M-89.1963 -228.832L-90.2093 -229.939L-89.1964 -228.832L-273.396 -60.1767C-302.521 -33.5074 -315.227 6.55232 -306.738 44.92L-253.03 287.616C-244.541 325.983 -216.144 356.829 -178.532 368.535L59.3695 442.573C96.9813 454.276 138.097 445.064 167.223 418.394L351.422 249.738C380.548 223.069 393.253 183.009 384.764 144.642L331.056 -98.0541C322.565 -136.416 294.169 -167.262 256.557 -178.968L18.6568 -253.012C-18.955 -264.714 -60.0703 -255.502 -89.1963 -228.832Z" stroke="currentcolor" stroke-width="3" class="theme"/>
<path d="M1600.39 246.658L1257.95 573.244C1203.07 625.581 1124.84 644.777 1052.7 623.607L602.576 491.496C530.44 470.326 475.377 411.999 458.117 338.499L350.433 -120.189C333.176 -193.695 356.352 -271.215 411.232 -323.551L753.67 -650.137C808.549 -702.473 886.782 -721.669 958.918 -700.5L1409.04 -568.388C1481.18 -547.219 1536.24 -488.891 1553.5 -415.391L1661.18 43.2984C1678.43 116.805 1655.26 194.325 1600.39 246.658Z" fill="currentcolor" class="theme-tint-15"/>
<path d="M358.706 916.918L199.695 1070.29C174.212 1094.87 137.738 1104.04 104.004 1094.35L-106.492 1033.86C-140.226 1024.16 -166.087 997.079 -174.339 962.81L-225.824 748.948C-234.074 714.676 -223.459 678.423 -197.975 653.845L-38.9643 500.469C-13.4809 475.89 22.9927 466.721 56.7265 476.414L267.223 536.905C300.957 546.598 326.818 573.684 335.07 607.953L386.55 821.816C394.8 856.088 384.185 892.341 358.706 916.918Z" fill="url(#bg-top-multi-12)"/>
<path opacity="0.35" d="M449.172 367.273L465.432 451.102C468.037 464.536 463.248 478.365 452.868 487.381L388.093 543.643C377.712 552.66 363.318 555.492 350.333 551.075L269.299 523.508C256.313 519.09 246.709 508.093 244.103 494.659L227.843 410.829C225.238 397.395 230.026 383.567 240.407 374.55L305.182 318.288C315.563 309.272 329.957 306.44 342.942 310.856L423.975 338.425C436.961 342.843 446.566 353.84 449.172 367.273Z" fill="currentcolor" class="theme-tint-5"/>
</g>
<defs>
<linearGradient id="bg-top-multi-12" x1="390.693" y1="790.402" x2="-229.81" y2="774.963" gradientUnits="userSpaceOnUse">
<stop stop-color="currentcolor" class="theme-tint-5"/>
<stop offset="1" stop-color="currentcolor" class="theme-shade-5"/>
</linearGradient>
<clipPath id="clip0_711_75">
<rect width="1440" height="1345" fill="white"/>
</clipPath>
</defs>
</svg>
