<svg width="768" height="373" viewBox="0 0 768 373" fill="none" xmlns="http://www.w3.org/2000/svg">
    <path d="M739.469 65.0225L486.985 310.256C446.522 349.555 388.464 364.364 334.666 349.108L-1.02552 253.9C-54.823 238.644 -96.1737 195.634 -109.51 141.083L-192.717 -199.351C-206.051 -253.906 -189.339 -311.722 -148.875 -351.021L103.608 -596.254C144.072 -635.554 202.13 -650.363 255.927 -635.106L591.619 -539.898C645.417 -524.642 686.767 -481.633 700.104 -427.082L783.303 -86.6461C796.637 -32.0904 779.925 25.725 739.469 65.0225Z"
          fill="url(#bg-top-multi-2-tablet)"/>
    <path d="M861.336 304.652L802.682 361.621C793.282 370.751 779.795 374.191 767.297 370.647L689.314 348.53C676.816 344.985 667.21 334.994 664.112 322.321L644.783 243.236C641.685 230.563 645.567 217.132 654.967 208.002L713.621 151.033C723.021 141.904 736.508 138.463 749.006 142.007L826.989 164.125C839.487 167.669 849.093 177.66 852.191 190.333L871.519 269.418C874.616 282.092 870.734 295.523 861.336 304.652Z"
          fill="currentcolor" class="theme-tint-5"/>
    <defs>
        <linearGradient id="bg-top-multi-2-tablet" x1="789.752" y1="-136.719" x2="-198.92" y2="-157.885"
                        gradientUnits="userSpaceOnUse">
            <stop stop-color="currentcolor" class="theme-tint-5"/>
            <stop offset="1" stop-color="currentcolor" class="secondary"/>
        </linearGradient>
    </defs>
</svg>
