<svg width="768" height="629" viewBox="0 0 768 629" fill="none" xmlns="http://www.w3.org/2000/svg">
    <path d="M562.473 -79.8615C599.207 -75.4283 630.786 -51.7343 645.314 -17.705L759.522 249.812C774.05 283.841 769.32 323.036 747.114 352.633L572.542 585.299C550.335 614.895 514.026 630.396 477.292 625.963L188.511 591.112C151.777 586.679 120.198 562.985 105.67 528.955L-8.53842 261.438C-23.0663 227.409 -18.3361 188.214 3.87029 158.618L178.442 -74.0483C200.649 -103.645 236.958 -119.146 273.692 -114.712L562.473 -79.8615Z"
          stroke="currentcolor" class="theme-shade-5" stroke-width="3"/>
    <path d="M487.694 -243.111C521.302 -248.131 555.291 -236.836 579.211 -212.701L851.65 62.1898C879.944 90.7385 889.788 132.769 877.113 170.912L774.005 481.203C761.33 519.346 728.289 547.126 688.536 553.063L305.757 610.229C272.148 615.248 238.16 603.954 214.239 579.818L-58.1995 304.927C-86.4936 276.379 -96.337 234.349 -83.6621 196.205L19.4456 -114.086C32.1205 -152.229 65.1613 -180.009 104.915 -185.946L487.694 -243.111Z"
          fill="url(#bg-top-multi-7-tablet)"/>
    <defs>
        <radialGradient id="bg-top-multi-7-tablet" cx="0" cy="0" r="1" gradientUnits="userSpaceOnUse"
                        gradientTransform="translate(567.991 301.524) rotate(134.91) scale(447.166 312.967)">
            <stop stop-color="currentcolor" class="theme-shade-10"/>
            <stop offset="0.912806" stop-color="currentcolor" class="theme-shade-15"/>
        </radialGradient>
    </defs>
</svg>
