<svg width="1440" height="974" viewBox="0 0 1440 974" fill="none" xmlns="http://www.w3.org/2000/svg">
    <g clip-path="url(#bg-top-multi-3-laptop)">
        <path d="M2250.53 -72.7275L1718.49 444.038C1633.22 526.852 1510.88 558.057 1397.51 525.909L690.131 325.283C576.766 293.134 489.63 202.503 461.527 87.5511L286.192 -629.825C258.094 -744.787 293.309 -866.618 378.576 -949.431L910.62 -1466.2C995.886 -1549.01 1118.23 -1580.22 1231.59 -1548.07L1938.98 -1347.44C2052.34 -1315.29 2139.48 -1224.66 2167.58 -1109.71L2342.9 -392.33C2371 -277.368 2335.78 -155.537 2250.53 -72.7275Z"
              fill="currentcolor" class="theme-tint-10"/>
        <path d="M1363.09 785.006L1262.45 882.755C1246.32 898.419 1223.18 904.322 1201.74 898.241L1067.93 860.292C1046.49 854.211 1030.01 837.068 1024.69 815.324L991.528 679.629C986.213 657.883 992.874 634.839 1009 619.174L1109.64 521.426C1125.77 505.761 1148.91 499.858 1170.35 505.939L1304.16 543.889C1325.6 549.97 1342.08 567.113 1347.4 588.857L1380.56 724.552C1385.88 746.298 1379.22 769.343 1363.09 785.006Z"
              fill="currentcolor" class="theme-tint-15"/>
        <path d="M641.275 496.52L641.04 497.35L641.275 496.52L695.914 512.016C704.37 514.414 713.502 512.088 719.869 505.903L760.964 465.988C767.331 459.804 769.959 450.707 767.862 442.126L768.631 441.938L767.862 442.126L754.32 386.715C752.223 378.136 745.721 371.376 737.266 368.978L737.501 368.148L737.266 368.978L682.627 353.482C674.171 351.084 665.039 353.41 658.672 359.594L617.576 399.509L617.017 398.934L617.576 399.509C611.209 405.694 608.58 414.791 610.678 423.372L624.221 478.782C626.318 487.361 632.819 494.122 641.275 496.52Z"
              stroke="currentcolor" class="theme-tint-10" stroke-width="1.72604"/>
    </g>
    <defs>
        <clipPath id="bg-top-multi-3-laptop">
            <rect width="1440" height="973.487" fill="white"/>
        </clipPath>
    </defs>
</svg>
