<svg width="651" height="1038" viewBox="0 0 651 1038" fill="none" xmlns="http://www.w3.org/2000/svg">
    <g clip-path="url(#bg-top-multi-3-tablet)">
        <path d="M778.489 815.422L639.492 950.427C617.217 972.062 585.255 980.215 555.638 971.816L370.834 919.403C341.218 911.004 318.454 887.326 311.111 857.295L265.305 669.88C257.964 639.846 267.165 608.018 289.44 586.383L428.437 451.378C450.713 429.743 482.675 421.59 512.291 429.989L697.095 482.403C726.712 490.802 749.476 514.479 756.818 544.51L802.62 731.926C809.961 761.96 800.761 793.788 778.489 815.422Z"
              fill="currentcolor" class="theme-tint-15"/>
    </g>
    <path d="M1053.62 78.1381L769.867 353.747C724.392 397.914 659.143 414.557 598.682 397.411L221.411 290.41C160.95 273.264 114.477 224.928 99.4887 163.62L5.97668 -218.981C-9.00887 -280.294 9.7729 -345.27 55.2481 -389.437L339.005 -665.046C384.48 -709.213 449.73 -725.856 510.191 -708.71L887.462 -601.709C947.922 -584.563 994.395 -536.227 1009.38 -474.919L1102.89 -92.3164C1117.87 -31.0034 1099.09 33.9731 1053.62 78.1381Z"
          fill="currentcolor" class="theme-tint-10"/>
    <defs>
        <clipPath id="bg-top-multi-3-tablet">
            <rect width="491" height="712" fill="white" transform="translate(160 326)"/>
        </clipPath>
    </defs>
</svg>
