<svg width="360" height="556" viewBox="0 0 360 556" fill="none" xmlns="http://www.w3.org/2000/svg">
    <path opacity="0.35"
          d="M156.265 429.886L167.249 486.511C169.008 495.585 165.774 504.926 158.762 511.016L115.008 549.019C107.997 555.11 98.2738 557.022 89.5027 554.039L34.767 535.419C25.9954 532.434 19.5079 525.006 17.748 515.932L6.76481 459.308C5.00492 450.233 8.23963 440.893 15.2513 434.802L59.0049 396.799C66.0166 390.709 75.7395 388.796 84.5107 391.779L139.246 410.401C148.018 413.385 154.505 420.813 156.265 429.886Z"
          fill="currentcolor" class="theme-tint-15"/>
    <path opacity="0.5"
          d="M-13.0901 -23.4327L-12.946 -23.8956L-13.0901 -23.4327L-128.626 -59.3919C-146.969 -65.0995 -167.022 -60.6064 -181.226 -47.5996L-270.682 34.3075C-284.887 47.3142 -291.084 66.852 -286.943 85.5653L-260.861 203.43C-256.72 222.143 -242.87 237.188 -224.526 242.897L-108.989 278.853C-90.6454 284.561 -70.5933 280.068 -56.3886 267.061L33.0674 185.154C47.272 172.147 53.4691 152.61 49.3285 133.896L23.2457 16.0316C19.1043 -2.67912 5.25426 -17.7237 -13.0901 -23.4327Z"
          stroke="url(#bg-top-multi-5-mobile-a)"/>
    <path d="M639.469 183.489L473.165 342.095C446.513 367.512 408.519 376.835 373.486 366.553L154.885 302.394C119.852 292.113 93.1111 263.786 84.7287 228.091L32.4324 5.33107C24.0518 -30.367 35.3071 -68.0143 61.9592 -93.4313L228.263 -252.037C254.915 -277.454 292.909 -286.776 327.942 -276.495L546.543 -212.336C581.576 -202.055 608.317 -173.728 616.699 -138.033L668.991 84.7281C677.371 120.426 666.116 158.073 639.469 183.489Z"
          fill="url(#bg-top-multi-5-mobile-b)"/>
    <defs>
        <linearGradient id="bg-top-multi-5-mobile-a" x1="-79.9671" y1="326.021" x2="-8.65415" y2="109.731"
                        gradientUnits="userSpaceOnUse">
            <stop stop-color="currentcolor" class="theme-tint-5"/>
            <stop offset="1" stop-color="currentcolor" class="theme-tint-15"/>
        </linearGradient>
        <linearGradient id="bg-top-multi-5-mobile-b" x1="292.439" y1="63.8208" x2="180.752" y2="322.371"
                        gradientUnits="userSpaceOnUse">
            <stop stop-color="currentcolor" class="theme-tint-5"/>
            <stop offset="1" stop-color="currentcolor" class="theme-tint-15"/>
        </linearGradient>
    </defs>
</svg>
