<svg width="1440" height="1383" viewBox="0 0 1440 1383" fill="none" xmlns="http://www.w3.org/2000/svg">
<path d="M1664.46 758.384L1174.47 1281C1095.94 1364.75 979.309 1400.39 868.48 1374.49L176.916 1212.86C66.0877 1186.97 -22.0765 1103.46 -54.3831 993.818L-255.949 309.592C-288.25 199.942 -259.775 80.8058 -181.248 -2.94532L308.746 -525.563C387.273 -609.314 503.903 -644.947 614.732 -619.049L1306.3 -457.425C1417.12 -431.527 1505.29 -348.019 1537.59 -238.379L1739.15 445.852C1771.45 555.501 1742.97 674.638 1664.46 758.384Z" fill="url(#paint0_linear_0_1)"/>
<path d="M1647.92 399.426L1647.7 400.4C1671.8 406.032 1690.97 424.193 1698 448.042L1742.47 599.018C1749.5 622.87 1743.31 648.79 1726.22 667.012L1618.11 782.328C1601.02 800.55 1575.65 808.298 1551.55 802.666M1647.92 399.426L1551.55 802.666M1647.92 399.426L1647.7 400.4L1495.1 364.737C1471 359.105 1445.63 366.853 1428.54 385.075L1320.43 500.391C1303.34 518.614 1297.15 544.534 1304.17 568.387L1348.65 719.362C1355.68 743.211 1374.85 761.371 1398.95 767.003L1551.55 802.666M1647.92 399.426L1551.32 803.64L1551.55 802.666" stroke="url(#paint1_linear_0_1)" stroke-width="2"/>
<path d="M1011.77 609.722L966.194 658.334C958.889 666.124 948.041 669.439 937.732 667.03L873.405 651.996C863.096 649.587 854.895 641.82 851.89 631.621L833.141 567.977C830.137 557.778 832.785 546.696 840.09 538.906L885.667 490.293C892.972 482.503 903.82 479.189 914.129 481.598L978.456 496.631C988.765 499.04 996.966 506.808 999.971 517.006L1018.72 580.651C1021.72 590.851 1019.07 601.932 1011.77 609.722Z" fill="currentcolor" class="theme-tint-10"/>
<path d="M833.91 431.91L518.828 767.97C468.333 821.824 393.336 844.738 322.07 828.084L-122.628 724.155C-193.894 707.502 -250.587 653.803 -271.361 583.301L-400.974 143.322C-421.745 72.8138 -403.434 -3.79467 -352.939 -57.6493L-37.8571 -393.709C12.6384 -447.564 87.6352 -470.477 158.902 -453.823L603.599 -349.894C674.865 -333.241 731.558 -279.543 752.332 -209.04L881.936 230.942C902.707 301.45 884.396 378.058 833.91 431.91Z" fill="currentcolor" class="theme-shade-15"/>
<path d="M1183.53 2.39482L1184.47 2.11669L1183.53 2.3948L1154.48 -96.2322C1149.92 -111.693 1137.49 -123.464 1121.87 -127.115L1122.09 -128.089L1121.87 -127.115L1022.18 -150.412C1006.56 -154.063 990.112 -149.041 979.034 -137.226L908.405 -61.8948C897.327 -50.0799 893.312 -33.2746 897.867 -17.8113L926.922 80.8151C931.477 96.2756 943.907 108.047 959.53 111.698L1059.21 134.995C1074.84 138.646 1091.29 133.624 1102.36 121.809L1172.99 46.4777C1184.07 34.6634 1188.08 17.8581 1183.53 2.39482Z" stroke="url(#paint2_linear_0_1)" stroke-width="2"/>
<path d="M1538.77 12.722L1493.19 61.3342C1485.89 69.1245 1475.04 72.4389 1464.73 70.03L1400.41 54.9963C1390.1 52.5873 1381.9 44.8196 1378.89 34.6213L1360.14 -29.0232C1357.14 -39.2224 1359.79 -50.3041 1367.09 -58.0944L1412.67 -106.707C1419.97 -114.497 1430.82 -117.811 1441.13 -115.402L1505.46 -100.369C1515.77 -97.9596 1523.97 -90.192 1526.97 -79.9936L1545.72 -16.3487C1548.72 -6.14948 1546.07 4.93219 1538.77 12.722Z" fill="currentcolor" class="theme-tint-10"/>
<defs>
<linearGradient id="paint0_linear_0_1" x1="768.999" y1="206" x2="1018.5" y2="1223.5" gradientUnits="userSpaceOnUse">
<stop stop-color="currentcolor" class="theme-tint-15"/>
<stop offset="1" stop-color="currentcolor" class="theme-tint-15" stop-opacity="0"/>
</linearGradient>
<linearGradient id="paint1_linear_0_1" x1="1745.27" y1="576.138" x2="1301.3" y2="587.403" gradientUnits="userSpaceOnUse">
<stop stop-color="currentcolor" class="theme-tint-5"/>
<stop offset="1" stop-color="currentcolor" class="theme-shade-5"/>
</linearGradient>
<linearGradient id="paint2_linear_0_1" x1="1185.68" y1="-12.6496" x2="895.658" y2="-5.29074" gradientUnits="userSpaceOnUse">
<stop stop-color="currentcolor" class="theme-tint-5"/>
<stop offset="1" stop-color="currentcolor" class="theme-shade-5"/>
</linearGradient>
</defs>
</svg>
