<svg width="768" height="2167" viewBox="0 0 768 2167" fill="none" xmlns="http://www.w3.org/2000/svg">
<path d="M1450.75 1440.1L881.009 2047.78C789.702 2145.16 654.09 2186.59 525.223 2156.48L-278.895 1968.55C-407.761 1938.44 -510.274 1841.34 -547.839 1713.85L-782.21 918.267C-819.768 790.772 -786.659 652.246 -695.351 554.864L-125.609 -52.8112C-34.3012 -150.193 101.311 -191.626 230.177 -161.512L1034.29 26.4158C1163.16 56.5292 1265.67 153.628 1303.24 281.113L1537.59 1076.7C1575.15 1204.2 1542.04 1342.73 1450.75 1440.1Z" fill="url(#bg-top-multi-9-tablet-a)"/>
<path opacity="0.6" d="M534.078 436.188L307.429 677.928C271.106 716.667 217.158 733.15 165.893 721.17L-153.994 646.41C-205.258 634.431 -246.039 595.804 -260.983 545.089L-354.218 228.596C-369.159 177.877 -355.988 122.77 -319.664 84.0305L-93.015 -157.709C-56.6917 -196.449 -2.74385 -212.931 48.5206 -200.952L368.407 -126.192C419.672 -114.212 460.453 -75.5852 475.396 -24.8706L568.625 291.624C583.566 342.343 570.395 397.451 534.078 436.188Z" fill="white"/>
<path d="M720.386 -11.4822L720.614 -12.4558L720.386 -11.4822L639.323 -30.4272C626.684 -33.3808 613.376 -29.3181 604.413 -19.7588L546.978 41.5008C538.014 51.0606 534.766 64.6581 538.451 77.1689L562.078 157.372C565.764 169.88 575.82 179.403 588.459 182.357L669.522 201.302C682.161 204.255 695.468 200.193 704.431 190.633L761.867 129.374C770.829 119.814 774.077 106.217 770.392 93.7061L771.351 93.4235L770.392 93.7061L746.767 13.5027C743.081 0.994307 733.025 -8.52882 720.386 -11.4822Z" stroke="url(#bg-top-multi-9-tablet-b)" stroke-width="2"/>
<path d="M820.467 835.265L762.53 897.059C753.245 906.961 739.455 911.174 726.351 908.112L644.581 889.002C631.477 885.94 621.053 876.066 617.233 863.102L593.4 782.2C589.58 769.235 592.947 755.149 602.232 745.246L660.169 683.453C669.454 673.55 683.244 669.337 696.348 672.399L778.118 691.509C791.222 694.571 801.646 704.445 805.466 717.409L829.297 798.311C833.117 811.276 829.75 825.363 820.467 835.265Z" fill="currentcolor" class="theme-tint-10"/>
<path d="M936.176 319.691L876.16 383.703C866.542 393.961 852.257 398.325 838.682 395.153L753.977 375.357C740.402 372.185 729.603 361.957 725.646 348.528L700.958 264.721C697.001 251.291 700.489 236.698 710.107 226.44L770.124 162.428C779.742 152.17 794.027 147.806 807.602 150.978L892.307 170.774C905.882 173.946 916.68 184.174 920.638 197.604L945.324 281.411C949.281 294.841 945.793 309.433 936.176 319.691Z" fill="currentcolor" class="theme-tint-10"/>
<defs>
    <linearGradient id="bg-top-multi-9-tablet-a" x1="-57.0243" y1="-422.219" x2="699.66" y2="1980.92" gradientUnits="userSpaceOnUse">
        <stop stop-color="currentcolor" class="theme-tint-15"/>
        <stop offset="1" stop-color="currentcolor" class="theme-tint-15" stop-opacity="0"/>
    </linearGradient>
    <linearGradient id="bg-top-multi-9-tablet-b" x1="772.324" y1="81.4192" x2="536.475" y2="87.4034" gradientUnits="userSpaceOnUse">
        <stop stop-color="currentcolor" class="theme-tint-5"/>
        <stop offset="1" stop-color="currentcolor" class="theme-shade-5"/>
    </linearGradient>
</defs>
</svg>
