<svg width="1440" height="857" viewBox="0 0 1440 857" fill="none" xmlns="http://www.w3.org/2000/svg">
  <path d="M1692.86 -112.122L1259.23 309.061C1189.73 376.557 1090.02 401.991 997.624 375.789L421.081 212.271C328.685 186.069 257.666 112.201 234.76 18.5109L91.8555 -566.177C68.9546 -659.876 97.6568 -759.172 167.152 -826.668L600.788 -1247.85C670.283 -1315.35 769.996 -1340.78 862.392 -1314.58L1438.94 -1151.06C1531.33 -1124.86 1602.35 -1050.99 1625.26 -957.301L1768.15 -372.61C1791.05 -278.912 1762.35 -179.615 1692.86 -112.122Z"
   fill="url(#bg-top-multi-4-laptop)" />
  <path d="M1714.41 281.605L1714.68 280.645L1714.41 281.605L1489.14 217.717C1453.39 207.578 1414.8 217.418 1387.9 243.544L1218.47 408.105C1191.58 434.23 1180.47 472.664 1189.33 508.927L1245.16 737.371C1254.03 773.629 1281.51 802.212 1317.26 812.351L1542.53 876.239C1578.28 886.378 1616.87 876.538 1643.77 850.412L1813.19 685.851C1840.09 659.727 1851.2 621.293 1842.33 585.03L1843.31 584.793L1842.33 585.03L1786.5 356.585C1777.64 320.327 1750.16 291.744 1714.41 281.605Z"
   stroke="currentcolor" class="secondary-tint-5" stroke-width="2" />
  <path d="M198.884 121.603L82.2722 234.866C63.5839 253.017 36.7692 259.857 11.9224 252.81L-143.12 208.838C-167.967 201.791 -187.065 181.927 -193.224 156.732L-231.654 -0.500097C-237.812 -25.6971 -230.094 -52.3997 -211.405 -70.5504L-94.7936 -183.814C-76.1052 -201.964 -49.2905 -208.804 -24.4437 -201.758L130.598 -157.785C155.445 -150.739 174.543 -130.875 180.703 -105.68L219.129 51.5535C225.288 76.7505 217.569 103.453 198.884 121.603Z"
   fill="currentcolor" class="theme-tint-10" />
  <path d="M1122.95 595.941L1055.09 661.852C1044.22 672.415 1028.61 676.395 1014.15 672.294L923.932 646.705C909.472 642.605 898.359 631.046 894.774 616.384L872.411 524.886C868.827 510.223 873.319 494.684 884.194 484.122L952.054 418.211C962.929 407.648 978.533 403.668 992.992 407.769L1083.22 433.358C1097.67 437.458 1108.79 449.017 1112.37 463.679L1134.73 555.177C1138.32 569.84 1133.83 585.379 1122.95 595.941Z"
   fill="currentcolor" class="secondary-tint-10" />
  <defs>
    <linearGradient id="bg-top-multi-4-laptop" x1="1779.19" y1="-458.605" x2="81.1944" y2="-494.956" gradientUnits="userSpaceOnUse">
      <stop offset="0.107639" stop-color="currentcolor" class="theme-tint-10" />
      <stop offset="0.623264" stop-color="currentcolor" class="theme-shade-5" />
    </linearGradient>
  </defs>
</svg>
