<svg width="768" height="474" viewBox="0 0 768 474" fill="none" xmlns="http://www.w3.org/2000/svg">
  <path d="M913.696 -105.016L574.887 224.064C520.589 276.8 442.681 296.672 370.489 276.199L-79.9771 148.44C-152.168 127.967 -207.657 70.2529 -225.554 -2.94954L-337.208 -459.78C-355.101 -532.988 -332.675 -610.571 -278.377 -663.307L60.4321 -992.387C114.73 -1045.12 192.639 -1064.99 264.83 -1044.52L715.296 -916.763C787.487 -896.29 842.976 -838.576 860.873 -765.373L972.517 -308.541C990.411 -235.332 967.985 -157.749 913.696 -105.016Z"
   fill="currentcolor" class="theme-tint-15" />
  <path d="M635.279 214.066L634.582 213.349L635.279 214.066C623.945 225.074 619.265 241.267 622.999 256.543L646.826 354.03C650.56 369.304 662.136 381.342 677.193 385.612L773.322 412.875C788.38 417.146 804.637 413.002 815.97 401.994L888.271 331.769C899.603 320.762 904.283 304.569 900.549 289.292L901.52 289.055L900.549 289.292L876.724 191.805C872.99 176.532 861.414 164.494 846.357 160.224L846.63 159.262L846.357 160.224L750.228 132.96C735.17 128.69 718.913 132.833 707.58 143.841L635.279 214.066Z"
   stroke="currentcolor" class="secondary-tint-5" stroke-width="2" />
  <path d="M628.221 432.519L592.857 466.867C587.19 472.371 579.058 474.445 571.523 472.308L524.505 458.973C516.97 456.836 511.179 450.812 509.311 443.172L497.657 395.49C495.789 387.849 498.13 379.751 503.797 374.247L539.161 339.899C544.828 334.394 552.96 332.32 560.495 334.457L607.513 347.792C615.048 349.929 620.839 355.953 622.707 363.593L634.36 411.276C636.228 418.917 633.887 427.015 628.221 432.519Z"
   fill="currentcolor" class="secondary-tint-10" />
</svg>
