<svg width="1900" height="1359" viewBox="0 0 1900 1359" fill="none" xmlns="http://www.w3.org/2000/svg">
<path d="M2077.61 535.726L1432.07 1224.25C1328.62 1334.59 1174.96 1381.53 1028.95 1347.41L117.851 1134.48C-28.1607 1100.36 -144.312 990.343 -186.875 845.898L-452.427 -55.5361C-494.983 -199.994 -457.468 -356.95 -354.012 -467.288L291.53 -1155.81C394.985 -1266.15 548.639 -1313.09 694.651 -1278.97L1605.75 -1066.04C1751.76 -1031.92 1867.91 -921.905 1910.48 -777.459L2176.01 123.98C2218.56 268.438 2181.05 425.394 2077.61 535.726Z" fill="url(#paint0_linear_0_1)"/>
<path d="M1015.26 474.659L667.759 845.297C612.067 904.693 529.354 929.964 450.754 911.597L-39.7006 796.974C-118.3 778.607 -180.826 719.384 -203.738 641.627L-346.687 156.376C-369.595 78.6128 -349.401 -5.87837 -293.71 -65.2744L53.7926 -435.913C109.484 -495.309 192.198 -520.58 270.797 -502.213L761.252 -387.59C839.851 -369.223 902.377 -309.999 925.289 -232.243L1068.23 253.011C1091.14 330.774 1070.94 415.266 1015.26 474.659Z" fill="currentcolor" class="theme-shade-15"/>
<path d="M1905.69 467.724L1905.91 466.751L1905.69 467.724L1720.44 424.431C1691.11 417.576 1660.23 427.006 1639.44 449.182L1508.19 589.172C1487.4 611.348 1479.86 642.893 1488.41 671.922L1542.4 855.2C1550.95 884.225 1574.29 906.328 1603.63 913.183L1788.87 956.475C1818.2 963.33 1849.08 953.9 1869.87 931.724L2001.12 791.735C2021.91 769.559 2029.45 738.015 2020.9 708.986L1966.91 525.707C1958.36 496.682 1935.02 474.578 1905.69 467.724Z" stroke="url(#paint1_linear_0_1)" stroke-width="2"/>
<path d="M1133.65 722.041L1078.32 781.054C1069.45 790.511 1056.28 794.535 1043.77 791.61L965.678 773.36C953.164 770.436 943.208 761.006 939.56 748.626L916.8 671.364C913.152 658.982 916.368 645.53 925.235 636.073L980.564 577.059C989.431 567.602 1002.6 563.579 1015.12 566.503L1093.21 584.753C1105.72 587.678 1115.68 597.107 1119.32 609.488L1142.08 686.75C1145.73 699.132 1142.52 712.584 1133.65 722.041Z" fill="currentcolor" class="theme-tint-10"/>
<path d="M1267.35 -172.659L1267.58 -173.633L1267.35 -172.659L1146.34 -200.941C1127.3 -205.39 1107.25 -199.269 1093.75 -184.872L1008.01 -93.4222C994.512 -79.0243 989.619 -58.5447 995.17 -39.6997L1030.44 80.0289C1035.99 98.8708 1051.14 113.218 1070.18 117.667L1191.2 145.949C1210.24 150.399 1230.28 144.277 1243.78 129.88L1329.52 38.4305C1343.02 24.0334 1347.91 3.55376 1342.36 -15.2912L1343.31 -15.5695L1342.36 -15.2912L1307.09 -135.021C1307.09 -135.021 1307.09 -135.021 1307.09 -135.021C1301.54 -153.863 1286.39 -168.21 1267.35 -172.659Z" stroke="url(#paint2_linear_0_1)" stroke-width="2"/>
<path d="M2052.96 213.347L1964.07 308.152C1949.82 323.345 1928.67 329.809 1908.56 325.111L1783.11 295.792C1763 291.094 1747.01 275.945 1741.15 256.056L1704.59 131.934C1698.73 112.043 1703.89 90.4309 1718.14 75.238L1807.02 -19.5674C1821.27 -34.7602 1842.43 -41.2243 1862.53 -36.5262L1987.98 -7.20691C2008.09 -2.50882 2024.08 12.64 2029.94 32.5292L2066.51 156.652C2072.36 176.543 2067.2 198.155 2052.96 213.347Z" fill="currentcolor" class="theme-tint-10"/>
<defs>
<linearGradient id="paint0_linear_0_1" x1="897.89" y1="-192.013" x2="1226.59" y2="1148.49" gradientUnits="userSpaceOnUse">
<stop stop-color="currentcolor" class="theme-tint-15"/>
<stop offset="1" stop-color="currentcolor" class="theme-tint-15" stop-opacity="0"/>
</linearGradient>
<linearGradient id="paint1_linear_0_1" x1="2024.08" y1="681.271" x2="1485.13" y2="694.946" gradientUnits="userSpaceOnUse">
<stop stop-color="currentcolor" class="theme-tint-5"/>
<stop offset="1" stop-color="currentcolor" class="theme-shade-5"/>
</linearGradient>
<linearGradient id="paint2_linear_0_1" x1="1344.77" y1="-33.4941" x2="992.693" y2="-24.5607" gradientUnits="userSpaceOnUse">
<stop stop-color="currentcolor" class="theme-tint-5"/>
<stop offset="1" stop-color="currentcolor" class="theme-shade-5"/>
</linearGradient>
</defs>
</svg>
