<svg width="1900" height="576" viewBox="0 0 1900 576" fill="none" xmlns="http://www.w3.org/2000/svg">
    <path d="M1777.31 -123.873L1189.11 447.439C1094.84 538.993 959.584 573.493 834.254 537.95L52.2036 316.148C-73.1265 280.606 -169.46 180.409 -200.53 53.3227L-394.373 -739.775C-425.437 -866.872 -386.504 -1001.56 -292.237 -1093.12L295.966 -1664.43C390.232 -1755.98 525.488 -1790.48 650.818 -1754.94L1432.87 -1533.14C1558.2 -1497.6 1654.53 -1397.4 1685.6 -1270.31L1879.43 -477.211C1910.49 -350.114 1871.56 -215.424 1777.31 -123.873Z"
          fill="url(#bg-top-multi-2)"/>
    <path d="M1882.24 440.262L1764.88 554.258C1746.07 572.527 1719.08 579.41 1694.07 572.319L1538.03 528.061C1513.02 520.969 1493.8 500.977 1487.6 475.618L1448.92 317.368C1442.72 292.008 1450.49 265.132 1469.3 246.864L1586.66 132.867C1605.47 114.599 1632.46 107.715 1657.47 114.807L1813.52 159.064C1838.52 166.156 1857.75 186.149 1863.95 211.507L1902.62 369.759C1908.82 395.119 1901.05 421.994 1882.24 440.262Z"
          fill="currentcolor" class="theme-tint-10"/>
    <path d="M1739.82 -98.6622L1739.12 -99.3795L1739.82 -98.6622C1725.76 -85.004 1719.95 -64.9118 1724.58 -45.9566L1754.02 74.4875C1758.66 93.4398 1773.02 108.378 1791.71 113.677L1910.47 147.361C1929.16 152.66 1949.33 147.518 1963.39 133.86L2052.72 47.0977C2066.78 33.4402 2072.59 13.348 2067.95 -5.60727L2068.93 -5.84469L2067.95 -5.60729L2038.52 -126.052C2038.52 -126.052 2038.52 -126.052 2038.52 -126.052C2033.88 -145.004 2019.52 -159.943 2000.84 -165.242L2001.11 -166.204L2000.84 -165.242L1882.07 -198.926C1863.38 -204.225 1843.21 -199.083 1829.15 -185.425L1739.82 -98.6622Z"
          stroke="currentcolor" class="secondary" stroke-width="2"/>
    <defs>
        <linearGradient id="bg-top-multi-2" x1="1894.45" y1="-593.864" x2="-408.824" y2="-643.173"
                        gradientUnits="userSpaceOnUse">
            <stop stop-color="currentcolor" class="theme-tint-5"/>
            <stop offset="1" stop-color="currentcolor" class="secondary"/>
        </linearGradient>
    </defs>
</svg>
