<?xml version="1.0" encoding="UTF-8"?>
<svg width="34px" height="24px" viewBox="0 0 34 24" version="1.1" xmlns="http://www.w3.org/2000/svg" xmlns:xlink="http://www.w3.org/1999/xlink">
    <!-- Generator: sketchtool 55 (78076) - https://sketchapp.com -->
    <title>D5859599-3087-4B7A-A043-B9F193C9AA9B</title>
    <desc>Created with sketchtool.</desc>
    <g id="Customer-Homepage" stroke="none" stroke-width="1" fill="none" fill-rule="evenodd">
        <g id="Customer-Homepage_1920px" transform="translate(-1418.000000, -2119.000000)" fill="currentcolor">
            <g id="Group-3" transform="translate(210.000000, 2106.000000)">
                <g id="Group-12">
                    <g id="Stacked-Group-10">
                        <g id="Stacked-Group" transform="translate(1200.000000, 0.000000)">
                            <g id="icon/flattened/thicker/app/centered">
                                <path d="M38,28 L41,28 C41.5522847,28 42,28.4477153 42,29 C42,29.5522847 41.5522847,30 41,30 L38,30 L38,33 C38,33.5522847 37.5522847,34 37,34 C36.4477153,34 36,33.5522847 36,33 L36,30 L33,30 C32.4477153,30 32,29.5522847 32,29 C32,28.4477153 32.4477153,28 33,28 L36,28 L36,25 C36,24.4477153 36.4477153,24 37,24 C37.5522847,24 38,24.4477153 38,25 L38,28 Z M30,13 C34.418278,13 38,16.581722 38,21 C38,21.5522847 37.5522847,22 37,22 C36.4477153,22 36,21.5522847 36,21 C36,17.6862915 33.3137085,15 30,15 C27.4479169,15 25.2005454,16.6081027 24.3515921,18.9706224 C24.1028155,19.6629332 23.2168523,19.8586979 22.6995305,19.3356661 C21.8589919,18.4858499 20.7192835,18 19.5,18 C17.0792303,18 15.0943425,19.9155591 15.0032717,22.3264422 C14.9870887,22.754847 14.6996323,23.1252745 14.2886603,23.247318 C11.7647445,23.9968279 10,26.3262435 10,29 C10,32.3137085 12.6862915,35 16,35 L34,35 C34.5522847,35 35,35.4477153 35,36 C35,36.5522847 34.5522847,37 34,37 L16,37 C11.581722,37 8,33.418278 8,29 C8,25.6695321 10.0530097,22.7404959 13.06831,21.5542876 C13.5270724,18.4049493 16.2396272,16 19.5,16 C20.7806571,16 22.0035021,16.3728207 23.0418002,17.0486636 C24.4374561,14.5921241 27.0677645,13 30,13 Z" id="Combined-Shape"></path>
                            </g>
                        </g>
                    </g>
                </g>
            </g>
        </g>
    </g>
</svg>
