<svg width="64" height="64" viewBox="0 0 64 64" fill="none" xmlns="http://www.w3.org/2000/svg">
<path fill-rule="evenodd" clip-rule="evenodd" d="M39.2689 27.138C42.3532 27.138 44.911 24.5803 44.911 21.496C44.911 18.4116 42.3532 15.8539 39.2689 15.8539C36.1845 15.8539 33.6268 18.4116 33.6268 21.496C33.6268 24.5803 36.1845 27.138 39.2689 27.138ZM35.9589 42.635C27.3077 40.9047 20.8381 33.3067 20.8381 24.2042C20.8381 13.8227 29.2636 5.39722 39.645 5.39722C50.0264 5.39722 58.452 13.8227 58.452 24.2042C58.452 30.8242 55.0667 36.6167 49.876 40.002C49.8008 34.9617 49.0485 29.4701 38.8927 29.4701C28.8874 29.4701 28.0599 33.9085 27.9847 38.8736C30.8434 40.7543 33.5516 42.0331 35.9589 42.635ZM39.2689 42.9359C42.2028 42.8606 45.5128 42.0331 49.1989 40.3781C46.4155 42.0331 43.1055 42.9359 39.645 42.9359C39.4946 42.9359 39.4193 42.9359 39.2689 42.9359Z" fill="currentcolor" class="tint"/>
<path d="M39.2689 27.8905C35.7332 27.8905 32.8746 25.0319 32.8746 21.4962C32.8746 17.9605 35.7332 15.1018 39.2689 15.1018C42.8046 15.1018 45.6633 17.9605 45.6633 21.4962C45.6633 25.0319 42.8046 27.8905 39.2689 27.8905ZM39.2689 16.6064C36.5607 16.6064 34.3791 18.788 34.3791 21.4962C34.3791 24.2044 36.5607 26.386 39.2689 26.386C41.9771 26.386 44.1587 24.2044 44.1587 21.4962C44.1587 18.788 41.9771 16.6064 39.2689 16.6064Z" fill="currentcolor" class="shade"/>
<path d="M18.7317 48.6534C18.506 48.6534 18.3555 48.5782 18.2051 48.4277L15.5721 45.7948C15.2712 45.4939 15.2712 45.0425 15.5721 44.7416L21.2894 39.0243C21.5903 38.7234 22.0417 38.7234 22.3426 39.0243C22.6435 39.3252 22.6435 39.7765 22.3426 40.0775L17.1519 45.2682L18.7317 46.848L23.7719 41.8077C24.0729 41.5068 24.5242 41.5068 24.8251 41.8077C25.126 42.1086 25.126 42.56 24.8251 42.8609L19.2583 48.4277C19.1078 48.5782 18.9574 48.6534 18.7317 48.6534Z" fill="currentcolor" class="shade"/>
<path d="M17.1718 42.0174L0.149902 59.0393L4.93732 63.8267L21.9592 46.8048L17.1718 42.0174Z" fill="currentcolor" class="tint"/>
<path d="M4.8898 64C4.28798 64 3.76139 63.7743 3.31002 63.323L0.67705 60.69C0.225683 60.2386 0 59.6368 0 59.035C0 58.4332 0.225683 57.8313 0.67705 57.4552L15.5721 42.5601C16.4749 41.6574 17.9042 41.6574 18.7317 42.5601L21.3647 45.1931C22.2674 46.0958 22.2674 47.5251 21.3647 48.3526L6.54482 63.323C6.09345 63.7743 5.49163 64 4.8898 64ZM17.1519 43.3876C16.9262 43.3876 16.7758 43.4628 16.6253 43.6133L1.73024 58.5084C1.57978 58.6588 1.50456 58.8845 1.50456 59.035C1.50456 59.2607 1.57978 59.4111 1.73024 59.5616L4.36321 62.1945C4.66412 62.4955 5.11549 62.4955 5.4164 62.1945L20.3115 47.3747C20.6124 47.0738 20.6124 46.6224 20.3115 46.3215L17.6785 43.6133C17.5281 43.4628 17.3776 43.3876 17.1519 43.3876Z" fill="currentcolor" class="shade"/>
<path d="M39.4946 48.127C33.3259 48.127 27.1573 45.7949 22.4931 41.0555C18.807 37.3694 16.3997 32.63 15.7226 27.4393C15.6474 27.0632 15.9483 26.6118 16.3245 26.6118C16.7006 26.5366 17.152 26.8375 17.152 27.2136C17.829 32.1034 20.0858 36.4667 23.5463 39.9271C32.348 48.7288 46.6412 48.7288 55.4429 39.9271C64.2445 31.1255 64.2445 16.8322 55.4429 8.03056C46.6412 -0.771084 32.348 -0.695856 23.5463 8.10579C20.3868 11.2654 18.2804 15.1772 17.3776 19.5404C17.3024 19.9165 16.9263 20.2175 16.4749 20.1422C16.0988 20.067 15.7979 19.6909 15.8731 19.2395C16.851 14.6506 19.1079 10.4379 22.4179 7.0526C31.8214 -2.35087 47.0926 -2.35087 56.4961 7.0526C65.8995 16.4561 65.8995 31.7273 56.4961 41.1308C51.832 45.7949 45.6633 48.127 39.4946 48.127ZM16.2492 25.4834C15.8731 25.4834 15.4969 25.1825 15.4969 24.7311C15.4969 24.4302 15.4969 24.1293 15.4969 23.9036C15.4969 23.4523 15.8731 23.1513 16.2492 23.1513C16.7006 23.1513 17.0015 23.5275 17.0015 23.9036C17.0015 24.2045 17.0015 24.4302 17.0015 24.7311C17.0015 25.1073 16.6254 25.4834 16.2492 25.4834Z" fill="currentcolor" class="shade"/>
<path d="M58.452 23.3772C58.0006 23.3772 57.6997 23.6781 57.6997 24.1295C57.6997 29.9973 54.9163 35.188 50.5531 38.498V38.4228C50.5531 33.0816 49.6504 28.6432 38.8928 28.6432C28.737 28.6432 27.4582 32.4798 27.2325 37.2191C23.772 33.9091 21.5904 29.245 21.5904 24.1295C21.5904 14.1994 29.715 6.07484 39.6451 6.07484C47.6192 6.07484 54.7658 11.416 56.9474 19.0892C57.0979 19.4654 57.474 19.6911 57.8502 19.6158C58.2263 19.4654 58.452 19.0892 58.3768 18.7131C55.9695 10.438 48.221 4.64551 39.5698 4.64551C28.8123 4.64551 20.0106 13.4472 20.0106 24.2047C20.0106 34.9623 28.8123 43.7639 39.5698 43.7639C50.3274 43.7639 59.1291 34.9623 59.1291 24.2047C59.2043 23.7534 58.9034 23.3772 58.452 23.3772ZM34.3791 41.4319V36.5421C34.3791 36.0907 34.0782 35.7898 33.6268 35.7898C33.1755 35.7898 32.8746 36.0907 32.8746 36.5421V40.8301C31.37 40.2282 29.9407 39.4007 28.5866 38.3475C28.6618 38.2723 28.737 38.1219 28.737 37.9714C28.8123 33.2321 29.5645 30.0725 38.8928 30.0725C48.2963 30.0725 49.0485 33.2321 49.0485 38.3475C49.0485 38.7237 49.3494 39.0246 49.6504 39.0998C48.221 40.0778 46.6412 40.8301 44.911 41.3567V36.4669C44.911 36.0155 44.6101 35.7146 44.1587 35.7146C43.7074 35.7146 43.4065 36.0155 43.4065 36.4669V41.3567C43.4065 41.5071 43.4065 41.5823 43.4817 41.6576C42.278 41.9585 40.9239 42.1089 39.6451 42.1089C37.8396 42.1842 36.0341 41.9585 34.3791 41.4319Z" fill="currentcolor" class="shade"/>
</svg>
