<svg width="66" height="74" viewBox="0 0 66 74" fill="none" xmlns="http://www.w3.org/2000/svg">
<g clip-path="url(#clip0_6268_2878)">
<path d="M17.8736 26.434C12.0985 26.434 7.41505 31.1174 7.41505 36.8925C7.41505 42.6675 12.0985 47.351 17.8736 47.351C23.6486 47.351 28.3321 42.6675 28.3321 36.8925C28.3321 31.1174 23.6486 26.434 17.8736 26.434ZM22.6646 37.9034L21.7021 38.9304L18.6317 42.2104C18.2016 42.6729 17.4918 42.6729 17.0616 42.2104L13.9913 38.9304L13.1524 38.0324C12.0394 36.8441 11.9587 34.8061 13.1256 33.6769C13.6418 33.1823 14.2978 32.9242 14.9538 32.9242C15.6528 32.9242 16.3518 33.2145 16.8788 33.7791L17.8413 34.8061L18.6801 33.9135C19.7932 32.7252 21.6967 32.6392 22.756 33.8867C23.2184 34.4351 23.4604 35.1342 23.4604 35.8386C23.4604 36.586 23.1862 37.3334 22.6592 37.898L22.6646 37.9034Z" fill="currentcolor" class="tint"/>
<path d="M48.0661 7.41504C42.2911 7.41504 37.6076 12.0985 37.6076 17.8735C37.6076 23.6486 42.2911 28.3321 48.0661 28.3321C53.8412 28.3321 58.5246 23.6486 58.5246 17.8735C58.5246 12.0985 53.8412 7.41504 48.0661 7.41504ZM53.5293 19.7555H49.9481V23.3367H46.1841V19.7555H42.603V15.9916H46.1841V12.4104H49.9481V15.9916H53.5293V19.7555Z" fill="currentcolor" class="tint"/>
<path d="M45.1571 66.171C45.0549 66.1387 44.9474 66.1119 44.8452 66.0796C44.9474 66.1119 45.0549 66.1441 45.1571 66.171Z" fill="currentcolor" class="tint"/>
<path d="M42.3234 64.8697C42.2319 64.8106 42.1459 64.746 42.0545 64.6869C42.1405 64.7514 42.2319 64.8106 42.3234 64.8697Z" fill="currentcolor" class="tint"/>
<path d="M43.1245 65.3483C43.0546 65.3106 42.9847 65.2676 42.9148 65.2246C42.9847 65.2622 43.0546 65.3053 43.1245 65.3483Z" fill="currentcolor" class="tint"/>
<path d="M49.2652 66.5151C49.1792 66.5259 49.0878 66.5313 48.9964 66.542C49.0878 66.5366 49.1738 66.5259 49.2652 66.5151Z" fill="currentcolor" class="tint"/>
<path d="M52.1958 65.7407C52.1259 65.7676 52.0506 65.7999 51.9807 65.8268C52.0506 65.7999 52.1259 65.773 52.1958 65.7407Z" fill="currentcolor" class="tint"/>
<path d="M48.0661 45.668C42.2911 45.668 37.6076 50.3514 37.6076 56.1265C37.6076 59.5463 39.253 62.5683 41.7856 64.4772V63.5953C41.7856 61.0896 43.8182 59.057 46.3239 59.057H49.8137C52.3194 59.057 54.352 61.0896 54.352 63.5953V64.4772C56.8846 62.5683 58.53 59.541 58.53 56.1265C58.53 50.3514 53.8465 45.668 48.0715 45.668H48.0661ZM48.0661 57.2933C46.2325 57.2933 44.7431 55.8039 44.7431 53.9703C44.7431 52.1367 46.2325 50.6472 48.0661 50.6472C49.8997 50.6472 51.3892 52.1367 51.3892 53.9703C51.3892 55.8039 49.8997 57.2933 48.0661 57.2933Z" fill="currentcolor" class="tint"/>
<path d="M51.3892 66.0419C51.244 66.0903 51.0935 66.1387 50.9375 66.1817C51.0881 66.1387 51.2386 66.0903 51.3892 66.0419Z" fill="currentcolor" class="tint"/>
<path d="M50.3998 66.3162C50.2923 66.343 50.1847 66.3699 50.0718 66.3914C50.1793 66.3699 50.2869 66.343 50.3998 66.3162Z" fill="currentcolor" class="tint"/>
<path d="M17.8467 43.3611C17.3251 43.3611 16.8358 43.146 16.4755 42.7589L12.5717 38.5862C11.1091 37.0269 11.1145 34.5104 12.5717 33.1016C13.2224 32.4724 14.0719 32.1229 14.9592 32.1229C15.9002 32.1229 16.8143 32.5262 17.4757 33.2306L17.8521 33.6285L18.0994 33.365C18.8253 32.5854 19.8631 32.1444 20.8848 32.1821C21.8634 32.2036 22.7506 32.6284 23.3744 33.3704C23.9497 34.0533 24.267 34.9298 24.267 35.8439C24.267 36.8279 23.9067 37.7528 23.2507 38.4518L19.2179 42.7589C18.8522 43.146 18.3683 43.3611 17.8413 43.3611H17.8467ZM14.9538 33.7361C14.486 33.7361 14.0397 33.9243 13.6902 34.263C12.8728 35.0481 12.8997 36.5859 13.7439 37.4839L17.6531 41.6566C17.7929 41.8071 17.9058 41.8071 18.0456 41.6566L22.0785 37.3495C22.4495 36.9516 22.6592 36.4031 22.6592 35.8439C22.6592 35.3116 22.4764 34.8061 22.143 34.4136C21.8204 34.0318 21.3579 33.8113 20.8417 33.8006C20.261 33.7791 19.6857 34.0318 19.2716 34.4727L18.4328 35.3653C18.1263 35.6933 17.5617 35.6933 17.2552 35.3653L16.2927 34.3329C15.9324 33.9458 15.4539 33.7361 14.9538 33.7361Z" fill="currentcolor" class="shade"/>
<path d="M49.9481 24.1433H46.1841C45.7378 24.1433 45.3776 23.7831 45.3776 23.3368V20.5622H42.603C42.1567 20.5622 41.7964 20.2019 41.7964 19.7556V15.9916C41.7964 15.5453 42.1567 15.1851 42.603 15.1851H45.3776V12.4051C45.3776 11.9588 45.7378 11.5985 46.1841 11.5985H49.9481C50.3944 11.5985 50.7547 11.9588 50.7547 12.4051V15.1851H53.5347C53.981 15.1851 54.3412 15.5453 54.3412 15.9916V19.7556C54.3412 20.2019 53.981 20.5622 53.5347 20.5622H50.7547V23.3368C50.7547 23.7831 50.3944 24.1433 49.9481 24.1433ZM46.9907 22.5302H49.1416V19.7556C49.1416 19.3093 49.5018 18.949 49.9481 18.949H52.7281V16.7982H49.9481C49.5018 16.7982 49.1416 16.4379 49.1416 15.9916V13.2116H46.9907V15.9916C46.9907 16.4379 46.6304 16.7982 46.1841 16.7982H43.4095V18.949H46.1841C46.6304 18.949 46.9907 19.3093 46.9907 19.7556V22.5302Z" fill="currentcolor" class="shade"/>
<path d="M20.0782 54.7714H15.6743C14.6204 54.7714 13.7654 53.9165 13.7654 52.8625V52.0882C13.7654 51.9699 13.6955 51.8624 13.5826 51.814L10.3617 50.4805C10.2488 50.4375 10.1251 50.459 10.0391 50.545L9.49063 51.0935C8.74321 51.8355 7.53335 51.8355 6.79131 51.0935L3.67795 47.9801C2.93591 47.2381 2.93591 46.0282 3.67795 45.2808L4.22642 44.7323C4.31246 44.6463 4.33396 44.5226 4.29095 44.4097L2.95742 41.1888C2.90903 41.0759 2.80686 41.006 2.68319 41.006H1.90888C0.854963 41.006 0 40.151 0 39.0971V34.6932C0 33.6393 0.854963 32.7844 1.90888 32.7844H2.68319C2.80148 32.7844 2.90903 32.7145 2.95742 32.6015L4.29095 29.3806C4.33396 29.2677 4.31246 29.144 4.22642 29.058L3.67795 28.5095C2.93591 27.7675 2.93591 26.5577 3.67795 25.8102L6.79131 22.6969C7.53335 21.9548 8.74321 21.9548 9.49063 22.6969L10.0391 23.2453C10.1251 23.3314 10.2488 23.3529 10.3617 23.3099L13.5826 21.9763C13.6955 21.9333 13.7654 21.8258 13.7654 21.7021V20.9278C13.7654 19.8739 14.6204 19.0189 15.6743 19.0189H20.0782C21.1321 19.0189 21.9871 19.8739 21.9871 20.9278V21.7021C21.9871 21.8204 22.057 21.9279 22.1699 21.971L25.3962 23.3045C25.5091 23.3475 25.6328 23.326 25.7188 23.24L26.2673 22.6915C26.9878 21.971 28.246 21.971 28.9666 22.6915L32.0799 25.8049C32.822 26.5469 32.822 27.7567 32.0799 28.5042L31.5315 29.0526C31.4454 29.1387 31.4239 29.2623 31.4669 29.3753L32.8005 32.6015C32.8435 32.7145 32.951 32.7844 33.0747 32.7844H33.849C34.9029 32.7844 35.7579 33.6393 35.7579 34.6932V39.0971C35.7579 40.151 34.9029 41.006 33.849 41.006H33.0747C32.9564 41.006 32.8489 41.0759 32.8058 41.1888L31.4723 44.4151C31.4293 44.528 31.4508 44.6517 31.5368 44.7377L32.0853 45.2862C32.8274 46.0282 32.8274 47.2381 32.0853 47.9855L28.972 51.0989C28.2514 51.8194 26.9932 51.8194 26.2726 51.0989L25.7242 50.5504C25.6381 50.4644 25.5145 50.4428 25.4015 50.4859L22.1806 51.8194C22.0677 51.8624 21.9978 51.9699 21.9978 52.0936V52.8679C21.9978 53.9218 21.1429 54.7768 20.0889 54.7768L20.0782 54.7714ZM10.2434 48.8458C10.4908 48.8458 10.7381 48.8942 10.9747 48.991L14.1956 50.3245C14.9108 50.6203 15.3732 51.3139 15.3732 52.0882V52.8625C15.3732 53.0239 15.5076 53.1583 15.6689 53.1583H20.0728C20.2341 53.1583 20.3686 53.0239 20.3686 52.8625V52.0882C20.3686 51.3139 20.831 50.6203 21.5461 50.3245L24.767 48.991C25.4822 48.6953 26.2995 48.8566 26.848 49.4051L27.3965 49.9535C27.4717 50.0288 27.5578 50.0396 27.6062 50.0396C27.6546 50.0396 27.7406 50.0288 27.8159 49.9535L30.9292 46.8402C31.0045 46.7649 31.0153 46.6789 31.0153 46.6305C31.0153 46.5821 31.0045 46.496 30.9292 46.4208L30.3808 45.8723C29.8323 45.3238 29.671 44.5065 29.9667 43.7913L31.3003 40.5704C31.596 39.8553 32.2896 39.3929 33.064 39.3929H33.8383C33.9996 39.3929 34.134 39.2584 34.134 39.0971V34.6932C34.134 34.5319 33.9996 34.3975 33.8383 34.3975H33.064C32.2896 34.3975 31.596 33.9351 31.3003 33.2199L29.9667 29.999C29.671 29.2839 29.8323 28.4665 30.3808 27.9181L30.9292 27.3696C31.0045 27.2943 31.0153 27.2083 31.0153 27.1599C31.0153 27.1115 31.0045 27.0255 30.9292 26.9502L27.8159 23.8368C27.7406 23.7615 27.6546 23.7508 27.6062 23.7508C27.5578 23.7508 27.4717 23.7615 27.3965 23.8368L26.848 24.3853C26.2995 24.9338 25.4822 25.0951 24.767 24.7993L21.5461 23.4658C20.831 23.1701 20.3686 22.4764 20.3686 21.7021V20.9278C20.3686 20.7665 20.2341 20.6321 20.0728 20.6321H15.6689C15.5076 20.6321 15.3732 20.7665 15.3732 20.9278V21.7021C15.3732 22.4764 14.9108 23.1701 14.1956 23.4658L10.9747 24.7993C10.2596 25.0951 9.44223 24.9338 8.89377 24.3853L8.3453 23.8368C8.27002 23.7615 8.18399 23.7508 8.13559 23.7508C8.0872 23.7508 8.00116 23.7615 7.92588 23.8368L4.81253 26.9502C4.73725 27.0255 4.72649 27.1115 4.72649 27.1599C4.72649 27.2083 4.73725 27.2943 4.81253 27.3696L5.361 27.9181C5.90946 28.4665 6.07078 29.2839 5.77503 29.999L4.44151 33.2199C4.14576 33.9351 3.45212 34.3975 2.67781 34.3975H1.9035C1.74219 34.3975 1.60776 34.5319 1.60776 34.6932V39.0971C1.60776 39.2584 1.74219 39.3929 1.9035 39.3929H2.67781C3.45212 39.3929 4.14576 39.8553 4.44151 40.5704L5.77503 43.7913C6.07078 44.5065 5.90946 45.3238 5.361 45.8723L4.81253 46.4208C4.69961 46.5337 4.69961 46.7219 4.81253 46.8402L7.92588 49.9535C8.0388 50.0664 8.227 50.0664 8.3453 49.9535L8.89377 49.4051C9.25941 49.0394 9.74335 48.8458 10.2434 48.8458Z" fill="currentcolor" class="shade"/>
<path d="M26.7727 43.2052C26.6275 43.2052 26.4824 43.1675 26.3479 43.0869C25.9715 42.8503 25.8532 42.3556 26.0844 41.9738C26.1705 41.8394 26.2458 41.7049 26.3264 41.5651C27.1115 40.1456 27.5309 38.5271 27.5309 36.8924C27.5309 31.8003 23.5518 27.5631 18.4758 27.2566C18.0295 27.2297 17.6908 26.8479 17.7176 26.4016C17.7445 25.9553 18.1371 25.6166 18.5726 25.6435C24.5036 26.0037 29.144 30.9453 29.144 36.8924C29.144 38.8013 28.6601 40.6887 27.7352 42.3502C27.6438 42.5115 27.5524 42.6674 27.4556 42.8234C27.3051 43.0707 27.0416 43.2052 26.7673 43.2052H26.7727Z" fill="currentcolor" class="shade"/>
<path d="M11.8619 29.1386C11.6092 29.1386 11.3565 29.0203 11.2005 28.7945C10.9424 28.4288 11.0339 27.9287 11.3941 27.6706C12.319 27.02 13.3353 26.5146 14.4053 26.165C14.8301 26.0306 15.2818 26.2618 15.4216 26.6866C15.556 27.1114 15.3248 27.5631 14.9 27.7029C13.9805 27.9986 13.1148 28.4342 12.3244 28.988C12.1846 29.0848 12.0232 29.1332 11.8619 29.1332V29.1386Z" fill="currentcolor" class="shade"/>
<path d="M17.8736 48.1629C11.663 48.1629 6.6031 43.1085 6.6031 36.8979C6.6031 34.5481 7.31826 32.2897 8.67867 30.3808C8.93678 30.0151 9.44223 29.9345 9.80249 30.1926C10.1628 30.4507 10.2488 30.9561 9.99069 31.3164C8.82923 32.9511 8.21624 34.8814 8.21624 36.8979C8.21624 42.2212 12.5448 46.5498 17.8736 46.5498C19.8792 46.5498 21.8042 45.9422 23.4335 44.7915C23.7992 44.5334 24.2992 44.6194 24.5573 44.9851C24.8154 45.3507 24.7294 45.8508 24.3638 46.1089C22.4603 47.4532 20.2126 48.1629 17.8736 48.1629Z" fill="currentcolor" class="shade"/>
<path d="M30.9991 19.8254C30.5528 19.8254 30.1926 19.4651 30.1926 19.0188V15.6743C30.1926 14.6203 31.0475 13.7654 32.1014 13.7654C32.5477 13.7654 32.908 14.1256 32.908 14.5719C32.908 15.0183 32.5477 15.3785 32.1014 15.3785C31.9401 15.3785 31.8057 15.5129 31.8057 15.6743V19.0188C31.8057 19.4651 31.4454 19.8254 30.9991 19.8254Z" fill="currentcolor" class="shade"/>
<path d="M50.2708 35.7471H45.8669C44.813 35.7471 43.958 34.8922 43.958 33.8383V33.064C43.958 32.9457 43.8881 32.8381 43.7752 32.7897L40.5543 31.4562C40.4414 31.4132 40.3177 31.4347 40.2317 31.5207L39.6832 32.0692C38.9412 32.8112 37.7313 32.8112 36.9839 32.0692L33.8705 28.9558C33.1285 28.2138 33.1285 27.0039 33.8705 26.2565L34.419 25.7081C34.505 25.622 34.5265 25.4983 34.4835 25.3854L33.15 22.1591C33.107 22.0462 32.9994 21.9763 32.8758 21.9763H32.1014C31.0475 21.9763 30.1926 21.1214 30.1926 20.0674V19.0082C30.1926 18.5618 30.5528 18.2016 30.9991 18.2016C31.4454 18.2016 31.8057 18.5618 31.8057 19.0082V20.0674C31.8057 20.2288 31.9401 20.3632 32.1014 20.3632H32.8758C33.6501 20.3632 34.3437 20.8256 34.6394 21.5408L35.973 24.7671C36.2687 25.4822 36.1074 26.2995 35.5589 26.848L35.0105 27.3965C34.8976 27.5094 34.8976 27.6976 35.0105 27.8159L38.1238 30.9292C38.2367 31.0422 38.4249 31.0422 38.5432 30.9292L39.0917 30.3808C39.6402 29.8323 40.4521 29.671 41.1727 29.9667L44.3989 31.3003C45.1141 31.596 45.5765 32.2897 45.5765 33.064V33.8383C45.5765 33.9996 45.711 34.134 45.8723 34.134H50.2761C50.4374 34.134 50.5719 33.9996 50.5719 33.8383V33.064C50.5719 32.2897 51.0343 31.596 51.7495 31.3003L54.9757 29.9667C55.6909 29.671 56.5082 29.8323 57.0567 30.3808L57.6052 30.9292C57.6804 31.0045 57.7665 31.0153 57.8149 31.0153C57.8633 31.0153 57.9493 31.0045 58.0246 30.9292L61.1379 27.8159C61.2132 27.7406 61.224 27.6546 61.224 27.6062C61.224 27.5578 61.2132 27.4717 61.1379 27.3965L60.5895 26.848C60.041 26.2995 59.8797 25.4822 60.1754 24.7671L61.5089 21.5408C61.8047 20.8256 62.4983 20.3632 63.2726 20.3632H64.047C64.2083 20.3632 64.3427 20.2288 64.3427 20.0674V15.6636C64.3427 15.5023 64.2083 15.3678 64.047 15.3678H63.2726C62.4983 15.3678 61.8047 14.9054 61.5089 14.1902L60.1754 10.9693C59.8797 10.2542 60.041 9.43687 60.5895 8.8884L61.1379 8.33993C61.2132 8.26465 61.224 8.17862 61.224 8.13023C61.224 8.08183 61.2132 7.9958 61.1379 7.92052L58.0246 4.80716C57.9117 4.69424 57.7235 4.69424 57.6052 4.80716L57.0567 5.35563C56.5082 5.9041 55.6909 6.06541 54.9757 5.76967L51.7495 4.43614C51.0343 4.1404 50.5719 3.44675 50.5719 2.67244V1.89814C50.5719 1.73682 50.4374 1.6024 50.2761 1.6024H45.8723C45.711 1.6024 45.5765 1.73682 45.5765 1.89814V2.67244C45.5765 3.44675 45.1141 4.1404 44.3989 4.43614L41.178 5.76967C40.4575 6.06541 39.6456 5.9041 39.0971 5.35563L38.5486 4.80716C38.4357 4.69424 38.2475 4.69424 38.1292 4.80716L35.0158 7.92052C34.9406 7.9958 34.9298 8.08183 34.9298 8.13023C34.9298 8.17862 34.9406 8.26465 35.0158 8.33993L35.5643 8.8884C36.1128 9.43687 36.2741 10.2542 35.9784 10.9693L35.2578 12.7115C35.0857 13.1202 34.6179 13.3192 34.2039 13.1471C33.7899 12.975 33.5963 12.5072 33.7684 12.0932L34.4889 10.351C34.5319 10.2381 34.5104 10.1144 34.4244 10.0284L33.8759 9.47988C33.1339 8.73784 33.1339 7.52799 33.8759 6.78057L36.9893 3.66721C37.7313 2.92517 38.9411 2.92517 39.6886 3.66721L40.237 4.21568C40.3231 4.30171 40.4467 4.32322 40.5597 4.2802L43.7806 2.94668C43.8935 2.90366 43.9634 2.79612 43.9634 2.67244V1.89814C43.9634 0.844221 44.8183 -0.0107422 45.8723 -0.0107422H50.2761C51.33 -0.0107422 52.185 0.844221 52.185 1.89814V2.67244C52.185 2.79074 52.2549 2.89828 52.3678 2.94668L55.5941 4.2802C55.7017 4.3286 55.8307 4.30171 55.9167 4.21568L56.4652 3.66721C57.2072 2.92517 58.4171 2.92517 59.1645 3.66721L62.2779 6.78057C63.0199 7.52261 63.0199 8.73246 62.2779 9.47988L61.7294 10.0284C61.6434 10.1144 61.6165 10.2381 61.6649 10.351L62.9984 13.5773C63.0414 13.6902 63.149 13.7601 63.2726 13.7601H64.047C65.1009 13.7601 65.9558 14.615 65.9558 15.669V20.0728C65.9558 21.1267 65.1009 21.9817 64.047 21.9817H63.2726C63.1543 21.9817 63.0468 22.0516 62.9984 22.1645L61.6649 25.3908C61.6219 25.5037 61.6434 25.6274 61.7294 25.7134L62.2779 26.2619C63.0199 27.0039 63.0199 28.2138 62.2779 28.9612L59.1645 32.0746C58.4225 32.8166 57.2126 32.8166 56.4652 32.0746L55.9167 31.5261C55.8307 31.4401 55.707 31.4186 55.5941 31.4616L52.3732 32.7951C52.2603 32.8381 52.1904 32.9457 52.1904 33.0693V33.8436C52.1904 34.8976 51.3354 35.7525 50.2815 35.7525L50.2708 35.7471Z" fill="currentcolor" class="shade"/>
<path d="M48.0661 29.144C41.8556 29.144 36.8011 24.0896 36.8011 17.879C36.8011 11.6684 41.8556 6.61389 48.0661 6.61389C49.975 6.61389 51.8624 7.09783 53.5239 8.0227C53.6852 8.11411 53.8412 8.20552 53.9971 8.30231C54.3735 8.5389 54.4918 9.0336 54.2552 9.41537C54.0186 9.79177 53.5239 9.91007 53.1421 9.67348C53.0077 9.59282 52.8733 9.51216 52.7335 9.43688C51.3139 8.65182 49.6954 8.23241 48.0608 8.23241C42.7374 8.23241 38.4088 12.561 38.4088 17.8843C38.4088 23.2077 42.7374 27.5363 48.0608 27.5363C53.3841 27.5363 57.7127 23.2077 57.7127 17.8843C57.7127 15.8787 57.1051 13.959 55.949 12.3244C55.6909 11.9588 55.7769 11.4587 56.1426 11.2006C56.5082 10.9425 57.0083 11.0285 57.2664 11.3942C58.6107 13.2977 59.3205 15.5453 59.3205 17.8843C59.3205 24.0949 54.266 29.1494 48.0554 29.1494L48.0661 29.144Z" fill="currentcolor" class="shade"/>
<path d="M48.0661 58.0998C45.7916 58.0998 43.9365 56.2501 43.9365 53.9702C43.9365 51.6903 45.7862 49.8406 48.0661 49.8406C50.346 49.8406 52.1958 51.6903 52.1958 53.9702C52.1958 56.2501 50.346 58.0998 48.0661 58.0998ZM48.0661 51.4537C46.6788 51.4537 45.5496 52.5829 45.5496 53.9702C45.5496 55.3575 46.6788 56.4867 48.0661 56.4867C49.4534 56.4867 50.5826 55.3575 50.5826 53.9702C50.5826 52.5829 49.4534 51.4537 48.0661 51.4537Z" fill="currentcolor" class="shade"/>
<path d="M48.0661 67.3969C45.6195 67.3969 43.2966 66.6279 41.3447 65.1707C41.1189 65.0255 40.9791 64.7728 40.9791 64.4986V63.5952C40.9791 60.6486 43.3773 58.2557 46.3239 58.2557H49.8137C52.7604 58.2557 55.1532 60.6539 55.1532 63.5952V64.4986C55.1532 64.7352 55.0456 64.961 54.8682 65.117C54.7553 65.2084 52.1151 67.3969 48.0715 67.3969H48.0661ZM42.5922 64.0845C44.2054 65.1976 46.0874 65.7837 48.0661 65.7837C50.8192 65.7837 52.8249 64.59 53.54 64.0953V63.6006C53.54 61.5465 51.8678 59.8743 49.8137 59.8743H46.3239C44.2699 59.8743 42.5922 61.5465 42.5922 63.6006V64.0845Z" fill="currentcolor" class="shade"/>
<path d="M50.2707 73.9999H45.8669C44.813 73.9999 43.958 73.145 43.958 72.0911V71.3168C43.958 71.1985 43.8881 71.0909 43.7752 71.0479L40.5489 69.7144C40.436 69.666 40.3123 69.6929 40.2263 69.7789L39.6778 70.3274C38.9358 71.0694 37.7259 71.0694 36.9785 70.3274L33.8651 67.214C33.1231 66.472 33.1231 65.2621 33.8651 64.5147L34.4136 63.9662C34.4996 63.8802 34.5211 63.7565 34.4781 63.6436L33.1446 60.4173C33.1016 60.3044 32.994 60.2345 32.8704 60.2345H32.0961C31.0421 60.2345 30.1872 59.3795 30.1872 58.3256V53.9218C30.1872 52.8678 31.0421 52.0129 32.0961 52.0129H32.8704C32.9887 52.0129 33.0962 51.943 33.1446 51.8301L34.4781 48.6092C34.5211 48.4962 34.4996 48.3726 34.4136 48.2865L33.8651 47.7381C33.1231 46.996 33.1231 45.7862 33.8651 45.0387L36.9785 41.9254C37.7205 41.1833 38.9304 41.1833 39.6778 41.9254L40.2263 42.4739C40.3123 42.5599 40.436 42.5814 40.5489 42.5384L43.7698 41.2049C43.8827 41.1618 43.9526 41.0543 43.9526 40.9306V40.1563C43.9526 39.1024 44.8076 38.2474 45.8615 38.2474H50.2654C51.3193 38.2474 52.1742 39.1024 52.1742 40.1563V40.9306C52.1742 41.0489 52.2442 41.1565 52.3571 41.2049L55.578 42.5384C55.6855 42.5814 55.8146 42.5599 55.9006 42.4739L56.4491 41.9254C57.1911 41.1833 58.401 41.1833 59.1484 41.9254L62.2617 45.0387C63.0038 45.7808 63.0038 46.9906 62.2617 47.7381L61.7133 48.2865C61.6272 48.3726 61.6004 48.4962 61.6487 48.6092L62.9823 51.8301C63.0253 51.943 63.1328 52.0129 63.2565 52.0129H64.0308C65.0847 52.0129 65.9397 52.8678 65.9397 53.9218V58.3256C65.9397 59.3795 65.0847 60.2345 64.0308 60.2345H63.2565C63.1382 60.2345 63.0307 60.3044 62.9823 60.4173C62.8102 60.8314 62.3424 61.0249 61.9284 60.8529C61.5143 60.6808 61.3207 60.213 61.4928 59.799C61.7886 59.0838 62.4822 58.6214 63.2565 58.6214H64.0308C64.1921 58.6214 64.3266 58.4869 64.3266 58.3256V53.9218C64.3266 53.7604 64.1921 53.626 64.0308 53.626H63.2565C62.4822 53.626 61.7886 53.1636 61.4928 52.4484L60.1593 49.2275C59.8635 48.5124 60.0249 47.695 60.5733 47.1466L61.1218 46.5981C61.1971 46.5228 61.2078 46.4368 61.2078 46.3884C61.2078 46.34 61.1971 46.254 61.1218 46.1787L58.0084 43.0653C57.9332 42.9901 57.8471 42.9793 57.7987 42.9793C57.7503 42.9793 57.6643 42.9901 57.589 43.0653L57.0405 43.6138C56.4921 44.1623 55.6748 44.3236 54.9596 44.0278L51.7387 42.6943C51.0235 42.3986 50.5611 41.7049 50.5611 40.9306V40.1563C50.5611 39.995 50.4267 39.8606 50.2654 39.8606H45.8615C45.7002 39.8606 45.5658 39.995 45.5658 40.1563V40.9306C45.5658 41.7049 45.1033 42.3986 44.3882 42.6943L41.1673 44.0278C40.4521 44.3236 39.6348 44.1623 39.0863 43.6138L38.5379 43.0653C38.4249 42.9524 38.2367 42.9524 38.1184 43.0653L35.0051 46.1787C34.8922 46.2916 34.8922 46.4798 35.0051 46.5981L35.5536 47.1466C36.102 47.695 36.2633 48.5124 35.9676 49.2275L34.6341 52.4484C34.3383 53.1636 33.6447 53.626 32.8704 53.626H32.0961C31.9347 53.626 31.8003 53.7604 31.8003 53.9218V58.3256C31.8003 58.4869 31.9347 58.6214 32.0961 58.6214H32.8704C33.6447 58.6214 34.3383 59.0838 34.6341 59.799L35.9676 63.0252C36.2633 63.7404 36.102 64.5577 35.5536 65.1062L35.0051 65.6546C34.9298 65.7299 34.9191 65.816 34.9191 65.8644C34.9191 65.9127 34.9298 65.9988 35.0051 66.0741L38.1184 69.1874C38.1937 69.2627 38.2798 69.2735 38.3281 69.2735C38.3765 69.2735 38.4626 69.2627 38.5379 69.1874L39.0863 68.639C39.6348 68.0905 40.4521 67.9292 41.1673 68.2249L44.3882 69.5584C45.1033 69.8542 45.5658 70.5478 45.5658 71.3221V72.0964C45.5658 72.2578 45.7002 72.3922 45.8615 72.3922H50.2654C50.4267 72.3922 50.5611 72.2578 50.5611 72.0964V71.3221C50.5611 70.5478 51.0235 69.8542 51.7387 69.5584L54.9596 68.2249C55.6748 67.9292 56.4921 68.0905 57.0405 68.639L57.589 69.1874C57.6643 69.2627 57.7503 69.2735 57.7987 69.2735C57.8471 69.2735 57.9332 69.2627 58.0084 69.1874L59.7668 67.4291C60.084 67.1118 60.5948 67.1118 60.9067 67.4291C61.2186 67.7464 61.224 68.2572 60.9067 68.569L59.1484 70.3274C58.4063 71.0694 57.1965 71.0694 56.4491 70.3274L55.9006 69.7789C55.8146 69.6929 55.6909 69.666 55.578 69.7144L52.3517 71.0479C52.2388 71.0909 52.1689 71.1985 52.1689 71.3221V72.0964C52.1689 73.1504 51.3139 74.0053 50.26 74.0053L50.2707 73.9999Z" fill="currentcolor" class="shade"/>
<path d="M60.3367 68.8057C60.1324 68.8057 59.9227 68.7251 59.7668 68.5691C59.4495 68.2519 59.4495 67.7411 59.7668 67.4292L61.1272 66.0688C61.2401 65.9559 61.2401 65.7677 61.1272 65.6547L60.5787 65.1063C60.2668 64.789 60.2668 64.2782 60.5787 63.9663C60.896 63.6545 61.4068 63.6545 61.7187 63.9663L62.2671 64.5148C62.6274 64.8751 62.8263 65.3536 62.8263 65.8645C62.8263 66.3753 62.6274 66.8538 62.2671 67.2141L60.9067 68.5745C60.7508 68.7305 60.5411 68.8111 60.3367 68.8111V68.8057Z" fill="currentcolor" class="shade"/>
<path d="M48.0661 67.3969C41.8556 67.3969 36.8011 62.3424 36.8011 56.1318C36.8011 54.2229 37.285 52.3355 38.2099 50.674C38.2959 50.5127 38.3927 50.3567 38.4895 50.2008C38.7261 49.819 39.2208 49.7061 39.6025 49.9373C39.9789 50.1739 40.0972 50.6686 39.866 51.0504C39.7854 51.1848 39.7047 51.3192 39.6294 51.4591C38.839 52.884 38.4249 54.4971 38.4249 56.1318C38.4249 61.4551 42.7535 65.7837 48.0769 65.7837C53.4002 65.7837 57.7288 61.4551 57.7288 56.1318C57.7288 50.8084 53.4002 46.4798 48.0769 46.4798C46.0712 46.4798 44.1462 47.0875 42.5169 48.2382C42.1513 48.4963 41.6512 48.4102 41.3931 48.0446C41.135 47.6789 41.221 47.1789 41.5867 46.9208C43.4902 45.5765 45.7378 44.8667 48.0769 44.8667C54.2875 44.8667 59.342 49.9212 59.342 56.1318C59.342 62.3424 54.2875 67.3969 48.0769 67.3969H48.0661Z" fill="currentcolor" class="shade"/>
</g>
<defs>
<clipPath id="clip0_6268_2878">
<rect width="65.9397" height="74" fill="currentcolor"/>
</clipPath>
</defs>
</svg>
