<svg width="250" height="85" viewBox="0 0 250 85" fill="none" xmlns="http://www.w3.org/2000/svg">
<path fill-rule="evenodd" clip-rule="evenodd" d="M196.72 44.32L189.67 34.42H191.2L197.35 43.22L203.53 34.42H205L197.95 44.3V50.8H196.73L196.72 44.32ZM167.48 34.32H168.66L176.32 50.82H175L172.91 46.24H163.21L161.1 50.8H159.83L167.48 34.32ZM172.37 45.14L168.05 35.66L163.7 45.14H172.37ZM176.88 34.44H183.79C185.477 34.3402 187.137 34.8996 188.42 36C189.204 36.8031 189.648 37.8777 189.66 39C189.66 41.74 187.21 43.69 184.22 43.69L189.65 50.69H188.1L182.86 44H178.1V50.8H176.88V34.44ZM183.65 42.94C186.4 42.94 188.44 41.56 188.44 39.19V39.14C188.44 36.94 186.7 35.56 183.72 35.56H178.1V42.94H183.65ZM146.58 34.44H153.48C155.167 34.3402 156.827 34.8996 158.11 36C158.894 36.8031 159.338 37.8777 159.35 39C159.35 41.74 156.9 43.69 153.92 43.69L159.34 50.69H157.79L152.56 44H147.8V50.8H146.58V34.44ZM153.34 42.94C156.09 42.94 158.13 41.56 158.13 39.19V39.14C158.13 36.94 156.4 35.56 153.41 35.56H147.8V42.94H153.34ZM132.59 34.44H139.37C140.931 34.3471 142.467 34.8674 143.65 35.89C143.992 36.2262 144.262 36.6281 144.444 37.0715C144.626 37.515 144.717 37.9907 144.71 38.47C144.718 39.332 144.451 40.174 143.947 40.8737C143.444 41.5733 142.73 42.094 141.91 42.36C143.91 42.87 144.71 44 144.71 46.27C144.71 49.01 143.27 50.74 139.71 50.74H132.57L132.59 34.44ZM143.46 38.58C143.46 36.78 141.98 35.58 139.35 35.58H133.81V42H139.23C141.7 42 143.46 40.81 143.46 38.63V38.58ZM139.37 43.12H133.81V49.7H139.81C142.63 49.7 143.5 48.41 143.5 46.35C143.46 44.27 142.62 43.1 139.37 43.1V43.12ZM129 50.8V34.42H130.22V50.8H129ZM116.29 34.42H117.51V49.68H127.16V50.8H116.29V34.42ZM68.18 47L75.63 38.94H68.2V34.42H83.52V38.26L76.08 46.31H83.52V50.8H68.18V47ZM61.28 50.83V34.42H66.77V50.8L61.28 50.83ZM45 34.42H54.21C56.49 34.42 57.92 34.93 58.88 35.89C59.2108 36.2272 59.4699 36.6278 59.6418 37.0677C59.8137 37.5077 59.8947 37.9779 59.88 38.45C59.8979 39.314 59.6231 40.1587 59.1003 40.8468C58.5774 41.5348 57.8372 42.0258 57 42.24C59.11 42.85 59.92 43.94 59.92 46.18C59.92 48.8 58.31 50.75 54.16 50.75H45V34.42ZM54.57 39.69C54.57 38.96 53.99 38.56 52.81 38.56H50.45V40.86H52.85C54.02 40.86 54.58 40.46 54.58 39.73L54.57 39.69ZM53.21 44.23H50.45V46.66H53.2C54.4 46.66 55.01 46.17 55.01 45.47C55 44.72 54.42 44.23 53.22 44.23H53.21Z" fill="#211D23"/>
<path fill-rule="evenodd" clip-rule="evenodd" d="M112.53 42.5C112.54 45.0001 111.808 47.4468 110.426 49.5304C109.044 51.614 107.075 53.2406 104.768 54.2042C102.462 55.1678 99.9205 55.425 97.4672 54.9434C95.014 54.4617 92.7588 53.2628 90.9875 51.4984C89.2161 49.7341 88.0083 47.4838 87.5169 45.0324C87.0255 42.5811 87.2727 40.0391 88.2271 37.7283C89.1816 35.4176 90.8003 33.4421 92.8784 32.052C94.9565 30.662 97.4003 29.92 99.9004 29.92C101.556 29.916 103.196 30.2384 104.727 30.8686C106.258 31.4988 107.649 32.4245 108.822 33.5928C109.995 34.761 110.926 36.149 111.563 37.6774C112.199 39.2057 112.528 40.8445 112.53 42.5Z" fill="#67B44B"/>
<path fill-rule="evenodd" clip-rule="evenodd" d="M96.2598 33.19L108.03 42.52L96.2598 52.04V45.83L100.42 42.52L96.2598 39.69V33.19Z" fill="white"/>
</svg>
