<?xml version="1.0" encoding="UTF-8"?>
<svg width="36px" height="30px" viewBox="0 0 36 30" version="1.1" xmlns="http://www.w3.org/2000/svg" xmlns:xlink="http://www.w3.org/1999/xlink">
    <!-- Generator: sketchtool 55 (78076) - https://sketchapp.com -->
    <title>2DFFDE96-8793-4018-9DC0-93940B874421</title>
    <desc>Created with sketchtool.</desc>
    <g id="Customer-Homepage" stroke="none" stroke-width="1" fill="none" fill-rule="evenodd">
        <g id="Customer-Homepage_1920px" transform="translate(-1021.000000, -2116.000000)" fill="currentcolor">
            <g id="Group-3" transform="translate(210.000000, 2106.000000)">
                <g id="Group-12">
                    <g id="Stacked-Group-10">
                        <g id="Stacked-Group" transform="translate(800.000000, 0.000000)">
                            <g id="icon/flattened/thicker/time-attendance/centered">
                                <path d="M39,31.9450712 L39,39 C39,39.5522847 38.5522847,40 38,40 L12,40 C11.4477153,40 11,39.5522847 11,39 L11,13 C11,12.4477153 11.4477153,12 12,12 L18,12 C18.5522847,12 19,12.4477153 19,13 C19,13.5522847 18.5522847,14 18,14 L13,14 L13,18 L30.515549,18 C31.9551837,15.8492976 34.2972372,14.353704 37,14.0549288 L37,14 L32,14 C31.4477153,14 31,13.5522847 31,13 C31,12.4477153 31.4477153,12 32,12 L38,12 C38.5522847,12 39,12.4477153 39,13 L39,14.0549288 C43.4999505,14.5523731 47,18.3674463 47,23 C47,27.6325537 43.4999505,31.4476269 39,31.9450712 Z M37,31.9450712 C32.5000495,31.4476269 29,27.6325537 29,23 C29,21.9480937 29.1804627,20.9383368 29.5121171,20 L13,20 L13,38 L37,38 L37,31.9450712 Z M26,12 C26.5522847,12 27,12.4477153 27,13 C27,13.5522847 26.5522847,14 26,14 L24,14 C23.4477153,14 23,13.5522847 23,13 C23,12.4477153 23.4477153,12 24,12 L26,12 Z M20,11 C20,10.4477153 20.4477153,10 21,10 C21.5522847,10 22,10.4477153 22,11 L22,15 C22,15.5522847 21.5522847,16 21,16 C20.4477153,16 20,15.5522847 20,15 L20,11 Z M28,11 C28,10.4477153 28.4477153,10 29,10 C29.5522847,10 30,10.4477153 30,11 L30,15 C30,15.5522847 29.5522847,16 29,16 C28.4477153,16 28,15.5522847 28,15 L28,11 Z M38,30 C41.8659932,30 45,26.8659932 45,23 C45,19.1340068 41.8659932,16 38,16 C34.1340068,16 31,19.1340068 31,23 C31,26.8659932 34.1340068,30 38,30 Z M39,23 L41,23 C41.5522847,23 42,23.4477153 42,24 C42,24.5522847 41.5522847,25 41,25 L38,25 C37.4477153,25 37,24.5522847 37,24 L37,19 C37,18.4477153 37.4477153,18 38,18 C38.5522847,18 39,18.4477153 39,19 L39,23 Z" id="Combined-Shape"></path>
                            </g>
                        </g>
                    </g>
                </g>
            </g>
        </g>
    </g>
</svg>
