<svg width="68" height="64" viewBox="0 0 68 64" fill="none" xmlns="http://www.w3.org/2000/svg">
<path fill-rule="evenodd" clip-rule="evenodd" d="M52.7 52.0955C58.548 52.0955 63.24 47.4444 63.24 41.6474C63.24 35.8503 58.548 31.1992 52.7 31.1992C46.852 31.1992 42.16 35.8503 42.16 41.6474C42.16 47.377 46.852 52.0955 52.7 52.0955ZM52.7 56.1399C44.608 56.1399 38.08 49.6014 38.08 41.6474C38.08 33.6933 44.608 27.1548 52.7 27.1548C60.792 27.1548 67.32 33.6259 67.32 41.6474C67.32 49.6688 60.792 56.1399 52.7 56.1399ZM0.679993 8.95483H59.84V17.7178H0.679993V8.95483Z" fill="currentcolor" class="tint"/>
<path fill-rule="evenodd" clip-rule="evenodd" d="M7.548 37.9399L20.196 47.1073L32.844 37.9399H7.548ZM35.36 37.6703V55.4658C35.36 55.8028 35.088 56.0725 34.68 56.0725H5.44C5.032 56.0725 4.828 55.8028 4.76 55.4658V37.2659C4.76 36.9288 5.032 36.5918 5.44 36.5918H34.816C35.428 36.5918 35.7 37.2659 35.36 37.6703ZM34 38.6814L20.536 48.4555C20.264 48.6577 19.992 48.6577 19.72 48.4555L6.12 38.5466V53.848L13.056 47.5118C13.328 47.2421 13.736 47.3095 14.008 47.5792C14.28 47.8488 14.212 48.2532 13.94 48.5229L7.14 54.7243H32.912L26.316 48.7251C26.044 48.4555 26.044 48.051 26.248 47.7814C26.52 47.5118 26.928 47.5118 27.2 47.714L33.932 53.848V38.6814H34ZM52.7 55.4658C60.384 55.4658 66.64 49.2643 66.64 41.6473C66.64 34.0303 60.384 27.8288 52.7 27.8288C45.016 27.8288 38.76 33.9629 38.76 41.6473C38.76 49.3317 45.016 55.4658 52.7 55.4658ZM52.7 56.814C44.268 56.814 37.4 50.0058 37.4 41.6473C37.4 33.2888 44.268 26.4807 52.7 26.4807C61.132 26.4807 68 33.2214 68 41.6473C68 50.0732 61.132 56.814 52.7 56.814ZM53.04 35.9177V41.9844H56.44C56.848 41.9844 57.12 42.254 57.12 42.6584C57.12 43.0629 56.848 43.3325 56.44 43.3325H52.36C51.952 43.3325 51.68 43.0629 51.68 42.6584V35.9177C51.68 35.5133 51.952 35.2436 52.36 35.2436C52.768 35.2436 53.04 35.5133 53.04 35.9177ZM52.7 51.4214C58.14 51.4214 62.56 47.0399 62.56 41.6473C62.56 36.2547 58.14 31.8733 52.7 31.8733C47.26 31.8733 42.84 36.1873 42.84 41.6473C42.84 47.1073 47.26 51.4214 52.7 51.4214ZM52.7 52.7695C46.512 52.7695 41.48 47.7814 41.48 41.6473C41.48 35.5133 46.512 30.5251 52.7 30.5251C58.888 30.5251 63.92 35.4459 63.92 41.6473C63.92 47.8488 58.888 52.7695 52.7 52.7695ZM46.92 23.1103C46.92 22.7059 47.192 22.4363 47.6 22.4363C48.008 22.4363 48.28 22.7059 48.28 23.1103V25.1325C48.28 25.537 48.008 25.8066 47.6 25.8066C47.192 25.8066 46.92 25.537 46.92 25.1325V23.1103ZM38.08 23.1103C38.08 22.7059 38.352 22.4363 38.76 22.4363C39.168 22.4363 39.44 22.7059 39.44 23.1103V28.5029C39.44 28.9074 39.168 29.177 38.76 29.177C38.352 29.177 38.08 28.9074 38.08 28.5029V23.1103ZM55.08 9.62888V10.1007C55.08 10.5052 54.808 10.7748 54.4 10.7748C53.992 10.7748 53.72 10.5052 53.72 10.1007V9.62888H51.68V10.1007C51.68 10.5052 51.408 10.7748 51 10.7748C50.592 10.7748 50.32 10.5052 50.32 10.1007V9.62888H48.28V10.1007C48.28 10.5052 48.008 10.7748 47.6 10.7748C47.192 10.7748 46.92 10.5052 46.92 10.1007V9.62888H44.88V10.1007C44.88 10.5052 44.608 10.7748 44.2 10.7748C43.792 10.7748 43.52 10.5052 43.52 10.1007V9.62888H41.48V10.1007C41.48 10.5052 41.208 10.7748 40.8 10.7748C40.392 10.7748 40.12 10.5052 40.12 10.1007V9.62888H38.08V10.1007C38.08 10.5052 37.808 10.7748 37.4 10.7748C36.992 10.7748 36.72 10.5052 36.72 10.1007V9.62888H34.68V10.1007C34.68 10.5052 34.408 10.7748 34 10.7748C33.592 10.7748 33.32 10.5052 33.32 10.1007V9.62888H31.28V10.1007C31.28 10.5052 31.008 10.7748 30.6 10.7748C30.192 10.7748 29.92 10.5052 29.92 10.1007V9.62888H27.88V10.1007C27.88 10.5052 27.608 10.7748 27.2 10.7748C26.792 10.7748 26.52 10.5052 26.52 10.1007V9.62888H24.48V10.1007C24.48 10.5052 24.208 10.7748 23.8 10.7748C23.392 10.7748 23.12 10.5052 23.12 10.1007V9.62888H21.08V10.1007C21.08 10.5052 20.808 10.7748 20.4 10.7748C19.992 10.7748 19.72 10.5052 19.72 10.1007V9.62888H17.68V10.1007C17.68 10.5052 17.408 10.7748 17 10.7748C16.592 10.7748 16.32 10.5052 16.32 10.1007V9.62888H14.28V10.1007C14.28 10.5052 14.008 10.7748 13.6 10.7748C13.192 10.7748 12.92 10.5052 12.92 10.1007V9.62888H10.88V10.1007C10.88 10.5052 10.608 10.7748 10.2 10.7748C9.792 10.7748 9.52 10.5052 9.52 10.1007V9.62888H7.48V10.1007C7.48 10.5052 7.208 10.7748 6.8 10.7748C6.392 10.7748 6.12 10.5052 6.12 10.1007V9.62888H1.36V17.0437H59.16V9.62888H55.08ZM55.08 8.28074H59.84C60.248 8.28074 60.52 8.55037 60.52 8.95481V25.4022C60.52 25.8066 60.248 26.0763 59.84 26.0763C59.432 26.0763 59.16 25.8066 59.16 25.4022V18.3918H1.36V52.0954H2.04C2.448 52.0954 2.72 52.3651 2.72 52.7695C2.72 53.174 2.448 53.4436 2.04 53.4436H0.68C0.272 53.4436 0 53.174 0 52.7695V8.95481C0 8.55037 0.272 8.28074 0.68 8.28074H6.12V7.67407C6.12 7.26963 6.392 7 6.8 7C7.208 7 7.48 7.26963 7.48 7.67407V8.28074H9.52V7.67407C9.52 7.26963 9.792 7 10.2 7C10.608 7 10.88 7.26963 10.88 7.67407V8.28074H12.92V7.67407C12.92 7.26963 13.192 7 13.6 7C14.008 7 14.28 7.26963 14.28 7.67407V8.28074H16.32V7.67407C16.32 7.26963 16.592 7 17 7C17.408 7 17.68 7.26963 17.68 7.67407V8.28074H19.72V7.67407C19.72 7.26963 19.992 7 20.4 7C20.808 7 21.08 7.26963 21.08 7.67407V8.28074H23.12V7.67407C23.12 7.26963 23.392 7 23.8 7C24.208 7 24.48 7.26963 24.48 7.67407V8.28074H26.52V7.67407C26.52 7.26963 26.792 7 27.2 7C27.608 7 27.88 7.26963 27.88 7.67407V8.28074H29.92V7.67407C29.92 7.26963 30.192 7 30.6 7C31.008 7 31.28 7.26963 31.28 7.67407V8.28074H33.32V7.67407C33.32 7.26963 33.592 7 34 7C34.408 7 34.68 7.26963 34.68 7.67407V8.28074H36.72V7.67407C36.72 7.26963 36.992 7 37.4 7C37.808 7 38.08 7.26963 38.08 7.67407V8.28074H40.12V7.67407C40.12 7.26963 40.392 7 40.8 7C41.208 7 41.48 7.26963 41.48 7.67407V8.28074H43.52V7.67407C43.52 7.26963 43.792 7 44.2 7C44.608 7 44.88 7.26963 44.88 7.67407V8.28074H46.92V7.67407C46.92 7.26963 47.192 7 47.6 7C48.008 7 48.28 7.26963 48.28 7.67407V8.28074H50.32V7.67407C50.32 7.26963 50.592 7 51 7C51.408 7 51.68 7.26963 51.68 7.67407V8.28074H53.72V7.67407C53.72 7.26963 53.992 7 54.4 7C54.808 7 55.08 7.26963 55.08 7.67407V8.28074ZM12.92 27.8288H20.4V23.1103C20.4 22.7059 20.672 22.4363 21.08 22.4363C21.488 22.4363 21.76 22.7059 21.76 23.1103V27.8288H29.24V23.1103C29.24 22.7059 29.512 22.4363 29.92 22.4363C30.328 22.4363 30.6 22.7059 30.6 23.1103V27.8288H33.32C33.728 27.8288 34 28.0985 34 28.5029C34 28.9074 33.728 29.177 33.32 29.177H30.6V33.8955C30.6 34.2999 30.328 34.5696 29.92 34.5696C29.512 34.5696 29.24 34.2999 29.24 33.8955V29.177H21.76V33.8955C21.76 34.2999 21.488 34.5696 21.08 34.5696C20.672 34.5696 20.4 34.2999 20.4 33.8955V29.177H12.92V33.8955C12.92 34.2999 12.648 34.5696 12.24 34.5696C11.832 34.5696 11.56 34.2999 11.56 33.8955V29.177H6.12C5.712 29.177 5.44 28.9074 5.44 28.5029C5.44 28.0985 5.712 27.8288 6.12 27.8288H11.56V23.1103C11.56 22.7059 11.832 22.4363 12.24 22.4363C12.648 22.4363 12.92 22.7059 12.92 23.1103V27.8288Z" fill="currentcolor" class="shade"/>
</svg>
