<svg width="47" height="50" viewBox="0 0 47 50" fill="none" xmlns="http://www.w3.org/2000/svg">
<path fill-rule="evenodd" clip-rule="evenodd" d="M31.6607 0C30.7438 0 30.0051 0.738665 30.0051 1.65563V8.32909C30.0051 9.24605 30.7438 9.98472 31.6607 9.98472C32.5777 9.98472 33.3164 9.24605 33.3164 8.32909V1.65563C33.3164 0.738665 32.5777 0 31.6607 0ZM14.9771 0C14.0601 0 13.3214 0.738665 13.3214 1.65563V8.32909C13.3214 9.24605 14.0601 9.98472 14.9771 9.98472C15.894 9.98472 16.6327 9.24605 16.6327 8.32909V1.65563C16.6327 0.738665 15.894 0 14.9771 0ZM28.324 4.99236C28.324 4.07539 27.5853 3.33673 26.6684 3.33673H19.9949C19.0779 3.33673 18.3393 4.07539 18.3393 4.99236C18.3393 5.90932 19.0779 6.64799 19.9949 6.64799H26.6684C27.5853 6.64799 28.324 5.90932 28.324 4.99236ZM3.33673 46.6633V16.6582H43.3265V46.6633H3.33673ZM43.3265 13.3214H3.33673V6.64799H9.98472C10.9017 6.64799 11.6403 5.90932 11.6403 4.99236C11.6403 4.07539 10.9017 3.33673 9.98472 3.33673H1.65563C0.738665 3.33673 0 4.07539 0 4.99236V48.3444C0 49.2613 0.738665 50 1.65563 50H44.9822C45.8991 50 46.6378 49.2613 46.6378 48.3444V5.01783C46.6378 4.10087 45.8991 3.3622 44.9822 3.3622H36.6531C35.7361 3.3622 34.9975 4.10087 34.9975 5.01783C34.9975 5.93479 35.7361 6.67346 36.6531 6.67346H43.3265V13.3214ZM16.2505 26.2967V41.38H18.8156V23.3316H17.1918L13.3324 25.1623V27.6632L16.2505 26.2967ZM21.3289 39.2142C22.9606 40.8472 24.8903 41.6636 27.1181 41.6636C28.3575 41.6636 29.4401 41.4058 30.3657 40.8901C31.307 40.3745 32.0366 39.6611 32.5543 38.7501C33.072 37.8391 33.3309 36.7734 33.3309 35.553C33.3309 34.4701 33.1034 33.5247 32.6484 32.7168C32.1935 31.8917 31.5581 31.2557 30.7422 30.8088C29.9264 30.3447 28.9694 30.1127 27.8712 30.1127C27.2593 30.1127 26.671 30.1814 26.1062 30.3189C25.5571 30.4564 24.9923 30.6799 24.4118 30.9893L24.6471 25.7553H32.4602V23.3316H22.4585L22.082 32.6652L23.8705 33.2582C24.4353 32.9317 24.9844 32.691 25.5178 32.5363C26.0513 32.3816 26.5925 32.3043 27.1416 32.3043C28.1928 32.3043 29.0478 32.6223 29.7068 33.2582C30.3814 33.877 30.7187 34.6935 30.7187 35.7077C30.7187 36.3952 30.5697 37.014 30.2716 37.5641C29.9892 38.0969 29.5813 38.5095 29.0478 38.8017C28.5301 39.0939 27.9182 39.24 27.2122 39.24C26.3964 39.24 25.6434 39.0853 24.953 38.7759C24.2784 38.4665 23.5881 37.968 22.8821 37.2805L21.3289 39.2142Z" fill="currentcolor"/>
</svg>
