<svg width="35" height="34" viewBox="0 0 35 34" fill="none" xmlns="http://www.w3.org/2000/svg">
<g clip-path="url(#clip0_6359_2831)">
<path fill-rule="evenodd" clip-rule="evenodd" d="M0 6.335C0 3.1 2.656 0.423 5.944 0.423H29.056C32.344 0.423 35 3.098 35 6.335V17.42C35 20.656 32.347 23.33 29.06 23.332H26.5V33.285L17.064 23.332H5.944C2.656 23.332 0 20.657 0 17.42V6.335ZM5.944 2.383C4.89815 2.38801 3.89667 2.80624 3.15788 3.54653C2.41909 4.28682 2.00289 5.28914 2 6.335V17.42C2.00263 18.466 2.41871 19.4686 3.15753 20.2091C3.89635 20.9496 4.89797 21.368 5.944 21.373H17.936L24.5 28.296V21.373H29.058C30.1037 21.3675 31.1048 20.9489 31.8432 20.2084C32.5816 19.468 32.9974 18.4657 33 17.42V6.335C32.9971 5.28914 32.5809 4.28682 31.8421 3.54653C31.1033 2.80624 30.1019 2.38801 29.056 2.383H5.944Z" fill="currentcolor"/>
<path fill-rule="evenodd" clip-rule="evenodd" d="M8 8.755C8.00131 8.62499 8.02821 8.49651 8.07917 8.3769C8.13014 8.25728 8.20416 8.14888 8.29702 8.05788C8.38988 7.96687 8.49976 7.89505 8.62037 7.84652C8.74099 7.79798 8.86999 7.77368 9 7.775H25.797C25.927 7.77368 26.056 7.79798 26.1766 7.84652C26.2972 7.89505 26.4071 7.96687 26.5 8.05788C26.5928 8.14888 26.6669 8.25728 26.7178 8.3769C26.7688 8.49651 26.7957 8.62499 26.797 8.755C26.7957 8.88501 26.7688 9.01349 26.7178 9.1331C26.6669 9.25272 26.5928 9.36112 26.5 9.45212C26.4071 9.54312 26.2972 9.61494 26.1766 9.66348C26.056 9.71202 25.927 9.73632 25.797 9.735H9C8.86999 9.73632 8.74099 9.71202 8.62037 9.66348C8.49976 9.61494 8.38988 9.54312 8.29702 9.45212C8.20416 9.36112 8.13014 9.25272 8.07917 9.1331C8.02821 9.01349 8.00131 8.88501 8 8.755ZM8 14.632C8.00131 14.502 8.02821 14.3735 8.07917 14.2539C8.13014 14.1343 8.20416 14.0259 8.29702 13.9349C8.38988 13.8439 8.49976 13.7721 8.62037 13.7235C8.74099 13.675 8.86999 13.6507 9 13.652H18.296C18.426 13.6507 18.555 13.675 18.6756 13.7235C18.7962 13.7721 18.9061 13.8439 18.999 13.9349C19.0918 14.0259 19.1659 14.1343 19.2168 14.2539C19.2678 14.3735 19.2947 14.502 19.296 14.632C19.2947 14.762 19.2678 14.8905 19.2168 15.0101C19.1659 15.1297 19.0918 15.2381 18.999 15.3291C18.9061 15.4201 18.7962 15.4919 18.6756 15.5405C18.555 15.589 18.426 15.6133 18.296 15.612H9C8.86999 15.6133 8.74099 15.589 8.62037 15.5405C8.49976 15.4919 8.38988 15.4201 8.29702 15.3291C8.20416 15.2381 8.13014 15.1297 8.07917 15.0101C8.02821 14.8905 8.00131 14.762 8 14.632Z" fill="currentcolor"/>
</g>
<defs>
<clipPath id="clip0_6359_2831">
<rect width="35" height="34" fill="white"/>
</clipPath>
</defs>
</svg>
