<svg fill="none" xmlns="http://www.w3.org/2000/svg" viewBox="0 0 66 61" width="66" height="61">
  <path fill-rule="evenodd" clip-rule="evenodd" d="m27.765 24.044-2.028-.362c-.434-1.304-.507-2.173-.29-2.68.363-.724 2.753-6.373 6.88-7.025 4.129-.651 5.505-.29 8.546 2.318 1.956 1.738 2.752 4.997 2.318 9.704l-2.318-1.013s.29-.725-.869-2.318c-1.086-1.593-3.041-1.231-3.331-1.738-.29-.507.724-2.028.724-2.028-1.159-.29-3.186 2.1-5.504 4.056-2.462 1.955-4.128 1.086-4.128 1.086Zm-8.401 20.278c2.39-2.317 5.36-3.548 8.908-3.62-1.159 1.52 1.014 3.258 6.373 5.141 4.056-1.738 5.939-3.549 5.577-5.576 3.693.072 7.024 1.738 10.139 5.07-4.273 4.272-9.56 6.372-15.788 6.372-6.229 0-11.298-2.462-15.209-7.387Z" fill="currentColor" class="tint"/>
  <path fill-rule="evenodd" clip-rule="evenodd" d="M30.807 44.612c-.362-.145-.507-.58-.362-.942.145-.362.579-.507.941-.362l.145.073c.362.145.507.58.362.941-.145.362-.58.507-.941.362l-.145-.072Zm2.68-22.016c-.435.362-.797.724-1.16 1.014-1.665 1.303-3.186 1.593-4.417 1.23-.217-.072-.362-.144-.435-.144-.362-.217-.507-.652-.29-1.014.218-.362.652-.507 1.015-.29 0 0 .072 0 .144.073.797.217 1.883.072 3.115-.942.362-.29.724-.58 1.086-.941.217-.218.434-.362.652-.58 0 0 .507-.434.651-.579.507-.507.87-.797 1.232-1.086 1.014-.797 1.738-1.16 2.534-.942.507.145.652.724.435 1.087-.072.144-.217.362-.362.579-.073.145-.145.29-.217.362 0 .072-.073.145-.073.217h.073c-.145 0 .507.073.651.145.29.073.58.145.797.29.652.29 1.231.724 1.593 1.303.797 1.232 1.087 2.173.942 2.825 0 .072 0 .145-.073.145-.145.362-.579.58-.941.434-.362-.145-.507-.507-.435-.869 0-.072 0-.145-.072-.362-.073-.362-.29-.797-.652-1.376-.29-.362-.58-.652-1.014-.797-.217-.072-.362-.144-.58-.217-.144-.072-.796-.145-.65-.145-.58-.144-.87-.29-1.16-.651-.145-.29-.217-.58-.145-.942-.362.435-1.086 1.086-2.245 2.173ZM47.753 2.824c.362.145.507.58.362.942-.145.362-.58.507-.942.362a28.286 28.286 0 0 0-1.448-.652c-.362-.145-.58-.58-.435-.941.145-.362.58-.58.942-.435.507.29 1.014.507 1.52.724Zm-28.68 40.34.145-.145a7.598 7.598 0 0 1 1.376-1.087c.87-.579 1.956-1.014 3.114-1.303.29-.073.58-.145.942-.218.145-.072.362-.072.58-.144.868-.218 1.882-.435 2.824-.652.217-.073.507-.073.724-.145v-1.81c-.29-.145-.58-.29-.87-.507-.65-.507-1.158-1.16-1.375-1.956-.073-.29-.145-.652-.217-1.086-.073-.435-.145-.797-.218-1.231-.29 0-.651-.218-1.014-.435-.724-.58-1.303-1.738-1.52-3.114-.218-1.376.217-2.318 1.158-2.607.073 0 .073 0 .145-.073-.072-.29-.145-.58-.217-.796-.145-.652-.145-1.16-.145-1.594 0 0 0-.507.072-.724 0-.434.073-.869.145-1.303.145-1.232.507-2.39.942-3.477 1.159-2.68 3.041-4.635 6.01-5.431.073 0 .146 0 .218-.073.217-.072.362-.072.58-.145.362-.072.724-.145 1.013-.145.218 0 .435-.072.652-.072h.362c.218 0 .435 0 .652.072.362 0 .652.073 1.014.145.217.073.434.073.58.145.144 0 .217.073.217.073 2.896.796 4.852 2.68 6.01 5.431.435 1.087.725 2.245.942 3.477.073.434.145.869.145 1.303 0 .217.072.652.072.724.073.435 0 .942-.144 1.594-.073.29-.145.58-.218.796.073 0 .145 0 .145.073.942.29 1.376 1.23 1.159 2.607-.217 1.376-.797 2.535-1.52 3.114-.363.29-.653.435-1.015.435-.072.434-.145.869-.217 1.23l-.217 1.087a3.386 3.386 0 0 1-1.376 1.956c-.29.217-.58.362-.87.507v1.738c.218.072.435.072.652.144.942.218 1.883.363 2.752.58.652.145 1.232.29 1.81.507 1.377.434 2.463 1.014 3.477 1.81.362.29.724.58 1.159.942l.362.362c3.187-3.621 5.142-8.329 5.142-13.543 0-11.298-9.198-20.495-20.495-20.495-3.332 0-6.446.796-9.343 2.245a21.21 21.21 0 0 0-7.097 6.083c-.29.362-.652.58-1.159.58h-.072c-.29 0-.652-.073-.942-.29l-5.36-3.983c-.289-.218-.506-.58-.579-1.014-.072-.435.073-.797.29-1.16C13.208 8.474 16.83 5.36 20.957 3.26 25.303 1.159 30.155 0 34.935 0c2.1 0 4.2.217 6.228.652.942.217 1.883.434 2.752.724.362.145.58.507.507.942-.145.362-.507.579-.941.506a17.155 17.155 0 0 0-2.608-.651c-1.955-.507-3.91-.725-5.938-.725-4.563 0-9.125 1.087-13.181 3.187a29.15 29.15 0 0 0-9.994 8.546v.145l5.359 3.983h.072a23.53 23.53 0 0 1 7.605-6.518c3.114-1.593 6.518-2.462 10.066-2.462C47.03 8.256 56.88 18.105 56.88 30.2c0 12.095-9.85 21.944-21.944 21.944A21.74 21.74 0 0 1 20.45 46.64c-3.91-3.476-6.518-8.184-7.242-13.398-.072-.435.29-.797.724-.797h3.766s.073 0 .073-.072V32.3L9.66 24.19h-.145L1.403 32.3v.073l.073.072h4.128c.362 0 .652.29.724.652 0 .217.073.362.073.797.941 6.952 4.272 13.253 9.487 17.888a28.82 28.82 0 0 0 19.047 7.17c7.677 0 14.919-2.97 20.35-8.401 5.432-5.432 8.401-12.674 8.401-20.351s-2.969-14.919-8.4-20.35c-.87-.87-1.739-1.666-2.68-2.39-.652-.435-1.304-.942-1.956-1.377-.579-.362-1.158-.724-1.738-1.013-.362-.218-.507-.652-.29-1.014.218-.362.652-.507 1.014-.29.58.362 1.232.724 1.811 1.086.652.435 1.376.942 2.028 1.449 1.014.796 1.955 1.593 2.824 2.534 5.722 5.722 8.836 13.326 8.836 21.365 0 8.039-3.114 15.643-8.836 21.365-5.721 5.72-13.325 8.835-21.364 8.835a30.198 30.198 0 0 1-19.989-7.532 30.725 30.725 0 0 1-9.994-18.757v-.217H1.476c-.652 0-1.159-.363-1.376-.942a1.576 1.576 0 0 1 .362-1.666l8.039-8.11c.29-.29.652-.435 1.086-.435.435 0 .797.144 1.086.434l8.112 8.111c.434.435.58 1.087.362 1.666-.217.58-.797.942-1.376.942h-2.897c.507 3.403 2.028 6.59 4.2 9.27Zm22.017-2.028v1.52a.76.76 0 0 1-.362.652l-5.794 2.97a1.005 1.005 0 0 1-.652 0l-1.593-.724c-.362-.145-.507-.58-.362-.942.144-.362.579-.507.941-.362l1.304.58 5.142-2.608v-1.376h-.145c-.145 0-.29-.072-.362-.072-.362-.073-.58-.363-.58-.725v-2.824c0-.29.218-.58.507-.724.073 0 .145-.073.29-.073.217-.072.434-.217.652-.362.434-.29.724-.652.796-1.086.073-.29.145-.652.218-1.014.145-.58.217-1.231.362-1.81 0-.218.072-.435.072-.58v-.217c.145-.87 1.304-.797 1.449-.073.362-.434.724-1.158.796-2.027.073-.435 0-.725-.072-.942-.072-.072-.072-.145-.145-.145h-.145c-.362.652-1.52.362-1.303-.507 0-.072 0-.145.072-.145 0-.072.072-.145.072-.217.073-.217.145-.507.218-.797.072-.29.145-.579.217-.796.072-.507.145-.942.145-1.231 0-.073 0-.507-.073-.725 0-.362-.072-.796-.144-1.158a11.733 11.733 0 0 0-.87-3.114c-.941-2.318-2.607-3.911-4.997-4.563 0 0-.072 0-.217-.072-.145-.073-.362-.073-.58-.145-.289-.073-.651-.073-.868-.145h-1.376c-.29 0-.58.072-.87.145-.217.072-.362.072-.579.145-.072 0-.145.072-.217.072-2.462.652-4.056 2.245-4.997 4.563-.435.941-.652 2.027-.87 3.114-.072.434-.072.796-.144 1.158 0 .218-.073.652-.073.725 0 .29 0 .652.145 1.23.073.29.145.508.218.797.072.29.144.507.217.797 0 .072.072.145.072.217 0 .073.073.145.073.145.145.87-.942 1.159-1.304.507h-.145c-.072 0-.072.073-.145.145-.072.145-.072.507-.072.942.145.869.507 1.665.797 2.027.145-.724 1.303-.796 1.448.073v.217c0 .217.073.362.073.58.072.651.217 1.23.362 1.81.072.362.144.724.217 1.014.145.434.362.797.796 1.086.218.145.435.29.652.362.145.073.218.073.29.073.29.072.507.362.507.724v2.824c0 .362-.217.652-.58.725-.072 0-.217.072-.361.072-.073 0-.218.073-.363.073v1.23l.797.363c.362.145.507.58.362.941-.145.362-.58.507-.941.362l-1.16-.579c-.289-.145-.434-.362-.434-.652v-1.376l-1.955.435c-.217.072-.362.072-.507.145-.29.072-.652.144-.942.217-1.013.29-1.955.652-2.68 1.158-.578.363-1.013.725-1.303 1.087.435.434.87.869 1.376 1.303a20.362 20.362 0 0 0 13.543 5.142 20.442 20.442 0 0 0 14.34-5.866l-.362-.362c-.362-.362-.652-.58-1.014-.869-.87-.652-1.883-1.159-3.042-1.52a54.081 54.081 0 0 0-1.666-.435 30.693 30.693 0 0 0-2.172-.507Z" fill="currentColor" class="shade"/>
</svg>