<svg width="64" height="64" viewBox="0 0 64 64" fill="none" xmlns="http://www.w3.org/2000/svg">
<path fill-rule="evenodd" clip-rule="evenodd" d="M34.2856 2.71436H56.4285C59.5713 2.71436 62.1427 5.2858 62.1427 8.42867V23.4287C62.1427 26.5716 59.5713 29.1431 56.4285 29.1431H43.5713L38.5714 34.3574V29.1431H34.2856C31.1428 29.1431 28.5714 26.5716 28.5714 23.4287V8.42867C28.5714 5.2858 31.1428 2.71436 34.2856 2.71436ZM1.71429 38.4288H9.57142V61.2861H1.71429V38.4288Z" fill="currentcolor" class="tint"/>
<path fill-rule="evenodd" clip-rule="evenodd" d="M51.6429 11.5C51.9286 11.2143 52.3571 11.2143 52.6429 11.5C52.9286 11.7857 52.9286 12.2143 52.6429 12.5L44.0714 21.0714C43.7857 21.3571 43.3571 21.3571 43.0714 21.0714L38.7857 16.7857C38.5 16.5 38.5 16.0714 38.7857 15.7857C39.0714 15.5 39.5 15.5 39.7857 15.7857L43.5714 19.5714L51.6429 11.5ZM34.2857 29.8571C30.7143 29.8571 27.8571 27 27.8571 23.4286V8.42857C27.8571 4.85714 30.7143 2 34.2857 2H56.4286C60 2 62.8571 4.85714 62.8571 8.42857V23.4286C62.8571 27 60 29.8571 56.4286 29.8571H43.8571L39.0714 34.7857C38.6429 35.2143 37.8571 34.9286 37.8571 34.2857V29.8571H34.2857ZM43.0714 28.6429C43.2143 28.5 43.3571 28.4286 43.5714 28.4286H56.4286C59.2143 28.4286 61.4286 26.2143 61.4286 23.4286V8.42857C61.4286 5.64286 59.2143 3.42857 56.4286 3.42857H34.2857C31.5 3.42857 29.2857 5.64286 29.2857 8.42857V23.4286C29.2857 26.2143 31.5 28.4286 34.2857 28.4286H38.5714C39 28.4286 39.2857 28.7143 39.2857 29.1429V32.5714L43.0714 28.6429ZM6 57.7143C6.42857 57.7143 6.71429 57.4286 6.71429 57C6.71429 56.5714 6.42857 56.2857 6 56.2857C5.57143 56.2857 5.28571 56.5714 5.28571 57C5.28571 57.4286 5.57143 57.7143 6 57.7143ZM6 59.1429C4.78571 59.1429 3.85714 58.2143 3.85714 57C3.85714 55.7857 4.78571 54.8571 6 54.8571C7.21429 54.8571 8.14286 55.7857 8.14286 57C8.14286 58.2143 7.21429 59.1429 6 59.1429ZM30.2857 44.1429H38.1429C38.9286 44.1429 39.5714 43.5 39.5714 42.7143V41.2857C39.5714 40.5 38.9286 39.8571 38.1429 39.8571H31.7143H30.2857C29.5 39.8571 28.8571 40.5 28.8571 41.2857V42.7143C28.8571 43.5 29.5 44.1429 30.2857 44.1429ZM36 49.8571H38.1429C38.9286 49.8571 39.5714 49.2143 39.5714 48.4286V47C39.5714 46.2143 38.9286 45.5714 38.1429 45.5714H30.2857C29.5 45.5714 28.8571 46.2143 28.8571 47V48.4286C28.8571 49.2143 29.5 49.8571 30.2857 49.8571H36ZM30.2857 55.5714H34.5714H36C36.7857 55.5714 37.4286 54.9286 37.4286 54.1429V52.7143C37.4286 51.9286 36.7857 51.2857 36 51.2857H30.2857C29.5 51.2857 28.8571 51.9286 28.8571 52.7143V54.1429C28.8571 54.9286 29.5 55.5714 30.2857 55.5714ZM2.42857 45.5714C2.42857 46 2.14286 46.2857 1.71429 46.2857C1.28571 46.2857 1 46 1 45.5714V44.8571C1 44.4286 1.28571 44.1429 1.71429 44.1429C2.14286 44.1429 2.42857 44.4286 2.42857 44.8571V45.5714ZM30.2857 60.5714H33.8571H34.5714C35.3571 60.5714 36 59.9286 36 59.1429V58.4286C36 57.6429 35.3571 57 34.5714 57H30.2857C29.5 57 28.8571 57.6429 28.8571 58.4286V59.1429C28.8571 59.9286 29.5 60.5714 30.2857 60.5714ZM11 60.5714V61.2857C11 61.7143 10.7143 62 10.2857 62H1.71429C1.28571 62 1 61.7143 1 61.2857V47.9286C1 47.5 1.28571 47.2143 1.71429 47.2143C2.14286 47.2143 2.42857 47.5 2.42857 47.9286V60.5714H9.57143V39.1429H2.42857V41.7143C2.42857 42.1429 2.14286 42.4286 1.71429 42.4286C1.28571 42.4286 1 42.1429 1 41.7143V38.4286C1 38 1.28571 37.7143 1.71429 37.7143H10.2857C10.7143 37.7143 11 38 11 38.4286V39.5H11.0714C12.4286 39.1429 13.8571 38.6429 15.2857 38.1429C17.2143 37.4286 20.3571 31.8571 21 28.0714L21.7857 23.0714C21.8571 22.7143 22.1429 22.4286 22.5714 22.5C24.8571 22.6429 26.4286 23.3571 27.1429 24.5714C27.8571 25.7857 28 27.9286 27.6429 31.0714L26.7143 37L26.5 38.4286H31H38.1429C39.7143 38.4286 41 39.7143 41 41.2857V42.7143C41 43.5714 40.6429 44.3571 40 44.8571C40.5714 45.3571 41 46.1429 41 47V48.4286C41 49.9286 39.8571 51.1429 38.5 51.2857C38.7143 51.7143 38.8571 52.2143 38.8571 52.7143V54.1429C38.8571 55.3571 38.0714 56.4286 36.9286 56.8571C37.2143 57.2857 37.4286 57.8571 37.4286 58.4286V59.1429C37.4286 60.7143 36.1429 62 34.5714 62H32.0714H21.9286H21.7857L14.7857 60.5714H11ZM11 59.1429H14.8571H15L22 60.5714H27.7857C27.5714 60.1429 27.4286 59.6429 27.4286 59.1429V58.4286C27.4286 57.5714 27.7857 56.7857 28.4286 56.2857C27.8571 55.7857 27.4286 55 27.4286 54.1429V52.7143C27.4286 51.8571 27.7857 51.0714 28.4286 50.5714C27.8571 50.0714 27.4286 49.2857 27.4286 48.4286V47C27.4286 46.1429 27.7857 45.3571 28.4286 44.8571C27.8571 44.3571 27.4286 43.5714 27.4286 42.7143V41.2857C27.4286 40.7857 27.5714 40.2857 27.7857 39.8571H26.2857L25.7857 43.1429C25.5 45.5 23.3571 49.2143 21.6429 50.5714C21.0714 51.0714 20.4286 51.5 19.9286 51.8571C19.7143 52 19.5714 52.1429 19.4286 52.2143C19.3571 52.2857 19.2857 52.3571 19.2143 52.3571C18.8571 52.5714 18.4286 52.5 18.2143 52.1429C18 51.7857 18.0714 51.3571 18.4286 51.1429C18.4286 51.1429 18.5 51.0714 18.6429 51C18.7857 50.9286 18.9286 50.7857 19.1429 50.6429C19.7143 50.2857 20.2857 49.8571 20.8571 49.3571C22.5 48.0714 24.2143 45 24.5 42.8571L25.5 36.7143L26.4286 30.7857C26.7857 27.9286 26.6429 26.0714 26.1429 25.2143C25.7143 24.5 24.7857 24.0714 23.2857 23.8571L22.5714 28.1429C21.9286 32.3571 18.4286 38.4286 15.9286 39.3571C14.4286 39.9286 12.9286 40.4286 11.5714 40.7857C11.4286 40.8571 11.2857 40.7857 11.1429 40.7857V59.1429H11Z" fill="currentcolor" class="shade"/>
</svg>
