<svg width="47" height="28" viewBox="0 0 47 28" fill="none" xmlns="http://www.w3.org/2000/svg">
    <g clip-path="url(#clip0_513_497)">
        <path fill-rule="evenodd" clip-rule="evenodd"
              d="M20.1 19.6C19.9 19.1 20.1 18.5 20.6 18.3C21.1 18.1 21.7 18.3 21.9 18.8C23.8 23.2 28.1 26 32.9 26C39.5 26 44.9 20.6 44.9 14C44.9 7.4 39.6 2 33 2C29.1 2 25.6 3.8 23.3 6.9C23 7.3 22.3 7.4 21.9 7.1C21.5 6.8 21.4 6.1 21.7 5.7C24.3 2.1 28.5 0 33 0C40.8 0 47 6.3 47 14C47 21.7 40.7 28 33 28C27.3 28 22.3 24.6 20.1 19.6ZM6.5 13.7L6.3 14.3C6.1 14.7 5.7 15 5.3 15H1C0.4 15 0 14.6 0 14C0 13.4 0.4 13 1 13H4.6L5.6 10.2C5.9 9.3 7.2 9.3 7.5 10.3L9.9 18.6L13 5.8C13.2 4.8 14.7 4.8 14.9 5.8L17 13H23C23.6 13 24 13.4 24 14C24 14.6 23.6 15 23 15H16.2C15.8 15 15.4 14.7 15.2 14.3L14 10L11 22.7C10.8 23.7 9.4 23.7 9.1 22.7L6.5 13.7ZM34 13H38.5C39.1 13 39.5 13.4 39.5 14C39.5 14.6 39.1 15 38.5 15H34V19.5C34 20.1 33.6 20.5 33 20.5C32.4 20.5 32 20.1 32 19.5V15H27.5C26.9 15 26.5 14.6 26.5 14C26.5 13.4 26.9 13 27.5 13H32V8.5C32 7.9 32.4 7.5 33 7.5C33.6 7.5 34 7.9 34 8.5V13Z"
              fill="currentcolor"/>
    </g>
    <defs>
        <clipPath id="clip0_513_497">
            <rect width="47" height="28" fill="white"/>
        </clipPath>
    </defs>
</svg>
