<svg width="66" height="64" viewBox="0 0 66 64" fill="none" xmlns="http://www.w3.org/2000/svg">
<path fill-rule="evenodd" clip-rule="evenodd" d="M18.975 48.3747C16.665 48.3747 14.85 46.5597 14.85 44.2497C14.85 41.9397 16.665 40.1247 18.975 40.1247C21.285 40.1247 23.1 41.9397 23.1 44.2497C23.1 46.5597 21.285 48.3747 18.975 48.3747ZM61.9574 59.9247H38.775V17.8497H61.9574C63.7724 17.8497 65.175 19.3347 65.175 21.1497V56.6247C65.175 58.4397 63.6899 59.9247 61.9574 59.9247ZM52.8 11.2497L5.77495 11.1672V48.7872C5.77495 50.9322 4.94995 51.6747 3.29995 51.6747C1.64995 51.6747 0.824951 51.0147 0.824951 48.7872V6.29971C0.824951 4.81471 1.81495 3.82471 3.29995 3.82471H18.975L22.6875 7.12471H52.8V11.2497Z" fill="currentcolor" class="tint"/>
<path fill-rule="evenodd" clip-rule="evenodd" d="M37.95 59.1V18.675H33V59.1H37.95ZM39.6 59.1H61.9575C63.2775 59.1 64.35 58.0275 64.35 56.625V21.15C64.35 19.83 63.2775 18.675 61.9575 18.675H39.6V59.1ZM60.225 17.025H61.9575C64.185 17.025 66 18.84 66 21.15V56.625C66 58.8525 64.185 60.75 61.9575 60.75H32.175C31.68 60.75 31.35 60.42 31.35 59.925V53.325H27.225C26.73 53.325 26.4 52.995 26.4 52.5C26.4 52.005 26.73 51.675 27.225 51.675H31.35V17.85C31.35 17.355 31.68 17.025 32.175 17.025H58.575V12.9C58.575 12.405 58.245 12.075 57.75 12.075L7.425 11.9925C6.93 11.9925 6.6 12.3225 6.6 12.8175V50.025C6.6 50.6025 6.435 51.18 6.1875 51.675H10.725C11.22 51.675 11.55 52.005 11.55 52.5C11.55 52.995 11.22 53.325 10.725 53.325H3.96C3.8775 53.325 3.795 53.325 3.7125 53.325C3.5475 53.325 3.465 53.325 3.3 53.325C1.485 53.325 0 51.84 0 50.025V6.3C0 4.4025 1.4025 3 3.3 3H18.975C19.14 3 19.3875 3.0825 19.5525 3.2475L23.0175 6.3H52.8C53.295 6.3 53.625 6.63 53.625 7.125V8.775C53.625 9.27 53.295 9.6 52.8 9.6C52.305 9.6 51.975 9.27 51.975 8.775V7.95H22.6875C22.5225 7.95 22.275 7.8675 22.11 7.7025L18.645 4.65H3.3C2.31 4.65 1.65 5.31 1.65 6.3V50.025C1.65 50.9325 2.3925 51.675 3.3 51.675C4.2075 51.675 4.95 50.9325 4.95 50.025V12.8175C4.95 11.415 6.0225 10.3425 7.425 10.3425L57.75 10.425C59.1525 10.425 60.225 11.4975 60.225 12.9V17.025Z" fill="currentcolor" class="shade"/>
<path fill-rule="evenodd" clip-rule="evenodd" d="M20.625 34.5149C21.6975 33.7724 22.11 33.1949 22.11 32.7824C22.11 32.4524 21.8625 32.0399 21.2025 31.4624C21.285 32.3699 21.0375 33.3599 20.625 34.5149ZM14.7675 21.3974C15.9225 20.7374 17.655 20.5724 20.5425 20.5724C20.955 20.5724 21.3675 20.5724 22.11 20.5724C23.8425 20.5724 24.75 20.5724 25.41 20.4899C23.3475 19.1699 17.82 18.5924 14.025 19.4999C12.1275 19.9124 11.055 20.6549 10.9725 21.3149C10.89 22.2224 11.88 23.5424 14.4375 25.1924C13.2 23.5424 13.2825 22.2224 14.7675 21.3974ZM16.5 55.7999C16.005 55.7999 15.675 55.4699 15.675 54.9749C15.675 54.4799 16.005 54.1499 16.5 54.1499H21.45C21.945 54.1499 22.275 54.4799 22.275 54.9749C22.275 55.4699 21.945 55.7999 21.45 55.7999H16.5ZM14.85 53.3249C14.355 53.3249 14.025 52.9949 14.025 52.4999C14.025 52.0049 14.355 51.6749 14.85 51.6749H23.1C23.595 51.6749 23.925 52.0049 23.925 52.4999C23.925 52.9949 23.595 53.3249 23.1 53.3249H14.85ZM18.975 47.5499C20.79 47.5499 22.275 46.0649 22.275 44.2499C22.275 42.4349 20.79 40.9499 18.975 40.9499C17.16 40.9499 15.675 42.4349 15.675 44.2499C15.675 46.0649 17.16 47.5499 18.975 47.5499ZM18.975 49.1999C16.2525 49.1999 14.025 46.9724 14.025 44.2499C14.025 41.5274 16.2525 39.2999 18.975 39.2999C21.6975 39.2999 23.925 41.5274 23.925 44.2499C23.925 46.9724 21.6975 49.1999 18.975 49.1999ZM18.0675 37.6499H13.2C12.2925 37.6499 11.55 38.3924 11.55 39.2999V57.4499C11.55 58.3574 12.2925 59.0999 13.2 59.0999H24.75C25.6575 59.0999 26.4 58.3574 26.4 57.4499V39.2999C26.4 38.3924 25.6575 37.6499 24.75 37.6499H18.2325C18.2325 37.6499 18.15 37.6499 18.0675 37.6499ZM17.7375 35.9999C19.8 33.2774 19.965 31.5449 18.81 29.8124C18.15 29.3999 15.0975 27.5849 13.9425 26.9249C10.6425 24.7799 9.07502 22.8824 9.32252 21.1499C9.57002 19.4999 11.1375 18.5099 13.6125 17.9324C17.985 16.9424 24.3375 17.5199 26.6475 19.4174C27.9675 20.4899 27.72 21.7274 26.1525 22.0574C25.41 22.2224 24.5025 22.2224 22.11 22.2224C21.3675 22.2224 20.955 22.2224 20.5425 22.2224C17.9025 22.2224 16.335 22.4699 15.51 22.8824C14.9325 23.2124 15.015 23.7899 16.5825 25.2749C16.665 25.3574 16.665 25.3574 16.665 25.3574C16.83 25.5224 18.3975 27.0074 18.81 27.4199C19.2225 27.8324 19.5525 28.2449 19.8 28.5749C22.5225 30.2249 23.595 31.2974 23.595 32.6999C23.595 33.8549 22.8525 34.8449 21.12 35.9999H24.75C26.565 35.9999 28.05 37.4849 28.05 39.2999V57.4499C28.05 59.2649 26.565 60.7499 24.75 60.7499H13.2C11.385 60.7499 9.90002 59.2649 9.90002 57.4499V39.2999C9.90002 37.4849 11.385 35.9999 13.2 35.9999H17.7375Z" fill="currentcolor" class="shade"/>
</svg>
