<svg width="27" height="34" viewBox="0 0 27 34" fill="none" xmlns="http://www.w3.org/2000/svg">
<g clip-path="url(#clip0_6359_2830)">
<path fill-rule="evenodd" clip-rule="evenodd" d="M20.494 23.445C23.168 19.975 24.916 16.575 24.916 13.531C24.916 7.152 19.776 2 13.458 2C7.14 2 2 7.152 2 13.531C2 16.575 3.752 19.978 6.428 23.451C8.599 26.271 11.185 28.896 13.458 31.171C15.737 28.89 18.323 26.264 20.494 23.445ZM14.872 32.585C19.929 27.525 26.916 20.341 26.916 13.531C26.916 6.058 20.89 0 13.458 0C6.026 0 0 6.058 0 13.531C0 20.34 6.998 27.536 12.044 32.585L12.507 33.048C12.835 33.376 13.153 33.693 13.457 34C13.9276 33.5273 14.3993 33.0556 14.872 32.585Z" fill="currentcolor"/>
<path fill-rule="evenodd" clip-rule="evenodd" d="M13.458 10.35C11.698 10.35 10.252 11.794 10.252 13.6C10.252 15.404 11.698 16.85 13.458 16.85C15.218 16.85 16.664 15.404 16.664 13.6C16.664 11.794 15.218 10.35 13.458 10.35ZM8.25195 13.6C8.25195 10.71 10.574 8.35 13.458 8.35C16.342 8.35 18.664 10.71 18.664 13.6C18.664 16.489 16.342 18.85 13.458 18.85C10.574 18.85 8.25195 16.489 8.25195 13.6Z" fill="currentcolor"/>
</g>
<defs>
<clipPath id="clip0_6359_2830">
<rect width="27" height="34" fill="white"/>
</clipPath>
</defs>
</svg>
