<svg width="41" height="39" viewBox="0 0 41 39" fill="none" xmlns="http://www.w3.org/2000/svg">
<g clip-path="url(#clip0_47_152)">
<path d="M30.1206 18.6888C32.023 17.2675 32.8506 14.8215 32.1845 12.5312C31.5133 10.2359 29.4999 8.61363 27.1282 8.43282L24.8322 0.567523C24.7363 0.246081 24.4487 0.0150442 24.1106 -2.33817e-05C23.7725 -0.015091 23.4597 0.175765 23.3335 0.487163C20.5228 7.26257 9.84514 12.3253 9.4364 12.5212L2.3516 14.5704C1.51394 14.8114 0.822615 15.3639 0.398738 16.1273C-0.020093 16.8857 -0.121016 17.7647 0.126245 18.5984L1.85203 24.5049C2.09425 25.3387 2.64932 26.0268 3.41634 26.4487C3.77966 26.6445 4.17326 26.7701 4.58705 26.8203L11.7879 37.7996C12.2774 38.548 13.105 38.995 13.9981 38.995C14.2504 38.995 14.4977 38.9598 14.745 38.8895L19.9526 37.3827C21.0274 37.0713 21.6481 35.9463 21.3352 34.8765L21.0375 33.8569C20.8558 33.2391 20.5178 32.6666 20.0636 32.2095L16.1074 28.2467C15.5473 27.6892 15.0982 27.0363 14.7702 26.3181L13.9981 24.6154C17.3134 24.4597 26.3309 24.3693 31.2307 27.4381C31.5032 27.6089 31.8766 27.5938 32.129 27.3979C32.3913 27.202 32.5074 26.8605 32.4115 26.5441L30.1155 18.6788L30.1206 18.6888ZM27.6126 10.1003C29.0659 10.4318 30.2316 11.5167 30.6555 12.9732C31.0794 14.4247 30.6757 15.9616 29.6311 17.0214L27.6126 10.1053V10.1003ZM13.3674 28.0358C13.1655 28.0961 12.9939 28.2266 12.893 28.4125C12.7921 28.5983 12.7669 28.8092 12.8274 29.0152C12.9485 29.422 13.3976 29.6731 13.8114 29.5526L14.8762 29.2462C14.9115 29.2864 14.9468 29.3266 14.9872 29.3617L16.0771 30.4516L16.0115 30.4717C15.5927 30.5922 15.3505 31.0342 15.4716 31.4511C15.5927 31.8579 16.0317 32.1091 16.4556 31.9885L17.3488 31.7273L18.5548 32.9328L18.0603 33.0784C17.6414 33.1989 17.3992 33.6409 17.5203 34.0578C17.6414 34.4646 18.1006 34.7107 18.5043 34.5952L19.5237 34.2989L19.8214 35.3134C19.887 35.5445 19.7558 35.7906 19.5186 35.8559L14.311 37.3626C13.8619 37.4932 13.3825 37.3174 13.1302 36.9257L6.34815 26.5843L12.3682 24.8414L13.332 26.966C13.4784 27.2824 13.6449 27.5988 13.8316 27.8951L13.3724 28.0257L13.3674 28.0358ZM11.8081 18.4829C11.6214 18.3825 11.4094 18.3573 11.2026 18.4176C11.0007 18.4779 10.8291 18.6085 10.7282 18.7943C10.6273 18.9801 10.6021 19.1911 10.6626 19.397L11.8182 23.3648L5.46003 25.2031C4.57191 25.4592 3.63837 24.9469 3.38101 24.068L1.65523 18.1615C1.52908 17.7346 1.57954 17.2825 1.79652 16.8908C2.01351 16.499 2.36674 16.2178 2.79566 16.0922L9.15381 14.2539L9.27492 14.6758C9.39603 15.0927 9.83505 15.3338 10.2589 15.2132C10.6778 15.0927 10.92 14.6507 10.7989 14.2338L10.6424 13.6964C12.7315 12.6618 20.4067 8.57345 23.8583 2.92309L30.3628 25.2081C24.5042 22.6064 15.7088 22.9279 13.3774 23.0735L12.1765 18.9601C12.1159 18.7592 11.9847 18.5884 11.798 18.4879L11.8081 18.4829Z" fill="currentcolor"/>
<path d="M39.3046 10.472C39.1835 10.0552 38.7394 9.81408 38.3206 9.93462L34.763 10.9642C34.3442 11.0848 34.102 11.5268 34.2231 11.9436C34.319 12.2801 34.6369 12.5162 34.9851 12.5162C35.0608 12.5162 35.1314 12.5062 35.2071 12.4861L38.7646 11.4564C39.1835 11.3359 39.4257 10.8939 39.3046 10.4771V10.472Z" fill="currentcolor"/>
<path d="M40.5913 19.844L37.3416 18.066C36.9581 17.8551 36.4736 17.9957 36.2617 18.3774C36.0498 18.7591 36.191 19.2413 36.5746 19.4523L39.8243 21.2302C39.9403 21.2955 40.0715 21.3257 40.2078 21.3257C40.4954 21.3257 40.7629 21.17 40.9041 20.9138C41.1161 20.5321 40.9748 20.0499 40.5913 19.839V19.844Z" fill="currentcolor"/>
<path d="M35.0305 0.803587C34.647 0.59264 34.1626 0.733272 33.9506 1.11498L32.1643 4.3495C32.0634 4.53533 32.0381 4.74628 32.0987 4.9522C32.1592 5.1531 32.2904 5.32387 32.4771 5.42432C32.5932 5.48961 32.7244 5.51975 32.8606 5.51975C33.1483 5.51975 33.4157 5.36405 33.557 5.11292L35.3434 1.87841C35.5553 1.4967 35.414 1.01453 35.0305 0.803587Z" fill="currentcolor"/>
</g>
<defs>
<clipPath id="clip0_47_152">
<rect width="41" height="39" fill="white"/>
</clipPath>
</defs>
</svg>
