<svg width="44" height="29" viewBox="0 0 44 29" fill="none" xmlns="http://www.w3.org/2000/svg">
<g clip-path="url(#clip0_922_38)">
<path fill-rule="evenodd" clip-rule="evenodd" d="M18.4324 9.63243C18.0757 9.75135 17.8378 10.1081 17.8378 10.3459C17.8378 10.5838 18.0757 10.8216 18.4324 11.0595V9.63243ZM20.8108 15.3405C21.1676 15.1027 21.4054 14.8649 21.4054 14.627C21.4054 14.3892 21.1676 14.1513 20.8108 13.9135V15.3405ZM18.4324 15.3405V13.4378C16.7676 13.0811 15.4595 11.8919 15.4595 10.3459C15.4595 8.8 16.7676 7.49189 18.4324 7.13513V6.54054C18.4324 5.82702 18.9081 5.35135 19.6216 5.35135C20.3351 5.35135 20.8108 5.82702 20.8108 6.54054V7.13513C22.4757 7.49189 23.7838 8.68108 23.7838 10.3459C23.7838 11.0595 23.3081 11.5351 22.5946 11.5351C21.8811 11.5351 21.4054 11.0595 21.4054 10.3459C21.4054 10.1081 21.1676 9.87027 20.8108 9.63243V11.5351C22.4757 11.8919 23.7838 13.0811 23.7838 14.627C23.7838 16.173 22.4757 17.4811 20.8108 17.8378V18.4324C20.8108 19.1459 20.3351 19.6216 19.6216 19.6216C18.9081 19.6216 18.4324 19.1459 18.4324 18.4324V17.8378C16.7676 17.4811 15.4595 16.173 15.4595 14.627C15.4595 13.9135 15.9351 13.4378 16.6486 13.4378C17.3622 13.4378 17.8378 13.9135 17.8378 14.627C17.8378 14.8649 18.0757 15.2216 18.4324 15.3405ZM19.6216 20.2162C23.9027 20.2162 27.3513 16.7676 27.3513 12.4865C27.3513 8.2054 23.9027 4.75675 19.6216 4.75675C15.3405 4.75675 11.8919 8.2054 11.8919 12.4865C11.8919 16.7676 15.3405 20.2162 19.6216 20.2162ZM19.6216 22.5946C14.0324 22.5946 9.51351 18.0757 9.51351 12.4865C9.51351 6.89729 14.0324 2.37838 19.6216 2.37838C25.2108 2.37838 29.7297 6.89729 29.7297 12.4865C29.7297 18.0757 25.2108 22.5946 19.6216 22.5946ZM2.37838 2.37838V22.5946H38.054V2.37838H2.37838ZM40.4324 3.56757H42.8108C43.5243 3.56757 44 4.04324 44 4.75675V27.3513C44 28.0649 43.5243 28.5405 42.8108 28.5405H4.75675C4.04324 28.5405 3.56757 28.0649 3.56757 27.3513V24.973H1.18919C0.475675 24.973 0 24.4973 0 23.7838V1.18919C0 0.475675 0.475675 0 1.18919 0H39.2432C39.9567 0 40.4324 0.475675 40.4324 1.18919V3.56757ZM40.4324 5.94594V23.7838C40.4324 24.4973 39.9567 24.973 39.2432 24.973H5.94594V26.1621H41.6216V5.94594H40.4324Z" fill="currentcolor"/>
</g>
<defs>
<clipPath id="clip0_922_38">
<rect width="44" height="28.5405" fill="white"/>
</clipPath>
</defs>
</svg>
