<svg width="64" height="64" viewBox="0 0 64 64" fill="none" xmlns="http://www.w3.org/2000/svg">
<path d="M6.13702 44.7091H58.2388V17.1365H62.2466V49.5748H6.13702V44.7091Z" fill="currentcolor" class="tint"/>
<path d="M16.6577 27.658C16.6577 20.3951 22.5455 14.5073 29.8084 14.5073C37.0713 14.5073 42.9591 20.3951 42.9591 27.658V29.4114C42.9591 36.6744 37.0713 42.5621 29.8084 42.5621C22.5455 42.5621 16.6577 36.6744 16.6577 29.4114V27.658Z" fill="currentcolor" class="tint"/>
<path fill-rule="evenodd" clip-rule="evenodd" d="M57.7778 11C58.2687 11 58.6667 11.3925 58.6667 11.8767L58.6662 16.2591L63.1111 16.2603C63.602 16.2603 64 16.6528 64 17.137V50.452C64 50.9362 63.602 51.3288 63.1111 51.3288H6.22222C5.7313 51.3288 5.33333 50.9362 5.33333 50.452L5.33248 46.0684L0.888889 46.0685C0.397969 46.0685 0 45.676 0 45.1918V11.8767C0 11.3925 0.397969 11 0.888889 11H57.7778ZM62.2222 18.0137L58.6662 18.0134L58.6667 45.1918C58.6667 45.676 58.2687 46.0685 57.7778 46.0685L7.1104 46.0684L7.11111 49.5753H62.2222V18.0137ZM56.8889 12.7534H1.77778V44.3151H56.8889V12.7534ZM29.3333 14.5068C37.188 14.5068 43.5556 20.7871 43.5556 28.5342C43.5556 36.2814 37.188 42.5616 29.3333 42.5616C21.4786 42.5616 15.1111 36.2814 15.1111 28.5342C15.1111 20.7871 21.4786 14.5068 29.3333 14.5068ZM29.3333 16.2603C22.4605 16.2603 16.8889 21.7555 16.8889 28.5342C16.8889 35.313 22.4605 40.8082 29.3333 40.8082C36.2062 40.8082 41.7778 35.313 41.7778 28.5342C41.7778 21.7555 36.2062 16.2603 29.3333 16.2603ZM29.3333 18.8173C29.8243 18.8173 30.2222 19.2099 30.2222 19.6941L30.2227 21.2845C32.7118 21.6023 34.6667 23.2338 34.6667 25.3196C34.6667 25.8038 34.2687 26.1963 33.7778 26.1963C33.2869 26.1963 32.8889 25.8038 32.8889 25.3196C32.8889 24.2853 31.7835 23.3269 30.2234 23.057L30.2227 27.7137C32.7118 28.0315 34.6667 29.6631 34.6667 31.7488C34.6667 33.8346 32.7118 35.4662 30.2227 35.784L30.2222 37.3744C30.2222 37.8586 29.8243 38.2511 29.3333 38.2511C28.8424 38.2511 28.4444 37.8586 28.4444 37.3744L28.4443 35.784C25.955 35.4663 24 33.8347 24 31.7488C24 31.2647 24.398 30.8721 24.8889 30.8721C25.3798 30.8721 25.7778 31.2647 25.7778 31.7488C25.7778 32.7835 26.8838 33.7421 28.4446 34.0117L28.4443 29.3548C25.955 29.0371 24 27.4055 24 25.3196C24 23.2338 25.955 21.6021 28.4443 21.2845L28.4444 19.6941C28.4444 19.2099 28.8424 18.8173 29.3333 18.8173ZM30.2234 29.4862V34.0115C31.7835 33.7416 32.8889 32.7832 32.8889 31.7488C32.8889 30.7145 31.7835 29.7561 30.2234 29.4862ZM25.7778 25.3196C25.7778 26.3543 26.8838 27.3129 28.4446 27.5825V23.0568C26.8838 23.3264 25.7778 24.285 25.7778 25.3196Z" fill="currentcolor" class="shade"/>
</svg>
