<svg width="31" height="31" viewBox="0 0 31 31" fill="currentcolor" xmlns="http://www.w3.org/2000/svg">
    <path fill-rule="evenodd" clip-rule="evenodd" d="M25.1 0.3C25.5 -0.1 26.1 -0.1 26.5 0.3L30.7 4.5C31.1 4.9 31.1 5.5 30.7 5.9L14.6 22C14.4 22.2 14.2 22.3 14 22.3L9.1 23C8.4 23.1 7.9 22.5 8 21.9L8.7 17C8.7 16.8 8.8 16.6 9 16.4L25.1 0.3ZM24 14.2C24 13.6 24.4 13.2 25 13.2C25.6 13.2 26 13.6 26 14.2V27C26 29.6 24.2 31 21.5 31H4C1.4 31 0 29.6 0 27V9.5C0 6.7 1.4 5 4 5H15.8C16.4 5 16.8 5.4 16.8 6C16.8 6.6 16.4 7 15.8 7H4C2.6 7 2 7.7 2 9.5V27C2 28.6 2.4 29 4 29H21.5C23.2 29 24 28.4 24 27V14.2ZM26.6 7.2L28.6 5.2L25.8 2.4L23.8 4.4L26.6 7.2ZM13.7 20.1L10.9 17.3L10.6 17.6L10.1 20.8L13.3 20.3L13.7 20.1ZM15.1 18.7L25.2 8.6L22.4 5.8L12.3 15.9L15.1 18.7Z" fill="currentcolor"/>
</svg>
