<svg width="29" height="28" viewBox="0 0 29 28" fill="none" xmlns="http://www.w3.org/2000/svg">
<g clip-path="url(#clip0_5766_5284)">
<path fill-rule="evenodd" clip-rule="evenodd" d="M24.8887 22H27.8887C28.4887 22 28.8887 22.4 28.8887 23C28.8887 23.6 28.4887 24 27.8887 24H24.8887V27C24.8887 27.6 24.4887 28 23.8887 28C23.2887 28 22.8887 27.6 22.8887 27V24H19.8887C19.2887 24 18.8887 23.6 18.8887 23C18.8887 22.4 19.2887 22 19.8887 22H22.8887V19C22.8887 18.4 23.2887 18 23.8887 18C24.4887 18 24.8887 18.4 24.8887 19V22ZM17.8887 7.5C17.8887 4.5 15.3887 2 12.3887 2C9.38867 2 6.88867 4.5 6.88867 7.5C6.88867 10.5 9.38867 13 12.3887 13C15.3887 13 17.8887 10.5 17.8887 7.5ZM9.38867 14.4C6.68867 13.2 4.88867 10.6 4.88867 7.5C4.88867 3.4 8.28867 0 12.3887 0C16.4887 0 19.8887 3.4 19.8887 7.5C19.8887 10.6 17.9887 13.3 15.2887 14.4C16.8887 14.8 18.2887 15.6 19.5887 16.7C19.9887 17.1 20.0887 17.7 19.6887 18.1C19.2887 18.5 18.6887 18.6 18.2887 18.2C16.5887 16.8 14.4887 16 12.2887 16C7.08867 16 2.88867 20.2 2.88867 25.4C2.88867 25.5 2.88867 25.5 2.88867 25.6C2.88867 25.7 2.88867 25.7 2.88867 25.8C2.88867 25.9 2.88867 25.9 2.88867 26C2.88867 26.6 2.48867 27 1.98867 27.1C1.38867 27.1 0.988672 26.7 0.888672 26.2C0.888672 26 0.888672 26 0.888672 25.9C0.888672 25.8 0.888672 25.8 0.888672 25.7C0.888672 25.6 0.888672 25.4 0.888672 25.3C0.888672 20.1 4.48867 15.6 9.38867 14.4Z" fill="currentcolor"/>
</g>
<defs>
<clipPath id="clip0_5766_5284">
<rect width="28" height="28" fill="white" transform="translate(0.888672)"/>
</clipPath>
</defs>
</svg>
