<svg width="64" height="64" viewBox="0 0 64 64" fill="none" xmlns="http://www.w3.org/2000/svg">
<path fill-rule="evenodd" clip-rule="evenodd" d="M40.1023 49.5429C36.5796 46.8656 35.1705 44.8929 37.0727 43.5543C37.9887 42.9202 38.975 43.202 40.1023 44.3997C41.0887 43.202 42.1455 42.9906 43.2727 43.7656C44.9637 44.8224 42.9205 47.4997 40.1023 49.5429ZM14.7387 48.5565C10.5818 44.2588 8.04547 38.4111 8.04547 31.9997C8.04547 18.7543 18.7546 8.04517 32 8.04517C45.2455 8.04517 55.9546 18.7543 55.9546 31.9997C55.9546 38.1293 53.6296 43.7656 49.825 47.9929C48.8387 42.9202 46.3023 39.6793 42.2159 38.4111C43.1318 35.1702 43.7659 30.3088 44.0477 23.8974C44.3296 17.8383 38.6932 12.2724 32.3523 12.2724C28.6887 12.2724 24.3205 14.1747 22.1364 17.1338C17.6273 23.3338 18.9659 31.1543 22.1364 38.4111C18.3318 39.6793 16.2887 41.4406 14.7387 48.5565Z" fill="currentcolor" class="tint"/>
<path fill-rule="evenodd" clip-rule="evenodd" d="M61.3091 27.8432C61.2386 27.4909 61.5205 27.0682 61.9432 27.0682C62.2955 26.9977 62.7182 27.2795 62.7182 27.7023C62.9295 29.1114 63 30.5909 63 32C63 49.1205 49.1205 63 32 63C14.8795 63 1 49.1205 1 32C1 14.8795 14.8795 1 32 1C43.9773 1 54.7568 7.90454 59.9 18.5432C60.0409 18.8955 59.9 19.3182 59.5477 19.4591C59.1955 19.6 58.7727 19.4591 58.6318 19.1068C53.7705 8.96136 43.4841 2.40909 32 2.40909C15.6545 2.40909 2.40909 15.6545 2.40909 32C2.40909 48.3455 15.6545 61.5909 32 61.5909C48.3455 61.5909 61.5909 48.3455 61.5909 32C61.5909 30.5909 61.5205 29.2523 61.3091 27.8432ZM60.0409 22.5591C59.9 22.2068 60.1114 21.7841 60.4636 21.6432C60.8159 21.5023 61.2386 21.7136 61.3795 22.0659C61.5205 22.5591 61.7318 23.0523 61.8727 23.6159C61.9432 23.9682 61.7318 24.3909 61.3795 24.4614C61.0273 24.5318 60.6045 24.3205 60.5341 23.9682C60.3932 23.5455 60.2523 23.0523 60.0409 22.5591ZM40.1023 43.4136C40.5955 42.9205 41.3 42.5682 42.075 42.5682C43.625 42.5682 44.6818 43.5545 44.6818 45.175C44.6818 46.5841 42.7091 48.5568 40.525 50.1773C40.2432 50.3886 39.9614 50.3886 39.6795 50.1773C37.4955 48.5568 35.5227 46.5841 35.5227 45.175C35.5227 43.4841 36.5795 42.5682 38.1295 42.5682C38.9045 42.5682 39.6091 42.9205 40.1023 43.4136ZM43.2727 45.175C43.2727 44.3295 42.85 43.9773 42.075 43.9773C41.4409 43.9773 40.8068 44.5409 40.8068 45.0341C40.7364 45.3864 40.4545 45.5273 40.1023 45.5273C39.75 45.5273 39.4682 45.3864 39.3977 45.0341C39.3977 44.5409 38.8341 43.9773 38.1295 43.9773C37.3545 43.9773 36.9318 44.3295 36.9318 45.175C36.9318 45.8091 38.4818 47.4295 40.1023 48.6977C41.7227 47.5 43.2727 45.8795 43.2727 45.175ZM21.3614 19.6705C21.2205 20.0227 20.7977 20.1636 20.4455 20.0227C20.0932 19.8818 19.9523 19.4591 20.0932 19.1068C20.6568 17.6977 21.5727 16.5 22.7 15.5841C22.9818 15.3023 23.4045 15.3727 23.6864 15.6545C23.9682 15.9364 23.8977 16.3591 23.6159 16.6409C22.6295 17.4159 21.8545 18.4727 21.3614 19.6705ZM32 56.6591C18.4023 56.6591 7.34091 45.5977 7.34091 32C7.34091 18.4023 18.4023 7.34091 32 7.34091C36.0864 7.34091 40.0318 8.32727 43.5545 10.2295C45.3864 11.2159 47.0773 12.4136 48.6273 13.8227C49.4727 14.5977 50.2477 15.4432 50.9523 16.2886C54.6159 20.6568 56.6591 26.1523 56.6591 32C56.6591 45.5977 45.5977 56.6591 32 56.6591ZM39.8909 24.8841C39.9614 24.9545 40.1023 25.025 40.1727 25.0955L40.2432 25.1659C40.3841 25.2364 40.4545 25.3773 40.4545 25.5886C40.525 25.5886 40.6659 25.5886 40.7364 25.6591C41.5818 25.9409 42.0045 26.7864 41.7932 28.0545C41.5818 29.2523 41.0886 30.3091 40.4545 30.8023C40.1727 31.0136 39.8909 31.1545 39.6091 31.225C39.5386 31.5773 39.4682 31.9295 39.3977 32.2818C39.3273 32.6341 39.2568 32.9159 39.1864 33.1977C39.0455 33.8318 38.6932 34.3955 38.2705 34.8182C38.0591 35.0295 37.8477 35.1705 37.6364 35.3114V36.7909C37.8477 36.8614 37.9886 36.8614 38.2 36.9318C39.0455 37.1432 39.8909 37.2841 40.6659 37.4955C41.0182 37.5659 41.3705 37.7068 41.7227 37.7773C42.9909 30.9432 43.4136 25.8705 43.1318 22.5591C42.7091 17.0636 37.7773 12.9773 32.9864 12.9773C31.225 12.9773 29.8159 13.1182 28.6182 13.4705C27.6318 13.7523 26.7864 14.1045 26.0114 14.6682C25.6591 14.8795 25.2364 14.8091 25.025 14.4568C24.8136 14.1045 24.8841 13.6818 25.2364 13.4705C26.1523 12.8364 27.1386 12.4136 28.2659 12.0614C29.6045 11.7091 31.1545 11.4977 32.9864 11.4977C38.4818 11.4977 44.0477 16.1477 44.6114 22.2068C44.8932 25.7295 44.4 31.0136 43.1318 37.9886C43.9773 38.2705 44.6114 38.5523 45.3159 39.0455C47.7818 40.525 49.4023 42.9909 50.0364 46.5841C53.2773 42.6386 55.25 37.5659 55.25 32C55.25 26.5045 53.3477 21.2909 49.8955 17.1341C49.1909 16.2886 48.4864 15.5136 47.6409 14.8091C46.2318 13.4705 44.6114 12.3432 42.85 11.4273C39.5386 9.66591 35.875 8.75 32 8.75C19.1773 8.75 8.75 19.1773 8.75 32C8.75 37.7773 10.8636 43.0614 14.3159 47.0773C15.0909 42.2864 17.6977 39.3977 21.2909 38.0591C19.7409 34.325 18.6136 30.3091 18.6136 27.35C18.6136 25.5886 18.7545 24.0386 19.0364 22.7C19.1068 22.3477 19.4591 22.0659 19.8818 22.1364C20.2341 22.2068 20.5159 22.5591 20.4455 22.9818C20.1636 24.25 20.0227 25.7295 20.0227 27.35C20.0227 30.1682 21.0795 34.0432 22.6295 37.6364C22.7 37.6364 22.8409 37.5659 22.9114 37.5659C23.1932 37.4955 23.4045 37.425 23.6864 37.3545C23.8273 37.2841 23.8273 37.2841 23.9682 37.2841C24.7432 37.0727 25.5886 36.9318 26.4341 36.7205C26.6455 36.65 26.8568 36.65 26.9977 36.5795V35.1C26.7864 34.9591 26.575 34.8182 26.2932 34.6773C25.7295 34.2545 25.3773 33.6909 25.1659 32.9864C25.0955 32.7045 25.025 32.4227 24.9545 32.0705C24.8841 31.7182 24.8136 31.3659 24.7432 31.0136C24.4614 31.0136 24.1795 30.8023 23.8977 30.5909C23.2636 30.0977 22.7 29.0409 22.5591 27.8432C22.3477 26.6455 22.7705 25.7295 23.6159 25.4477H23.6864C23.6159 25.2364 23.6159 25.025 23.5455 24.8136C23.4045 24.25 23.4045 23.7568 23.4045 23.4045V22.1364C23.4045 21.6432 23.8977 21.2909 24.3909 21.5023L26.575 22.3477L26.6455 22.4182C26.6455 22.4182 26.7159 22.4182 26.7864 22.4886C27.4909 22.7 28.3364 22.5591 29.3932 21.6432C29.675 21.4318 30.0273 21.15 30.3795 20.7977C30.5205 20.6568 30.7318 20.4455 30.9432 20.2341C30.9432 20.2341 31.3659 19.8114 31.5068 19.7409C31.9295 19.3182 32.2818 19.0364 32.5636 18.825C33.4091 18.1205 34.1136 17.7682 34.8182 17.9795C35.3114 18.1205 35.4523 18.6841 35.2409 19.0364C35.1705 19.1068 35.0295 19.3182 34.9591 19.5295C34.8886 19.6705 34.8182 19.7409 34.8182 19.8818C34.8182 19.9523 34.8182 19.9523 34.7477 19.9523C34.7477 19.9523 35.1705 20.0227 35.3114 20.0932C35.5932 20.1636 35.8045 20.2341 36.0159 20.375C36.5795 20.6568 37.0727 21.0091 37.425 21.5727C37.9886 22.4182 38.2705 23.1227 38.2705 23.6864L39.8909 24.8841ZM36.9318 37.9182C36.8614 37.9182 36.8614 37.9182 36.7909 37.9182C36.4386 37.8477 36.2273 37.5659 36.2273 37.2136V34.7477C36.2273 34.4659 36.4386 34.1841 36.7205 34.1136C36.8614 34.0432 37.0727 33.9023 37.2841 33.6909C37.5659 33.4091 37.7068 33.1273 37.8477 32.775C37.9182 32.4932 37.9886 32.2114 38.0591 31.9295C38.1295 31.4364 38.2705 30.8727 38.3409 30.3795C38.3409 30.1682 38.4114 30.0273 38.4114 29.8864C38.4114 29.8159 38.4114 29.7455 38.4114 29.675C38.5523 28.9 39.5386 28.9 39.75 29.4636C40.0318 29.1114 40.2432 28.5477 40.3841 27.8432C40.4545 27.4909 40.3841 27.2091 40.3841 27.0682C40.3841 26.9977 40.3136 26.9977 40.3136 26.9977H40.2432C39.8909 27.6318 38.9045 27.2795 38.975 26.575V26.5045C38.975 26.3636 38.975 26.2227 38.9045 26.0114L37.2136 24.6023C37.0023 24.3909 36.9318 24.1091 37.0023 23.8977C37.0023 23.8273 37.0023 23.7568 36.9318 23.6159C36.8614 23.3341 36.65 22.9114 36.3682 22.4182C36.1568 22.0659 35.875 21.8545 35.5227 21.7136C35.3818 21.6432 35.2409 21.5727 35.0295 21.5727C34.8886 21.5727 34.3955 21.4318 34.4659 21.4318C33.9023 21.2909 33.6909 21.2205 33.4795 20.8682C33.3386 20.6568 33.3386 20.4455 33.3386 20.2341C32.9159 20.5864 32.2818 21.15 31.4364 21.9955C31.0841 22.3477 30.7318 22.6295 30.45 22.9114C29.0409 24.1091 27.6318 24.3205 26.575 23.9682C26.4341 23.8977 26.2932 23.8977 26.2227 23.8273L24.9545 23.1932V23.6864C24.9545 23.7568 24.9545 23.7568 24.9545 23.8273C24.9545 24.0386 25.025 24.3205 25.025 24.6727C25.0955 24.8841 25.0955 25.1659 25.1659 25.3773C25.2364 25.5886 25.3068 25.8705 25.3773 26.0818C25.3773 26.1523 25.4477 26.2227 25.4477 26.2932C25.4477 26.3636 25.5182 26.4341 25.5182 26.4341C25.6591 27.2091 24.6023 27.5614 24.25 26.9273H24.1795C24.1795 26.9273 24.1091 26.9273 24.1091 26.9977C24.0386 27.1386 24.0386 27.35 24.1091 27.7727C24.1795 28.4773 24.4614 29.0409 24.7432 29.3932C24.9545 28.8295 26.0114 28.8295 26.0818 29.6045C26.0818 29.6045 26.0818 29.675 26.0818 29.8159C26.0818 29.9568 26.1523 30.1682 26.1523 30.3091C26.2227 30.8727 26.3636 31.3659 26.4341 31.8591C26.5045 32.2114 26.575 32.4932 26.6455 32.7045C26.7159 33.0568 26.9273 33.4091 27.2795 33.6205C27.5614 33.8318 27.8432 33.9727 27.9841 34.0432C28.2659 34.1136 28.4773 34.3955 28.4773 34.7477V37.2136C28.4773 37.5659 28.2659 37.8477 27.9136 37.9182C27.9136 37.9182 27.8432 37.9182 27.7727 37.9182V39.3273L29.0409 40.0318C29.3932 40.2432 29.5341 40.6659 29.3227 40.9477C29.1114 41.3 28.6886 41.4409 28.4068 41.2295L26.7159 40.3841C26.5045 40.2432 26.3636 40.0318 26.3636 39.75V38.2C25.6591 38.3409 24.9545 38.5523 24.3205 38.6932C24.1795 38.7636 24.1795 38.7636 24.0386 38.7636C23.7568 38.8341 23.475 38.9045 23.2636 38.975C19.1773 39.9614 16.0773 42.85 15.6545 48.4864C19.8818 52.7136 25.6591 55.25 32.0705 55.25C38.6932 55.25 44.6818 52.5023 48.9091 47.9932C48.4864 44.0477 47.0068 41.6523 44.6818 40.2432C43.9068 39.75 43.2727 39.4682 42.2864 39.1864C42.2159 39.1864 42.1455 39.1864 42.1455 39.1159C41.9341 39.0455 41.7227 38.975 41.5114 38.9045C41.1591 38.8341 40.8773 38.6932 40.4545 38.6227C39.6795 38.4818 39.0455 38.3409 38.3409 38.2V39.8205C38.3409 40.1023 38.2 40.3136 37.9886 40.4545L32.9159 43.2023C32.7045 43.3432 32.4932 43.3432 32.2818 43.2023L30.8727 42.4977C30.5205 42.2864 30.3795 41.8636 30.5909 41.5818C30.8023 41.2295 31.225 41.0886 31.5068 41.3L32.5636 41.8636L36.9318 39.4682V37.9182Z" fill="currentcolor" class="shade"/>
</svg>
