<svg width="34" height="34" viewBox="0 0 34 34" fill="none" xmlns="http://www.w3.org/2000/svg">
<g clip-path="url(#clip0_6359_2828)">
<path fill-rule="evenodd" clip-rule="evenodd" d="M8.58859 0.789181L14.3696 6.56918C14.62 6.81956 14.8186 7.11679 14.9541 7.44393C15.0896 7.77106 15.1594 8.12167 15.1594 8.47576C15.1594 8.82984 15.0896 9.18046 14.9541 9.50759C14.8186 9.83472 14.62 10.132 14.3696 10.3823L12.412 12.3399C12.2888 12.4631 12.191 12.6093 12.1243 12.7703C12.0575 12.9312 12.0232 13.1038 12.0232 13.278C12.0232 13.4522 12.0575 13.6248 12.1243 13.7857C12.191 13.9467 12.2888 14.0929 12.412 14.2161L19.7828 21.5869C20.0317 21.8356 20.3691 21.9753 20.7209 21.9753C21.0727 21.9753 21.4102 21.8356 21.659 21.5869L23.6166 19.6293C23.8669 19.379 24.164 19.1804 24.4911 19.0449C24.8181 18.9094 25.1687 18.8397 25.5227 18.8397C25.8767 18.8397 26.2272 18.9094 26.5542 19.0449C26.8813 19.1804 27.1784 19.379 27.4287 19.6293L33.2097 25.4103C33.4601 25.6606 33.6587 25.9578 33.7942 26.2848C33.9296 26.6119 33.9994 26.9624 33.9994 27.3164C33.9994 27.6704 33.9296 28.0209 33.7942 28.348C33.6587 28.675 33.4601 28.9722 33.2097 29.2225L31.6674 30.7658C27.3556 35.0777 20.365 35.0777 16.0542 30.7658L3.23411 17.9458C-1.07771 13.634 -1.07771 6.64336 3.23411 2.33257L4.77647 0.790211C5.28208 0.28487 5.96768 0.000995636 6.68253 0.000995636C7.39738 0.000995636 8.08298 0.28487 8.58859 0.790211V0.789181ZM7.13174 2.24603C7.01277 2.12737 6.85159 2.06073 6.68356 2.06073C6.51553 2.06073 6.35435 2.12737 6.23538 2.24603L4.68993 3.78942C3.85597 4.62323 3.19442 5.61315 2.74308 6.70265C2.29174 7.79215 2.05943 8.95989 2.05943 10.1392C2.05943 11.3185 2.29174 12.4862 2.74308 13.5757C3.19442 14.6652 3.85597 15.6551 4.68993 16.4889L17.511 29.309C18.3448 30.143 19.3347 30.8045 20.4242 31.2558C21.5137 31.7072 22.6815 31.9395 23.8608 31.9395C25.0401 31.9395 26.2078 31.7072 27.2973 31.2558C28.3868 30.8045 29.3767 30.143 30.2105 29.309L31.7529 27.7656C32.0012 27.5183 32.0012 27.1165 31.7529 26.8672L25.9729 21.0872C25.9139 21.0281 25.8439 20.9813 25.7668 20.9493C25.6898 20.9173 25.6071 20.9009 25.5237 20.9009C25.4402 20.9009 25.3576 20.9173 25.2805 20.9493C25.2034 20.9813 25.1334 21.0281 25.0745 21.0872L23.1169 23.0448C22.8023 23.3593 22.4289 23.6089 22.0179 23.7791C21.6068 23.9494 21.1663 24.037 20.7214 24.037C20.2766 24.037 19.836 23.9494 19.425 23.7791C19.014 23.6089 18.6406 23.3593 18.326 23.0448L10.9562 15.674C10.6415 15.3595 10.3919 14.986 10.2215 14.575C10.0512 14.164 9.96355 13.7234 9.96355 13.2785C9.96355 12.8336 10.0512 12.393 10.2215 11.982C10.3919 11.571 10.6415 11.1976 10.9562 10.8831L12.9138 8.92548C13.0328 8.80629 13.0997 8.64473 13.0997 8.47627C13.0997 8.30782 13.0328 8.14625 12.9138 8.02706L7.13174 2.24603Z" fill="currentcolor"/>
</g>
<defs>
<clipPath id="clip0_6359_2828">
<rect width="34" height="34" fill="white"/>
</clipPath>
</defs>
</svg>
