<svg width="32" height="22" viewBox="0 0 32 22" fill="currentcolor" xmlns="http://www.w3.org/2000/svg">
<path fill-rule="evenodd" clip-rule="evenodd" d="M11.6922 4.23076C11.4152 4.23076 11.2306 4.04614 11.2306 3.76922C11.2306 3.4923 11.4152 3.30768 11.6922 3.30768H12.6152C12.8922 3.30768 13.0768 3.4923 13.0768 3.76922C13.0768 4.04614 12.8922 4.23076 12.6152 4.23076H11.6922ZM7.99985 4.23076C7.72293 4.23076 7.53831 4.04614 7.53831 3.76922C7.53831 3.4923 7.72293 3.30768 7.99985 3.30768H8.92293C9.19985 3.30768 9.38447 3.4923 9.38447 3.76922C9.38447 4.04614 9.19985 4.23076 8.92293 4.23076H7.99985ZM4.30754 4.23076C4.03062 4.23076 3.846 4.04614 3.846 3.76922C3.846 3.4923 4.03062 3.30768 4.30754 3.30768H5.23062C5.50754 3.30768 5.69216 3.4923 5.69216 3.76922C5.69216 4.04614 5.50754 4.23076 5.23062 4.23076H4.30754ZM5.69216 16.2308C5.13831 16.2308 4.76908 15.8615 4.76908 15.3077C4.76908 14.7538 5.13831 14.3846 5.69216 14.3846H25.9998C26.5537 14.3846 26.9229 14.7538 26.9229 15.3077C26.9229 15.8615 26.5537 16.2308 25.9998 16.2308H5.69216ZM5.69216 12.5385C5.13831 12.5385 4.76908 12.1692 4.76908 11.6154C4.76908 11.0615 5.13831 10.6923 5.69216 10.6923H25.9998C26.5537 10.6923 26.9229 11.0615 26.9229 11.6154C26.9229 12.1692 26.5537 12.5385 25.9998 12.5385H5.69216ZM0.615234 20.8461V2.84614C0.615234 1.55384 1.63062 0.538452 2.92293 0.538452H29.1383C30.5229 0.538452 31.0768 1.46153 31.0768 2.84614V20.8461C31.0768 21.4 30.7075 21.7692 30.1537 21.7692H1.53831C0.984465 21.7692 0.615234 21.4 0.615234 20.8461ZM29.2306 5.15384V2.84614C29.2306 2.38461 29.2306 2.38461 29.1383 2.38461H2.92293C2.646 2.38461 2.46139 2.56922 2.46139 2.84614V5.15384H29.2306ZM29.2306 6.99999H2.46139V19.9231H29.2306V6.99999Z" fill="currentcolor"/>
</svg>
