<svg width="40" height="39" viewBox="0 0 40 39" fill="none" xmlns="http://www.w3.org/2000/svg">
<g clip-path="url(#clip0_47_167)">
<path d="M36.9881 29.5436C38.7651 28.8077 39.6106 26.7645 38.8747 24.9876C38.2876 23.5785 36.9412 22.78 34.8667 22.6391C34.5301 22.6156 33.669 22.5608 32.894 22.506C33.442 21.8171 34.1152 20.9639 34.5301 20.3768L34.8902 19.8836C35.9392 18.4588 36.9255 17.1046 36.0488 14.991C35.6339 13.9811 34.8432 13.1983 33.8334 12.7756C32.8235 12.3607 31.7119 12.3607 30.7021 12.7756C29.794 13.1513 29.1052 13.8324 28.6746 14.6387L27.2029 11.0925C26.788 10.0905 25.6373 9.613 24.6118 10.0357L20.8229 11.7501C20.455 11.9145 20.2828 12.345 20.4394 12.7208L24.1577 21.6919H1.98051C1.56562 21.6919 1.229 22.0285 1.229 22.4434V38.225C1.229 38.6399 1.56562 38.9765 1.98051 38.9765H26.2635C26.4671 38.9765 26.6549 38.8982 26.7958 38.7573C26.9368 38.6164 27.015 38.4207 27.015 38.225V28.5572L31.1327 38.5146C31.2109 38.7025 31.3597 38.8513 31.5476 38.9295C31.6337 38.9687 31.7276 38.9843 31.8215 38.9843C31.9311 38.9843 32.0329 38.9609 32.1347 38.9139L35.9 37.2073C36.902 36.7924 37.3795 35.6417 36.9647 34.6397L34.9215 29.7079C35.1642 29.7627 35.4068 29.7941 35.6652 29.7941C36.1114 29.7941 36.5576 29.7079 36.996 29.5279L36.9881 29.5436ZM26.5297 23.5002L30.0837 21.9894L30.9135 23.9855L31.3753 25.0893L27.8135 26.5923L26.5297 23.4924V23.5002ZM29.8723 17.5429C29.3243 16.2278 29.9506 14.7091 31.2736 14.1612C31.5945 14.0281 31.9311 13.9655 32.2599 13.9655C33.2776 13.9655 34.2404 14.5682 34.6553 15.5624C35.1877 16.8384 34.7336 17.5351 33.669 18.9912C33.5516 19.1556 33.4263 19.3199 33.3011 19.5C32.8783 20.0949 32.1581 21.0108 31.6023 21.6997L31.4771 21.3944L31.1875 20.7134L30.8508 19.9071L29.8723 17.5429ZM25.2067 11.4213C25.4416 11.3195 25.7156 11.437 25.8095 11.6718L29.5044 20.5959L25.9504 22.1068L22.1068 12.8226L25.2067 11.4135V11.4213ZM2.73201 37.4892V23.2106H10.9359V37.4892H2.73201ZM12.4468 37.4892V23.2106H15.7972V37.4892H12.4468ZM17.3003 37.4892V23.2106H24.784L24.8545 23.3828L25.4964 24.9249V37.4813H17.3003V37.4892ZM35.5712 35.5791C35.5243 35.6965 35.4382 35.7826 35.2972 35.8374L32.2208 37.2308L28.3928 27.9857L31.9546 26.4827L32.44 27.657L35.5712 35.2268C35.6182 35.3442 35.6182 35.4695 35.5712 35.5791ZM33.8256 27.0855L32.7296 24.4317L32.5496 23.9934C33.3715 24.0482 34.3814 24.1108 34.7571 24.1421C36.2601 24.2517 37.129 24.7057 37.4813 25.5668C37.8962 26.5767 37.4187 27.7352 36.4089 28.1501C35.399 28.565 34.2404 28.0875 33.8256 27.0855Z" fill="currentcolor"/>
<path d="M14.1065 17.1437C14.5214 17.1437 14.858 16.8071 14.858 16.3922V12.1415C14.858 11.7266 14.5214 11.39 14.1065 11.39C13.6916 11.39 13.355 11.7266 13.355 12.1415V16.3922C13.355 16.8071 13.6916 17.1437 14.1065 17.1437Z" fill="currentcolor"/>
<path d="M14.1065 10.4663C14.5214 10.4663 14.858 10.1297 14.858 9.71476V9.10417C14.858 8.68927 14.5214 8.35266 14.1065 8.35266C13.6916 8.35266 13.355 8.68927 13.355 9.10417V9.71476C13.355 10.1297 13.6916 10.4663 14.1065 10.4663Z" fill="currentcolor"/>
<path d="M7.49147 13.6054L9.11974 17.5273C9.23716 17.8169 9.51897 17.9892 9.81645 17.9892C9.91038 17.9892 10.0121 17.9735 10.1061 17.9344C10.4897 17.7778 10.6697 17.3316 10.5132 16.948L8.88489 13.0261C8.72833 12.6425 8.28212 12.4625 7.89854 12.619C7.51496 12.7756 7.33491 13.2218 7.49147 13.6054Z" fill="currentcolor"/>
<path d="M6.56006 11.3665C6.67748 11.6562 6.9593 11.8284 7.25677 11.8284C7.35071 11.8284 7.45247 11.8127 7.54641 11.7736C7.92999 11.617 8.11004 11.1708 7.95348 10.7872L7.71863 10.2236C7.56207 9.84003 7.12369 9.65998 6.73228 9.81655C6.3487 9.97311 6.16865 10.4193 6.32522 10.8029L6.56006 11.3665Z" fill="currentcolor"/>
<path d="M5.63635 20.2123C5.78509 20.3611 5.97296 20.4315 6.16867 20.4315C6.36437 20.4315 6.55225 20.3611 6.70098 20.2123C6.99846 19.9149 6.99846 19.4452 6.70098 19.1477L3.69496 16.1417C3.39749 15.8442 2.9278 15.8442 2.63033 16.1417C2.33286 16.4392 2.33286 16.9088 2.63033 17.2063L5.63635 20.2123Z" fill="currentcolor"/>
<path d="M1.98049 15.492C2.27796 15.1945 2.27796 14.7248 1.98049 14.4273L1.54994 13.9968C1.25247 13.6993 0.782781 13.6993 0.48531 13.9968C0.187839 14.2943 0.187839 14.7639 0.48531 15.0614L0.91586 15.492C1.0646 15.6407 1.25247 15.7112 1.44818 15.7112C1.64388 15.7112 1.83176 15.6407 1.98049 15.492Z" fill="currentcolor"/>
<path d="M2.57548 5.61275C2.99037 5.61275 3.32699 5.27614 3.32699 4.86125V4.25065C3.32699 3.83576 2.99037 3.49915 2.57548 3.49915C2.16059 3.49915 1.82397 3.83576 1.82397 4.25065V4.86125C1.82397 5.27614 2.16059 5.61275 2.57548 5.61275Z" fill="currentcolor"/>
<path d="M3.03735 6.06681C3.03735 6.48171 3.37397 6.81832 3.78886 6.81832H4.39946C4.81435 6.81832 5.15096 6.48171 5.15096 6.06681C5.15096 5.65192 4.81435 5.31531 4.39946 5.31531H3.78886C3.37397 5.31531 3.03735 5.65192 3.03735 6.06681Z" fill="currentcolor"/>
<path d="M3.32699 7.89079V7.28019C3.32699 6.8653 2.99037 6.52869 2.57548 6.52869C2.16059 6.52869 1.82397 6.8653 1.82397 7.28019V7.89079C1.82397 8.30568 2.16059 8.6423 2.57548 8.6423C2.99037 8.6423 3.32699 8.30568 3.32699 7.89079Z" fill="currentcolor"/>
<path d="M1.3621 6.82613C1.777 6.82613 2.11361 6.48952 2.11361 6.07463C2.11361 5.65973 1.777 5.32312 1.3621 5.32312H0.751505C0.336612 5.32312 0 5.65973 0 6.07463C0 6.48952 0.336612 6.82613 0.751505 6.82613H1.3621Z" fill="currentcolor"/>
<path d="M22.0755 4.32115C22.2712 4.32115 22.4591 4.2507 22.6078 4.10196L23.4689 3.24086C23.7664 2.94339 23.7664 2.4737 23.4689 2.17623C23.1714 1.87876 22.7017 1.87876 22.4043 2.17623L21.5432 3.03733C21.2457 3.3348 21.2457 3.80449 21.5432 4.10196C21.6919 4.2507 21.8798 4.32115 22.0755 4.32115Z" fill="currentcolor"/>
<path d="M22.3965 7.53067C22.5452 7.67941 22.7331 7.74986 22.9288 7.74986C23.1245 7.74986 23.3124 7.67941 23.4611 7.53067C23.7586 7.2332 23.7586 6.76351 23.4611 6.46604L22.6 5.60494C22.3025 5.30747 21.8328 5.30747 21.5354 5.60494C21.2379 5.90241 21.2379 6.3721 21.5354 6.66957L22.3965 7.53067Z" fill="currentcolor"/>
<path d="M18.639 7.75767C18.8347 7.75767 19.0225 7.68722 19.1713 7.53848L20.0324 6.67738C20.3299 6.37991 20.3299 5.91022 20.0324 5.61275C19.7349 5.31528 19.2652 5.31528 18.9677 5.61275L18.1066 6.47385C17.8092 6.77132 17.8092 7.24101 18.1066 7.53848C18.2554 7.68722 18.4433 7.75767 18.639 7.75767Z" fill="currentcolor"/>
<path d="M18.9677 4.10196C19.1165 4.2507 19.3044 4.32115 19.5001 4.32115C19.6958 4.32115 19.8836 4.2507 20.0324 4.10196C20.3299 3.80449 20.3299 3.3348 20.0324 3.03733L19.1713 2.17623C18.8738 1.87876 18.4041 1.87876 18.1066 2.17623C17.8092 2.4737 17.8092 2.94339 18.1066 3.24086L18.9677 4.10196Z" fill="currentcolor"/>
<path d="M10.3176 3.6401H11.8206V2.57547H12.8852V1.06463H11.8206V0H10.3176V1.06463H9.25293V2.56764H10.3176V3.63228V3.6401ZM10.4663 2.42674V1.21337H11.6797V2.42674H10.4663Z" fill="currentcolor"/>
</g>
<defs>
<clipPath id="clip0_47_167">
<rect width="39.1409" height="39" fill="white"/>
</clipPath>
</defs>
</svg>
