<svg width="35" height="41" viewBox="0 0 35 41" fill="none" xmlns="http://www.w3.org/2000/svg">
<g clip-path="url(#clip0_1105_228)">
<path fill-rule="evenodd" clip-rule="evenodd" d="M16.6 18.7C17.4 19.5 18.6 19.5 19.4 18.7C20.2 17.9 20.2 16.7 19.4 15.9C18.6 15.1 17.4 15.1 16.6 15.9C15.8 16.7 15.8 17.9 16.6 18.7ZM15.2 20.1C13.6 18.5 13.6 16 15.2 14.4C16.8 12.8 19.3 12.8 20.9 14.4C22.5 16 22.5 18.5 20.9 20.1C19.3 21.6 16.7 21.6 15.2 20.1ZM6.79998 23.1L13.3 29.6C14.2 30.5 12.8 31.9 11.9 31L5.39998 24.5C4.59998 23.6 5.99998 22.2 6.79998 23.1ZM2.59998 22.1C1.79998 22.9 1.79998 24.2 2.59998 24.9L11.1 33.4C11.9 34.2 13.1 34.2 13.9 33.4L27.4 19.9L25.7 10.3L16.1 8.59998L2.59998 22.1ZM2.29998 27.4C1.89998 28.2 1.99998 29.1 2.59998 29.8L11.1 38.3C11.9 39.1 13.1 39.1 13.9 38.3L27.4 24.8L27.1 23L15.3 34.8C13.7 36.4 11.2 36.4 9.59998 34.8L2.29998 27.4ZM28.8 21.3C28.8 21.4 28.9 21.5 28.9 21.6L29.5 24.9C29.6 25.2 29.5 25.5 29.2 25.8L15.3 39.7C13.7 41.3 11.2 41.3 9.59998 39.7L1.09998 31.2C-0.300016 29.8 -0.500016 27.5 0.799984 25.9C-0.400016 24.3 -0.300016 22.1 1.19998 20.6L15.1 6.79998C15.3 6.59998 15.7 6.49998 16 6.49998L26.8 8.39997C27.1 8.49998 27.4 8.69998 27.5 8.99998C30.8 8.59998 32.7 5.39998 32.7 1.09998C32.7 0.499976 33.1 0.0999756 33.7 0.0999756C34.3 0.0999756 34.7 0.499976 34.7 1.09998C34.7 6.29998 32.2 10.4 27.9 11L29.5 20.1C29.6 20.4 29.5 20.7 29.2 21L28.8 21.3Z" fill="currentcolor"/>
</g>
<defs>
<clipPath id="clip0_1105_228">
<rect width="34.8" height="40.9" fill="white"/>
</clipPath>
</defs>
</svg>
