<?xml version="1.0" encoding="UTF-8"?>
<svg width="30px" height="22px" viewBox="0 0 30 22" version="1.1" xmlns="http://www.w3.org/2000/svg" xmlns:xlink="http://www.w3.org/1999/xlink">
    <!-- Generator: sketchtool 52.5 (67469) - http://www.bohemiancoding.com/sketch -->
    <title>5CDB7602-750C-437D-9D79-8ADB0F624BAC</title>
    <desc>Created with sketchtool.</desc>
    <g id="Exportable" stroke="none" stroke-width="1" fill="none" fill-rule="evenodd">
        <g id="2019-Homepage_1920px_v4" transform="translate(-1020.000000, -4654.000000)" fill="currentColor" class="base">
            <g id="Stacked-Group-2" transform="translate(0.000000, 3281.000000)">
                <g id="Group-10" transform="translate(214.000000, 993.000000)">
                    <g id="Stacked-Group" transform="translate(0.000000, 260.000000)">
                        <g id="Stacked-Group-4">
                            <g id="Group-8" transform="translate(806.000000, 120.000000)">
                                <g id="element/quotation-mark">
                                    <path d="M5.81081081,22 C4.09909054,22 2.70270811,21.503017 1.62162162,20.5090361 C0.540535135,19.5150553 0,18.2228995 0,16.6325301 C0,15.48393 0.202700676,14.4016115 0.608108108,13.3855422 C1.01351554,12.3694728 1.68918446,11.1104493 2.63513514,9.60843373 L8.71621622,0 L15,0 L10.6756757,10.7349398 C12.1621696,11.9718937 12.9054054,13.4959749 12.9054054,15.3072289 C12.9054054,17.1626599 12.2184753,18.7419614 10.8445946,20.0451807 C9.47071385,21.3484001 7.7928027,22 5.81081081,22 Z M20.8108108,22 C19.0990905,22 17.7027081,21.503017 16.6216216,20.5090361 C15.5405351,19.5150553 15,18.2228995 15,16.6325301 C15,15.48393 15.2027007,14.4016115 15.6081081,13.3855422 C16.0135155,12.3694728 16.6891845,11.1104493 17.6351351,9.60843373 L23.7162162,0 L30,0 L25.6756757,10.7349398 C27.1621696,11.9718937 27.9054054,13.4959749 27.9054054,15.3072289 C27.9054054,17.1626599 27.2184753,18.7419614 25.8445946,20.0451807 C24.4707139,21.3484001 22.7928027,22 20.8108108,22 Z"></path>
                                </g>
                            </g>
                        </g>
                    </g>
                </g>
            </g>
        </g>
    </g>
</svg>
