<svg width="15px" height="15px" viewBox="0 0 15 15" version="1.1" xmlns="http://www.w3.org/2000/svg" xmlns:xlink="http://www.w3.org/1999/xlink">
    <g id="Page-1" stroke="none" stroke-width="1" fill="none" fill-rule="evenodd">
        <g id="Group-1-(1)" class="blogSocialSubscribe__iconFill" fill="#9CA393" fill-rule="nonzero">
            <path d="M2.0161,15.00025 C3.12933333,15.00025 4.03183333,14.09775 4.03183333,12.9845 C4.03183333,11.8709167 3.12933333,10.968 2.0161,10.968 C0.9025,10.968 0,11.8709167 0,12.9845 C0,14.09775 0.9025,15.00025 2.0161,15.00025 Z" id="Path"></path>
            <path d="M0.968891667,2.37909167 C3.98455833,2.60535 6.78948333,3.889275 8.95025,6.05006667 C11.1110833,8.21086667 12.3946667,11.0154167 12.62125,14.0310833 C12.6624167,14.57925 13.1163333,15 13.6655833,15 L13.9524167,15 C14.2545,15 14.5139167,14.8866667 14.7196667,14.6655 C14.9249167,14.44425 15.0191667,14.17725 14.9971667,13.8759167 C14.7333333,10.2821667 13.20725,6.93994167 10.6336667,4.366325 C8.05933333,1.79306667 4.71745833,0.267010833 1.1237,0.00322568333 C0.822749167,-0.0191473333 0.555716667,0.0750358333 0.3345125,0.2803625 C0.113308333,0.486049167 0,0.745865 0,1.0479 L0,1.33441667 C0,1.884 0.420756667,2.33759167 0.968891667,2.37909167 Z" id="Path"></path>
            <path d="M0.921625,7.42993333 C4.39088333,7.84996667 7.15034167,10.6086667 7.57001667,14.0786667 C7.63388333,14.6073333 8.077375,14.9999167 8.60966667,14.9999167 L8.89758333,14.9999167 C9.20758333,14.9999167 9.47425,14.8801667 9.68033333,14.6488333 C9.88633333,14.4171667 9.974,14.1385833 9.93791667,13.83075 C9.40208333,9.24608333 5.75383333,5.59751667 1.16916667,5.06200833 C0.861358333,5.02591667 0.582780833,5.11396667 0.351111667,5.31965833 C0.119443333,5.5257 0,5.792375 0,6.10235 L0,6.39030833 C0,6.92293333 0.392970833,7.36606667 0.921625,7.42993333 Z" id="Path"></path>
        </g>
    </g>
</svg>