<svg width="68" height="64" viewBox="0 0 68 64" fill="none" xmlns="http://www.w3.org/2000/svg">
<path fill-rule="evenodd" clip-rule="evenodd" d="M55.6364 36.6956C52.7 38.8592 50.2273 39.8637 48.2955 39.8637C46.3637 39.8637 43.891 38.8592 40.9546 36.7728C40.9546 34.0683 41.8819 31.2865 47.9091 31.2865C54.091 31.2865 55.6364 33.4501 55.6364 36.6956ZM48.2955 29.0456C46.3637 29.0456 44.8182 27.5001 44.8182 25.5683C44.8182 23.6365 46.3637 22.091 48.2955 22.091C50.2273 22.091 51.7728 23.6365 51.7728 25.5683C51.7728 27.5001 50.2273 29.0456 48.2955 29.0456ZM48.2955 39.8637C42.5 39.8637 37.8637 35.2274 37.8637 29.4319C37.8637 23.6365 42.5 19.0001 48.2955 19.0001C54.091 19.0001 58.7273 23.6365 58.7273 29.4319C58.7273 35.2274 54.091 39.8637 48.2955 39.8637ZM30.9091 38.0865L34.9273 43.341L18.9319 55.3183L14.9137 50.0637L30.9091 38.0865ZM35.5455 49.4456H67.2273V55.241C67.2273 58.1774 65.0637 60.6501 62.3591 60.6501H40.4137C37.7091 60.6501 35.5455 58.2546 35.5455 55.241V49.4456ZM67.2273 7.48646H35.5455C35.5455 4.93646 37.7091 2.8501 40.4137 2.8501H62.2819C65.0637 2.8501 67.2273 4.93646 67.2273 7.48646ZM9.65913 35.2274C7.34095 35.2274 5.40913 33.2956 5.40913 30.9774C5.40913 28.6592 7.34095 26.7274 9.65913 26.7274C11.9773 26.7274 13.9091 28.6592 13.9091 30.9774C13.9091 33.2956 11.9773 35.2274 9.65913 35.2274ZM0.772766 19.7728V15.1365H34.7728L31.7591 19.7728H0.772766Z" fill="currentcolor" class="tint"/>
<path d="M17.7727 33.6818C17.3091 33.6818 17 33.3727 17 32.9091C17 32.4455 17.3091 32.1364 17.7727 32.1364H27.0455C27.5091 32.1364 27.8182 32.4455 27.8182 32.9091C27.8182 33.3727 27.5091 33.6818 27.0455 33.6818H17.7727Z" fill="currentcolor" class="shade"/>
<path d="M17.7727 29.8182C17.3091 29.8182 17 29.5091 17 29.0455C17 28.5818 17.3091 28.2727 17.7727 28.2727H30.1364C30.6 28.2727 30.9091 28.5818 30.9091 29.0455C30.9091 29.5091 30.6 29.8182 30.1364 29.8182H17.7727Z" fill="currentcolor" class="shade"/>
<path fill-rule="evenodd" clip-rule="evenodd" d="M9.65909 36C6.87727 36 4.63636 33.7591 4.63636 30.9773C4.63636 28.1955 6.87727 25.9545 9.65909 25.9545C12.4409 25.9545 14.6818 28.1955 14.6818 30.9773C14.6818 33.7591 12.4409 36 9.65909 36ZM9.65909 34.4545C11.5909 34.4545 13.1364 32.9091 13.1364 30.9773C13.1364 29.0455 11.5909 27.5 9.65909 27.5C7.72727 27.5 6.18182 29.0455 6.18182 30.9773C6.18182 32.9091 7.72727 34.4545 9.65909 34.4545Z" fill="currentcolor" class="shade"/>
<path d="M6.18182 43.7273C5.71818 43.7273 5.40909 43.4182 5.40909 42.9545C5.40909 42.4909 5.71818 42.1818 6.18182 42.1818H17C17.4636 42.1818 17.7727 42.4909 17.7727 42.9545C17.7727 43.4182 17.4636 43.7273 17 43.7273H6.18182Z" fill="currentcolor" class="shade"/>
<path d="M6.18182 47.5909C5.71818 47.5909 5.40909 47.2818 5.40909 46.8182C5.40909 46.3545 5.71818 46.0455 6.18182 46.0455H13.6773C14.1409 46.0455 14.45 46.3545 14.45 46.8182C14.45 47.2818 14.1409 47.5909 13.6773 47.5909H6.18182Z" fill="currentcolor" class="shade"/>
<path d="M6.18182 51.4545C5.71818 51.4545 5.40909 51.1455 5.40909 50.6818C5.40909 50.2182 5.71818 49.9091 6.18182 49.9091H9.42727C9.89091 49.9091 10.2 50.2182 10.2 50.6818C10.2 51.1455 9.89091 51.4545 9.42727 51.4545H6.18182Z" fill="currentcolor" class="shade"/>
<path d="M1.54545 19H31.6818C32.1455 19 32.4545 19.3091 32.4545 19.7727C32.4545 20.2364 32.1455 20.5455 31.6818 20.5455H0.772727C0.309091 20.5455 0 20.2364 0 19.7727V15.1364C0 14.6727 0.309091 14.3636 0.772727 14.3636H34.7727C35.2364 14.3636 35.5455 14.6727 35.5455 15.1364C35.5455 15.6 35.2364 15.9091 34.7727 15.9091H1.54545V19Z" fill="currentcolor" class="shade"/>
<path d="M1.54545 59.9545H34C34.4636 59.9545 34.7727 60.2636 34.7727 60.7273C34.7727 61.1909 34.4636 61.5 34 61.5H0.772727C0.309091 61.5 0 61.1909 0 60.7273V22.8636C0 22.4 0.309091 22.0909 0.772727 22.0909C1.23636 22.0909 1.54545 22.4 1.54545 22.8636V59.9545Z" fill="currentcolor" class="shade"/>
<path d="M54.1682 54.5455C54.1682 55.8591 53.1636 56.8636 51.85 56.8636C50.5364 56.8636 49.5318 55.8591 49.5318 54.5455C49.5318 53.2318 50.6136 52.2273 51.85 52.2273C53.1636 52.2273 54.1682 53.3091 54.1682 54.5455Z" fill="currentcolor" class="shade"/>
<path fill-rule="evenodd" clip-rule="evenodd" d="M36.3182 48.3636H66.4545V44.5C66.4545 44.0364 66.7636 43.7273 67.2273 43.7273C67.6909 43.7273 68 44.0364 68 44.5V55.6273C68 58.7955 65.45 61.5 62.3591 61.5H40.4136C37.3227 61.5 34.7727 58.7955 34.7727 55.6273V47.8227C34.7727 47.3591 35.0818 47.05 35.5455 47.05C36.0091 47.05 36.3182 47.3591 36.3182 47.8227V48.3636ZM36.3182 49.9091V55.6273C36.3182 58.0227 38.1727 59.9545 40.4136 59.9545H62.2818C64.5227 59.9545 66.3773 58.0227 66.3773 55.6273V49.9091H36.3182Z" fill="currentcolor" class="shade"/>
<path fill-rule="evenodd" clip-rule="evenodd" d="M36.3182 8.18182V10.5C36.3182 10.9636 36.0091 11.2727 35.5455 11.2727C35.0818 11.2727 34.7727 10.9636 34.7727 10.5V7.40909C34.7727 4.24091 37.0136 2 40.1818 2H62.5909C65.5273 2 67.7682 4.31818 68 7.33182V41.0227C68 41.4864 67.6909 41.7955 67.2273 41.7955C66.7636 41.7955 66.4545 41.4864 66.4545 41.0227V8.25909L36.3182 8.18182ZM36.3955 6.63636L66.3773 6.71364C65.9136 4.85909 64.4455 3.54545 62.5909 3.54545H40.1818C38.1727 3.54545 36.7045 4.78182 36.3955 6.63636Z" fill="currentcolor" class="shade"/>
<path fill-rule="evenodd" clip-rule="evenodd" d="M48.2955 21.3182C50.6136 21.3182 52.5455 23.25 52.5455 25.5682C52.5455 27.8864 50.6136 29.8182 48.2955 29.8182C45.9773 29.8182 44.0455 27.8864 44.0455 25.5682C44.0455 23.25 45.9773 21.3182 48.2955 21.3182ZM48.2955 22.8636C46.8273 22.8636 45.5909 24.1 45.5909 25.5682C45.5909 27.0364 46.8273 28.2727 48.2955 28.2727C49.7636 28.2727 51 27.0364 51 25.5682C51 24.1 49.7636 22.8636 48.2955 22.8636Z" fill="currentcolor" class="shade"/>
<path fill-rule="evenodd" clip-rule="evenodd" d="M48.2955 40.6364C42.1136 40.6364 37.0909 35.6136 37.0909 29.4318C37.0909 23.25 42.1136 18.2273 48.2955 18.2273C54.4773 18.2273 59.5 23.25 59.5 29.4318C59.5 35.6136 54.4773 40.6364 48.2955 40.6364ZM52.5455 38.107C53.3948 37.6898 54.1741 37.1516 54.8607 36.5148C54.7858 33.31 53.2644 32.1364 48.2955 32.1364C43.35 32.1364 41.7273 33.3727 41.7273 36C41.7273 36.1587 41.6911 36.2993 41.6248 36.4156C42.3367 37.0958 43.1523 37.6683 44.0455 38.107V36C44.0455 35.5364 44.3545 35.2273 44.8182 35.2273C45.2818 35.2273 45.5909 35.5364 45.5909 36V38.3182C45.5909 38.4549 45.564 38.5781 45.5143 38.684C46.3951 38.9487 47.3288 39.0909 48.2955 39.0909C49.2621 39.0909 50.1958 38.9487 51.0766 38.684C51.0269 38.5781 51 38.4549 51 38.3182V36C51 35.5364 51.3091 35.2273 51.7727 35.2273C52.2364 35.2273 52.5455 35.5364 52.5455 36V38.107ZM48.2955 30.5909C53.2516 30.5909 55.6211 31.9117 56.24 34.9249C57.321 33.365 57.9545 31.472 57.9545 29.4318C57.9545 24.1 53.6273 19.7727 48.2955 19.7727C42.9636 19.7727 38.6364 24.1 38.6364 29.4318C38.6364 31.426 39.2417 33.2797 40.2785 34.819C40.7776 31.9824 43.2358 30.5909 48.2955 30.5909Z" fill="currentcolor" class="shade"/>
<path fill-rule="evenodd" clip-rule="evenodd" d="M38.0182 40.4818L35.1591 42.6455C35.3909 43.3409 35.1591 44.1136 34.5409 44.5773L20.1682 55.3955C19.3955 55.9364 18.3136 55.7818 17.7727 55.0864L14.9136 51.3C14.3727 50.5273 14.5273 49.4455 15.2227 48.9045L29.5955 38.0864C30.2909 37.5455 31.3727 37.6227 31.9136 38.3182L34.6955 36.0773C33.6909 34.0682 33.15 31.8273 33.15 29.4318C33.2273 21.0864 39.95 14.3636 48.2955 14.3636C56.6409 14.3636 63.3636 21.0864 63.3636 29.4318C63.3636 37.7773 56.6409 44.5 48.2955 44.5C44.3545 44.5 40.7227 42.9545 38.0182 40.4818ZM48.2955 42.9545C55.7909 42.9545 61.8182 36.9273 61.8182 29.4318C61.8182 21.9364 55.7909 15.9091 48.2955 15.9091C40.8 15.9091 34.7727 21.9364 34.7727 29.4318C34.7727 36.9273 40.8 42.9545 48.2955 42.9545ZM33.6909 43.1091L33.4591 42.8773L31.1409 39.8636C31.0636 39.7864 30.9864 39.6318 30.9864 39.5545L30.7545 39.3227C30.6773 39.2455 30.6 39.2455 30.5227 39.3227L16.2273 50.0636C16.15 50.1409 16.15 50.2182 16.2273 50.2955L19.0864 54.0818C19.1636 54.1591 19.2409 54.1591 19.3182 54.0818L33.6909 43.2636V43.1091ZM36.9364 39.3227C36.3955 38.7045 35.9318 38.0864 35.5455 37.3909L32.9955 39.4773L34.3864 41.3318L36.9364 39.3227Z" fill="currentcolor" class="shade"/>
</svg>
