<svg width="60" height="64" viewBox="0 0 60 64" fill="none" xmlns="http://www.w3.org/2000/svg">
<path fill-rule="evenodd" clip-rule="evenodd" d="M5.32062 10.7231H15.88H5.32062ZM26.4393 49.3588H27.8308H26.4393ZM20.4639 49.5226H24.1474H20.4639ZM13.9154 49.5226H17.5989H13.9154ZM6.54845 49.5226H10.2319H6.54845ZM31.1051 0.818604L41.7463 11.4598H31.1051V0.818604ZM13.0969 46.6576V23.7381H16.3711V46.6576H13.0969ZM6.54845 46.6576V32.7422H9.82266V46.6576H6.54845ZM19.6453 46.6576V28.6494H22.9195V46.6576H19.6453ZM26.1937 31.1051V16.3711H29.468V27.749L26.1937 31.1051ZM32.7422 27.0123V14.734H36.0164V27.0123H32.7422ZM44.6112 50.7504L47.3124 48.0492L59.1815 59.9182L56.4802 62.5376L44.6112 50.7504Z" fill="currentcolor" class="tint"/>
<path fill-rule="evenodd" clip-rule="evenodd" d="M40.6003 36.5075C40.9277 36.1801 41.4188 36.1801 41.7462 36.5075C42.0737 36.8349 42.0737 37.3261 41.7462 37.6535L36.0982 43.3015C35.7708 43.6289 35.2797 43.6289 34.9523 43.3015L32.1692 40.5184C31.8417 40.191 31.8417 39.6999 32.1692 39.3724C32.4966 39.045 32.9877 39.045 33.3151 39.3724L35.5252 41.5825L40.6003 36.5075ZM47.3124 49.1951L45.839 50.7503L56.4802 61.3915L57.9536 59.9181L47.3124 49.1951ZM30.2046 33.6426C26.6849 37.1623 26.6849 42.8922 30.2046 46.412C33.7244 49.9318 39.4543 49.9318 42.9741 46.412C46.4939 42.8922 46.4939 37.1623 42.9741 33.6426C39.4543 30.1228 33.7244 30.1228 30.2046 33.6426ZM13.9154 24.5566V46.6576C13.9154 47.1487 13.588 47.4761 13.0969 47.4761C12.6057 47.4761 12.2783 47.1487 12.2783 46.6576V23.7381C12.2783 23.2469 12.6057 22.9195 13.0969 22.9195H16.3711C16.8622 22.9195 17.1896 23.2469 17.1896 23.7381V46.6576C17.1896 47.1487 16.8622 47.4761 16.3711 47.4761C15.8799 47.4761 15.5525 47.1487 15.5525 46.6576V24.5566H13.9154ZM7.36698 33.5607V46.6576C7.36698 47.1487 7.03956 47.4761 6.54843 47.4761C6.0573 47.4761 5.72988 47.1487 5.72988 46.6576V32.7422C5.72988 32.251 6.0573 31.9236 6.54843 31.9236H9.82265C10.3138 31.9236 10.6412 32.251 10.6412 32.7422V46.6576C10.6412 47.1487 10.3138 47.4761 9.82265 47.4761C9.33151 47.4761 9.00409 47.1487 9.00409 46.6576V33.5607H7.36698ZM20.4638 29.4679V46.6576C20.4638 47.1487 20.1364 47.4761 19.6453 47.4761C19.1542 47.4761 18.8267 47.1487 18.8267 46.6576V28.6494C18.8267 28.1583 19.1542 27.8308 19.6453 27.8308H22.9195C23.4106 27.8308 23.7381 28.1583 23.7381 28.6494V46.6576C23.7381 47.1487 23.4106 47.4761 22.9195 47.4761C22.4284 47.4761 22.101 47.1487 22.101 46.6576V29.4679H20.4638ZM27.0123 17.1896V31.105C27.0123 31.5962 26.6849 31.9236 26.1937 31.9236C25.7026 31.9236 25.3752 31.5962 25.3752 31.105V16.3711C25.3752 15.8799 25.7026 15.5525 26.1937 15.5525H29.4679C29.9591 15.5525 30.2865 15.8799 30.2865 16.3711V27.749C30.2865 28.2401 29.9591 28.5675 29.4679 28.5675C28.9768 28.5675 28.6494 28.2401 28.6494 27.749V17.1896H27.0123ZM4.91132 9.00409C4.42019 9.00409 4.09277 8.67667 4.09277 8.18554C4.09277 7.69441 4.42019 7.36698 4.91132 7.36698H11.4598C11.9509 7.36698 12.2783 7.69441 12.2783 8.18554C12.2783 8.67667 11.9509 9.00409 11.4598 9.00409H4.91132ZM15.5525 10.6412C16.0437 10.6412 16.3711 10.9686 16.3711 11.4598C16.3711 11.9509 16.0437 12.2783 15.5525 12.2783H4.91132C4.42019 12.2783 4.09277 11.9509 4.09277 11.4598C4.09277 10.9686 4.42019 10.6412 4.91132 10.6412H15.5525ZM23.3288 49.1132C23.8199 49.1132 24.1473 49.4407 24.1473 49.9318C24.1473 50.4229 23.8199 50.7503 23.3288 50.7503H19.6453C19.1542 50.7503 18.8267 50.4229 18.8267 49.9318C18.8267 49.4407 19.1542 49.1132 19.6453 49.1132H23.3288ZM16.3711 49.1132C16.8622 49.1132 17.1896 49.4407 17.1896 49.9318C17.1896 50.4229 16.8622 50.7503 16.3711 50.7503H13.0969C12.6057 50.7503 12.2783 50.4229 12.2783 49.9318C12.2783 49.4407 12.6057 49.1132 13.0969 49.1132H16.3711ZM9.82265 49.1132C10.3138 49.1132 10.6412 49.4407 10.6412 49.9318C10.6412 50.4229 10.3138 50.7503 9.82265 50.7503H6.54843C6.0573 50.7503 5.72988 50.4229 5.72988 49.9318C5.72988 49.4407 6.0573 49.1132 6.54843 49.1132H9.82265ZM33.5607 15.5525V27.0123C33.5607 27.5034 33.2333 27.8308 32.7422 27.8308C32.251 27.8308 31.9236 27.5034 31.9236 27.0123V14.734C31.9236 14.2428 32.251 13.9154 32.7422 13.9154H36.0164C36.5075 13.9154 36.8349 14.2428 36.8349 14.734V27.0123C36.8349 27.5034 36.5075 27.8308 36.0164 27.8308C35.5252 27.8308 35.1978 27.5034 35.1978 27.0123V15.5525H33.5607ZM41.1733 51.9782C41.1733 51.487 41.5007 51.1596 41.9918 51.1596C42.4829 51.1596 42.8104 51.487 42.8104 51.9782V54.5157C42.8104 55.0068 42.4829 55.3342 41.9918 55.3342H0.818554C0.327422 55.3342 0 55.0068 0 54.5157V17.1896C0 16.6985 0.327422 16.3711 0.818554 16.3711C1.30969 16.3711 1.63711 16.6985 1.63711 17.1896V53.6971H41.1733V51.9782ZM39.7817 10.6412L31.9236 2.70123V10.6412H39.7817ZM42.4829 11.1323C42.4829 11.2142 42.4829 11.2142 42.5648 11.296C42.5648 11.3779 42.5648 11.4598 42.5648 11.4598V27.8308C42.5648 28.322 42.2374 28.6494 41.7462 28.6494C41.2551 28.6494 40.9277 28.322 40.9277 27.8308V12.2783H31.105C30.6139 12.2783 30.2865 11.9509 30.2865 11.4598V1.63711H1.63711V13.0969C1.63711 13.588 1.30969 13.9154 0.818554 13.9154C0.327422 13.9154 0 13.588 0 13.0969V0.818554C0 0.327422 0.327422 0 0.818554 0H31.2688C31.5143 0 31.678 0.0818554 31.8417 0.245566L42.3192 10.8868C42.4011 10.9686 42.4829 11.0505 42.4829 11.1323ZM44.8568 49.3588L43.5471 48.0491C39.3724 51.6507 33.0696 51.487 29.0587 47.4761C24.884 43.3015 24.884 36.5894 29.0587 32.4147C33.2333 28.2401 39.9454 28.2401 44.1201 32.4147C48.0491 36.3438 48.2947 42.6467 44.693 46.9031L46.0027 48.2128L46.7394 47.4761C47.0668 47.1487 47.558 47.1487 47.8854 47.4761L59.7544 59.3452C60.0819 59.6726 60.0819 60.1637 59.7544 60.4911L57.0532 63.1924C56.7258 63.5198 56.2347 63.5198 55.9072 63.1924L44.0382 51.3233C43.7108 50.9959 43.7108 50.5048 44.0382 50.1774L44.8568 49.3588Z" fill="currentcolor" class="shade"/>
</svg>
