<svg width="40" height="30" viewBox="0 0 40 30" fill="none" xmlns="http://www.w3.org/2000/svg">
<path d="M5.07422 1H27.6616C31.2047 1 32.7106 3.88103 32.7106 7.48232V22.5177" stroke="currentcolor" stroke-width="1.60899" stroke-miterlimit="10" stroke-linecap="round" stroke-linejoin="round"/>
<path d="M9.1488 22.5177V7.66238C9.1488 3.97106 7.28867 1 5.07422 1" stroke="currentcolor" stroke-width="1.60899" stroke-miterlimit="10" stroke-linecap="round" stroke-linejoin="round"/>
<path d="M32.7112 29.0001H15.527C11.9839 29.0001 9.14941 26.1191 9.14941 22.5178" stroke="currentcolor" stroke-width="1.60899" stroke-miterlimit="10" stroke-linecap="round" stroke-linejoin="round"/>
<path d="M16.1475 29.0001C19.6906 29.0001 22.5251 26.1191 22.5251 22.5178H39.0006C39.0006 26.1191 36.1661 29.0001 32.623 29.0001" stroke="currentcolor" stroke-width="1.60899" stroke-miterlimit="10" stroke-linecap="round" stroke-linejoin="round"/>
<path d="M8.79489 7.48232H1C1 3.88103 2.77156 1 4.98602 1" stroke="currentcolor" stroke-width="1.60899" stroke-miterlimit="10" stroke-linecap="round" stroke-linejoin="round"/>
<path d="M14.9951 8.5625H27.2189" stroke="currentcolor" stroke-width="1.60899" stroke-miterlimit="10" stroke-linecap="round" stroke-linejoin="round"/>
<path d="M14.9951 12.9744H27.2189" stroke="currentcolor" stroke-width="1.60899" stroke-miterlimit="10" stroke-linecap="round" stroke-linejoin="round"/>
<path d="M14.9951 17.656H27.2189" stroke="currentcolor" stroke-width="1.60899" stroke-miterlimit="10" stroke-linecap="round" stroke-linejoin="round"/>
</svg>
