<svg width="31" height="29" viewBox="0 0 31 29" fill="none" xmlns="http://www.w3.org/2000/svg">
<path d="M14.549 1.92664C14.8483 1.00538 16.1517 1.00538 16.451 1.92664L18.9803 9.70985C19.1142 10.1218 19.4981 10.4008 19.9313 10.4008L28.1151 10.4011C29.0838 10.4011 29.4866 11.6407 28.7029 12.2101L22.0822 17.0207C21.7318 17.2753 21.5851 17.7267 21.719 18.1387L24.2476 25.9221C24.5469 26.8434 23.4925 27.6094 22.7088 27.0401L16.0878 22.23C15.7373 21.9754 15.2627 21.9754 14.9122 22.23L8.29119 27.0401C7.50749 27.6094 6.45306 26.8434 6.75237 25.9221L9.28102 18.1387C9.41487 17.7267 9.26822 17.2753 8.91777 17.0207L2.29708 12.2101C1.51342 11.6407 1.91617 10.4011 2.88485 10.4011L11.0687 10.4008C11.5019 10.4008 11.8858 10.1218 12.0197 9.70985L14.549 1.92664Z" stroke="currentcolor" stroke-width="2"/>
</svg>
