<svg width="35" height="28" viewBox="0 0 35 28" fill="none" xmlns="http://www.w3.org/2000/svg">
<path fill-rule="evenodd" clip-rule="evenodd" d="M2.8 1.4H32.2C32.9732 1.4 33.6 2.0268 33.6 2.8V14.7H1.4V2.8C1.4 2.0268 2.0268 1.4 2.8 1.4ZM1.4 16.1V25.2C1.4 25.9732 2.0268 26.6 2.8 26.6H11.2001V16.1L1.4 16.1ZM22.4 28H12.6001H11.2001L2.8 28C1.2536 28 0 26.7464 0 25.2V2.8C0 1.2536 1.2536 0 2.8 0H32.2C33.7464 0 35 1.2536 35 2.8V25.2C35 26.7464 33.7464 28 32.2 28L23.8 28H22.4ZM23.8 26.6H32.2C32.9732 26.6 33.6 25.9732 33.6 25.2V16.1L23.8 16.1V26.6ZM22.4 16.1V26.6H12.6001V16.1H22.4ZM4.20005 22.4C3.42685 22.4 2.80005 23.0268 2.80005 23.8V25.2H4.20005V23.8H8.40005V25.2H9.80005V23.8C9.80005 23.0268 9.17325 22.4 8.40005 22.4H8.15208C8.73337 21.8869 9.1 21.1363 9.1 20.3C9.1 18.7536 7.8464 17.5 6.3 17.5C4.7536 17.5 3.5 18.7536 3.5 20.3C3.5 21.1363 3.86663 21.8869 4.44792 22.4H4.20005ZM14 23.8C14 23.0268 14.6268 22.4 15.4 22.4H15.6479C15.0666 21.8869 14.7 21.1363 14.7 20.3C14.7 18.7536 15.9536 17.5 17.5 17.5C19.0463 17.5 20.3 18.7536 20.3 20.3C20.3 21.1363 19.9333 21.8869 19.352 22.4H19.6C20.3732 22.4 21 23.0268 21 23.8V25.2H19.6V23.8H15.4V25.2H14V23.8ZM13.2999 9.79999C12.5267 9.79999 11.8999 10.4268 11.8999 11.2V13.3H13.2999V11.2H17.1368L17.1501 11.2L17.1634 11.2H20.9999V13.3H22.3999V11.2C22.3999 10.4268 21.7731 9.79999 20.9999 9.79999H20.4334C21.2179 8.98246 21.7001 7.87254 21.7001 6.65001C21.7001 4.13711 19.663 2.10001 17.1501 2.10001C14.6372 2.10001 12.6001 4.13711 12.6001 6.65001C12.6001 7.87254 13.0823 8.98246 13.8668 9.79999H13.2999ZM17.1612 9.79999C18.8958 9.79401 20.3001 8.38601 20.3001 6.65001C20.3001 4.91031 18.8898 3.50001 17.1501 3.50001C15.4104 3.50001 14.0001 4.91031 14.0001 6.65001C14.0001 8.38601 15.4044 9.79401 17.139 9.79999H17.1612ZM25.2 23.8C25.2 23.0268 25.8268 22.4 26.6 22.4H26.8478C26.2665 21.8869 25.8999 21.1363 25.8999 20.3C25.8999 18.7536 27.1535 17.5 28.6999 17.5C30.2463 17.5 31.4999 18.7536 31.4999 20.3C31.4999 21.1363 31.1333 21.8869 30.552 22.4H30.8C31.5731 22.4 32.2 23.0268 32.2 23.8V25.2H30.8V23.8H26.6V25.2H25.2V23.8ZM7.7 20.3C7.7 21.0732 7.0732 21.7 6.3 21.7C5.5268 21.7 4.9 21.0732 4.9 20.3C4.9 19.5268 5.5268 18.9 6.3 18.9C7.0732 18.9 7.7 19.5268 7.7 20.3ZM17.5 21.7C18.2731 21.7 18.9 21.0732 18.9 20.3C18.9 19.5268 18.2731 18.9 17.5 18.9C16.7268 18.9 16.1 19.5268 16.1 20.3C16.1 21.0732 16.7268 21.7 17.5 21.7ZM28.6999 21.7C29.4731 21.7 30.0999 21.0732 30.0999 20.3C30.0999 19.5268 29.4731 18.9 28.6999 18.9C27.9267 18.9 27.2999 19.5268 27.2999 20.3C27.2999 21.0732 27.9267 21.7 28.6999 21.7Z" fill="currentcolor"/>
</svg>
