<svg width="38" height="38" viewBox="0 0 38 38" fill="none" xmlns="http://www.w3.org/2000/svg">
<path d="M37.46 23.46C37.14 22.68 36.53 22.07 35.74 21.75C34.96 21.42 34.09 21.42 33.3 21.75L30.2 23.11C33.81 19.3 37.7 13.83 37.7 9.56C37.7 4.29 33.41 0 28.14 0C25.18 0 22.39 1.39 20.59 3.71C18.79 1.4 16 0 13.04 0C7.77 0 3.48 4.29 3.48 9.56C3.48 14.36 8.42 20.3 10.45 22.53L5.19 25.6L5.05 25.38C4.82 25.01 4.34 24.87 3.95 25.07L0.469997 26.81C0.0499972 27.02 -0.120003 27.53 0.0899972 27.95C0.299997 28.37 0.809997 28.54 1.23 28.33L4.02 26.94L8.96 34.84L6.8 36.13C6.4 36.37 6.27 36.89 6.51 37.3C6.67 37.57 6.95 37.71 7.24 37.71C7.39 37.71 7.54 37.67 7.68 37.59L10.58 35.85C10.78 35.73 10.92 35.54 10.97 35.32C11.02 35.1 10.99 34.86 10.86 34.67L10.73 34.46L12.43 33.44C12.84 33.19 13.31 33.06 13.78 33.06H22.9C23.8 33.06 24.67 32.88 25.53 32.52L35.75 27.61C36.53 27.29 37.14 26.68 37.46 25.89C37.78 25.1 37.79 24.24 37.46 23.46ZM13.04 1.7C15.84 1.7 18.45 3.21 19.85 5.65C20.15 6.18 21.02 6.18 21.32 5.65C22.72 3.21 25.33 1.7 28.13 1.7C32.46 1.7 35.99 5.23 35.99 9.56C35.99 14.26 29.9 21.48 26.06 24.69C26.06 24.68 26.06 24.67 26.06 24.66C26.06 22.91 24.64 21.49 22.89 21.49H14.03C13.36 21.49 12.71 21.61 12.07 21.8C12.07 21.79 12.06 21.77 12.05 21.76C8.73 18.2 5.18 13.13 5.18 9.56C5.18 5.23 8.71 1.7 13.04 1.7ZM35.89 25.23C35.74 25.6 35.46 25.88 35.05 26.05L24.83 30.96C24.22 31.22 23.57 31.35 22.9 31.35H13.77C12.98 31.35 12.21 31.56 11.54 31.97L9.82 33L6.09 27.03L11.53 23.86C12.29 23.42 13.15 23.19 14.03 23.19H22.91C23.72 23.19 24.38 23.85 24.38 24.66C24.38 25.47 23.72 26.13 22.91 26.13H15.95C15.48 26.13 15.1 26.52 15.1 26.98C15.1 27.45 15.48 27.83 15.95 27.83H22.91C23.04 27.83 23.16 27.8 23.28 27.79C23.46 27.84 23.65 27.84 23.84 27.76L33.97 23.31C34.33 23.16 34.73 23.16 35.1 23.31C35.47 23.46 35.75 23.74 35.9 24.1C36.05 24.46 36.05 24.86 35.9 25.23H35.89Z" fill="currentcolor"/>
</svg>
