<svg width="154" height="126" viewBox="0 0 154 126" fill="none" xmlns="http://www.w3.org/2000/svg">
<path fill-rule="evenodd" clip-rule="evenodd" d="M85.1213 29.6823C88.4948 29.6823 91.2924 26.8848 91.2924 23.5113C91.2924 20.1378 88.4948 17.3403 85.1213 17.3403C81.7478 17.3403 78.9503 20.1378 78.9503 23.5113C78.9503 26.8848 81.7478 29.6823 85.1213 29.6823ZM81.501 46.6321C72.0388 44.7396 64.9626 36.4293 64.9626 26.4734C64.9626 15.1187 74.178 5.90332 85.5327 5.90332C96.8874 5.90332 106.103 15.1187 106.103 26.4734C106.103 33.7141 102.4 40.0497 96.7229 43.7523C96.6406 38.2395 95.8178 32.233 84.7099 32.233C73.7666 32.233 72.8616 37.0876 72.7793 42.5181C75.9059 44.5751 78.868 45.9738 81.501 46.6321ZM85.1213 46.9612C88.3303 46.8789 91.9506 45.9738 95.9823 44.1637C92.938 45.9738 89.3176 46.9612 85.5327 46.9612C85.3682 46.9612 85.2859 46.9612 85.1213 46.9612Z" fill="currentcolor" class="tint"/>
<path d="M85.1213 30.5052C81.2541 30.5052 78.1274 27.3786 78.1274 23.5114C78.1274 19.6442 81.2541 16.5176 85.1213 16.5176C88.9884 16.5176 92.1151 19.6442 92.1151 23.5114C92.1151 27.3786 88.9884 30.5052 85.1213 30.5052ZM85.1213 18.1632C82.1592 18.1632 79.773 20.5493 79.773 23.5114C79.773 26.4735 82.1592 28.8596 85.1213 28.8596C88.0834 28.8596 90.4695 26.4735 90.4695 23.5114C90.4695 20.5493 88.0834 18.1632 85.1213 18.1632Z" fill="currentcolor" class="shade"/>
<path d="M62.6587 53.2148C62.4118 53.2148 62.2473 53.1325 62.0827 52.9679L59.2029 50.0881C58.8738 49.759 58.8738 49.2653 59.2029 48.9362L65.4562 42.6829C65.7853 42.3538 66.279 42.3538 66.6081 42.6829C66.9372 43.012 66.9372 43.5057 66.6081 43.8348L60.9308 49.5121L62.6587 51.24L68.1715 45.7272C68.5006 45.3981 68.9943 45.3981 69.3234 45.7272C69.6525 46.0564 69.6525 46.5501 69.3234 46.8792L63.2346 52.9679C63.0701 53.1325 62.9055 53.2148 62.6587 53.2148Z" fill="currentcolor" class="shade"/>
<path d="M60.9527 45.9565L42.335 64.5742L47.5712 69.8105L66.1889 51.1927L60.9527 45.9565Z" fill="currentcolor" class="tint"/>
<path d="M47.5191 70C46.8609 70 46.2849 69.7531 45.7912 69.2595L42.9114 66.3797C42.4177 65.886 42.1709 65.2277 42.1709 64.5695C42.1709 63.9112 42.4177 63.253 42.9114 62.8416L59.2029 46.5501C60.1903 45.5627 61.7536 45.5627 62.6587 46.5501L65.5385 49.4299C66.5259 50.4173 66.5259 51.9806 65.5385 52.8857L49.3293 69.2595C48.8356 69.7531 48.1774 70 47.5191 70ZM60.9308 47.4552C60.684 47.4552 60.5194 47.5375 60.3549 47.702L44.0633 63.9935C43.8988 64.1581 43.8165 64.4049 43.8165 64.5695C43.8165 64.8163 43.8988 64.9809 44.0633 65.1454L46.9432 68.0253C47.2723 68.3544 47.766 68.3544 48.0951 68.0253L64.3866 51.816C64.7157 51.4869 64.7157 50.9932 64.3866 50.6641L61.5068 47.702C61.3422 47.5375 61.1777 47.4552 60.9308 47.4552Z" fill="currentcolor" class="shade"/>
<path d="M85.368 52.6388C78.621 52.6388 71.8741 50.0882 66.7727 44.9045C62.7409 40.8728 60.108 35.6891 59.3674 30.0118C59.2852 29.6004 59.6143 29.1067 60.0257 29.1067C60.4371 29.0244 60.9308 29.3535 60.9308 29.7649C61.6713 35.1131 64.1397 39.8854 67.9246 43.6703C77.5514 53.2971 93.1847 53.2971 102.811 43.6703C112.438 34.0435 112.438 18.4102 102.811 8.78343C93.1847 -0.843373 77.5514 -0.761093 67.9246 8.86571C64.4688 12.3215 62.165 16.6001 61.1776 21.3723C61.0953 21.7837 60.6839 22.1128 60.1902 22.0306C59.7788 21.9483 59.4497 21.5369 59.532 21.0432C60.6017 16.0241 63.0701 11.4164 66.6904 7.71378C76.9754 -2.57126 93.6783 -2.57126 103.963 7.71378C114.248 17.9988 114.248 34.7017 103.963 44.9868C98.862 50.0882 92.115 52.6388 85.368 52.6388ZM59.9434 27.8725C59.532 27.8725 59.1206 27.5433 59.1206 27.0497C59.1206 26.7205 59.1206 26.3914 59.1206 26.1446C59.1206 25.6509 59.532 25.3218 59.9434 25.3218C60.4371 25.3218 60.7662 25.7332 60.7662 26.1446C60.7662 26.4737 60.7662 26.7205 60.7662 27.0497C60.7662 27.4611 60.3548 27.8725 59.9434 27.8725Z" fill="currentcolor" class="shade"/>
<path d="M106.103 25.5689C105.609 25.5689 105.28 25.898 105.28 26.3917C105.28 32.8095 102.235 38.4869 97.4632 42.1072V42.0249C97.4632 36.183 96.4758 31.3285 84.7097 31.3285C73.6019 31.3285 72.2031 35.5248 71.9563 40.7084C68.1714 37.0881 65.7853 31.9867 65.7853 26.3917C65.7853 15.5307 74.6715 6.64438 85.5325 6.64438C94.2543 6.64438 102.071 12.4863 104.457 20.8789C104.622 21.2903 105.033 21.5371 105.444 21.4548C105.856 21.2903 106.103 20.8789 106.02 20.4675C103.387 11.4166 94.9125 5.08105 85.4503 5.08105C73.6842 5.08105 64.0574 14.7079 64.0574 26.4739C64.0574 38.24 73.6842 47.8668 85.4503 47.8668C97.2164 47.8668 106.843 38.24 106.843 26.4739C106.925 25.9803 106.596 25.5689 106.103 25.5689ZM79.7729 45.3161V39.9679C79.7729 39.4742 79.4438 39.1451 78.9501 39.1451C78.4564 39.1451 78.1273 39.4742 78.1273 39.9679V44.6579C76.4817 43.9997 74.9184 43.0946 73.4373 41.9426C73.5196 41.8604 73.6019 41.6958 73.6019 41.5312C73.6842 36.3476 74.507 32.8918 84.7097 32.8918C94.9948 32.8918 95.8176 36.3476 95.8176 41.9426C95.8176 42.354 96.1467 42.6832 96.4758 42.7655C94.9125 43.8351 93.1846 44.6579 91.2922 45.2339V39.8856C91.2922 39.392 90.963 39.0628 90.4694 39.0628C89.9757 39.0628 89.6466 39.392 89.6466 39.8856V45.2339C89.6466 45.3984 89.6466 45.4807 89.7288 45.563C88.4124 45.8921 86.9313 46.0567 85.5325 46.0567C83.5578 46.1389 81.5831 45.8921 79.7729 45.3161Z" fill="currentcolor" class="shade"/>
</svg>
