<?xml version="1.0" encoding="UTF-8" standalone="no"?>
<!-- Created with Inkscape (http://www.inkscape.org/) -->

<svg
   width="60"
   height="58"
   viewBox="0 0 60 58"
   version="1.1"
   id="svg5"
   xmlns="http://www.w3.org/2000/svg"
   xmlns:svg="http://www.w3.org/2000/svg">
  <defs
     id="defs2" />
  <g
     id="layer1">
    <path
       d="M 5.9018691,10.381468 20.321029,2.0565281 c 3.2725,-1.88938714 7.3044,-1.88938414 10.5769,0 l 14.4192,8.3249399 c 3.2725,1.8894 5.2884,5.3811 5.2884,9.1599 v 16.6498 c 0,3.7787 -2.0159,7.2705 -5.2884,9.1598 l -14.4192,8.325 c -3.2725,1.8893 -7.3044,1.8893 -10.5769,0 l -14.4191699,-8.325 c -3.27251,-1.8893 -5.28845306,-5.3811 -5.28845306,-9.1598 v -16.6499 c 0,-3.7787 2.01595306,-7.2704 5.28846306,-9.1598 z"
       id="path132"
       fill="none"
       class="hex-secondary" />
    <path
       d="m 10.036729,15.015468 c 1.3535,-3.7188 4.5882,-6.4329499 8.4854,-7.1201399 l 16.3969,-2.89121 c 3.8973,-0.6872 7.8651,0.75698 10.4089,3.78853 l 10.7023,12.7545199 c 2.5438,3.0315 3.277,7.1899 1.9235,10.9086 l -5.6946,15.6457 c -1.3535,3.7188 -4.5881,6.4329 -8.4854,7.1201 l -16.3969,2.8912 c -3.8972,0.6872 -7.8651,-0.757 -10.4089,-3.7885 L 6.2656791,41.569768 c -2.54377,-3.0315 -3.277,-7.1899 -1.92349,-10.9086 z"
       id="path134"
       class="hex-primary" />
  </g>
</svg>
