<svg width="70" height="52" viewBox="0 0 70 52" fill="none" xmlns="http://www.w3.org/2000/svg">
<path fill-rule="evenodd" clip-rule="evenodd" d="M54.25 46.83C60.27 46.83 65.1 42 65.1 35.98C65.1 29.96 60.27 25.13 54.25 25.13C48.23 25.13 43.4 29.96 43.4 35.98C43.4 41.93 48.23 46.83 54.25 46.83ZM54.25 51.03C45.92 51.03 39.2 44.24 39.2 35.98C39.2 27.72 45.92 20.93 54.25 20.93C62.58 20.93 69.3 27.65 69.3 35.98C69.3 44.31 62.58 51.03 54.25 51.03ZM0.699997 2.03003H61.6V11.13H0.699997V2.03003Z" fill="currentcolor" class="tint"/>
<path fill-rule="evenodd" clip-rule="evenodd" d="M7.77 32.13L20.79 41.65L33.81 32.13H7.77ZM36.4 31.85V50.33C36.4 50.68 36.12 50.96 35.7 50.96H5.6C5.18 50.96 4.97 50.68 4.9 50.33V31.43C4.9 31.08 5.18 30.73 5.6 30.73H35.84C36.47 30.73 36.75 31.43 36.4 31.85ZM35 32.9L21.14 43.05C20.86 43.26 20.58 43.26 20.3 43.05L6.3 32.76V48.65L13.44 42.07C13.72 41.79 14.14 41.86 14.42 42.14C14.7 42.42 14.63 42.84 14.35 43.12L7.35 49.56H33.88L27.09 43.33C26.81 43.05 26.81 42.63 27.02 42.35C27.3 42.07 27.72 42.07 28 42.28L34.93 48.65V32.9H35ZM54.25 50.33C62.16 50.33 68.6 43.89 68.6 35.98C68.6 28.07 62.16 21.63 54.25 21.63C46.34 21.63 39.9 28 39.9 35.98C39.9 43.96 46.34 50.33 54.25 50.33ZM54.25 51.73C45.57 51.73 38.5 44.66 38.5 35.98C38.5 27.3 45.57 20.23 54.25 20.23C62.93 20.23 70 27.23 70 35.98C70 44.73 62.93 51.73 54.25 51.73ZM54.6 30.03V36.33H58.1C58.52 36.33 58.8 36.61 58.8 37.03C58.8 37.45 58.52 37.73 58.1 37.73H53.9C53.48 37.73 53.2 37.45 53.2 37.03V30.03C53.2 29.61 53.48 29.33 53.9 29.33C54.32 29.33 54.6 29.61 54.6 30.03ZM54.25 46.13C59.85 46.13 64.4 41.58 64.4 35.98C64.4 30.38 59.85 25.83 54.25 25.83C48.65 25.83 44.1 30.31 44.1 35.98C44.1 41.65 48.65 46.13 54.25 46.13ZM54.25 47.53C47.88 47.53 42.7 42.35 42.7 35.98C42.7 29.61 47.88 24.43 54.25 24.43C60.62 24.43 65.8 29.54 65.8 35.98C65.8 42.42 60.62 47.53 54.25 47.53ZM48.3 16.73C48.3 16.31 48.58 16.03 49 16.03C49.42 16.03 49.7 16.31 49.7 16.73V18.83C49.7 19.25 49.42 19.53 49 19.53C48.58 19.53 48.3 19.25 48.3 18.83V16.73ZM39.2 16.73C39.2 16.31 39.48 16.03 39.9 16.03C40.32 16.03 40.6 16.31 40.6 16.73V22.33C40.6 22.75 40.32 23.03 39.9 23.03C39.48 23.03 39.2 22.75 39.2 22.33V16.73ZM56.7 2.73V3.22C56.7 3.64 56.42 3.92 56 3.92C55.58 3.92 55.3 3.64 55.3 3.22V2.73H53.2V3.22C53.2 3.64 52.92 3.92 52.5 3.92C52.08 3.92 51.8 3.64 51.8 3.22V2.73H49.7V3.22C49.7 3.64 49.42 3.92 49 3.92C48.58 3.92 48.3 3.64 48.3 3.22V2.73H46.2V3.22C46.2 3.64 45.92 3.92 45.5 3.92C45.08 3.92 44.8 3.64 44.8 3.22V2.73H42.7V3.22C42.7 3.64 42.42 3.92 42 3.92C41.58 3.92 41.3 3.64 41.3 3.22V2.73H39.2V3.22C39.2 3.64 38.92 3.92 38.5 3.92C38.08 3.92 37.8 3.64 37.8 3.22V2.73H35.7V3.22C35.7 3.64 35.42 3.92 35 3.92C34.58 3.92 34.3 3.64 34.3 3.22V2.73H32.2V3.22C32.2 3.64 31.92 3.92 31.5 3.92C31.08 3.92 30.8 3.64 30.8 3.22V2.73H28.7V3.22C28.7 3.64 28.42 3.92 28 3.92C27.58 3.92 27.3 3.64 27.3 3.22V2.73H25.2V3.22C25.2 3.64 24.92 3.92 24.5 3.92C24.08 3.92 23.8 3.64 23.8 3.22V2.73H21.7V3.22C21.7 3.64 21.42 3.92 21 3.92C20.58 3.92 20.3 3.64 20.3 3.22V2.73H18.2V3.22C18.2 3.64 17.92 3.92 17.5 3.92C17.08 3.92 16.8 3.64 16.8 3.22V2.73H14.7V3.22C14.7 3.64 14.42 3.92 14 3.92C13.58 3.92 13.3 3.64 13.3 3.22V2.73H11.2V3.22C11.2 3.64 10.92 3.92 10.5 3.92C10.08 3.92 9.8 3.64 9.8 3.22V2.73H7.7V3.22C7.7 3.64 7.42 3.92 7 3.92C6.58 3.92 6.3 3.64 6.3 3.22V2.73H1.4V10.43H60.9V2.73H56.7ZM56.7 1.33H61.6C62.02 1.33 62.3 1.61 62.3 2.03V19.11C62.3 19.53 62.02 19.81 61.6 19.81C61.18 19.81 60.9 19.53 60.9 19.11V11.83H1.4V46.83H2.1C2.52 46.83 2.8 47.11 2.8 47.53C2.8 47.95 2.52 48.23 2.1 48.23H0.7C0.28 48.23 0 47.95 0 47.53V2.03C0 1.61 0.28 1.33 0.7 1.33H6.3V0.7C6.3 0.28 6.58 0 7 0C7.42 0 7.7 0.28 7.7 0.7V1.33H9.8V0.7C9.8 0.28 10.08 0 10.5 0C10.92 0 11.2 0.28 11.2 0.7V1.33H13.3V0.7C13.3 0.28 13.58 0 14 0C14.42 0 14.7 0.28 14.7 0.7V1.33H16.8V0.7C16.8 0.28 17.08 0 17.5 0C17.92 0 18.2 0.28 18.2 0.7V1.33H20.3V0.7C20.3 0.28 20.58 0 21 0C21.42 0 21.7 0.28 21.7 0.7V1.33H23.8V0.7C23.8 0.28 24.08 0 24.5 0C24.92 0 25.2 0.28 25.2 0.7V1.33H27.3V0.7C27.3 0.28 27.58 0 28 0C28.42 0 28.7 0.28 28.7 0.7V1.33H30.8V0.7C30.8 0.28 31.08 0 31.5 0C31.92 0 32.2 0.28 32.2 0.7V1.33H34.3V0.7C34.3 0.28 34.58 0 35 0C35.42 0 35.7 0.28 35.7 0.7V1.33H37.8V0.7C37.8 0.28 38.08 0 38.5 0C38.92 0 39.2 0.28 39.2 0.7V1.33H41.3V0.7C41.3 0.28 41.58 0 42 0C42.42 0 42.7 0.28 42.7 0.7V1.33H44.8V0.7C44.8 0.28 45.08 0 45.5 0C45.92 0 46.2 0.28 46.2 0.7V1.33H48.3V0.7C48.3 0.28 48.58 0 49 0C49.42 0 49.7 0.28 49.7 0.7V1.33H51.8V0.7C51.8 0.28 52.08 0 52.5 0C52.92 0 53.2 0.28 53.2 0.7V1.33H55.3V0.7C55.3 0.28 55.58 0 56 0C56.42 0 56.7 0.28 56.7 0.7V1.33ZM13.3 21.63H21V16.73C21 16.31 21.28 16.03 21.7 16.03C22.12 16.03 22.4 16.31 22.4 16.73V21.63H30.1V16.73C30.1 16.31 30.38 16.03 30.8 16.03C31.22 16.03 31.5 16.31 31.5 16.73V21.63H34.3C34.72 21.63 35 21.91 35 22.33C35 22.75 34.72 23.03 34.3 23.03H31.5V27.93C31.5 28.35 31.22 28.63 30.8 28.63C30.38 28.63 30.1 28.35 30.1 27.93V23.03H22.4V27.93C22.4 28.35 22.12 28.63 21.7 28.63C21.28 28.63 21 28.35 21 27.93V23.03H13.3V27.93C13.3 28.35 13.02 28.63 12.6 28.63C12.18 28.63 11.9 28.35 11.9 27.93V23.03H6.3C5.88 23.03 5.6 22.75 5.6 22.33C5.6 21.91 5.88 21.63 6.3 21.63H11.9V16.73C11.9 16.31 12.18 16.03 12.6 16.03C13.02 16.03 13.3 16.31 13.3 16.73V21.63Z" fill="currentcolor" class="shade"/>
</svg>
