<svg fill="none" xmlns="http://www.w3.org/2000/svg" viewBox="0 0 60 63" width="60" height="63">
  <path fill-rule="evenodd" clip-rule="evenodd" d="M12.449 50.88c-2.1 0-3.764-1.737-3.764-3.836 0-2.098 1.665-3.835 3.764-3.835 2.099 0 3.763 1.737 3.763 3.835.073 2.172-1.664 3.836-3.763 3.836ZM5.79 60.072c0-4.125.073-7.382 7.165-7.382 6.876 0 7.093 3.04 7.166 6.948-2.027 1.592-4.632 2.605-7.383 2.605-2.605 0-4.994-.796-6.948-2.17Zm33.293-22.436c9.192 0 16.647-7.455 16.647-16.647 0-9.192-7.455-16.647-16.647-16.647-9.191 0-16.646 7.455-16.646 16.647 0 9.192 7.454 16.647 16.646 16.647ZM27.07 4.704l5.139-2.75a19.636 19.636 0 0 1 6.875-1.23c1.52 0 3.04.144 4.488.506a20.944 20.944 0 0 1 5.138 1.954c1.448.797 2.823 1.81 4.053 2.895a19.326 19.326 0 0 1 2.75 3.185c1.159 1.592 2.027 3.33 2.679 5.211.723 2.1 1.085 4.343 1.085 6.659 0 11.29-9.047 20.41-20.265 20.41-2.823 0-5.573-.58-8.034-1.665-1.954.58-6.297 2.027-12.955 4.27 1.447-6.803 2.388-11.363 2.895-13.751a18.937 18.937 0 0 1-1.737-4.922 21.038 21.038 0 0 1-.434-4.342c0-1.882.289-3.764.723-5.5.435-1.593 1.014-3.04 1.81-4.416a20.611 20.611 0 0 1 2.46-3.546 25.122 25.122 0 0 1 3.33-2.968Z" fill="currentColor" class="tint"/>
  <path fill-rule="evenodd" clip-rule="evenodd" d="M12.449 50.157c1.664 0 3.04-1.375 3.04-3.112s-1.376-3.113-3.04-3.113c-1.665 0-3.04 1.376-3.04 3.113s1.375 3.112 3.04 3.112Zm0 1.447c-2.461 0-4.488-2.026-4.488-4.56 0-2.532 2.027-4.56 4.488-4.56 2.46 0 4.487 2.027 4.487 4.56 0 2.534-1.954 4.56-4.487 4.56Zm34.74-38.287c.218-.29.724-.362 1.014-.145.29.218.361.724.144 1.014L36.767 28.66a.729.729 0 0 1-1.086.072l-6.513-6.514a.7.7 0 0 1 0-1.013.7.7 0 0 1 1.013 0l5.935 5.935 11.073-13.824Zm5.429 18.746c-.218.29-.724.362-1.014.145-.29-.218-.361-.724-.144-1.014 1.158-1.375 2.026-2.967 2.605-4.704.58-1.665.941-3.474.941-5.356 0-.941-.072-1.882-.217-2.823-.217-1.303-.58-2.533-1.158-3.691-.507-1.158-1.158-2.171-1.882-3.184-.29-.435-.651-.797-1.013-1.159-1.23-1.302-2.678-2.46-4.27-3.256a15.697 15.697 0 0 0-2.534-1.086c-1.52-.507-3.184-.724-4.849-.724-2.171 0-4.198.434-6.152 1.23-.651.29-1.302.652-1.954 1.014a16.722 16.722 0 0 0-3.908 3.257c-.29.29-.58.651-.796 1.013a15.192 15.192 0 0 0-2.1 3.836c-.361.868-.578 1.81-.795 2.75-.145.941-.29 1.882-.29 2.895 0 1.448.217 2.895.58 4.27.361 1.303.868 2.461 1.519 3.62.434.795.94 1.52 1.52 2.17.796 1.014 1.737 1.882 2.678 2.606 1.013.796 2.099 1.375 3.257 1.954 1.158.507 2.316.869 3.546 1.086.941.145 1.882.217 2.823.217 1.085 0 2.243-.145 3.33-.362.361-.072.795.145.868.58.072.361-.145.795-.58.868-1.157.217-2.388.362-3.618.362-1.013 0-2.1-.073-3.112-.29-1.376-.217-2.678-.651-3.909-1.23-1.23-.58-2.46-1.23-3.546-2.1-1.086-.868-2.099-1.809-2.967-2.894-.58-.724-1.159-1.52-1.593-2.389-.724-1.23-1.23-2.605-1.665-3.98a17.17 17.17 0 0 1-.65-4.705c0-1.085.072-2.099.289-3.112.217-1.013.434-2.027.868-3.04a18 18 0 0 1 2.244-4.198l.868-1.085c1.23-1.375 2.678-2.606 4.27-3.547a10.146 10.146 0 0 1 2.172-1.085 18.335 18.335 0 0 1 6.803-1.303c1.81 0 3.619.29 5.284.796.94.29 1.882.724 2.822 1.158 1.737.94 3.33 2.099 4.633 3.546.361.435.723.797 1.085 1.303.796 1.086 1.52 2.244 2.027 3.474.579 1.303 1.013 2.678 1.23 4.053.217 1.014.29 2.027.29 3.112 0 2.027-.362 3.981-1.014 5.79-.651 1.955-1.592 3.62-2.822 5.212Zm-4.56 3.98c-.362.218-.796.073-1.013-.217-.218-.362-.073-.796.217-1.013.796-.507 1.52-1.013 2.243-1.665.29-.29.724-.217 1.014.073.29.29.217.724-.073 1.013-.651.651-1.52 1.303-2.388 1.81ZM19.325 59.276c0-2.243-.218-3.184-.797-4.053-.796-1.23-2.533-1.882-5.645-1.882-3.112 0-4.85.652-5.645 1.882-.58.941-.724 1.954-.724 4.415.651.434 1.375.796 2.171 1.086V56.96c0-.434.29-.724.724-.724s.724.29.724.724v4.198c.796.217 1.664.29 2.533.29 1.158 0 2.243-.145 3.257-.507v-3.98c0-.435.29-.725.724-.725s.723.29.723.724v3.474c.724-.29 1.375-.651 1.954-1.158Zm2.46-15.633c-1.085.362-2.243.724-3.401 1.158-.507.145-1.086-.29-.941-.869.29-1.23.506-2.46.723-3.546a11.148 11.148 0 0 0-5.5-1.448c-6.225 0-11.218 5.067-11.218 11.291 0 3.33 1.375 6.225 3.618 8.324.073-2.027.29-3.04 1.014-4.054 1.085-1.664 3.257-2.533 6.875-2.533 3.547 0 5.718.796 6.876 2.533.652.941.869 1.882.941 3.547 1.954-2.027 3.112-4.777 3.112-7.817 0-2.388-.724-4.704-2.099-6.586Zm-2.099-3.764c.073.218 0 .362-.072.58 0 0 0 .072-.072.072-.145.796-.362 1.592-.507 2.46 6.007-2.026 9.988-3.329 11.797-3.835a.618.618 0 0 1 .507 0 19.752 19.752 0 0 0 7.744 1.592c10.784 0 19.542-8.83 19.542-19.686 0-2.244-.362-4.415-1.086-6.442a20.48 20.48 0 0 0-2.605-4.994 21.203 21.203 0 0 0-2.678-3.04c-1.158-1.085-2.533-2.026-3.909-2.822-1.52-.869-3.184-1.448-4.921-1.882a22.092 22.092 0 0 0-4.343-.434c-2.243 0-4.487.361-6.586 1.158-.362.144-.796-.073-.94-.435-.146-.362.072-.796.433-.94A21.179 21.179 0 0 1 39.083 0c1.593 0 3.112.145 4.632.507C45.597.94 47.335 1.592 49 2.533c1.52.796 2.967 1.882 4.198 3.04a24.533 24.533 0 0 1 2.895 3.257 22.079 22.079 0 0 1 2.75 5.356C59.566 16.357 60 18.746 60 21.06c0 11.653-9.409 21.134-20.99 21.134-2.822 0-5.5-.579-8.033-1.592-1.447.434-4.053 1.303-7.817 2.533 1.376 2.1 2.172 4.488 2.172 7.093 0 7.02-5.646 12.738-12.666 12.738C5.646 62.967 0 57.25 0 50.23c0-7.02 5.645-12.738 12.666-12.738 2.026 0 3.98.507 5.79 1.375.796-3.908 1.448-6.73 1.81-8.468a22.581 22.581 0 0 1-1.665-4.85c-.29-1.447-.507-2.967-.507-4.486 0-1.955.29-3.836.796-5.718.434-1.592 1.086-3.112 1.882-4.56a21.324 21.324 0 0 1 2.606-3.691c1.013-1.158 2.099-2.171 3.329-3.04.29-.217.796-.145 1.013.145.145.362.073.868-.217 1.085a23.297 23.297 0 0 0-3.112 2.823 15.989 15.989 0 0 0-2.389 3.402c-.723 1.375-1.375 2.75-1.737 4.27-.506 1.737-.723 3.474-.723 5.283 0 1.448.144 2.823.434 4.198.362 1.665.94 3.257 1.665 4.777.072.145.072.29.072.507-.362 1.737-1.086 4.849-2.027 9.336Z" fill="currentColor" class="shade"/>
</svg>