<svg width="35" height="31" viewBox="0 0 35 31" fill="none" xmlns="http://www.w3.org/2000/svg">
    <path fill-rule="evenodd" clip-rule="evenodd"
          d="M32.535 5.42857C33.115 4.85714 33.985 4.85714 34.565 5.42857C35.145 6 35.145 6.85714 34.565 7.42857L17.165 24.5714C16.585 25.1429 15.715 25.1429 15.135 24.5714L6.435 16C5.855 15.4286 5.855 14.5714 6.435 14C7.015 13.4286 7.885 13.4286 8.465 14L16.15 21.5714L32.535 5.42857Z"
          fill="currentcolor"/>
    <path fill-rule="evenodd" clip-rule="evenodd"
          d="M31 5.36586V4C31 1.79086 29.2091 0 27 0H4C1.79086 0 0 1.79086 0 4V27C0 29.2091 1.79086 31 4 31H27C29.2091 31 31 29.2091 31 27V12.5073L29 14.4585V27C29 28.1046 28.1046 29 27 29H4C2.89543 29 2 28.1046 2 27V12V4C2 2.89543 2.89543 2 4 2H27C28.1046 2 29 2.89543 29 4V7.31708L31 5.36586Z"
          fill="currentcolor"/>
</svg>
