<svg width="40" height="32" viewBox="0 0 40 32" fill="none" xmlns="http://www.w3.org/2000/svg">
<path d="M39.0909 0.929448C37.8859 -0.299901 35.9297 -0.308322 34.7493 0.895767L25.5544 9.77066L25.4883 9.7033C25.381 9.81276 25.2985 9.93907 25.2407 10.0738L23.301 11.9515L23.2928 11.9431C23.2845 11.9515 23.2763 11.9599 23.268 11.9683L8.18796 15.9932L8.09716 16.5237C7.56891 19.6139 9.37653 23.8071 12.7029 27.2089C15.6496 30.2149 19.207 32 22.0877 32C22.4674 32 22.8306 31.9663 23.1772 31.9074L23.6972 31.8148L27.6344 16.4479L39.1074 5.37532C40.3043 4.15439 40.296 2.1588 39.0909 0.929448ZM26.4706 13.164C26.8337 13.5345 27.2464 13.8629 27.6591 14.1071L26.6687 15.067C26.4706 15.0164 26.0083 14.7891 25.4471 14.2165C24.9106 13.6692 24.6877 13.2145 24.6217 12.9956L25.6122 12.0441C25.835 12.4314 26.1322 12.8188 26.4706 13.164ZM26.4953 15.2185C26.5036 15.2101 26.5201 15.2017 26.5283 15.1933L26.4953 15.2185ZM22.3766 30.316C21.5512 30.3665 20.6185 30.1981 19.6445 29.8613L21.5264 26.0806L20.0572 25.3144L18.1175 29.2045C16.962 28.6067 15.7981 27.7983 14.7004 26.8047L16.5823 24.8091L15.3937 23.6472L13.52 25.6427C12.6369 24.6913 11.8775 23.6808 11.275 22.662L15.0883 20.3549L14.2464 18.9066L10.5156 21.1632C9.91304 19.7991 9.59939 18.4856 9.66542 17.3488L23.136 13.7618C23.1442 13.7787 23.1442 13.7955 23.1607 13.8208C23.3836 14.3428 23.788 14.907 24.2833 15.4206C24.7785 15.9258 25.348 16.3468 25.901 16.5826L22.3766 30.316ZM37.9519 4.17123L28.7569 13.0461L28.6909 12.9788C28.7982 12.8693 28.9138 12.8525 28.9385 12.8525C28.8147 12.8525 28.2699 12.6335 27.6261 11.9768C27.1639 11.5052 26.9328 11.0926 26.8337 10.8484L35.8966 2.10828C36.4497 1.54412 37.3576 1.55254 37.9189 2.12512C38.1912 2.40298 38.3398 2.77347 38.3398 3.1608C38.3481 3.54813 38.2078 3.91862 37.9519 4.17123Z" fill="currentcolor"/>
<path d="M6.30626 24.5314C5.13419 24.5314 4.18498 23.5631 4.18498 22.3674C4.18498 21.1718 5.14244 20.2119 6.30626 20.2119V18.5278C4.22625 18.5278 2.53418 20.254 2.53418 22.3759C2.53418 24.4978 4.22625 26.2239 6.30626 26.2239C7.29674 26.2239 8.23769 25.8366 8.94754 25.1209L7.79198 23.9168C7.38753 24.3125 6.86753 24.5314 6.30626 24.5314Z" fill="currentcolor"/>
<path d="M3.37598 14.2164C3.37598 15.7405 4.17661 17.1551 5.47249 17.9129L6.29789 16.4562C5.51376 16.0015 5.02678 15.1427 5.02678 14.2164C5.02678 12.785 6.16583 11.623 7.56901 11.623C8.72457 11.623 9.73981 12.4229 10.0287 13.5681C10.0782 13.7786 10.1112 13.9975 10.1112 14.2164H11.762C11.762 13.8544 11.7208 13.4923 11.63 13.1471C11.1512 11.2609 9.48394 9.93896 7.56901 9.93896C5.25789 9.94739 3.37598 11.8672 3.37598 14.2164Z" fill="currentcolor"/>
<path d="M3.36748 8.20439C5.21638 8.20439 6.71861 6.67192 6.71861 4.78579C6.71861 2.89966 5.20812 1.36719 3.36748 1.36719C1.51859 1.36719 0.0163574 2.89966 0.0163574 4.78579C0.0163574 6.67192 1.51859 8.20439 3.36748 8.20439ZM3.36748 3.05123C4.30018 3.05123 5.06781 3.82589 5.06781 4.78579C5.06781 5.74569 4.30018 6.52035 3.36748 6.52035C2.43478 6.52035 1.66716 5.73727 1.66716 4.78579C1.66716 3.83431 2.42653 3.05123 3.36748 3.05123Z" fill="currentcolor"/>
<path d="M1.68382 17.6689H0V19.353H1.68382V17.6689Z" fill="currentcolor"/>
<path d="M10.9365 28.8174H9.25269V30.5014H10.9365V28.8174Z" fill="currentcolor"/>
<path d="M10.3588 8.54973C10.8953 7.29511 12.1087 6.48678 13.4541 6.48678C15.3195 6.48678 16.83 8.03609 16.83 9.93064C16.83 10.4106 16.7392 10.8737 16.5493 11.3116L18.0598 11.9852C18.3404 11.3368 18.4808 10.6464 18.4808 9.93064C18.4808 7.10145 16.2274 4.80273 13.4541 4.80273C11.4566 4.80273 9.64073 6.00682 8.84009 7.88453L10.3588 8.54973Z" fill="currentcolor"/>
<path d="M10.0947 2.22607H8.41089V3.91012H10.0947V2.22607Z" fill="currentcolor"/>
</svg>
