<svg width="86" height="82" viewBox="0 0 86 82" fill="none" xmlns="http://www.w3.org/2000/svg">
<path fill-rule="evenodd" clip-rule="evenodd" d="M27.9814 25C31.2814 25 33.9814 22.3 33.9814 19C33.9814 15.7 31.2814 13 27.9814 13C24.6814 13 21.9814 15.7 21.9814 19C21.9814 22.3 24.6814 25 27.9814 25ZM56.0814 49C59.3814 49 62.0814 46.3 62.0814 43C62.0814 39.7 59.3814 37 56.0814 37C52.7814 37 50.0814 39.7 50.0814 43C50.0814 46.3 52.7814 49 56.0814 49ZM48.0814 80.5V62.9V80.5ZM81.2814 48.3C79.2814 59.1 72.8814 68.4 64.0814 74.3V62.9L81.2814 48.3ZM11.8814 67.3C5.68145 60.3 1.98145 51.1 1.98145 41C1.98145 35.5 3.08145 30.2 5.18145 25.4L20.1814 38.1V49C19.9814 49 19.7814 49 19.5814 49C16.2814 49 13.5814 51.7 13.5814 55C13.5814 58.3 16.2814 61 19.5814 61C19.7814 61 19.9814 61 20.1814 61V65.2C20.1814 65.2 20.1814 65.2 20.0814 65.2H19.9814C16.7814 65.2 14.0814 65.9 11.8814 67.3ZM36.1814 80.6V39.1L55.1814 23C56.8814 21.6 57.0814 19.1 55.6814 17.4C54.2814 15.7 51.6814 15.5 49.9814 16.9C42.8814 22.3 38.2814 25.8 36.1814 27.5C31.5814 31.1 24.3814 31 20.1814 27.5C16.9814 24.9 13.2814 21.8 9.08145 18.2C16.2814 7.8 28.3814 1 41.9814 1C63.7814 1 81.4814 18.4 81.9814 40C80.6814 39.5 79.1814 39.7 77.9814 40.7L62.0814 52.9C45.6814 53.6 42.0814 52 42.0814 71.6C42.0814 76.6 43.0814 79.6 45.1814 80.9C44.1814 81 43.0814 81 41.9814 81C39.9814 81 38.0814 80.9 36.1814 80.6Z" fill="currentcolor" class="tint"/>
<path fill-rule="evenodd" clip-rule="evenodd" d="M19.5819 60C22.3819 60 24.5819 57.8 24.5819 55C24.5819 52.2 22.3819 50 19.5819 50C16.7819 50 14.5819 52.2 14.5819 55C14.5819 57.8 16.7819 60 19.5819 60ZM19.5819 62C15.6819 62 12.5819 58.9 12.5819 55C12.5819 51.1 15.6819 48 19.5819 48C23.4819 48 26.5819 51.1 26.5819 55C26.5819 58.9 23.3819 62 19.5819 62ZM27.9819 24C30.7819 24 32.9819 21.8 32.9819 19C32.9819 16.2 30.7819 14 27.9819 14C25.1819 14 22.9819 16.2 22.9819 19C22.9819 21.8 25.1819 24 27.9819 24ZM27.9819 26C24.0819 26 20.9819 22.9 20.9819 19C20.9819 15.1 24.0819 12 27.9819 12C31.8819 12 34.9819 15.1 34.9819 19C34.9819 22.9 31.8819 26 27.9819 26ZM55.9819 48C58.7819 48 60.9819 45.8 60.9819 43C60.9819 40.2 58.7819 38 55.9819 38C53.1819 38 50.9819 40.2 50.9819 43C50.9819 45.8 53.1819 48 55.9819 48ZM55.9819 50C52.0819 50 48.9819 46.9 48.9819 43C48.9819 39.1 52.0819 36 55.9819 36C59.8819 36 62.9819 39.1 62.9819 43C62.9819 46.9 59.8819 50 55.9819 50ZM13.4819 67.6C18.7819 73.2 25.6819 77.3 33.4819 79C33.2819 70.5 28.5819 66 20.6819 65.9H20.5819C20.5819 65.9 20.5819 65.9 20.4819 65.9C17.6819 66 15.3819 66.6 13.4819 67.6ZM82.1819 48.9C78.8819 66 65.1819 78.9 48.3819 81.5C48.2819 81.6 48.0819 81.6 47.9819 81.6C47.8819 81.6 47.8819 81.6 47.7819 81.6C45.8819 81.9 43.9819 82 41.9819 82C19.3819 82 0.981914 63.6 0.981914 41C0.981914 35.7 1.98191 30.5 3.98191 25.7L1.78191 23.8C-0.318086 22 -0.618086 18.9 1.18191 16.8C2.98191 14.7 6.08191 14.4 8.18191 16.2C8.38191 16.4 8.68191 16.6 8.88191 16.8C16.5819 6.3 28.7819 0 41.9819 0C63.9819 0 82.0819 17.4 82.9819 39.4C83.4819 39.7 83.9819 40.1 84.3819 40.6C86.1819 42.7 85.8819 45.9 83.7819 47.6L82.1819 48.9ZM64.9819 72.5C72.0819 67.3 77.3819 59.8 79.6819 51L64.9819 63.4V72.5ZM45.6819 79.8C46.0819 79.8 46.5819 79.7 46.9819 79.7V62.9C46.9819 62.3 47.3819 61.9 47.9819 61.9C48.5819 61.9 48.9819 62.3 48.9819 62.9V79.4C54.0819 78.5 58.7819 76.6 62.9819 73.9V62.9C62.9819 62.6 63.0819 62.3 63.3819 62.1L82.4819 46C83.7819 44.9 83.8819 43 82.8819 41.8C81.7819 40.5 79.8819 40.4 78.6819 41.4C72.8819 46.3 68.9819 49.4 67.1819 50.8C65.1819 52.3 64.5819 52.8 63.6819 53.2C62.1819 54 61.3819 54 56.7819 54C55.9819 54 55.4819 54 54.9819 54C45.4819 54 42.9819 57.2 42.9819 67.7C42.9819 74 43.8819 77.9 45.4819 79.6C45.5819 79.6 45.5819 79.7 45.6819 79.8ZM43.2819 80C41.6819 77.6 40.9819 73.6 40.9819 67.7C40.9819 56.2 44.2819 52 54.9819 52C55.5819 52 56.0819 52 56.8819 52C61.0819 52 61.7819 52 62.8819 51.5C63.5819 51.2 64.1819 50.8 65.9819 49.3C67.7819 47.9 71.5819 44.8 77.3819 39.9C78.3819 39 79.6819 38.6 80.9819 38.7C79.7819 18.2 62.6819 2 41.9819 2C29.3819 2 17.6819 8.1 10.4819 18.1C14.3819 21.4 17.8819 24.3 20.8819 26.8C24.7819 30 31.3819 30 35.6819 26.8C37.8819 25.1 42.4819 21.6 49.4819 16.2C51.5819 14.5 54.7819 14.7 56.4819 16.8C58.2819 18.9 57.9819 22.1 55.8819 23.8L37.1819 39.6V67.7C37.1819 68.3 36.7819 68.7 36.1819 68.7C35.5819 68.7 35.1819 68.3 35.1819 67.7V39.1C35.1819 38.8 35.2819 38.5 35.5819 38.3L54.5819 22.2C55.8819 21.1 55.9819 19.2 54.9819 18C53.8819 16.7 51.9819 16.6 50.6819 17.6C43.5819 23 38.9819 26.5 36.7819 28.2C31.7819 32 24.0819 32 19.5819 28.2C16.4819 25.6 12.7819 22.6 8.68191 19.1C8.58191 19.1 8.58191 19 8.58191 19C8.48191 18.9 8.38191 18.8 8.38191 18.8C7.98191 18.4 7.48191 18.1 7.08191 17.7C5.78191 16.6 3.88191 16.8 2.88191 18.1C1.78191 19.4 1.98191 21.3 3.28191 22.3L20.8819 37.3C21.0819 37.5 21.1819 37.8 21.1819 38.1V45C21.1819 45.6 20.7819 46 20.1819 46C19.5819 46 19.1819 45.6 19.1819 45V38.6L5.58191 27.1C3.88191 31.5 2.98191 36.2 2.98191 41C2.98191 50.6 6.38191 59.3 12.1819 66.1C14.3819 64.7 17.1819 64 20.4819 64C20.5819 64 20.5819 64 20.5819 64C20.6819 64 20.6819 64 20.6819 64C29.7819 64.1 35.4819 69.6 35.4819 79.5C37.5819 79.9 39.7819 80 41.9819 80C42.3819 80 42.8819 80 43.2819 80Z" fill="currentcolor" class="shade"/>
</svg>
