<svg width="64" height="64" viewBox="0 0 64 64" fill="none" xmlns="http://www.w3.org/2000/svg">
<path fill-rule="evenodd" clip-rule="evenodd" d="M20.9299 19.6996C23.3982 19.6996 25.4178 17.68 25.4178 15.2117C25.4178 12.7433 23.3982 10.7238 20.9299 10.7238C18.4616 10.7238 16.442 12.7433 16.442 15.2117C16.442 17.68 18.4616 19.6996 20.9299 19.6996ZM41.9481 37.6511C44.4164 37.6511 46.436 35.6315 46.436 33.1632C46.436 30.6949 44.4164 28.6753 41.9481 28.6753C39.4798 28.6753 37.4602 30.6949 37.4602 33.1632C37.4602 35.6315 39.4798 37.6511 41.9481 37.6511ZM35.9643 61.2124V48.048V61.2124ZM60.7972 37.1275C59.3012 45.2057 54.5142 52.1619 47.9319 56.5749V48.048L60.7972 37.1275ZM8.88742 51.3391C4.24995 46.1032 1.48242 39.2218 1.48242 31.6672C1.48242 27.5533 2.3052 23.589 3.87596 19.9987L15.0956 29.4981V37.6511C14.9461 37.6511 14.7965 37.6511 14.6469 37.6511C12.1785 37.6511 10.159 39.6706 10.159 42.1389C10.159 44.6073 12.1785 46.6268 14.6469 46.6268C14.7965 46.6268 14.9461 46.6268 15.0956 46.6268V49.7683C15.0956 49.7683 15.0956 49.7683 15.0209 49.7683H14.9461C12.5525 49.7683 10.533 50.2919 8.88742 51.3391ZM27.0633 61.2872V30.2461L41.2749 18.2036C42.5465 17.1564 42.6961 15.2865 41.6489 14.0149C40.6018 12.7433 38.657 12.5938 37.3854 13.6409C32.0748 17.68 28.6341 20.2979 27.0633 21.5695C23.6226 24.2622 18.2372 24.1874 15.0956 21.5695C12.7021 19.6248 9.93459 17.306 6.79308 14.6133C12.1785 6.83431 21.2291 1.74805 31.4016 1.74805C47.7076 1.74805 60.9468 14.7629 61.3208 30.9192C60.3484 30.5453 59.2264 30.6949 58.3289 31.4428L46.436 40.5682C34.1691 41.0918 31.4764 39.895 31.4764 54.5554C31.4764 58.2953 32.2244 60.5392 33.7951 61.5116C33.0472 61.5864 32.2244 61.5864 31.4016 61.5864C29.9056 61.5864 28.4845 61.5116 27.0633 61.2872Z" fill="currentcolor" class="tint"/>
<path fill-rule="evenodd" clip-rule="evenodd" d="M14.6469 45.8788C16.7412 45.8788 18.3868 44.2332 18.3868 42.1389C18.3868 40.0445 16.7412 38.399 14.6469 38.399C12.5525 38.399 10.907 40.0445 10.907 42.1389C10.907 44.2332 12.5525 45.8788 14.6469 45.8788ZM14.6469 47.3747C11.7298 47.3747 9.41102 45.056 9.41102 42.1389C9.41102 39.2218 11.7298 36.903 14.6469 36.903C17.564 36.903 19.8827 39.2218 19.8827 42.1389C19.8827 45.056 17.4892 47.3747 14.6469 47.3747ZM20.9299 18.9515C23.0242 18.9515 24.6698 17.306 24.6698 15.2116C24.6698 13.1173 23.0242 11.4717 20.9299 11.4717C18.8356 11.4717 17.19 13.1173 17.19 15.2116C17.19 17.306 18.8356 18.9515 20.9299 18.9515ZM20.9299 20.4475C18.0128 20.4475 15.694 18.1287 15.694 15.2116C15.694 12.2945 18.0128 9.97575 20.9299 9.97575C23.847 9.97575 26.1658 12.2945 26.1658 15.2116C26.1658 18.1287 23.847 20.4475 20.9299 20.4475ZM41.8733 36.903C43.9677 36.903 45.6132 35.2575 45.6132 33.1631C45.6132 31.0688 43.9677 29.4232 41.8733 29.4232C39.779 29.4232 38.1334 31.0688 38.1334 33.1631C38.1334 35.2575 39.779 36.903 41.8733 36.903ZM41.8733 38.399C38.9562 38.399 36.6375 36.0802 36.6375 33.1631C36.6375 30.246 38.9562 27.9273 41.8733 27.9273C44.7905 27.9273 47.1092 30.246 47.1092 33.1631C47.1092 36.0802 44.7905 38.399 41.8733 38.399ZM10.0842 51.5634C14.0485 55.7521 19.2095 58.8188 25.0438 60.0904C24.8942 53.7326 21.3787 50.3667 15.4697 50.2919H15.3949C15.3949 50.2919 15.3949 50.2919 15.3201 50.2919C13.2257 50.3667 11.5054 50.8154 10.0842 51.5634ZM61.4704 37.5762C59.0021 50.3667 48.7547 60.0156 36.1887 61.9603C36.1139 62.0351 35.9643 62.0351 35.8895 62.0351C35.8147 62.0351 35.8147 62.0351 35.7399 62.0351C34.3187 62.2595 32.8976 62.3343 31.4016 62.3343C14.4973 62.3343 0.734452 48.5715 0.734452 31.6672C0.734452 27.7029 1.48243 23.8134 2.97839 20.2231L1.33284 18.8019C-0.237922 17.4556 -0.462316 15.1368 0.884048 13.5661C2.23041 11.9953 4.54915 11.7709 6.1199 13.1173C6.2695 13.2669 6.49389 13.4165 6.64349 13.5661C12.4029 5.71227 21.5283 1 31.4016 1C47.8572 1 61.3956 14.0148 62.0688 30.4704C62.4428 30.6948 62.8168 30.994 63.116 31.368C64.4623 32.9387 64.2379 35.3323 62.6672 36.6038L61.4704 37.5762ZM48.6051 55.2285C53.9158 51.339 57.8801 45.7292 59.6004 39.147L48.6051 48.4219V55.2285ZM34.1691 60.6888C34.4683 60.6888 34.8423 60.614 35.1415 60.614V48.0479C35.1415 47.5991 35.4407 47.2999 35.8895 47.2999C36.3383 47.2999 36.6375 47.5991 36.6375 48.0479V60.3896C40.4522 59.7164 43.9677 58.2952 47.1092 56.2757V48.0479C47.1092 47.8235 47.184 47.5991 47.4084 47.4495L61.6948 35.4071C62.6672 34.5843 62.742 33.1631 61.994 32.2655C61.1712 31.2932 59.75 31.2184 58.8525 31.9664C54.5142 35.6315 51.5971 37.9502 50.2507 38.9974C48.7547 40.1193 48.306 40.4933 47.6328 40.7925C46.5108 41.3909 45.9124 41.3909 42.4717 41.3909C41.8733 41.3909 41.4993 41.3909 41.1254 41.3909C34.0195 41.3909 32.1496 43.7844 32.1496 51.6382C32.1496 56.3505 32.8228 59.2676 34.0195 60.5392C34.0943 60.5392 34.0943 60.614 34.1691 60.6888ZM32.374 60.8384C31.1772 59.0432 30.6536 56.0513 30.6536 51.6382C30.6536 43.0364 33.122 39.8949 41.1254 39.8949C41.5741 39.8949 41.9481 39.8949 42.5465 39.8949C45.688 39.8949 46.2116 39.8949 47.0344 39.521C47.558 39.2966 48.0068 38.9974 49.3531 37.8754C50.6995 36.8282 53.5418 34.5095 57.8801 30.8444C58.6281 30.1712 59.6004 29.872 60.5728 29.9468C59.6752 14.6132 46.8848 2.49596 31.4016 2.49596C21.9771 2.49596 13.2257 7.05863 7.84026 14.5384C10.7574 17.0068 13.3753 19.1759 15.6192 21.0459C18.5364 23.4394 23.473 23.4394 26.6893 21.0459C28.3349 19.7743 31.7756 17.1564 37.0115 13.1173C38.5822 11.8457 40.9758 11.9953 42.2473 13.5661C43.5937 15.1368 43.3693 17.5303 41.7985 18.8019L27.8113 30.62V51.6382C27.8113 52.087 27.5121 52.3862 27.0633 52.3862C26.6145 52.3862 26.3154 52.087 26.3154 51.6382V30.246C26.3154 30.0216 26.3902 29.7972 26.6145 29.6476L40.8262 17.6051C41.7985 16.7824 41.8733 15.3612 41.1254 14.4636C40.3026 13.4913 38.8814 13.4165 37.909 14.1644C32.5984 18.2035 29.1577 20.8215 27.5121 22.093C23.7722 24.9353 18.0128 24.9353 14.6469 22.093C12.3281 20.1483 9.56061 17.9043 6.49389 15.2864C6.4191 15.2864 6.4191 15.2116 6.4191 15.2116C6.3443 15.1368 6.2695 15.062 6.2695 15.062C5.97031 14.7628 5.59632 14.5384 5.29713 14.2392C4.32475 13.4165 2.90359 13.5661 2.15561 14.5384C1.33284 15.5108 1.48243 16.932 2.4548 17.6799L15.6192 28.8996C15.7688 29.0492 15.8436 29.2736 15.8436 29.498V34.6591C15.8436 35.1079 15.5444 35.4071 15.0957 35.4071C14.6469 35.4071 14.3477 35.1079 14.3477 34.6591V29.872L4.17516 21.2702C2.90359 24.5614 2.23041 28.0769 2.23041 31.6672C2.23041 38.8478 4.77354 45.3552 9.11182 50.4414C10.7574 49.3943 12.8517 48.8707 15.3201 48.8707C15.3949 48.8707 15.3949 48.8707 15.3949 48.8707C15.4697 48.8707 15.4697 48.8707 15.4697 48.8707C22.2763 48.9455 26.5397 53.0594 26.5397 60.4644C28.1105 60.7636 29.7561 60.8384 31.4016 60.8384C31.7008 60.8384 32.0748 60.8384 32.374 60.8384Z" fill="currentcolor" class="shade"/>
</svg>
