<svg width="150" height="110" viewBox="0 0 150 110" fill="none" xmlns="http://www.w3.org/2000/svg">
<path fill-rule="evenodd" clip-rule="evenodd" d="M46 29V63H104V29H46ZM86 68C85.8 69.1 84.6 70 83.1 70H66.9C65.5 70 64.3 69.1 64 68H41V30.5C41 26.3 44.3 23 48.5 23H100.5C104.7 23 108 26.3 108 30.5V68H86Z" fill="currentcolor" class="tint"/>
<path fill-rule="evenodd" clip-rule="evenodd" d="M75 27C74.4 27 74 26.6 74 26C74 25.4 74.4 25 75 25C75.6 25 76 25.4 76 26C76 26.6 75.6 27 75 27ZM73.7 46.1C72.5 46.4 71.4 46.6 70.2 46.8C68 48.2 65.6 49.8 63 51.7C62.6 52 61.9 51.9 61.6 51.5C61.3 51.1 61.4 50.4 61.8 50.1C62.9 49.3 64 48.5 65 47.7C64.6 47.8 64.3 47.8 64 47.9C62.4 48.1 61.9 48.2 61.5 48C60.7 47.5 60.9 46.7 61.4 46.3C61.5 46.2 61.7 46.1 61.9 46C62.2 45.9 62.6 45.7 63.3 45.5C65.8 44.7 68.3 44.3 70.9 44.1C76.4 41 81 39.6 84.8 40C85.4 40.1 85.9 40.2 86.2 40.3C86.9 40.7 87 41.6 86.4 42.2C86 42.6 85.1 43 83.7 43.5C82.7 43.8 81.3 44.2 79.8 44.6C81.1 44.8 82.4 45.1 83.7 45.5C84.7 45.8 84.7 47.2 83.7 47.4L79.5 48.4L97 49.3C97.6 49.3 98 49.8 98 50.3C98 50.9 97.5 51.3 97 51.3L72.6 50.3C71.4 50.3 71.3 48.6 72.4 48.3L79.2 46.6C77.4 46.3 75.7 46.1 73.9 46.1C73.8 46.1 73.8 46.1 73.7 46.1ZM53 56.5C52.4 56.5 52 56.1 52 55.5C52 54.9 52.4 54.5 53 54.5H99C99.6 54.5 100 54.9 100 55.5C100 56.1 99.6 56.5 99 56.5H53ZM46 28H104C104.6 28 105 28.4 105 29V63C105 63.6 104.6 64 104 64H46C45.4 64 45 63.6 45 63V29C45 28.4 45.4 28 46 28ZM47 30V62H103V30H47ZM90 24C89.4 24 89 23.6 89 23C89 22.4 89.4 22 90 22H92C92.6 22 93 22.4 93 23C93 23.6 92.6 24 92 24H90ZM108 66V30.3C108 26.8 105.1 24 101.4 24H98C97.4 24 97 23.6 97 23C97 22.4 97.4 22 98 22H101.4C106.2 22 110 25.7 110 30.3V66H115C115.6 66 116 66.4 116 67V69.4C116 69.7 115.9 70 115.6 70.2L109.3 74.8C109.2 74.9 109 75 108.7 75H41.3C41.1 75 40.9 74.9 40.7 74.8L34.4 70.3C34.2 70.1 34 69.8 34 69.5V67C34 66.4 34.4 66 35 66H40V39.8V30.7C40 25.9 43.8 22 48.6 22H86C86.6 22 87 22.4 87 23C87 23.6 86.6 24 86 24H48.6C44.9 24 42 27 42 30.7V40V66H108ZM55 47.6L56.3 46.3C56.7 45.9 57.3 45.9 57.7 46.3C58.1 46.7 58.1 47.3 57.7 47.7L56.4 49L57.7 50.3C58.1 50.7 58.1 51.3 57.7 51.7C57.3 52.1 56.7 52.1 56.3 51.7L55 50.4L53.7 51.7C53.3 52.1 52.7 52.1 52.3 51.7C51.9 51.3 51.9 50.7 52.3 50.3L53.6 49L52.3 47.7C51.9 47.3 51.9 46.7 52.3 46.3C52.7 45.9 53.3 45.9 53.7 46.3L55 47.6ZM84.9 68H65.1C65.3 68.6 66.1 69 66.9 69H83C84 69 84.7 68.6 84.9 68ZM87 68C86.8 69.7 85.1 71 83.1 71H66.9C64.9 71 63.2 69.7 63 68H36V68.9L41.6 73H108.4L114 68.8V68H87Z" fill="currentcolor" class="shade"/>
</svg>
