<svg width="68" height="64" viewBox="0 0 68 64" fill="none" xmlns="http://www.w3.org/2000/svg">
<path fill-rule="evenodd" clip-rule="evenodd" d="M9.95121 15.805V44.0001H58.0488V15.805H9.95121ZM43.1219 48.1464C42.9561 49.0586 41.961 49.805 40.7171 49.805H27.2829C26.1219 49.805 25.1268 49.0586 24.878 48.1464H5.80487V17.0489C5.80487 13.5659 8.54146 10.8293 12.0244 10.8293H55.1463C58.6293 10.8293 61.3658 13.5659 61.3658 17.0489V48.1464H43.1219Z" fill="currentcolor" class="tint"/>
<path fill-rule="evenodd" clip-rule="evenodd" d="M34 14.1463C33.5024 14.1463 33.1707 13.8146 33.1707 13.3171C33.1707 12.8195 33.5024 12.4878 34 12.4878C34.4976 12.4878 34.8293 12.8195 34.8293 13.3171C34.8293 13.8146 34.4976 14.1463 34 14.1463ZM32.922 29.9854C31.9268 30.2341 31.0146 30.4 30.0195 30.5658C28.1951 31.7268 26.2049 33.0537 24.0488 34.6293C23.7171 34.878 23.1366 34.7951 22.8878 34.4634C22.639 34.1317 22.722 33.5512 23.0537 33.3024C23.9659 32.639 24.878 31.9756 25.7073 31.3122C25.3756 31.3951 25.1268 31.3951 24.878 31.478C23.5512 31.6439 23.1366 31.7268 22.8049 31.561C22.1415 31.1463 22.3073 30.4829 22.722 30.1512C22.8049 30.0683 22.9707 29.9854 23.1366 29.9024C23.3854 29.8195 23.7171 29.6537 24.2976 29.4878C26.3707 28.8244 28.4439 28.4927 30.6 28.3268C35.161 25.7561 38.9756 24.5951 42.1268 24.9268C42.6244 25.0098 43.039 25.0927 43.2878 25.1756C43.8683 25.5073 43.9512 26.2537 43.4537 26.7512C43.122 27.0829 42.3756 27.4146 41.2146 27.8293C40.3854 28.078 39.2244 28.4098 37.9805 28.7415C39.0585 28.9073 40.1366 29.1561 41.2146 29.4878C42.0439 29.7366 42.0439 30.8976 41.2146 31.0634L37.7317 31.8927L52.2439 32.639C52.7415 32.639 53.0732 33.0537 53.0732 33.4683C53.0732 33.9658 52.6585 34.2976 52.2439 34.2976L32.0098 33.4683C31.0146 33.4683 30.9317 32.0585 31.8439 31.8098L37.4829 30.4C35.9902 30.1512 34.5805 29.9854 33.0878 29.9854C33.0049 29.9854 33.0049 29.9854 32.922 29.9854ZM15.7561 38.6098C15.2585 38.6098 14.9268 38.278 14.9268 37.7805C14.9268 37.2829 15.2585 36.9512 15.7561 36.9512H53.9024C54.4 36.9512 54.7317 37.2829 54.7317 37.7805C54.7317 38.278 54.4 38.6098 53.9024 38.6098H15.7561ZM9.95122 14.9756H58.0488C58.5463 14.9756 58.878 15.3073 58.878 15.8049V44C58.878 44.4976 58.5463 44.8293 58.0488 44.8293H9.95122C9.45366 44.8293 9.12195 44.4976 9.12195 44V15.8049C9.12195 15.3073 9.45366 14.9756 9.95122 14.9756ZM10.7805 16.6341V43.1707H57.2195V16.6341H10.7805ZM46.439 11.6585C45.9415 11.6585 45.6098 11.3268 45.6098 10.8293C45.6098 10.3317 45.9415 10 46.439 10H48.0976C48.5951 10 48.9268 10.3317 48.9268 10.8293C48.9268 11.3268 48.5951 11.6585 48.0976 11.6585H46.439ZM61.3659 46.4878V16.8829C61.3659 13.9805 58.961 11.6585 55.8927 11.6585H53.0732C52.5756 11.6585 52.2439 11.3268 52.2439 10.8293C52.2439 10.3317 52.5756 10 53.0732 10H55.8927C59.8732 10 63.0244 13.0683 63.0244 16.8829V46.4878H67.1707C67.6683 46.4878 68 46.8195 68 47.3171V49.3073C68 49.5561 67.9171 49.8049 67.6683 49.9707L62.4439 53.7854C62.361 53.8683 62.1951 53.9512 61.9463 53.9512H6.05366C5.8878 53.9512 5.72195 53.8683 5.5561 53.7854L0.331707 50.0536C0.165854 49.8878 0 49.639 0 49.3902V47.3171C0 46.8195 0.331707 46.4878 0.829268 46.4878H4.97561V24.761V17.2146C4.97561 13.2341 8.12683 10 12.1073 10H43.122C43.6195 10 43.9512 10.3317 43.9512 10.8293C43.9512 11.3268 43.6195 11.6585 43.122 11.6585H12.1073C9.03902 11.6585 6.63415 14.1463 6.63415 17.2146V24.9268V46.4878H61.3659ZM17.4146 31.2293L18.4927 30.1512C18.8244 29.8195 19.322 29.8195 19.6537 30.1512C19.9854 30.4829 19.9854 30.9805 19.6537 31.3122L18.5756 32.3902L19.6537 33.4683C19.9854 33.8 19.9854 34.2976 19.6537 34.6293C19.322 34.961 18.8244 34.961 18.4927 34.6293L17.4146 33.5512L16.3366 34.6293C16.0049 34.961 15.5073 34.961 15.1756 34.6293C14.8439 34.2976 14.8439 33.8 15.1756 33.4683L16.2537 32.3902L15.1756 31.3122C14.8439 30.9805 14.8439 30.4829 15.1756 30.1512C15.5073 29.8195 16.0049 29.8195 16.3366 30.1512L17.4146 31.2293ZM42.2098 48.1463H25.7902C25.9561 48.6439 26.6195 48.9756 27.2829 48.9756H40.6341C41.4634 48.9756 42.0439 48.6439 42.2098 48.1463ZM43.9512 48.1463C43.7854 49.5561 42.3756 50.6341 40.7171 50.6341H27.2829C25.6244 50.6341 24.2146 49.5561 24.0488 48.1463H1.65854V48.8927L6.30244 52.2927H61.6976L66.3415 48.8097V48.1463H43.9512Z" fill="currentcolor" class="shade"/>
</svg>
