<svg width="150" height="125" viewBox="0 0 150 125" fill="none" xmlns="http://www.w3.org/2000/svg">
<g clip-path="url(#clip0_26_222)">
<path fill-rule="evenodd" clip-rule="evenodd" d="M107.656 51.25C108.969 51.25 110 50.2188 110 48.9062C110 47.5938 108.969 46.5625 107.656 46.5625C106.344 46.5625 105.312 47.5938 105.312 48.9062C105.312 50.2188 106.344 51.25 107.656 51.25ZM107.656 35.3125C108.969 35.3125 110 34.2812 110 32.9688C110 31.6562 108.969 30.625 107.656 30.625C106.344 30.625 105.312 31.6562 105.312 32.9688C105.312 34.2812 106.344 35.3125 107.656 35.3125ZM107.656 19.375C108.969 19.375 110 18.3438 110 17.0312C110 15.7188 108.969 14.6875 107.656 14.6875C106.344 14.6875 105.312 15.7188 105.312 17.0312C105.312 18.3438 106.344 19.375 107.656 19.375ZM112.062 55H77C75.5 55 74.375 53.6875 74.375 52.0938V45.625C74.375 44.0312 75.5937 42.7188 77 42.7188H111.969C113.469 42.7188 114.594 44.0312 114.594 45.625V52.0938C114.688 53.6875 113.469 55 112.062 55ZM112.062 39.0625H77C75.5 39.0625 74.375 37.75 74.375 36.1562V29.6875C74.375 28.0938 75.5937 26.7812 77 26.7812H111.969C113.469 26.7812 114.594 28.0938 114.594 29.6875V36.1562C114.688 37.75 113.469 39.0625 112.062 39.0625ZM112.062 23.125H77C75.5 23.125 74.375 21.8125 74.375 20.2188V13.8438C74.375 12.25 75.5937 10.9375 77 10.9375H111.969C113.469 10.9375 114.688 12.25 114.688 13.8438V20.3125C114.688 21.8125 113.469 23.125 112.062 23.125Z" fill="currentcolor" class="tint"/>
<path fill-rule="evenodd" clip-rule="evenodd" d="M113.75 63.4375C114.312 63.4375 114.688 63.8125 114.688 64.375C114.688 64.9375 114.312 65.3125 113.75 65.3125H111.875C111.312 65.3125 110.938 64.9375 110.938 64.375C110.938 63.8125 111.312 63.4375 111.875 63.4375H113.75ZM52.625 37.9375C57.0312 37.9375 60.6875 34.375 60.6875 29.9688C60.6875 25.5625 57.125 22 52.625 22C48.2187 22 44.5625 25.5625 44.5625 29.9688C44.5625 34.2812 48.2187 37.9375 52.625 37.9375ZM52.625 39.8125C47.1875 39.8125 42.6875 35.4062 42.6875 29.9688C42.6875 24.5312 47.0937 20.125 52.625 20.125C58.0625 20.125 62.5625 24.5312 62.5625 29.9688C62.5625 35.4062 58.1562 39.8125 52.625 39.8125ZM107.656 50.3125C108.406 50.3125 109.062 49.6562 109.062 48.9062C109.062 48.1562 108.406 47.5 107.656 47.5C106.906 47.5 106.25 48.1562 106.25 48.9062C106.25 49.6562 106.906 50.3125 107.656 50.3125ZM104.375 48.9062C104.375 47.125 105.875 45.625 107.656 45.625C109.438 45.625 110.938 47.125 110.938 48.9062C110.938 50.6875 109.438 52.1875 107.656 52.1875C105.875 52.1875 104.375 50.6875 104.375 48.9062ZM85.625 49.8438C85.0625 49.8438 84.6875 49.4688 84.6875 48.9062C84.6875 48.3438 85.0625 47.9688 85.625 47.9688H88.4375C89 47.9688 89.375 48.3438 89.375 48.9062C89.375 49.4688 89 49.8438 88.4375 49.8438H85.625ZM79.0625 49.8438C78.5 49.8438 78.125 49.4688 78.125 48.9062C78.125 48.3438 78.5 47.9688 79.0625 47.9688H81.875C82.4375 47.9688 82.8125 48.3438 82.8125 48.9062C82.8125 49.4688 82.4375 49.8438 81.875 49.8438H79.0625ZM112.062 54.0625C113 54.0625 113.75 53.2188 113.75 52.0938V45.625C113.75 44.5 113 43.6562 112.062 43.6562H77C76.0625 43.6562 75.3125 44.5 75.3125 45.625V52.0938C75.3125 53.2188 76.0625 54.0625 77 54.0625H112.062ZM107.656 34.375C108.406 34.375 109.062 33.7188 109.062 32.9688C109.062 32.2188 108.406 31.5625 107.656 31.5625C106.906 31.5625 106.25 32.2188 106.25 32.9688C106.25 33.7188 106.906 34.375 107.656 34.375ZM104.375 32.9688C104.375 31.1875 105.875 29.6875 107.656 29.6875C109.438 29.6875 110.938 31.1875 110.938 32.9688C110.938 34.75 109.438 36.25 107.656 36.25C105.875 36.25 104.375 34.75 104.375 32.9688ZM85.625 33.9062C85.0625 33.9062 84.6875 33.5312 84.6875 32.9688C84.6875 32.4062 85.0625 32.0312 85.625 32.0312H88.4375C89 32.0312 89.375 32.4062 89.375 32.9688C89.375 33.5312 89 33.9062 88.4375 33.9062H85.625ZM79.0625 33.9062C78.5 33.9062 78.125 33.5312 78.125 32.9688C78.125 32.4062 78.5 32.0312 79.0625 32.0312H81.875C82.4375 32.0312 82.8125 32.4062 82.8125 32.9688C82.8125 33.5312 82.4375 33.9062 81.875 33.9062H79.0625ZM112.062 38.125C113 38.125 113.75 37.2812 113.75 36.1562V29.6875C113.75 28.5625 113 27.7188 112.062 27.7188H77C76.0625 27.7188 75.3125 28.5625 75.3125 29.6875V36.1562C75.3125 37.2812 76.0625 38.125 77 38.125H112.062ZM107.656 18.4375C108.406 18.4375 109.062 17.7812 109.062 17.0312C109.062 16.2812 108.406 15.625 107.656 15.625C106.906 15.625 106.25 16.2812 106.25 17.0312C106.25 17.7812 106.906 18.4375 107.656 18.4375ZM104.375 17.0312C104.375 15.25 105.875 13.75 107.656 13.75C109.438 13.75 110.938 15.25 110.938 17.0312C110.938 18.8125 109.438 20.3125 107.656 20.3125C105.875 20.3125 104.375 18.8125 104.375 17.0312ZM85.625 17.9688C85.0625 17.9688 84.6875 17.5938 84.6875 17.0312C84.6875 16.4688 85.0625 16.0938 85.625 16.0938H88.4375C89 16.0938 89.375 16.4688 89.375 17.0312C89.375 17.5938 89 17.9688 88.4375 17.9688H85.625ZM79.0625 17.9688C78.5 17.9688 78.125 17.5938 78.125 17.0312C78.125 16.4688 78.5 16.0938 79.0625 16.0938H81.875C82.4375 16.0938 82.8125 16.4688 82.8125 17.0312C82.8125 17.5938 82.4375 17.9688 81.875 17.9688H79.0625ZM112.062 22.1875C113 22.1875 113.75 21.3438 113.75 20.2188V13.8438C113.75 12.7187 113 11.875 112.062 11.875H77C76.0625 11.875 75.3125 12.7187 75.3125 13.8438V20.3125C75.3125 21.4375 76.0625 22.2812 77 22.2812H112.062V22.1875ZM81.875 25.9375H107.188V24.0625H81.875V25.9375ZM81.875 41.875H107.188V40H81.875V41.875ZM42.5 63.4375V53.125C42.5 52.5625 42.875 52.1875 43.4375 52.1875C44 52.1875 44.375 52.5625 44.375 53.125V63.4375H61.25V53.125C61.25 52.5625 61.625 52.1875 62.1875 52.1875C62.75 52.1875 63.125 52.5625 63.125 53.125V63.4375H68.75C68.75 62.6875 68.75 61.75 68.75 61.1875C68.75 60.9062 68.75 60.9062 68.75 60.5312C68.75 53.5938 68.4688 50.9688 66.7813 48.5312C64.7188 45.3438 60.5 43.75 52.8125 43.75C45.125 43.75 40.9062 45.3438 38.8438 48.5312C37.1562 50.9688 36.875 53.5938 36.875 60.5312C36.875 60.8125 36.875 60.8125 36.875 61.1875C36.875 61.75 36.875 62.6875 36.875 63.4375H42.5ZM98.75 64.375C98.75 62.3125 97.0625 60.625 95 60.625C92.9375 60.625 91.25 62.3125 91.25 64.375C91.25 66.4375 92.9375 68.125 95 68.125C97.0625 68.125 98.75 66.4375 98.75 64.375ZM100.531 65.3125C100.062 67.9375 97.8125 70 95 70C92.1875 70 89.9375 67.9375 89.4688 65.3125H69.5938H36.0312H35.9375C35.375 65.3125 35 64.9375 35 64.375C35 64.2812 35 64.1875 35.0938 64.0938C35 63.3438 35 61.9375 35 61.1875C35 60.9062 35 60.9062 35 60.5312C35 53.2188 35.375 50.3125 37.25 47.4062C39.6875 43.6562 44.5625 41.7813 52.8125 41.7813C61.0625 41.7813 65.8437 43.5625 68.375 47.4062C70.25 50.3125 70.625 53.125 70.625 60.4375C70.625 60.7188 70.625 60.7188 70.625 61.0938C70.625 61.6562 70.625 62.5938 70.625 63.3438H89.4688C89.8438 61 91.7188 59.125 94.0625 58.75V58.6562V55.8438H77C75.0312 55.8438 73.4375 54.1562 73.4375 52V45.5312C73.4375 43.4688 75.0312 41.6875 77 41.6875H80V39.8125H77C75.0312 39.8125 73.4375 38.125 73.4375 35.9688V29.5C73.4375 27.4375 75.0312 25.6563 77 25.6563H80V23.7812H77C75.0312 23.7812 73.4375 22.0938 73.4375 19.9375V13.8438C73.4375 11.6875 75.0312 10 77 10H111.969C114.031 10 115.625 11.6875 115.625 13.8438V20.3125C115.625 22.375 114.031 24.1562 112.062 24.1562H109.062V26.0312H112.062C114.031 26.0312 115.625 27.7188 115.625 29.875V36.3438C115.625 38.4062 114.031 40.1875 112.062 40.1875H109.062V42.0625H112.062C114.031 42.0625 115.625 43.75 115.625 45.9062V52.375C115.625 54.4375 114.031 56.2188 112.062 56.2188H95.9375V59.0312V59.125C98.2812 59.5 100.156 61.375 100.531 63.7188H108.125C108.688 63.7188 109.062 64.0938 109.062 64.6562C109.062 65.2188 108.688 65.5938 108.125 65.5938H100.531V65.3125Z" fill="currentcolor" class="shade"/>
</g>
<defs>
<clipPath id="clip0_26_222">
<rect width="81" height="70" fill="white" transform="translate(34)"/>
</clipPath>
</defs>
</svg>
