<svg width="64" height="64" viewBox="0 0 64 64" fill="none" xmlns="http://www.w3.org/2000/svg">
<path fill-rule="evenodd" clip-rule="evenodd" d="M57.6744 42.7441C58.7163 42.7441 59.5349 41.9255 59.5349 40.8837C59.5349 39.8418 58.7163 39.0232 57.6744 39.0232C56.6325 39.0232 55.8139 39.8418 55.8139 40.8837C55.8139 41.9255 56.6325 42.7441 57.6744 42.7441ZM57.6744 30.093C58.7163 30.093 59.5349 29.2744 59.5349 28.2325C59.5349 27.1907 58.7163 26.372 57.6744 26.372C56.6325 26.372 55.8139 27.1907 55.8139 28.2325C55.8139 29.2744 56.6325 30.093 57.6744 30.093ZM57.6744 17.4418C58.7163 17.4418 59.5349 16.6232 59.5349 15.5814C59.5349 14.5395 58.7163 13.7209 57.6744 13.7209C56.6325 13.7209 55.8139 14.5395 55.8139 15.5814C55.8139 16.6232 56.6325 17.4418 57.6744 17.4418ZM61.1721 45.7209H33.3395C32.1488 45.7209 31.2558 44.679 31.2558 43.4139V38.279C31.2558 37.0139 32.2232 35.972 33.3395 35.972H61.0977C62.2884 35.972 63.1814 37.0139 63.1814 38.279V43.4139C63.2558 44.679 62.2884 45.7209 61.1721 45.7209ZM61.1721 33.0697H33.3395C32.1488 33.0697 31.2558 32.0279 31.2558 30.7627V25.6279C31.2558 24.3627 32.2232 23.3209 33.3395 23.3209H61.0977C62.2884 23.3209 63.1814 24.3627 63.1814 25.6279V30.7627C63.2558 32.0279 62.2884 33.0697 61.1721 33.0697ZM61.1721 20.4186H33.3395C32.1488 20.4186 31.2558 19.3767 31.2558 18.1116V13.0511C31.2558 11.786 32.2232 10.7441 33.3395 10.7441H61.0977C62.2884 10.7441 63.2558 11.786 63.2558 13.0511V18.186C63.2558 19.3767 62.2884 20.4186 61.1721 20.4186Z" fill="currentcolor" class="tint"/>
<path fill-rule="evenodd" clip-rule="evenodd" d="M62.5116 52.4186C62.9581 52.4186 63.2558 52.7163 63.2558 53.1628C63.2558 53.6093 62.9581 53.907 62.5116 53.907H61.0233C60.5767 53.907 60.2791 53.6093 60.2791 53.1628C60.2791 52.7163 60.5767 52.4186 61.0233 52.4186H62.5116ZM13.9907 32.1767C17.4884 32.1767 20.3907 29.3488 20.3907 25.8512C20.3907 22.3535 17.5628 19.5256 13.9907 19.5256C10.493 19.5256 7.5907 22.3535 7.5907 25.8512C7.5907 29.2744 10.493 32.1767 13.9907 32.1767ZM13.9907 33.6651C9.67442 33.6651 6.10233 30.1674 6.10233 25.8512C6.10233 21.5349 9.6 18.0372 13.9907 18.0372C18.307 18.0372 21.8791 21.5349 21.8791 25.8512C21.8791 30.1674 18.3814 33.6651 13.9907 33.6651ZM57.6744 42C58.2698 42 58.7907 41.4791 58.7907 40.8837C58.7907 40.2884 58.2698 39.7674 57.6744 39.7674C57.0791 39.7674 56.5581 40.2884 56.5581 40.8837C56.5581 41.4791 57.0791 42 57.6744 42ZM55.0698 40.8837C55.0698 39.4698 56.2605 38.2791 57.6744 38.2791C59.0884 38.2791 60.2791 39.4698 60.2791 40.8837C60.2791 42.2977 59.0884 43.4884 57.6744 43.4884C56.2605 43.4884 55.0698 42.2977 55.0698 40.8837ZM40.186 41.6279C39.7395 41.6279 39.4419 41.3302 39.4419 40.8837C39.4419 40.4372 39.7395 40.1395 40.186 40.1395H42.4186C42.8651 40.1395 43.1628 40.4372 43.1628 40.8837C43.1628 41.3302 42.8651 41.6279 42.4186 41.6279H40.186ZM34.9767 41.6279C34.5302 41.6279 34.2326 41.3302 34.2326 40.8837C34.2326 40.4372 34.5302 40.1395 34.9767 40.1395H37.2093C37.6558 40.1395 37.9535 40.4372 37.9535 40.8837C37.9535 41.3302 37.6558 41.6279 37.2093 41.6279H34.9767ZM61.1721 44.9767C61.9163 44.9767 62.5116 44.307 62.5116 43.414V38.2791C62.5116 37.386 61.9163 36.7163 61.1721 36.7163H33.3395C32.5953 36.7163 32 37.386 32 38.2791V43.414C32 44.307 32.5953 44.9767 33.3395 44.9767H61.1721ZM57.6744 29.3488C58.2698 29.3488 58.7907 28.8279 58.7907 28.2326C58.7907 27.6372 58.2698 27.1163 57.6744 27.1163C57.0791 27.1163 56.5581 27.6372 56.5581 28.2326C56.5581 28.8279 57.0791 29.3488 57.6744 29.3488ZM55.0698 28.2326C55.0698 26.8186 56.2605 25.6279 57.6744 25.6279C59.0884 25.6279 60.2791 26.8186 60.2791 28.2326C60.2791 29.6465 59.0884 30.8372 57.6744 30.8372C56.2605 30.8372 55.0698 29.6465 55.0698 28.2326ZM40.186 28.9767C39.7395 28.9767 39.4419 28.6791 39.4419 28.2326C39.4419 27.786 39.7395 27.4884 40.186 27.4884H42.4186C42.8651 27.4884 43.1628 27.786 43.1628 28.2326C43.1628 28.6791 42.8651 28.9767 42.4186 28.9767H40.186ZM34.9767 28.9767C34.5302 28.9767 34.2326 28.6791 34.2326 28.2326C34.2326 27.786 34.5302 27.4884 34.9767 27.4884H37.2093C37.6558 27.4884 37.9535 27.786 37.9535 28.2326C37.9535 28.6791 37.6558 28.9767 37.2093 28.9767H34.9767ZM61.1721 32.3256C61.9163 32.3256 62.5116 31.6558 62.5116 30.7628V25.6279C62.5116 24.7349 61.9163 24.0651 61.1721 24.0651H33.3395C32.5953 24.0651 32 24.7349 32 25.6279V30.7628C32 31.6558 32.5953 32.3256 33.3395 32.3256H61.1721ZM57.6744 16.6977C58.2698 16.6977 58.7907 16.1767 58.7907 15.5814C58.7907 14.986 58.2698 14.4651 57.6744 14.4651C57.0791 14.4651 56.5581 14.986 56.5581 15.5814C56.5581 16.1767 57.0791 16.6977 57.6744 16.6977ZM55.0698 15.5814C55.0698 14.1674 56.2605 12.9767 57.6744 12.9767C59.0884 12.9767 60.2791 14.1674 60.2791 15.5814C60.2791 16.9953 59.0884 18.186 57.6744 18.186C56.2605 18.186 55.0698 16.9953 55.0698 15.5814ZM40.186 16.3256C39.7395 16.3256 39.4419 16.0279 39.4419 15.5814C39.4419 15.1349 39.7395 14.8372 40.186 14.8372H42.4186C42.8651 14.8372 43.1628 15.1349 43.1628 15.5814C43.1628 16.0279 42.8651 16.3256 42.4186 16.3256H40.186ZM34.9767 16.3256C34.5302 16.3256 34.2326 16.0279 34.2326 15.5814C34.2326 15.1349 34.5302 14.8372 34.9767 14.8372H37.2093C37.6558 14.8372 37.9535 15.1349 37.9535 15.5814C37.9535 16.0279 37.6558 16.3256 37.2093 16.3256H34.9767ZM61.1721 19.6744C61.9163 19.6744 62.5116 19.0047 62.5116 18.1116V13.0512C62.5116 12.1581 61.9163 11.4884 61.1721 11.4884H33.3395C32.5953 11.4884 32 12.1581 32 13.0512V18.186C32 19.0791 32.5953 19.7488 33.3395 19.7488H61.1721V19.6744ZM37.2093 22.6512H57.3023V21.1628H37.2093V22.6512ZM37.2093 35.3023H57.3023V33.814H37.2093V35.3023ZM5.95349 52.4186V44.2326C5.95349 43.786 6.25116 43.4884 6.69767 43.4884C7.14419 43.4884 7.44186 43.786 7.44186 44.2326V52.4186H20.8372V44.2326C20.8372 43.786 21.1349 43.4884 21.5814 43.4884C22.0279 43.4884 22.3256 43.786 22.3256 44.2326V52.4186H26.7907C26.7907 51.8233 26.7907 51.0791 26.7907 50.6326C26.7907 50.4093 26.7907 50.4093 26.7907 50.1116C26.7907 44.6047 26.5674 42.5209 25.2279 40.586C23.5907 38.0558 20.2419 36.7907 14.1395 36.7907C8.03721 36.7907 4.68837 38.0558 3.05116 40.586C1.71163 42.5209 1.48837 44.6047 1.48837 50.1116C1.48837 50.3349 1.48837 50.3349 1.48837 50.6326C1.48837 51.0791 1.48837 51.8233 1.48837 52.4186H5.95349ZM50.6047 53.1628C50.6047 51.5256 49.2651 50.186 47.6279 50.186C45.9907 50.186 44.6512 51.5256 44.6512 53.1628C44.6512 54.8 45.9907 56.1395 47.6279 56.1395C49.2651 56.1395 50.6047 54.8 50.6047 53.1628ZM52.0186 53.907C51.6465 55.9907 49.8605 57.6279 47.6279 57.6279C45.3953 57.6279 43.6093 55.9907 43.2372 53.907H27.4605H0.818605H0.744186C0.297674 53.907 0 53.6093 0 53.1628C0 53.0884 0 53.014 0.0744186 52.9395C0 52.3442 0 51.2279 0 50.6326C0 50.4093 0 50.4093 0 50.1116C0 44.307 0.297674 42 1.78605 39.693C3.72093 36.7163 7.5907 35.2279 14.1395 35.2279C20.6884 35.2279 24.4837 36.6419 26.493 39.693C27.9814 42 28.2791 44.2326 28.2791 50.0372C28.2791 50.2605 28.2791 50.2605 28.2791 50.5581C28.2791 51.0047 28.2791 51.7488 28.2791 52.3442H43.2372C43.5349 50.4837 45.0233 48.9953 46.8837 48.6977V48.6233V46.3907H33.3395C31.7767 46.3907 30.5116 45.0512 30.5116 43.3395V38.2047C30.5116 36.5674 31.7767 35.1535 33.3395 35.1535H35.7209V33.6651H33.3395C31.7767 33.6651 30.5116 32.3256 30.5116 30.614V25.4791C30.5116 23.8419 31.7767 22.4279 33.3395 22.4279H35.7209V20.9395H33.3395C31.7767 20.9395 30.5116 19.6 30.5116 17.8884V13.0512C30.5116 11.3395 31.7767 10 33.3395 10H61.0977C62.7349 10 64 11.3395 64 13.0512V18.186C64 19.8233 62.7349 21.2372 61.1721 21.2372H58.7907V22.7256H61.1721C62.7349 22.7256 64 24.0651 64 25.7767V30.9116C64 32.5488 62.7349 33.9628 61.1721 33.9628H58.7907V35.4512H61.1721C62.7349 35.4512 64 36.7907 64 38.5023V43.6372C64 45.2744 62.7349 46.6884 61.1721 46.6884H48.3721V48.9209V48.9953C50.2326 49.293 51.7209 50.7814 52.0186 52.6419H58.0465C58.493 52.6419 58.7907 52.9395 58.7907 53.386C58.7907 53.8326 58.493 54.1302 58.0465 54.1302H52.0186V53.907Z" fill="currentcolor" class="shade"/>
</svg>
