<svg fill="none" xmlns="http://www.w3.org/2000/svg" viewBox="0 0 58 55" width="58" height="55">
  <path fill-rule="evenodd" clip-rule="evenodd" d="M18.728 16.733a4.028 4.028 0 0 0 4.016-4.016A4.028 4.028 0 0 0 18.728 8.7a4.028 4.028 0 0 0-4.016 4.016 4.028 4.028 0 0 0 4.016 4.016Zm18.807 16.063a4.028 4.028 0 0 0 4.016-4.016 4.028 4.028 0 0 0-4.016-4.016 4.028 4.028 0 0 0-4.015 4.016 4.028 4.028 0 0 0 4.015 4.016Zm-5.354 21.083v-11.78 11.78Zm22.22-21.552C53.064 39.556 48.78 45.78 42.89 49.73v-7.63l11.512-9.772ZM7.953 45.044C3.802 40.359 1.326 34.2 1.326 27.44c0-3.68.737-7.228 2.142-10.44l10.04 8.5v7.295h-.402a4.028 4.028 0 0 0-4.016 4.016 4.028 4.028 0 0 0 4.016 4.015h.402v2.811h-.134c-2.142 0-3.95.469-5.422 1.406Zm16.264 8.902V26.17l12.717-10.776c1.138-.937 1.272-2.61.335-3.748-.937-1.138-2.678-1.272-3.815-.335-4.752 3.614-7.831 5.957-9.237 7.095-3.078 2.41-7.897 2.342-10.708 0a374.514 374.514 0 0 1-7.43-6.225A26.764 26.764 0 0 1 28.098.67C42.69.67 54.536 12.315 54.87 26.772c-.87-.335-1.874-.2-2.677.469l-10.642 8.165c-10.976.468-13.386-.602-13.386 12.516 0 3.346.67 5.354 2.075 6.224-.67.067-1.405.067-2.142.067-1.338 0-2.61-.067-3.882-.267Z" fill="currentColor" class="tint"/>
  <path fill-rule="evenodd" clip-rule="evenodd" d="M13.106 40.158a3.314 3.314 0 0 0 3.347-3.347 3.314 3.314 0 0 0-3.347-3.346A3.314 3.314 0 0 0 9.76 36.81a3.314 3.314 0 0 0 3.346 3.347Zm0 1.338a4.656 4.656 0 0 1-4.685-4.685 4.656 4.656 0 0 1 4.685-4.685 4.656 4.656 0 0 1 4.685 4.685c0 2.61-2.142 4.685-4.685 4.685Zm5.622-25.433a3.314 3.314 0 0 0 3.347-3.346 3.314 3.314 0 0 0-3.347-3.347 3.314 3.314 0 0 0-3.346 3.347 3.314 3.314 0 0 0 3.346 3.346Zm0 1.339a4.656 4.656 0 0 1-4.685-4.685 4.656 4.656 0 0 1 4.685-4.685 4.656 4.656 0 0 1 4.685 4.685 4.656 4.656 0 0 1-4.685 4.685Zm18.74 14.724a3.314 3.314 0 0 0 3.347-3.346 3.314 3.314 0 0 0-3.346-3.347 3.314 3.314 0 0 0-3.347 3.347 3.314 3.314 0 0 0 3.347 3.346Zm0 1.339a4.656 4.656 0 0 1-4.685-4.685 4.656 4.656 0 0 1 4.686-4.685 4.656 4.656 0 0 1 4.685 4.685 4.656 4.656 0 0 1-4.685 4.685ZM9.024 45.245c3.548 3.748 8.166 6.492 13.386 7.63-.133-5.69-3.28-8.701-8.567-8.768h-.133c-1.874.067-3.414.468-4.686 1.138Zm45.981-12.516c-2.209 11.445-11.378 20.079-22.622 21.819-.067.067-.2.067-.268.067h-.134c-1.271.2-2.543.267-3.882.267-15.126 0-27.44-12.315-27.44-27.44 0-3.548.668-7.028 2.007-10.241l-1.472-1.272C-.213 14.725-.414 12.65.79 11.244c1.205-1.405 3.28-1.606 4.685-.401.134.133.335.267.469.401C11.098 4.217 19.264 0 28.098 0c14.725 0 26.84 11.646 27.442 26.37.334.201.669.469.937.803 1.204 1.406 1.004 3.548-.402 4.686l-1.07.87ZM43.492 48.524c4.752-3.48 8.3-8.5 9.839-14.39l-9.839 8.3v6.09ZM30.575 53.41c.268 0 .602-.067.87-.067V42.1c0-.402.268-.67.67-.67.4 0 .668.268.668.67v11.043a25.433 25.433 0 0 0 9.37-3.68v-7.363c0-.2.068-.402.268-.536l12.784-10.775c.87-.736.937-2.008.268-2.811-.736-.87-2.008-.937-2.811-.268-3.882 3.28-6.492 5.354-7.697 6.291-1.339 1.004-1.74 1.339-2.343 1.607-1.004.535-1.54.535-4.618.535h-1.205c-6.358 0-8.031 2.142-8.031 9.17 0 4.216.602 6.826 1.673 7.964.067 0 .067.067.134.134Zm-1.607.134c-1.07-1.606-1.539-4.284-1.539-8.232 0-7.697 2.209-10.508 9.37-10.508h1.272c2.811 0 3.28 0 4.016-.335.468-.2.87-.469 2.075-1.473 1.204-.937 3.748-3.011 7.63-6.291a3.21 3.21 0 0 1 2.409-.803c-.803-13.72-12.248-24.563-26.103-24.563-8.433 0-16.263 4.082-21.082 10.775 2.61 2.209 4.952 4.15 6.96 5.823 2.61 2.142 7.028 2.142 9.906 0 1.472-1.138 4.551-3.48 9.236-7.094 1.406-1.138 3.547-1.004 4.685.401 1.205 1.406 1.004 3.547-.401 4.685L24.886 26.504v18.808c0 .401-.268.669-.67.669-.401 0-.669-.268-.669-.67V26.17c0-.201.067-.402.268-.536l12.717-10.776c.87-.736.937-2.008.267-2.81-.736-.87-2.008-.938-2.878-.268a2178.15 2178.15 0 0 0-9.303 7.094c-3.346 2.544-8.5 2.544-11.512 0-2.075-1.74-4.551-3.748-7.295-6.09-.067 0-.067-.067-.067-.067l-.134-.134c-.268-.268-.602-.469-.87-.736-.87-.737-2.142-.603-2.811.267-.736.87-.603 2.142.268 2.811l11.78 10.04a.76.76 0 0 1 .2.535v4.618c0 .402-.268.67-.67.67-.4 0-.669-.268-.669-.67v-4.283l-9.102-7.697a25.791 25.791 0 0 0-1.74 9.303c0 6.426 2.275 12.248 6.157 16.8 1.473-.937 3.347-1.406 5.556-1.406h.133c6.091.067 9.906 3.748 9.906 10.374 1.405.268 2.878.335 4.35.335h.87Z" fill="currentColor" class="shade"/>
</svg>