<svg width="60" height="58" viewBox="0 0 60 58" fill="none" xmlns="http://www.w3.org/2000/svg">
<path fill-rule="evenodd" clip-rule="evenodd" d="M32.7273 0.681885H53.8636C56.8636 0.681885 59.3182 3.13643 59.3182 6.13643V20.4546C59.3182 23.4546 56.8636 25.9092 53.8636 25.9092H41.5909L36.8182 30.8864V25.9092H32.7273C29.7273 25.9092 27.2727 23.4546 27.2727 20.4546V6.13643C27.2727 3.13643 29.7273 0.681885 32.7273 0.681885ZM0.681824 34.7728H8.18182V56.591H0.681824V34.7728Z" fill="currentcolor" class="tint"/>
<path fill-rule="evenodd" clip-rule="evenodd" d="M49.2955 9.06818C49.5682 8.79545 49.9773 8.79545 50.25 9.06818C50.5227 9.34091 50.5227 9.75 50.25 10.0227L42.0682 18.2045C41.7955 18.4773 41.3864 18.4773 41.1136 18.2045L37.0227 14.1136C36.75 13.8409 36.75 13.4318 37.0227 13.1591C37.2955 12.8864 37.7045 12.8864 37.9773 13.1591L41.5909 16.7727L49.2955 9.06818ZM32.7273 26.5909C29.3182 26.5909 26.5909 23.8636 26.5909 20.4545V6.13636C26.5909 2.72727 29.3182 0 32.7273 0H53.8636C57.2727 0 60 2.72727 60 6.13636V20.4545C60 23.8636 57.2727 26.5909 53.8636 26.5909H41.8636L37.2955 31.2955C36.8864 31.7045 36.1364 31.4318 36.1364 30.8182V26.5227H32.7273V26.5909ZM41.1136 25.4318C41.25 25.2955 41.3864 25.2273 41.5909 25.2273H53.8636C56.5227 25.2273 58.6364 23.1136 58.6364 20.4545V6.13636C58.6364 3.47727 56.5227 1.36364 53.8636 1.36364H32.7273C30.0682 1.36364 27.9545 3.47727 27.9545 6.13636V20.4545C27.9545 23.1136 30.0682 25.2273 32.7273 25.2273H36.8182C37.2273 25.2273 37.5 25.5 37.5 25.9091V29.1818L41.1136 25.4318ZM4.77273 53.1818C5.18182 53.1818 5.45455 52.9091 5.45455 52.5C5.45455 52.0909 5.18182 51.8182 4.77273 51.8182C4.36364 51.8182 4.09091 52.0909 4.09091 52.5C4.09091 52.9091 4.36364 53.1818 4.77273 53.1818ZM4.77273 54.5455C3.61364 54.5455 2.72727 53.6591 2.72727 52.5C2.72727 51.3409 3.61364 50.4545 4.77273 50.4545C5.93182 50.4545 6.81818 51.3409 6.81818 52.5C6.81818 53.6591 5.93182 54.5455 4.77273 54.5455ZM27.9545 40.2273H35.4545C36.2045 40.2273 36.8182 39.6136 36.8182 38.8636V37.5C36.8182 36.75 36.2045 36.1364 35.4545 36.1364H29.3182H27.9545C27.2045 36.1364 26.5909 36.75 26.5909 37.5V38.8636C26.5909 39.6136 27.2045 40.2273 27.9545 40.2273ZM33.4091 45.6818H35.4545C36.2045 45.6818 36.8182 45.0682 36.8182 44.3182V42.9545C36.8182 42.2045 36.2045 41.5909 35.4545 41.5909H27.9545C27.2045 41.5909 26.5909 42.2045 26.5909 42.9545V44.3182C26.5909 45.0682 27.2045 45.6818 27.9545 45.6818H33.4091ZM27.9545 51.1364H32.0455H33.4091C34.1591 51.1364 34.7727 50.5227 34.7727 49.7727V48.4091C34.7727 47.6591 34.1591 47.0455 33.4091 47.0455H27.9545C27.2045 47.0455 26.5909 47.6591 26.5909 48.4091V49.7727C26.5909 50.5227 27.2045 51.1364 27.9545 51.1364ZM1.36364 41.5909C1.36364 42 1.09091 42.2727 0.681818 42.2727C0.272727 42.2727 0 42 0 41.5909V40.9091C0 40.5 0.272727 40.2273 0.681818 40.2273C1.09091 40.2273 1.36364 40.5 1.36364 40.9091V41.5909ZM27.9545 55.9091H31.3636H32.0455C32.7955 55.9091 33.4091 55.2955 33.4091 54.5455V53.8636C33.4091 53.1136 32.7955 52.5 32.0455 52.5H27.9545C27.2045 52.5 26.5909 53.1136 26.5909 53.8636V54.5455C26.5909 55.2955 27.2045 55.9091 27.9545 55.9091ZM9.54545 55.9091V56.5909C9.54545 57 9.27273 57.2727 8.86364 57.2727H0.681818C0.272727 57.2727 0 57 0 56.5909V43.8409C0 43.4318 0.272727 43.1591 0.681818 43.1591C1.09091 43.1591 1.36364 43.4318 1.36364 43.8409V55.9091H8.18182V35.4545H1.36364V37.9091C1.36364 38.3182 1.09091 38.5909 0.681818 38.5909C0.272727 38.5909 0 38.3182 0 37.9091V34.7727C0 34.3636 0.272727 34.0909 0.681818 34.0909H8.86364C9.27273 34.0909 9.54545 34.3636 9.54545 34.7727V35.7955H9.61364C10.9091 35.4545 12.2727 34.9773 13.6364 34.5C15.4773 33.8182 18.4773 28.5 19.0909 24.8864L19.8409 20.1136C19.9091 19.7727 20.1818 19.5 20.5909 19.5682C22.7727 19.7045 24.2727 20.3864 24.9545 21.5455C25.6364 22.7045 25.7727 24.75 25.4318 27.75L24.5455 33.4091L24.3409 34.7727H28.6364H35.4545C36.9545 34.7727 38.1818 36 38.1818 37.5V38.8636C38.1818 39.6818 37.8409 40.4318 37.2273 40.9091C37.7727 41.3864 38.1818 42.1364 38.1818 42.9545V44.3182C38.1818 45.75 37.0909 46.9091 35.7955 47.0455C36 47.4545 36.1364 47.9318 36.1364 48.4091V49.7727C36.1364 50.9318 35.3864 51.9545 34.2955 52.3636C34.5682 52.7727 34.7727 53.3182 34.7727 53.8636V54.5455C34.7727 56.0455 33.5455 57.2727 32.0455 57.2727H29.6591H19.9773H19.8409L13.1591 55.9091H9.54545ZM9.54545 54.5455H13.2273H13.3636L20.0455 55.9091H25.5682C25.3636 55.5 25.2273 55.0227 25.2273 54.5455V53.8636C25.2273 53.0455 25.5682 52.2955 26.1818 51.8182C25.6364 51.3409 25.2273 50.5909 25.2273 49.7727V48.4091C25.2273 47.5909 25.5682 46.8409 26.1818 46.3636C25.6364 45.8864 25.2273 45.1364 25.2273 44.3182V42.9545C25.2273 42.1364 25.5682 41.3864 26.1818 40.9091C25.6364 40.4318 25.2273 39.6818 25.2273 38.8636V37.5C25.2273 37.0227 25.3636 36.5455 25.5682 36.1364H24.1364L23.6591 39.2727C23.3864 41.5227 21.3409 45.0682 19.7045 46.3636C19.1591 46.8409 18.5455 47.25 18.0682 47.5909C17.8636 47.7273 17.7273 47.8636 17.5909 47.9318C17.5227 48 17.4545 48.0682 17.3864 48.0682C17.0455 48.2727 16.6364 48.2045 16.4318 47.8636C16.2273 47.5227 16.2955 47.1136 16.6364 46.9091C16.6364 46.9091 16.7045 46.8409 16.8409 46.7727C16.9773 46.7045 17.1136 46.5682 17.3182 46.4318C17.8636 46.0909 18.4091 45.6818 18.9545 45.2045C20.5227 43.9773 22.1591 41.0455 22.4318 39L23.3864 33.1364L24.2727 27.4773C24.6136 24.75 24.4773 22.9773 24 22.1591C23.5909 21.4773 22.7045 21.0682 21.2727 20.8636L20.5909 24.9545C19.9773 28.9773 16.6364 34.7727 14.25 35.6591C12.8182 36.2045 11.3864 36.6818 10.0909 37.0227C9.95455 37.0909 9.81818 37.0227 9.68182 37.0227V54.5455H9.54545Z" fill="currentcolor" class="shade"/>
</svg>
