<svg width="52" height="50" viewBox="0 0 52 50" fill="none" xmlns="http://www.w3.org/2000/svg">
<path d="M38.5638 33.8431C39.1489 33.8431 39.6277 33.3644 39.6277 32.7792V29.5878C39.6277 29.0026 39.1489 28.5239 38.5638 28.5239H28.9894C28.4043 28.5239 27.9255 29.0026 27.9255 29.5878V39.1622C27.9255 39.7473 28.4043 40.2261 28.9894 40.2261H31.383C31.9681 40.2261 32.4468 39.7473 32.4468 39.1622C32.4468 38.5771 31.9681 38.0984 31.383 38.0984H30.0532V30.6516H37.5V32.7792C37.5 33.3644 37.9787 33.8431 38.5638 33.8431Z" fill="currentcolor"/>
<path d="M51.1436 17.7527L26.4096 0.199468C26.0372 -0.0664894 25.5452 -0.0664894 25.1729 0.199468L0.452128 17.7527C0.172872 17.9521 0 18.2713 0 18.617V25C0 25.5851 0.478724 26.0638 1.06383 26.0638H7.44681C8.03192 26.0638 8.51064 25.5851 8.51064 25V22.3537L25.7979 9.94681L43.0851 22.3537V25C43.0851 25.5851 43.5638 26.0638 44.1489 26.0638H50.5319C51.117 26.0638 51.5958 25.5851 51.5958 25V18.617C51.5958 18.2713 51.4362 17.9521 51.1436 17.7527ZM49.4681 23.9362H45.2128V21.8085C45.2128 21.4628 45.0532 21.1436 44.7739 20.9442L26.4229 7.77926C26.0505 7.5133 25.5585 7.5133 25.1862 7.77926L6.82181 20.9442C6.54255 21.1436 6.38298 21.4628 6.38298 21.8085V23.9362H2.12766V19.1622L25.7979 2.36702L49.4681 19.1622V23.9362Z" fill="currentcolor"/>
<path d="M36.1701 4.52128C36.7552 4.52128 37.2339 4.04255 37.2339 3.45745V2.12766H43.085V10.6383C43.085 11.2234 43.5637 11.7021 44.1488 11.7021C44.7339 11.7021 45.2126 11.2234 45.2126 10.6383V1.06383C45.2126 0.478723 44.7339 0 44.1488 0H36.1701C35.585 0 35.1063 0.478723 35.1063 1.06383V3.45745C35.1063 4.04255 35.585 4.52128 36.1701 4.52128Z" fill="currentcolor"/>
<path d="M45.2126 35.3726V29.7875C45.2126 29.2024 44.7339 28.7236 44.1488 28.7236C43.5637 28.7236 43.085 29.2024 43.085 29.7875V35.3726C43.085 35.9577 43.5637 36.4364 44.1488 36.4364C44.7339 36.4364 45.2126 35.9577 45.2126 35.3726Z" fill="currentcolor"/>
<path d="M46.5426 39.8936C46.3032 39.8936 46.0904 39.9468 45.8511 39.9734C44.6676 37.9654 42.5133 36.7021 40.1596 36.7021C37.1676 36.7021 34.5745 38.75 33.7899 41.5691C31.8218 41.9415 30.3325 43.6702 30.3325 45.7447C30.3325 46.5292 30.5585 47.2473 30.9176 47.8723H26.0638V43.9495C26.0638 43.3644 25.5851 42.8856 25 42.8856H23.6702V29.5878C23.6702 29.0026 23.1915 28.5239 22.6064 28.5239H13.0319C12.4468 28.5239 11.9681 29.0026 11.9681 29.5878V42.8856H10.6383C10.0532 42.8856 9.57447 43.3644 9.57447 43.9495V47.8723H7.71277V29.7872C7.71277 29.2021 7.23404 28.7234 6.64894 28.7234C6.06383 28.7234 5.58511 29.2021 5.58511 29.7872V47.8723H1.06383C0.478724 47.8723 0 48.3511 0 48.9362C0 49.5213 0.478724 50 1.06383 50H50.5319C51.117 50 51.5958 49.5213 51.5958 48.9362C51.5958 48.3777 51.1702 47.9388 50.625 47.8989C51.2234 47.0612 51.5958 46.0505 51.5958 44.9468C51.5958 42.1542 49.3351 39.8936 46.5426 39.8936ZM32.4468 45.7447C32.4468 44.8936 32.9521 44.1622 33.6303 43.8165C33.8032 44.1622 34.1622 44.4149 34.5745 44.4149C35.1596 44.4149 35.6383 43.9362 35.6383 43.3511C35.6383 43.1782 35.6649 43.0186 35.6782 42.859C35.7048 42.7792 35.7447 42.6862 35.7447 42.5931C35.7447 42.5665 35.7447 42.5399 35.7447 42.5133C36.1436 40.3989 38.0053 38.8298 40.1729 38.8298C41.6489 38.8298 42.992 39.5612 43.8298 40.7447C43.3378 41.0638 42.8723 41.4362 42.5133 41.9149C42.1543 42.3803 42.2606 43.0452 42.7261 43.4042C43.1915 43.7633 43.8697 43.6569 44.2154 43.1915C44.7739 42.4468 45.625 42.0213 46.5559 42.0213C48.1649 42.0213 49.4814 43.3378 49.4814 44.9468C49.4814 46.5558 48.1649 47.8723 46.5559 47.8723H34.5878C33.4176 47.8723 32.4601 46.9149 32.4601 45.7447H32.4468ZM14.0957 30.6516H21.5426V42.8856H14.0957V30.6516ZM11.7021 45.0133H23.9362V47.8723H11.7021V45.0133Z" fill="currentcolor"/>
</svg>
