<svg width="68" height="64" viewBox="0 0 68 64" fill="none" xmlns="http://www.w3.org/2000/svg">
<path fill-rule="evenodd" clip-rule="evenodd" d="M16.4742 32.5993C18.2268 32.5993 19.6289 31.2111 19.6289 29.4759C19.6289 27.7406 18.2268 26.3524 16.4742 26.3524C14.7217 26.3524 13.3196 27.7406 13.3196 29.4759C13.3196 31.2111 14.7217 32.5993 16.4742 32.5993ZM16.4742 42.3167C14.7217 42.3167 12.4784 41.4144 9.81445 39.5403C9.81445 37.111 10.6557 34.6122 16.1237 34.6122C21.732 34.6122 23.134 36.4863 23.134 39.4015C20.4701 41.345 18.2268 42.3167 16.4742 42.3167C11.2165 42.3167 7.01033 38.1521 7.01033 32.9464C7.01033 27.7406 11.2165 23.576 16.4742 23.576C21.732 23.576 25.9382 27.7406 25.9382 32.9464C25.9382 38.1521 21.732 42.3167 16.4742 42.3167ZM59.5175 14.2057C59.5175 13.234 60.2887 12.4705 61.2701 12.4705C62.2516 12.4705 63.0928 13.234 63.0928 14.2057C63.0928 15.1774 62.2516 15.941 61.2701 15.941C60.2887 15.941 59.5175 15.1774 59.5175 14.2057ZM59.5175 26.0054C59.5175 25.0336 60.3588 24.2701 61.3402 24.2701C62.3217 24.2701 63.1629 25.0336 63.1629 26.0054C63.1629 26.9771 62.2516 27.7406 61.2701 27.7406C60.2887 27.7406 59.5175 26.9771 59.5175 26.0054ZM59.5175 37.8051C59.5175 36.8333 60.3588 36.0698 61.3402 36.0698C62.3217 36.0698 63.1629 36.8333 63.1629 37.8051C63.1629 38.7768 62.3217 39.5403 61.3402 39.5403C60.2887 39.5403 59.5175 38.7768 59.5175 37.8051ZM59.5175 49.6047C59.5175 48.633 60.3588 47.8695 61.3402 47.8695C62.3217 47.8695 63.1629 48.633 63.1629 49.6047C63.1629 50.5765 62.2516 51.34 61.2701 51.34C60.2887 51.34 59.5175 50.5765 59.5175 49.6047ZM36.5237 45.0931C35.332 45.0931 34.3505 46.0648 34.3505 47.2448V52.0341C34.3505 53.2141 35.2619 54.1164 36.4536 54.1858H0.70105V17.3292H34.4907C34.7712 18.0927 35.5423 18.7173 36.4536 18.7173H63.7938V21.4937H36.5237C35.332 21.4937 34.3505 22.4655 34.3505 23.6455V28.4347C34.3505 29.6147 35.2619 30.517 36.4536 30.5864H63.7938V33.3628H35.8227C34.6309 33.3628 33.6495 34.3346 33.6495 35.5145V40.3038C33.6495 41.4838 34.6309 42.4555 35.8227 42.4555H63.7938V45.2319H36.5237V45.0931Z" fill="currentcolor" class="tint"/>
<path fill-rule="evenodd" clip-rule="evenodd" d="M61.3402 50.6459C61.901 50.6459 62.3918 50.1601 62.3918 49.6048C62.3918 49.0495 61.901 48.5636 61.3402 48.5636C60.7794 48.5636 60.2887 49.0495 60.2887 49.6048C60.2887 50.1601 60.7794 50.6459 61.3402 50.6459ZM61.3402 52.0341C60.0082 52.0341 58.8866 50.9236 58.8866 49.6048C58.8866 48.286 60.0082 47.1754 61.3402 47.1754C62.6722 47.1754 63.7938 48.286 63.7938 49.6048C63.7938 50.9236 62.6722 52.0341 61.3402 52.0341ZM43.4639 50.6459C43.0433 50.6459 42.7629 50.3683 42.7629 49.9518C42.7629 49.5354 43.0433 49.2577 43.4639 49.2577H45.567C45.9876 49.2577 46.268 49.5354 46.268 49.9518C46.268 50.3683 45.9876 50.6459 45.567 50.6459H43.4639ZM38.5567 50.6459C38.1361 50.6459 37.8557 50.3683 37.8557 49.9518C37.8557 49.5354 38.1361 49.2577 38.5567 49.2577H40.6598C41.0804 49.2577 41.3608 49.5354 41.3608 49.9518C41.3608 50.3683 41.0804 50.6459 40.6598 50.6459H38.5567ZM61.3402 38.8463C61.901 38.8463 62.3918 38.3604 62.3918 37.8051C62.3918 37.2498 61.901 36.764 61.3402 36.764C60.7794 36.764 60.2887 37.2498 60.2887 37.8051C60.2887 38.3604 60.7794 38.8463 61.3402 38.8463ZM61.3402 40.2344C60.0082 40.2344 58.8866 39.1239 58.8866 37.8051C58.8866 36.4863 60.0082 35.3758 61.3402 35.3758C62.6722 35.3758 63.7938 36.4863 63.7938 37.8051C63.7938 39.1239 62.6722 40.2344 61.3402 40.2344ZM43.4639 38.8463C43.0433 38.8463 42.7629 38.5686 42.7629 38.1522C42.7629 37.7357 43.0433 37.4581 43.4639 37.4581H45.567C45.9876 37.4581 46.268 37.7357 46.268 38.1522C46.268 38.5686 45.9876 38.8463 45.567 38.8463H43.4639ZM38.5567 38.8463C38.1361 38.8463 37.8557 38.5686 37.8557 38.1522C37.8557 37.7357 38.1361 37.4581 38.5567 37.4581H40.6598C41.0804 37.4581 41.3608 37.7357 41.3608 38.1522C41.3608 38.5686 41.0804 38.8463 40.6598 38.8463H38.5567ZM61.3402 27.0466C61.901 27.0466 62.3918 26.5607 62.3918 26.0054C62.3918 25.4501 61.901 24.9643 61.3402 24.9643C60.7794 24.9643 60.2887 25.4501 60.2887 26.0054C60.2887 26.5607 60.7794 27.0466 61.3402 27.0466ZM61.3402 28.4348C60.0082 28.4348 58.8866 27.3242 58.8866 26.0054C58.8866 24.6866 60.0082 23.5761 61.3402 23.5761C62.6722 23.5761 63.7938 24.6866 63.7938 26.0054C63.7938 27.3242 62.6722 28.4348 61.3402 28.4348ZM43.4639 27.0466C43.0433 27.0466 42.7629 26.7689 42.7629 26.3525C42.7629 25.936 43.0433 25.6584 43.4639 25.6584H45.567C45.9876 25.6584 46.268 25.936 46.268 26.3525C46.268 26.7689 45.9876 27.0466 45.567 27.0466H43.4639ZM38.5567 27.0466C38.1361 27.0466 37.8557 26.7689 37.8557 26.3525C37.8557 25.936 38.1361 25.6584 38.5567 25.6584H40.6598C41.0804 25.6584 41.3608 25.936 41.3608 26.3525C41.3608 26.7689 41.0804 27.0466 40.6598 27.0466H38.5567ZM61.3402 15.2469C61.901 15.2469 62.3918 14.761 62.3918 14.2057C62.3918 13.6505 61.901 13.1646 61.3402 13.1646C60.7794 13.1646 60.2887 13.6505 60.2887 14.2057C60.2887 14.761 60.7794 15.2469 61.3402 15.2469ZM61.3402 16.6351C60.0082 16.6351 58.8866 15.5245 58.8866 14.2057C58.8866 12.887 60.0082 11.7764 61.3402 11.7764C62.6722 11.7764 63.7938 12.887 63.7938 14.2057C63.7938 15.5245 62.6722 16.6351 61.3402 16.6351ZM43.4639 15.2469C43.0433 15.2469 42.7629 14.9693 42.7629 14.5528C42.7629 14.1363 43.0433 13.8587 43.4639 13.8587H45.567C45.9876 13.8587 46.268 14.1363 46.268 14.5528C46.268 14.9693 45.9876 15.2469 45.567 15.2469H43.4639ZM38.5567 15.2469C38.1361 15.2469 37.8557 14.9693 37.8557 14.5528C37.8557 14.1363 38.1361 13.8587 38.5567 13.8587H40.6598C41.0804 13.8587 41.3608 14.1363 41.3608 14.5528C41.3608 14.9693 41.0804 15.2469 40.6598 15.2469H38.5567ZM65.1258 18.0233C65.967 18.0233 66.5979 17.3986 66.5979 16.5657V11.8458C66.5979 11.0129 65.967 10.3882 65.1258 10.3882H36.5237C35.6825 10.3882 35.0515 11.0129 35.0515 11.8458V16.6351C35.0515 17.3986 35.6825 18.0927 36.5237 18.0927H65.1258V18.0233ZM16.4742 43.0108C10.866 43.0108 6.30928 38.4992 6.30928 32.9464C6.30928 27.3936 10.866 22.882 16.4742 22.882C22.0825 22.882 26.6392 27.3936 26.6392 32.9464C26.6392 38.4992 22.0825 43.0108 16.4742 43.0108ZM14.0206 29.4759C14.0206 30.7947 15.1423 31.9053 16.4742 31.9053C17.8062 31.9053 18.9278 30.7947 18.9278 29.4759C18.9278 28.1571 17.8062 27.0466 16.4742 27.0466C15.1423 27.0466 14.0206 28.1571 14.0206 29.4759ZM20.3299 29.4759C20.3299 31.5582 18.5773 33.2935 16.4742 33.2935C14.3711 33.2935 12.6186 31.5582 12.6186 29.4759C12.6186 27.3936 14.3711 25.6584 16.4742 25.6584C18.5773 25.6584 20.3299 27.3936 20.3299 29.4759ZM12.6186 49.2577C12.1979 49.2577 11.9175 48.9801 11.9175 48.5636C11.9175 48.1472 12.1979 47.8695 12.6186 47.8695H20.3299C20.7505 47.8695 21.0309 48.1472 21.0309 48.5636C21.0309 48.9801 20.7505 49.2577 20.3299 49.2577H12.6186ZM9.81443 46.4813C9.39381 46.4813 9.1134 46.2037 9.1134 45.7872C9.1134 45.3708 9.39381 45.0931 9.81443 45.0931H23.134C23.5546 45.0931 23.8351 45.3708 23.8351 45.7872C23.8351 46.2037 23.5546 46.4813 23.134 46.4813H9.81443ZM1.40206 16.6351H30.8454C31.266 16.6351 31.5464 16.9127 31.5464 17.3292C31.5464 17.7456 31.266 18.0233 30.8454 18.0233H0.701031C0.280412 18.0233 0 17.7456 0 17.3292V13.1646C0 12.7481 0.280412 12.4705 0.701031 12.4705H30.8454C31.266 12.4705 31.5464 12.7481 31.5464 13.1646C31.5464 13.5811 31.266 13.8587 30.8454 13.8587H1.40206V16.6351ZM1.40206 53.4223H30.8454C31.266 53.4223 31.5464 53.7 31.5464 54.1164C31.5464 54.5329 31.266 54.8105 30.8454 54.8105H0.701031C0.280412 54.8105 0 54.5329 0 54.1164V20.1056C0 19.6891 0.280412 19.4115 0.701031 19.4115C1.12165 19.4115 1.40206 19.6891 1.40206 20.1056V53.4223ZM9.18351 37.8051C9.60412 35.2369 11.8474 33.9876 16.4742 33.9876C20.9608 33.9876 23.134 35.1675 23.6948 37.8745C24.6763 36.4863 25.2371 34.7511 25.2371 32.9464C25.2371 28.1571 21.3113 24.2702 16.4742 24.2702C11.6371 24.2702 7.71134 28.1571 7.71134 32.9464C7.71134 34.7511 8.27217 36.4169 9.18351 37.8051ZM22.433 39.3321C22.3629 36.4169 20.9608 35.3758 16.4742 35.3758C11.9876 35.3758 10.5155 36.4863 10.5155 38.8463C10.5155 38.9851 10.4454 39.1239 10.4454 39.1933C11.0763 39.818 11.8474 40.3039 12.6186 40.7203V38.8463C12.6186 38.4298 12.899 38.1522 13.3196 38.1522C13.7402 38.1522 14.0206 38.4298 14.0206 38.8463V40.9285C14.0206 41.0674 14.0206 41.1368 13.9505 41.2756C14.7216 41.4838 15.633 41.6226 16.4742 41.6226C17.3155 41.6226 18.2268 41.4838 18.9979 41.2756C18.9278 41.1368 18.9278 41.0674 18.9278 40.9285V38.8463C18.9278 38.4298 19.2082 38.1522 19.6289 38.1522C20.0495 38.1522 20.3299 38.4298 20.3299 38.8463V40.7203C21.101 40.3733 21.8021 39.8874 22.433 39.3321ZM37.8557 22.1879H36.5237C35.6825 22.1879 35.0515 22.8126 35.0515 23.6455V28.4348C35.0515 29.1983 35.6825 29.8924 36.5237 29.8924H65.1258C65.967 29.8924 66.5979 29.2677 66.5979 28.4348V23.6455C66.5979 22.882 65.967 22.1879 65.1258 22.1879H63.7938H37.8557ZM38.5567 20.7997H63.0928V19.4115H38.5567V20.7997ZM37.8557 33.9876H36.5237C35.6825 33.9876 35.0515 34.6122 35.0515 35.4452V40.2344C35.0515 40.998 35.6825 41.6921 36.5237 41.6921H65.1258C65.967 41.6921 66.5979 41.0674 66.5979 40.2344V35.4452C66.5979 34.6817 65.967 33.9876 65.1258 33.9876H63.7938H37.8557ZM38.5567 32.5994H63.0928V31.2112H38.5567V32.5994ZM37.1546 44.399V43.0108H36.5237C34.9113 43.0108 33.6495 41.7615 33.6495 40.165V35.3758C33.6495 33.8487 34.9113 32.53 36.5237 32.53H37.1546V31.1418H36.5237C34.9113 31.1418 33.6495 29.8924 33.6495 28.2959V23.5067C33.6495 21.9796 34.9113 20.6609 36.5237 20.6609H37.1546V19.2727H36.5237C34.9113 19.2727 33.6495 18.0233 33.6495 16.4269V11.8458C33.6495 10.2494 34.9113 9 36.5237 9H65.1258C66.7381 9 68 10.2494 68 11.8458V16.6351C68 18.1621 66.7381 19.4809 65.1258 19.4809H64.4948V20.8691H65.1258C66.7381 20.8691 68 22.1185 68 23.7149V28.5042C68 30.0312 66.7381 31.35 65.1258 31.35H64.4948V32.7382H65.1258C66.7381 32.7382 68 33.9876 68 35.584V40.3733C68 41.9003 66.7381 43.2191 65.1258 43.2191H64.4948V44.6073H65.1258C66.7381 44.6073 68 45.8567 68 47.4531V52.2424C68 53.7694 66.7381 55.0882 65.1258 55.0882H36.5237C34.9113 55.0882 33.6495 53.8388 33.6495 52.2424V47.4531C33.6495 45.9261 34.9113 44.6073 36.5237 44.6073H37.1546V44.399ZM37.8557 45.7872H36.5237C35.6825 45.7872 35.0515 46.4119 35.0515 47.2448V52.0341C35.0515 52.7976 35.6825 53.4917 36.5237 53.4917H65.1258C65.967 53.4917 66.5979 52.8671 66.5979 52.0341V47.2448C66.5979 46.4813 65.967 45.7872 65.1258 45.7872H63.7938H37.8557ZM38.5567 44.399H63.0928V43.0108H38.5567V44.399Z" fill="currentcolor" class="shade"/>
</svg>
