<svg width="95" height="64" viewBox="0 0 95 64" fill="none" xmlns="http://www.w3.org/2000/svg">
<g clip-path="url(#clip0_26_188)">
<path fill-rule="evenodd" clip-rule="evenodd" d="M23.0155 32.9697C25.4639 32.9697 27.4227 31.0303 27.4227 28.6061C27.4227 26.1818 25.4639 24.2424 23.0155 24.2424C20.567 24.2424 18.6082 26.1818 18.6082 28.6061C18.6082 31.0303 20.567 32.9697 23.0155 32.9697ZM23.0155 46.5455C20.567 46.5455 17.433 45.2848 13.7113 42.6667C13.7113 39.2727 14.8866 35.7818 22.5258 35.7818C30.3608 35.7818 32.3196 38.4 32.3196 42.4727C28.5979 45.1879 25.4639 46.5455 23.0155 46.5455C15.6701 46.5455 9.7938 40.7273 9.7938 33.4545C9.7938 26.1818 15.6701 20.3636 23.0155 20.3636C30.3608 20.3636 36.2371 26.1818 36.2371 33.4545C36.2371 40.7273 30.3608 46.5455 23.0155 46.5455ZM83.1495 7.27273C83.1495 5.91515 84.2268 4.84848 85.5979 4.84848C86.9691 4.84848 88.1443 5.91515 88.1443 7.27273C88.1443 8.6303 86.9691 9.69697 85.5979 9.69697C84.2268 9.69697 83.1495 8.6303 83.1495 7.27273ZM83.1495 23.7576C83.1495 22.4 84.3247 21.3333 85.6959 21.3333C87.067 21.3333 88.2423 22.4 88.2423 23.7576C88.2423 25.1152 86.9691 26.1818 85.5979 26.1818C84.2268 26.1818 83.1495 25.1152 83.1495 23.7576ZM83.1495 40.2424C83.1495 38.8848 84.3247 37.8182 85.6959 37.8182C87.067 37.8182 88.2423 38.8848 88.2423 40.2424C88.2423 41.6 87.067 42.6667 85.6959 42.6667C84.2268 42.6667 83.1495 41.6 83.1495 40.2424ZM83.1495 56.7273C83.1495 55.3697 84.3247 54.303 85.6959 54.303C87.067 54.303 88.2423 55.3697 88.2423 56.7273C88.2423 58.0849 86.9691 59.1515 85.5979 59.1515C84.2268 59.1515 83.1495 58.0849 83.1495 56.7273ZM51.0258 50.4242C49.3608 50.4242 47.9897 51.7818 47.9897 53.4303V60.1212C47.9897 61.7697 49.2629 63.0303 50.9278 63.1273H0.97937V11.6364H48.1856C48.5773 12.703 49.6546 13.5758 50.9278 13.5758H89.1237V17.4545H51.0258C49.3608 17.4545 47.9897 18.8121 47.9897 20.4606V27.1515C47.9897 28.8 49.2629 30.0606 50.9278 30.1576H89.1237V34.0364H50.0464C48.3814 34.0364 47.0103 35.3939 47.0103 37.0424V43.7333C47.0103 45.3818 48.3814 46.7394 50.0464 46.7394H89.1237V50.6182H51.0258V50.4242Z" fill="currentcolor" class="tint"/>
<path fill-rule="evenodd" clip-rule="evenodd" d="M85.6959 58.1818C86.4794 58.1818 87.1649 57.503 87.1649 56.7273C87.1649 55.9515 86.4794 55.2727 85.6959 55.2727C84.9124 55.2727 84.2268 55.9515 84.2268 56.7273C84.2268 57.503 84.9124 58.1818 85.6959 58.1818ZM85.6959 60.1212C83.8351 60.1212 82.268 58.5697 82.268 56.7273C82.268 54.8848 83.8351 53.3333 85.6959 53.3333C87.5567 53.3333 89.1237 54.8848 89.1237 56.7273C89.1237 58.5697 87.5567 60.1212 85.6959 60.1212ZM60.7216 58.1818C60.134 58.1818 59.7423 57.7939 59.7423 57.2121C59.7423 56.6303 60.134 56.2424 60.7216 56.2424H63.6598C64.2474 56.2424 64.6392 56.6303 64.6392 57.2121C64.6392 57.7939 64.2474 58.1818 63.6598 58.1818H60.7216ZM53.866 58.1818C53.2784 58.1818 52.8866 57.7939 52.8866 57.2121C52.8866 56.6303 53.2784 56.2424 53.866 56.2424H56.8041C57.3918 56.2424 57.7835 56.6303 57.7835 57.2121C57.7835 57.7939 57.3918 58.1818 56.8041 58.1818H53.866ZM85.6959 41.697C86.4794 41.697 87.1649 41.0182 87.1649 40.2424C87.1649 39.4667 86.4794 38.7879 85.6959 38.7879C84.9124 38.7879 84.2268 39.4667 84.2268 40.2424C84.2268 41.0182 84.9124 41.697 85.6959 41.697ZM85.6959 43.6364C83.8351 43.6364 82.268 42.0848 82.268 40.2424C82.268 38.4 83.8351 36.8485 85.6959 36.8485C87.5567 36.8485 89.1237 38.4 89.1237 40.2424C89.1237 42.0848 87.5567 43.6364 85.6959 43.6364ZM60.7216 41.697C60.134 41.697 59.7423 41.3091 59.7423 40.7273C59.7423 40.1455 60.134 39.7576 60.7216 39.7576H63.6598C64.2474 39.7576 64.6392 40.1455 64.6392 40.7273C64.6392 41.3091 64.2474 41.697 63.6598 41.697H60.7216ZM53.866 41.697C53.2784 41.697 52.8866 41.3091 52.8866 40.7273C52.8866 40.1455 53.2784 39.7576 53.866 39.7576H56.8041C57.3918 39.7576 57.7835 40.1455 57.7835 40.7273C57.7835 41.3091 57.3918 41.697 56.8041 41.697H53.866ZM85.6959 25.2121C86.4794 25.2121 87.1649 24.5333 87.1649 23.7576C87.1649 22.9818 86.4794 22.303 85.6959 22.303C84.9124 22.303 84.2268 22.9818 84.2268 23.7576C84.2268 24.5333 84.9124 25.2121 85.6959 25.2121ZM85.6959 27.1515C83.8351 27.1515 82.268 25.6 82.268 23.7576C82.268 21.9152 83.8351 20.3636 85.6959 20.3636C87.5567 20.3636 89.1237 21.9152 89.1237 23.7576C89.1237 25.6 87.5567 27.1515 85.6959 27.1515ZM60.7216 25.2121C60.134 25.2121 59.7423 24.8242 59.7423 24.2424C59.7423 23.6606 60.134 23.2727 60.7216 23.2727H63.6598C64.2474 23.2727 64.6392 23.6606 64.6392 24.2424C64.6392 24.8242 64.2474 25.2121 63.6598 25.2121H60.7216ZM53.866 25.2121C53.2784 25.2121 52.8866 24.8242 52.8866 24.2424C52.8866 23.6606 53.2784 23.2727 53.866 23.2727H56.8041C57.3918 23.2727 57.7835 23.6606 57.7835 24.2424C57.7835 24.8242 57.3918 25.2121 56.8041 25.2121H53.866ZM85.6959 8.72727C86.4794 8.72727 87.1649 8.04848 87.1649 7.27273C87.1649 6.49697 86.4794 5.81818 85.6959 5.81818C84.9124 5.81818 84.2268 6.49697 84.2268 7.27273C84.2268 8.04848 84.9124 8.72727 85.6959 8.72727ZM85.6959 10.6667C83.8351 10.6667 82.268 9.11515 82.268 7.27273C82.268 5.4303 83.8351 3.87879 85.6959 3.87879C87.5567 3.87879 89.1237 5.4303 89.1237 7.27273C89.1237 9.11515 87.5567 10.6667 85.6959 10.6667ZM60.7216 8.72727C60.134 8.72727 59.7423 8.33939 59.7423 7.75758C59.7423 7.17576 60.134 6.78788 60.7216 6.78788H63.6598C64.2474 6.78788 64.6392 7.17576 64.6392 7.75758C64.6392 8.33939 64.2474 8.72727 63.6598 8.72727H60.7216ZM53.866 8.72727C53.2784 8.72727 52.8866 8.33939 52.8866 7.75758C52.8866 7.17576 53.2784 6.78788 53.866 6.78788H56.8041C57.3918 6.78788 57.7835 7.17576 57.7835 7.75758C57.7835 8.33939 57.3918 8.72727 56.8041 8.72727H53.866ZM90.9845 12.6061C92.1598 12.6061 93.0412 11.7333 93.0412 10.5697V3.97576C93.0412 2.81212 92.1598 1.93939 90.9845 1.93939H51.0258C49.8505 1.93939 48.9691 2.81212 48.9691 3.97576V10.6667C48.9691 11.7333 49.8505 12.703 51.0258 12.703H90.9845V12.6061ZM23.0155 47.5151C15.1804 47.5151 8.81443 41.2121 8.81443 33.4545C8.81443 25.697 15.1804 19.3939 23.0155 19.3939C30.8505 19.3939 37.2165 25.697 37.2165 33.4545C37.2165 41.2121 30.8505 47.5151 23.0155 47.5151ZM19.5876 28.6061C19.5876 30.4485 21.1546 32 23.0155 32C24.8763 32 26.4433 30.4485 26.4433 28.6061C26.4433 26.7636 24.8763 25.2121 23.0155 25.2121C21.1546 25.2121 19.5876 26.7636 19.5876 28.6061ZM28.4021 28.6061C28.4021 31.5152 25.9536 33.9394 23.0155 33.9394C20.0773 33.9394 17.6289 31.5152 17.6289 28.6061C17.6289 25.697 20.0773 23.2727 23.0155 23.2727C25.9536 23.2727 28.4021 25.697 28.4021 28.6061ZM17.6289 56.2424C17.0412 56.2424 16.6495 55.8545 16.6495 55.2727C16.6495 54.6909 17.0412 54.303 17.6289 54.303H28.4021C28.9897 54.303 29.3814 54.6909 29.3814 55.2727C29.3814 55.8545 28.9897 56.2424 28.4021 56.2424H17.6289ZM13.7113 52.3636C13.1237 52.3636 12.732 51.9758 12.732 51.3939C12.732 50.8121 13.1237 50.4242 13.7113 50.4242H32.3196C32.9072 50.4242 33.299 50.8121 33.299 51.3939C33.299 51.9758 32.9072 52.3636 32.3196 52.3636H13.7113ZM1.95876 10.6667H43.0928C43.6804 10.6667 44.0722 11.0545 44.0722 11.6364C44.0722 12.2182 43.6804 12.6061 43.0928 12.6061H0.979381C0.391753 12.6061 0 12.2182 0 11.6364V5.81818C0 5.23636 0.391753 4.84848 0.979381 4.84848H43.0928C43.6804 4.84848 44.0722 5.23636 44.0722 5.81818C44.0722 6.4 43.6804 6.78788 43.0928 6.78788H1.95876V10.6667ZM1.95876 62.0606H43.0928C43.6804 62.0606 44.0722 62.4485 44.0722 63.0303C44.0722 63.6121 43.6804 64 43.0928 64H0.979381C0.391753 64 0 63.6121 0 63.0303V15.5152C0 14.9333 0.391753 14.5455 0.979381 14.5455C1.56701 14.5455 1.95876 14.9333 1.95876 15.5152V62.0606ZM12.8299 40.2424C13.4175 36.6545 16.5515 34.9091 23.0155 34.9091C29.2835 34.9091 32.3196 36.5576 33.1031 40.3394C34.4742 38.4 35.2577 35.9758 35.2577 33.4545C35.2577 26.7636 29.7732 21.3333 23.0155 21.3333C16.2577 21.3333 10.7732 26.7636 10.7732 33.4545C10.7732 35.9758 11.5567 38.303 12.8299 40.2424ZM31.3402 42.3758C31.2423 38.303 29.2835 36.8485 23.0155 36.8485C16.7474 36.8485 14.6907 38.4 14.6907 41.697C14.6907 41.8909 14.5928 42.0848 14.5928 42.1818C15.4742 43.0545 16.5515 43.7333 17.6289 44.3152V41.697C17.6289 41.1152 18.0206 40.7273 18.6082 40.7273C19.1959 40.7273 19.5876 41.1152 19.5876 41.697V44.6061C19.5876 44.8 19.5876 44.897 19.4897 45.0909C20.567 45.3818 21.8402 45.5758 23.0155 45.5758C24.1907 45.5758 25.4639 45.3818 26.5412 45.0909C26.4433 44.897 26.4433 44.8 26.4433 44.6061V41.697C26.4433 41.1152 26.8351 40.7273 27.4227 40.7273C28.0103 40.7273 28.4021 41.1152 28.4021 41.697V44.3152C29.4794 43.8303 30.4588 43.1515 31.3402 42.3758ZM52.8866 18.4242H51.0258C49.8505 18.4242 48.9691 19.297 48.9691 20.4606V27.1515C48.9691 28.2182 49.8505 29.1879 51.0258 29.1879H90.9845C92.1598 29.1879 93.0412 28.3152 93.0412 27.1515V20.4606C93.0412 19.3939 92.1598 18.4242 90.9845 18.4242H89.1237H52.8866ZM53.866 16.4848H88.1443V14.5455H53.866V16.4848ZM52.8866 34.9091H51.0258C49.8505 34.9091 48.9691 35.7818 48.9691 36.9455V43.6364C48.9691 44.703 49.8505 45.6727 51.0258 45.6727H90.9845C92.1598 45.6727 93.0412 44.8 93.0412 43.6364V36.9455C93.0412 35.8788 92.1598 34.9091 90.9845 34.9091H89.1237H52.8866ZM53.866 32.9697H88.1443V31.0303H53.866V32.9697ZM51.9072 49.4545V47.5151H51.0258C48.7732 47.5151 47.0103 45.7697 47.0103 43.5394V36.8485C47.0103 34.7151 48.7732 32.8727 51.0258 32.8727H51.9072V30.9333H51.0258C48.7732 30.9333 47.0103 29.1879 47.0103 26.9576V20.2667C47.0103 18.1333 48.7732 16.2909 51.0258 16.2909H51.9072V14.3515H51.0258C48.7732 14.3515 47.0103 12.6061 47.0103 10.3758V3.97576C47.0103 1.74545 48.7732 0 51.0258 0H90.9845C93.2371 0 95 1.74545 95 3.97576V10.6667C95 12.8 93.2371 14.6424 90.9845 14.6424H90.1031V16.5818H90.9845C93.2371 16.5818 95 18.3273 95 20.5576V27.2485C95 29.3818 93.2371 31.2242 90.9845 31.2242H90.1031V33.1636H90.9845C93.2371 33.1636 95 34.9091 95 37.1394V43.8303C95 45.9636 93.2371 47.8061 90.9845 47.8061H90.1031V49.7455H90.9845C93.2371 49.7455 95 51.4909 95 53.7212V60.4121C95 62.5455 93.2371 64.3879 90.9845 64.3879H51.0258C48.7732 64.3879 47.0103 62.6424 47.0103 60.4121V53.7212C47.0103 51.5879 48.7732 49.7455 51.0258 49.7455H51.9072V49.4545ZM52.8866 51.3939H51.0258C49.8505 51.3939 48.9691 52.2667 48.9691 53.4303V60.1212C48.9691 61.1879 49.8505 62.1576 51.0258 62.1576H90.9845C92.1598 62.1576 93.0412 61.2848 93.0412 60.1212V53.4303C93.0412 52.3636 92.1598 51.3939 90.9845 51.3939H89.1237H52.8866ZM53.866 49.4545H88.1443V47.5151H53.866V49.4545Z" fill="currentcolor" class="shade"/>
</g>
<defs>
<clipPath id="clip0_26_188">
<rect width="95" height="64" fill="white"/>
</clipPath>
</defs>
</svg>
