<svg width="80" height="71" viewBox="0 0 80 71" fill="none" xmlns="http://www.w3.org/2000/svg">
<g clip-path="url(#clip0_31_200)">
<path fill-rule="evenodd" clip-rule="evenodd" d="M23 55.0195C20.2 55.0195 18 52.8195 18 50.0195C18 47.2195 20.2 45.0195 23 45.0195C25.8 45.0195 28 47.2195 28 50.0195C28 52.8195 25.8 55.0195 23 55.0195ZM75.1 69.0195H47V18.0195H75.1C77.3 18.0195 79 19.8195 79 22.0195V65.0195C79 67.2195 77.2 69.0195 75.1 69.0195ZM64 10.0195L7 9.91953V55.5195C7 58.1195 6 59.0195 4 59.0195C2 59.0195 1 58.2195 1 55.5195V4.01953C1 2.21953 2.2 1.01953 4 1.01953H23L27.5 5.01953H64V10.0195Z" fill="currentcolor" class="tint"/>
<path fill-rule="evenodd" clip-rule="evenodd" d="M46 68.0195V19.0195H40V68.0195H46ZM48 68.0195H75.1C76.7 68.0195 78 66.7195 78 65.0195V22.0195C78 20.4195 76.7 19.0195 75.1 19.0195H48V68.0195ZM73 17.0195H75.1C77.8 17.0195 80 19.2195 80 22.0195V65.0195C80 67.7195 77.8 70.0195 75.1 70.0195H39C38.4 70.0195 38 69.6195 38 69.0195V61.0195H33C32.4 61.0195 32 60.6195 32 60.0195C32 59.4195 32.4 59.0195 33 59.0195H38V18.0195C38 17.4195 38.4 17.0195 39 17.0195H71V12.0195C71 11.4195 70.6 11.0195 70 11.0195L9 10.9195C8.4 10.9195 8 11.3195 8 11.9195V57.0195C8 57.7195 7.8 58.4195 7.5 59.0195H13C13.6 59.0195 14 59.4195 14 60.0195C14 60.6195 13.6 61.0195 13 61.0195H4.8C4.7 61.0195 4.6 61.0195 4.5 61.0195C4.3 61.0195 4.2 61.0195 4 61.0195C1.8 61.0195 0 59.2195 0 57.0195V4.01953C0 1.71953 1.7 0.0195312 4 0.0195312H23C23.2 0.0195312 23.5 0.119531 23.7 0.319531L27.9 4.01953H64C64.6 4.01953 65 4.41953 65 5.01953V7.01953C65 7.61953 64.6 8.01953 64 8.01953C63.4 8.01953 63 7.61953 63 7.01953V6.01953H27.5C27.3 6.01953 27 5.91953 26.8 5.71953L22.6 2.01953H4C2.8 2.01953 2 2.81953 2 4.01953V57.0195C2 58.1195 2.9 59.0195 4 59.0195C5.1 59.0195 6 58.1195 6 57.0195V11.9195C6 10.2195 7.3 8.91953 9 8.91953L70 9.01953C71.7 9.01953 73 10.3195 73 12.0195V17.0195Z" fill="currentcolor" class="shade"/>
<path fill-rule="evenodd" clip-rule="evenodd" d="M25 38.2195C26.3 37.3195 26.8 36.6195 26.8 36.1195C26.8 35.7195 26.5 35.2195 25.7 34.5195C25.8 35.6195 25.5 36.8195 25 38.2195ZM17.9 22.3195C19.3 21.5195 21.4 21.3195 24.9 21.3195C25.4 21.3195 25.9 21.3195 26.8 21.3195C28.9 21.3195 30 21.3195 30.8 21.2195C28.3 19.6195 21.6 18.9195 17 20.0195C14.7 20.5195 13.4 21.4195 13.3 22.2195C13.2 23.3195 14.4 24.9195 17.5 26.9195C16 24.9195 16.1 23.3195 17.9 22.3195ZM20 64.0195C19.4 64.0195 19 63.6195 19 63.0195C19 62.4195 19.4 62.0195 20 62.0195H26C26.6 62.0195 27 62.4195 27 63.0195C27 63.6195 26.6 64.0195 26 64.0195H20ZM18 61.0195C17.4 61.0195 17 60.6195 17 60.0195C17 59.4195 17.4 59.0195 18 59.0195H28C28.6 59.0195 29 59.4195 29 60.0195C29 60.6195 28.6 61.0195 28 61.0195H18ZM23 54.0195C25.2 54.0195 27 52.2195 27 50.0195C27 47.8195 25.2 46.0195 23 46.0195C20.8 46.0195 19 47.8195 19 50.0195C19 52.2195 20.8 54.0195 23 54.0195ZM23 56.0195C19.7 56.0195 17 53.3195 17 50.0195C17 46.7195 19.7 44.0195 23 44.0195C26.3 44.0195 29 46.7195 29 50.0195C29 53.3195 26.3 56.0195 23 56.0195ZM21.9 42.0195H16C14.9 42.0195 14 42.9195 14 44.0195V66.0195C14 67.1195 14.9 68.0195 16 68.0195H30C31.1 68.0195 32 67.1195 32 66.0195V44.0195C32 42.9195 31.1 42.0195 30 42.0195H22.1C22.1 42.0195 22 42.0195 21.9 42.0195ZM21.5 40.0195C24 36.7195 24.2 34.6195 22.8 32.5195C22 32.0195 18.3 29.8195 16.9 29.0195C12.9 26.4195 11 24.1195 11.3 22.0195C11.6 20.0195 13.5 18.8195 16.5 18.1195C21.8 16.9195 29.5 17.6195 32.3 19.9195C33.9 21.2195 33.6 22.7195 31.7 23.1195C30.8 23.3195 29.7 23.3195 26.8 23.3195C25.9 23.3195 25.4 23.3195 24.9 23.3195C21.7 23.3195 19.8 23.6195 18.8 24.1195C18.1 24.5195 18.2 25.2195 20.1 27.0195C20.2 27.1195 20.2 27.1195 20.2 27.1195C20.4 27.3195 22.3 29.1195 22.8 29.6195C23.3 30.1195 23.7 30.6195 24 31.0195C27.3 33.0195 28.6 34.3195 28.6 36.0195C28.6 37.4195 27.7 38.6195 25.6 40.0195H30C32.2 40.0195 34 41.8195 34 44.0195V66.0195C34 68.2195 32.2 70.0195 30 70.0195H16C13.8 70.0195 12 68.2195 12 66.0195V44.0195C12 41.8195 13.8 40.0195 16 40.0195H21.5Z" fill="currentcolor" class="shade"/>
</g>
<defs>
<clipPath id="clip0_31_200">
<rect width="80" height="70" fill="white" transform="translate(0 0.0195312)"/>
</clipPath>
</defs>
</svg>
