<svg width="13px" height="13px" viewBox="0 0 13 13" version="1.1" xmlns="http://www.w3.org/2000/svg" xmlns:xlink="http://www.w3.org/1999/xlink">
    <title>Instagram Icon</title>
    <g transform="translate(0 -2)" fill="#9CA393">
        <path d="M6.16070206,2.67857143 C7.83386383,2.67857143 8.04366322,2.68566338 8.70074445,2.7156452 C9.35650511,2.74557811 9.80432496,2.84970748 10.1962162,3.00201318 C10.6013377,3.15945443 10.9449059,3.37010975 11.2873981,3.71260193 C11.6298903,4.05509412 11.8405456,4.39866233 11.9979868,4.80378376 C12.1502925,5.19567504 12.2544219,5.64349489 12.2843548,6.29925555 C12.3143366,6.95633678 12.3214286,7.16613617 12.3214286,8.83929794 C12.3214286,10.5124597 12.3143366,10.7222591 12.2843548,11.3793403 C12.2544219,12.035101 12.1502925,12.4829208 11.9979868,12.8748121 C11.8405456,13.2799336 11.6298903,13.6235018 11.2873981,13.9659939 C10.9449059,14.3084861 10.6013377,14.5191415 10.1962162,14.6765827 C9.80432496,14.8288884 9.35650511,14.9330178 8.70074445,14.9629507 C8.04366322,14.9929325 7.83386383,15 6.16070206,15 C4.48754029,15 4.27776535,14.9929325 3.62065966,14.9629507 C2.964899,14.9330178 2.51707916,14.8288884 2.12518788,14.6765827 C1.72006645,14.5191415 1.37649824,14.3084861 1.03400605,13.9659939 C0.691513862,13.6235018 0.480858545,13.2799091 0.323417294,12.8748121 C0.171111592,12.4829208 0.0669822282,12.035101 0.0370493157,11.3793403 C0.00706749323,10.7222591 0,10.5124597 0,8.83929794 C0,7.16613617 0.00706749323,6.95633678 0.0370493157,6.29925555 C0.0669822282,5.64349489 0.171111592,5.19567504 0.323417294,4.80378376 C0.480858545,4.39866233 0.691513862,4.05509412 1.03400605,3.71260193 C1.37649824,3.37010975 1.72006645,3.15945443 2.12518788,3.00201318 C2.51707916,2.84970748 2.964899,2.74557811 3.62065966,2.7156452 C4.27776535,2.68566338 4.48754029,2.67857143 6.16070206,2.67857143 Z M6.16070206,3.78863251 C4.51571244,3.78863251 4.3208795,3.79489299 3.67123259,3.82453244 C3.07059349,3.85194649 2.74438832,3.95230978 2.52730134,4.03665506 C2.23973507,4.14841438 2.03448431,4.28193865 1.81891353,4.49750942 C1.60334276,4.71308019 1.4698185,4.91833095 1.35808363,5.20587277 C1.2737139,5.42298421 1.17335061,5.74918937 1.14593656,6.34985293 C1.11629711,6.99947539 1.11003663,7.19430832 1.11003663,8.83929794 C1.11003663,10.4842876 1.11629711,10.6791205 1.14593656,11.3287674 C1.17335061,11.9294065 1.2737139,12.2556117 1.35808363,12.4727231 C1.4698185,12.7602649 1.60334276,12.9655157 1.81891353,13.1810865 C2.03448431,13.3966572 2.23973507,13.5301815 2.52730134,13.6419164 C2.74438832,13.7262861 3.07059349,13.8266494 3.67125705,13.8540634 C4.32078168,13.8837029 4.51561462,13.8899634 6.16070206,13.8899634 C7.8057895,13.8899634 8.00062243,13.8837029 8.65014707,13.8540634 C9.25081063,13.8266494 9.57701579,13.7262861 9.79412723,13.6419164 C10.081669,13.5301815 10.2869198,13.3966572 10.5024906,13.1810865 C10.7180614,12.9655157 10.8515856,12.7602649 10.9633205,12.4727231 C11.0476902,12.2556117 11.1480535,11.9294065 11.1754676,11.328743 C11.205107,10.6791205 11.2113675,10.4842876 11.2113675,8.83929794 C11.2113675,7.19430832 11.205107,6.99947539 11.1754676,6.34982847 C11.1480535,5.74918937 11.0476902,5.42298421 10.9633205,5.20587277 C10.8515856,4.91833095 10.7180614,4.71308019 10.5024906,4.49750942 C10.2869198,4.28193865 10.081669,4.14841438 9.79412723,4.03665506 C9.57701579,3.95230978 9.25081063,3.85194649 8.65014707,3.82453244 C8.00052461,3.79489299 7.80569168,3.78863251 6.16070206,3.78863251 Z M6.16131025,5.52287533 C7.99323416,5.52287533 9.4783166,7.00795778 9.4783166,8.83988168 C9.4783166,10.6718056 7.99323416,12.156888 6.16131025,12.156888 C4.32938635,12.156888 2.8443039,10.6718056 2.8443039,8.83988168 C2.8443039,7.00795778 4.32938635,5.52287533 6.16131025,5.52287533 Z M6.16131025,10.993032 C7.35044799,10.993032 8.31446057,10.0290194 8.31446057,8.83988168 C8.31446057,7.65074394 7.35044799,6.68673136 6.16131025,6.68673136 C4.97217251,6.68673136 4.00815993,7.65074394 4.00815993,8.83988168 C4.00815993,10.0290194 4.97217251,10.993032 6.16131025,10.993032 Z M10.0114851,5.3140485 C10.0114851,5.72234907 9.68051121,6.05334742 9.27221063,6.05334742 C8.86391005,6.05334742 8.53291171,5.72234907 8.53291171,5.3140485 C8.53291171,4.90574792 8.86391005,4.57477403 9.27221063,4.57477403 C9.68051121,4.57477403 10.0114851,4.90574792 10.0114851,5.3140485 Z" id="path-instagram"></path>
    </g>
</svg>