<svg width="41" height="33" viewBox="0 0 41 33" fill="none" xmlns="http://www.w3.org/2000/svg">
    <path d="M35.3 31.6062H5.7C3.7 31.6062 2 30.0058 2 27.9054V5.70077C2 3.70035 3.6 2 5.7 2H35.3C37.3 2 39 3.60033 39 5.70077V28.0054C38.9 30.0058 37.3 31.6062 35.3 31.6062Z"
          stroke="currentcolor" stroke-width="2.05556" stroke-miterlimit="10" stroke-linecap="round"
          stroke-linejoin="round"/>
    <path d="M2 10.4018C2 10.4018 38.9 9.70161 38.9 10.4018" stroke="currentcolor" stroke-width="2.05556"
          stroke-miterlimit="10" stroke-linecap="round" stroke-linejoin="round"/>
    <path d="M6.3 7.10104C6.74183 7.10104 7.1 6.74279 7.1 6.30087C7.1 5.85895 6.74183 5.5007 6.3 5.5007C5.85818 5.5007 5.5 5.85895 5.5 6.30087C5.5 6.74279 5.85818 7.10104 6.3 7.10104Z"
          fill="currentcolor"/>
    <path d="M9.1999 7.10104C9.64173 7.10104 9.9999 6.74279 9.9999 6.30087C9.9999 5.85895 9.64173 5.5007 9.1999 5.5007C8.75807 5.5007 8.3999 5.85895 8.3999 6.30087C8.3999 6.74279 8.75807 7.10104 9.1999 7.10104Z"
          fill="currentcolor"/>
    <path d="M12.1999 7.10104C12.6417 7.10104 12.9999 6.74279 12.9999 6.30087C12.9999 5.85895 12.6417 5.5007 12.1999 5.5007C11.7581 5.5007 11.3999 5.85895 11.3999 6.30087C11.3999 6.74279 11.7581 7.10104 12.1999 7.10104Z"
          fill="currentcolor"/>
</svg>
