<svg width="38" height="29" viewBox="0 0 38 29" fill="none" xmlns="http://www.w3.org/2000/svg">
<g clip-path="url(#clip0_1105_332)">
<path d="M18 21V18C18 17.4 17.6 17 17 17H9C8.4 17 8 17.4 8 18V21C7.4 21 7 21.4 7 22C7 22.6 7.4 23 8 23H9H17H18C18.6 23 19 22.6 19 22C19 21.4 18.6 21 18 21ZM10 21V19H16V21H10Z" fill="currentcolor"/>
<path d="M38 9.5C38 9.4 38 9.3 38 9.2C38 8.9 38 8.6 37.7 8.3L29.7 0.3C29.5 0.1 29.3 0 29 0H9C8.7 0 8.5 0.1 8.3 0.3L0.3 8.3C0.1 8.5 0 8.8 0 9.2C0 9.3 0 9.4 0 9.5C0 11.2 0.8 12.8 2 13.8C2 13.9 2 13.9 2 14V28C2 28.6 2.4 29 3 29H23H30H35C35.6 29 36 28.6 36 28V14C36 13.9 36 13.8 36 13.8C37.2 12.8 38 11.2 38 9.5ZM34.6 8H28.6L25.6 2H28.6L34.6 8ZM18 2V8H11.6L14.6 2H18ZM23.4 2L26.4 8H20V2H23.4ZM18 10C17.8 11.7 16.3 13 14.5 13C12.7 13 11.3 11.7 11 10H18ZM27 10C26.8 11.7 25.3 13 23.5 13C21.7 13 20.3 11.7 20 10H27ZM9.4 2H12.4L9.4 8H3.4L9.4 2ZM9 10C8.8 11.7 7.3 13 5.5 13C3.7 13 2.3 11.7 2 10H9ZM24 27V17H29V27H24ZM34 27H31V16C31 15.4 30.6 15 30 15H23.5H23C22.4 15 22 15.4 22 16V27H4V14.8C4.5 14.9 5 15 5.5 15C7.4 15 9 14.1 10 12.7C11 14.1 12.6 15 14.5 15C16.4 15 18 14.1 19 12.7C20 14.1 21.6 15 23.5 15C25.4 15 27 14.1 28 12.7C29 14.1 30.6 15 32.5 15C33 15 33.5 14.9 34 14.8V27ZM32.5 13C30.7 13 29.3 11.7 29 10H36C35.7 11.7 34.3 13 32.5 13Z" fill="currentcolor"/>
<path d="M25.4 25.1C25.9523 25.1 26.4 24.6523 26.4 24.1C26.4 23.5477 25.9523 23.1 25.4 23.1C24.8477 23.1 24.4 23.5477 24.4 24.1C24.4 24.6523 24.8477 25.1 25.4 25.1Z" fill="currentcolor"/>
</g>
<defs>
<clipPath id="clip0_1105_332">
<rect width="38" height="29" fill="white"/>
</clipPath>
</defs>
</svg>
