<svg width="64" height="64" viewBox="0 0 64 64" fill="none" xmlns="http://www.w3.org/2000/svg">
<path fill-rule="evenodd" clip-rule="evenodd" d="M15.2405 52.6582H50.0759V58.086C50.0759 60.9214 47.6456 63.1898 44.7291 63.1898H20.5873C17.6709 63.1898 15.2405 60.9214 15.2405 58.086V52.6582ZM50.0759 6.48094H15.2405C15.2405 3.32145 17.6709 0.810059 20.5873 0.810059H44.6481C47.6456 0.810059 50.0759 3.32145 50.0759 6.48094ZM20.1013 39.6961C21.4785 39.6961 22.5316 38.643 22.5316 37.2658C22.5316 35.8885 21.4785 34.8354 20.1013 34.8354C18.724 34.8354 17.6709 35.8885 17.6709 37.2658C17.6709 38.643 18.724 39.6961 20.1013 39.6961ZM20.1013 46.9873C16.0506 46.9873 12.8101 43.7468 12.8101 39.6961C12.8101 35.6455 16.0506 32.405 20.1013 32.405C24.1519 32.405 27.3924 35.6455 27.3924 39.6961C27.3924 43.7468 24.1519 46.9873 20.1013 46.9873ZM20.1013 21.0632C21.4785 21.0632 22.5316 20.0101 22.5316 18.6328C22.5316 17.2556 21.4785 16.2025 20.1013 16.2025C18.724 16.2025 17.6709 17.2556 17.6709 18.6328C17.6709 20.0101 18.724 21.0632 20.1013 21.0632ZM20.1013 28.3544C16.0506 28.3544 12.8101 25.1139 12.8101 21.0632C12.8101 17.0126 16.0506 13.7721 20.1013 13.7721C24.1519 13.7721 27.3924 17.0126 27.3924 21.0632C27.3924 25.1139 24.1519 28.3544 20.1013 28.3544Z" fill="currentcolor" class="tint"/>
<path fill-rule="evenodd" clip-rule="evenodd" d="M20.1013 46.1772C23.6658 46.1772 26.5823 43.2608 26.5823 39.6962C26.5823 36.1316 23.6658 33.2152 20.1013 33.2152C16.5367 33.2152 13.6203 36.1316 13.6203 39.6962C13.6203 43.2608 16.5367 46.1772 20.1013 46.1772ZM20.1013 47.7975C15.6456 47.7975 12 44.1519 12 39.6962C12 35.2405 15.6456 31.5949 20.1013 31.5949C24.557 31.5949 28.2025 35.2405 28.2025 39.6962C28.2025 44.1519 24.557 47.7975 20.1013 47.7975ZM20.1013 27.5443C23.6658 27.5443 26.5823 24.6278 26.5823 21.0633C26.5823 17.4987 23.6658 14.5823 20.1013 14.5823C16.5367 14.5823 13.6203 17.4987 13.6203 21.0633C13.6203 24.6278 16.5367 27.5443 20.1013 27.5443ZM20.1013 29.1646C15.6456 29.1646 12 25.519 12 21.0633C12 16.6076 15.6456 12.962 20.1013 12.962C24.557 12.962 28.2025 16.6076 28.2025 21.0633C28.2025 25.519 24.557 29.1646 20.1013 29.1646ZM30.6329 42.9367C30.1468 42.9367 29.8228 42.6127 29.8228 42.1266C29.8228 41.6405 30.1468 41.3165 30.6329 41.3165H44.4051C44.8911 41.3165 45.2152 41.6405 45.2152 42.1266C45.2152 42.6127 44.8911 42.9367 44.4051 42.9367H30.6329ZM30.6329 38.8861C30.1468 38.8861 29.8228 38.562 29.8228 38.076C29.8228 37.5899 30.1468 37.2658 30.6329 37.2658H58.1772C58.6633 37.2658 58.9873 37.5899 58.9873 38.076C58.9873 38.562 58.6633 38.8861 58.1772 38.8861H30.6329ZM30.6329 24.3038C30.1468 24.3038 29.8228 23.9797 29.8228 23.4937C29.8228 23.0076 30.1468 22.6835 30.6329 22.6835H44.4051C44.8911 22.6835 45.2152 23.0076 45.2152 23.4937C45.2152 23.9797 44.8911 24.3038 44.4051 24.3038H30.6329ZM30.6329 20.2532C30.1468 20.2532 29.8228 19.9291 29.8228 19.443C29.8228 18.957 30.1468 18.6329 30.6329 18.6329H58.1772C58.6633 18.6329 58.9873 18.957 58.9873 19.443C58.9873 19.9291 58.6633 20.2532 58.1772 20.2532H30.6329ZM34.6835 57.9241C34.6835 59.0582 33.7924 59.9494 32.6582 59.9494C31.5241 59.9494 30.6329 59.0582 30.6329 57.9241C30.6329 56.7899 31.5241 55.8987 32.6582 55.8987C33.7924 55.8987 34.6835 56.7899 34.6835 57.9241ZM49.2658 23.4937C49.2658 23.0076 49.5899 22.6835 50.076 22.6835C50.562 22.6835 50.8861 23.0076 50.8861 23.4937V34.0253C50.8861 34.5114 50.562 34.8354 50.076 34.8354C49.5899 34.8354 49.2658 34.5114 49.2658 34.0253V23.4937ZM49.2658 5.67089C49.0228 3.40253 47.0785 1.62025 44.7291 1.62025H20.5873C18.319 1.62025 16.3747 3.40253 16.0506 5.67089H49.2658ZM49.2658 7.29114H16.0506V11.5038C16.0506 11.9899 15.7266 12.3139 15.2405 12.3139C14.7544 12.3139 14.4304 11.9899 14.4304 11.5038V6.23797C14.4304 2.75443 17.1848 0 20.5873 0H44.6481C48.1316 0 50.8861 2.75443 50.8861 6.23797V15.3924C50.8861 15.8785 50.562 16.2025 50.076 16.2025C49.5899 16.2025 49.2658 15.8785 49.2658 15.3924V7.29114ZM16.0506 53.4684V57.843C16.0506 60.3544 18.0759 62.3797 20.5873 62.3797H44.6481C47.1595 62.3797 49.1848 60.3544 49.1848 57.843V53.4684H16.0506ZM16.0506 51.8481H49.2658V42.1266C49.2658 41.6405 49.5899 41.3165 50.076 41.3165C50.562 41.3165 50.8861 41.6405 50.8861 42.1266V57.843C50.8861 61.2456 48.1316 64 44.7291 64H20.5873C17.1848 64 14.4304 61.2456 14.4304 57.843V50.0658C14.4304 49.5797 14.7544 49.2557 15.2405 49.2557C15.7266 49.2557 16.0506 49.5797 16.0506 50.0658V51.8481Z" fill="currentcolor" class="shade"/>
<path fill-rule="evenodd" clip-rule="evenodd" d="M20.1012 21.8733C23.9898 21.8733 24.962 23.2506 24.962 26.8961V27.3012L24.6379 27.5442C23.3417 28.5974 21.7215 29.1645 20.1012 29.1645C19.2101 29.1645 18.319 29.0025 17.5088 28.6784C16.7797 28.4354 16.1316 28.0303 15.5645 27.5442L15.2405 27.3012V26.8961C15.2405 23.2506 16.2126 21.8733 20.1012 21.8733ZM20.1012 23.4936C17.4278 23.4936 16.9417 23.9797 16.8607 26.4911C17.2658 26.7341 17.6709 26.9771 18.0759 27.1392C18.724 27.3822 19.3721 27.5442 20.1012 27.5442C21.2354 27.5442 22.3696 27.2202 23.3417 26.4911C23.2607 23.9797 22.7747 23.4936 20.1012 23.4936ZM20.1012 21.8733C18.319 21.8733 16.8607 20.4151 16.8607 18.6328C16.8607 16.8506 18.319 15.3923 20.1012 15.3923C21.8835 15.3923 23.3417 16.8506 23.3417 18.6328C23.3417 20.4151 21.8835 21.8733 20.1012 21.8733ZM20.1012 20.2531C20.9924 20.2531 21.7215 19.524 21.7215 18.6328C21.7215 17.7417 20.9924 17.0126 20.1012 17.0126C19.2101 17.0126 18.481 17.7417 18.481 18.6328C18.481 19.524 19.2101 20.2531 20.1012 20.2531Z" fill="currentcolor" class="shade"/>
<path fill-rule="evenodd" clip-rule="evenodd" d="M20.1012 40.5064C23.9898 40.5064 24.962 41.8836 24.962 45.5292V45.9343L24.6379 46.1773C23.3417 47.2305 21.7215 47.7975 20.1012 47.7975C19.2101 47.7975 18.319 47.6355 17.5088 47.3115C16.7797 47.0684 16.1316 46.6634 15.5645 46.1773L15.2405 45.9343V45.5292C15.2405 41.8836 16.2126 40.5064 20.1012 40.5064ZM20.1012 42.1267C17.4278 42.1267 16.9417 42.6127 16.8607 45.1241C17.2658 45.3672 17.6709 45.6102 18.0759 45.7722C18.724 46.0153 19.3721 46.1773 20.1012 46.1773C21.2354 46.1773 22.3696 45.8532 23.3417 45.1241C23.2607 42.6127 22.7747 42.1267 20.1012 42.1267ZM20.1012 40.5064C18.319 40.5064 16.8607 39.0482 16.8607 37.2659C16.8607 35.4836 18.319 34.0254 20.1012 34.0254C21.8835 34.0254 23.3417 35.4836 23.3417 37.2659C23.3417 39.0482 21.8835 40.5064 20.1012 40.5064ZM20.1012 38.8862C20.9924 38.8862 21.7215 38.157 21.7215 37.2659C21.7215 36.3748 20.9924 35.6456 20.1012 35.6456C19.2101 35.6456 18.481 36.3748 18.481 37.2659C18.481 38.157 19.2101 38.8862 20.1012 38.8862Z" fill="currentcolor" class="shade"/>
</svg>
