<svg width="150" height="110" viewBox="0 0 150 110" fill="none" xmlns="http://www.w3.org/2000/svg">
<g clip-path="url(#clip0_26_211)">
<path fill-rule="evenodd" clip-rule="evenodd" d="M75.0252 25.7848C77.329 25.7848 79.1898 23.924 79.1898 21.6202C79.1898 19.3164 77.329 17.4557 75.0252 17.4557C72.7214 17.4557 70.8607 19.3164 70.8607 21.6202C70.9493 23.924 72.7214 25.7848 75.0252 25.7848ZM64.7467 51.3924C63.7721 51.3924 62.9746 50.6835 62.9746 49.7974V45.8987C62.9746 45.0126 63.7721 44.3038 64.7467 44.3038H85.1265C86.1012 44.3038 86.8986 45.0126 86.8986 45.8987V49.7974C86.8986 50.6835 86.1012 51.3924 85.1265 51.3924H64.7467ZM55.886 56.7088H93.9873V63.1772C93.9873 66.4557 91.329 69.1139 88.1392 69.1139H61.7341C58.5442 69.1139 55.886 66.4557 55.886 63.1772V56.7088ZM94.2531 6.82276H55.886C55.886 3.54427 58.5442 0.886047 61.8227 0.886047H88.3164C91.5948 0.886047 94.2531 3.54427 94.2531 6.82276ZM82.8227 36.4177C82.8227 31.7215 82.6455 28 75.0252 28C67.405 28 67.2278 31.7215 67.2278 36.3291C67.2278 36.4177 67.2278 36.5063 67.2278 36.5949L67.1392 36.5063C66.3417 35.886 65.7214 35.2658 65.1012 34.5569C64.4809 33.8481 63.9493 33.0506 63.5062 32.1645C62.6202 30.3924 62.0885 28.3544 62.0885 26.2278C62.0885 19.1392 67.9366 13.2911 75.0252 13.2911C82.1138 13.2911 87.9619 19.1392 87.9619 26.2278C87.9619 30.481 85.924 34.2025 82.7341 36.5949C82.8227 36.5949 82.8227 36.5063 82.8227 36.4177Z" fill="currentcolor" class="tint"/>
<path fill-rule="evenodd" clip-rule="evenodd" d="M85.1266 52.2785H64.7468C63.2405 52.2785 62.0886 51.2152 62.0886 49.7975V45.8987C62.0886 44.481 63.3291 43.4177 64.7468 43.4177H85.1266C86.6329 43.4177 87.7848 44.481 87.7848 45.8987V49.7975C87.7848 51.2152 86.5443 52.2785 85.1266 52.2785ZM85.1266 50.5063C85.6582 50.5063 86.0127 50.1519 86.0127 49.7975V45.8987C86.0127 45.5443 85.6582 45.1899 85.1266 45.1899H64.7468C64.2152 45.1899 63.8608 45.5443 63.8608 45.8987V49.7975C63.8608 50.1519 64.2152 50.5063 64.7468 50.5063H85.1266ZM75.0253 24.8987C76.7975 24.8987 78.3038 23.3924 78.3038 21.6203C78.3038 19.8481 76.7975 18.3418 75.0253 18.3418C73.2532 18.3418 71.7468 19.8481 71.7468 21.6203C71.8354 23.3924 73.2532 24.8987 75.0253 24.8987ZM75.0253 26.6709C72.2785 26.6709 69.9747 24.4557 69.9747 21.6203C69.9747 18.8734 72.1899 16.5696 75.0253 16.5696C77.7722 16.5696 80.0759 18.7848 80.0759 21.6203C80.0759 24.3671 77.8608 26.6709 75.0253 26.6709ZM74.9367 39.8734C67.3165 39.8734 61.2025 33.7595 61.2025 26.1392C61.2025 18.519 67.3165 12.4051 74.9367 12.4051C82.557 12.4051 88.6709 18.519 88.6709 26.1392C88.6709 33.7595 82.557 39.8734 74.9367 39.8734ZM55.8861 7.97468C55.3544 7.97468 55 7.62025 55 7.08861V6.82278C55 3.01266 58.0127 0 61.7342 0H88.0506C91.8608 0 94.8734 3.01266 94.8734 6.82278V46.076C94.8734 46.6076 94.519 46.962 93.9873 46.962C93.4557 46.962 93.1013 46.6076 93.1013 46.076V7.97468H55.8861ZM88.1392 1.77215H61.7342C59.2532 1.77215 57.1266 3.72152 56.7722 6.20253H93.1013C92.7468 3.72152 90.6203 1.77215 88.1392 1.77215ZM77.1519 63.3544C77.1519 64.5949 76.1772 65.5696 74.9367 65.5696C73.6962 65.5696 72.7215 64.5949 72.7215 63.3544C72.7215 62.1139 73.6962 61.1392 74.9367 61.1392C76.1772 61.1392 77.1519 62.1139 77.1519 63.3544ZM56.7722 57.5949V63.1772C56.7722 66.0127 58.9873 68.2279 61.7342 68.2279H88.0506C90.7975 68.2279 93.0127 66.0127 93.0127 63.1772V57.5949H56.7722ZM56.7722 55.8228H93.1013V52.5443C93.1013 52.0127 93.4557 51.6582 93.9873 51.6582C94.519 51.6582 94.8734 52.0127 94.8734 52.5443V56.7089V63.1772C94.8734 66.8987 91.8608 70 88.1392 70H61.7342C58.0127 70 55 66.9873 55 63.1772V10.6329C55 10.1013 55.3544 9.74684 55.8861 9.74684C56.4177 9.74684 56.7722 10.1013 56.7722 10.6329V55.8228ZM66.519 34.6456C66.6076 32.519 66.8734 31.3671 67.5823 30.2152C68.8228 28.3544 71.1266 27.4684 74.8481 27.4684C78.5696 27.4684 80.8734 28.3544 82.1139 30.2152C82.8228 31.3671 83.1772 32.519 83.1772 34.6456C85.3924 32.519 86.7215 29.4177 86.7215 26.1392C86.8987 19.4937 81.5823 14.1772 74.9367 14.1772C68.2911 14.1772 62.9747 19.4937 62.9747 26.1392C62.9747 29.5063 64.3038 32.519 66.519 34.6456ZM68.2911 36.0633C70.1519 37.3038 72.4557 38.1013 74.9367 38.1013C77.4177 38.1013 79.7215 37.3924 81.5823 36.0633C81.5823 33.4051 81.4051 32.1646 80.6962 31.1899C79.8987 29.8608 78.1266 29.2405 74.9367 29.2405C71.7468 29.2405 69.9747 29.9494 69.1772 31.1899C68.4684 32.2532 68.2911 33.4051 68.2911 36.0633Z" fill="currentcolor" class="shade"/>
</g>
<defs>
<clipPath id="clip0_26_211">
<rect width="39.8734" height="70" fill="white" transform="translate(55)"/>
</clipPath>
</defs>
</svg>
