<svg width="64" height="64" viewBox="0 0 64 64" fill="none" xmlns="http://www.w3.org/2000/svg">
<path fill-rule="evenodd" clip-rule="evenodd" d="M32.3089 23.5749C34.4152 23.5749 36.1164 21.8736 36.1164 19.7673C36.1164 17.6609 34.4152 15.9597 32.3089 15.9597C30.2025 15.9597 28.5013 17.6609 28.5013 19.7673C28.5823 21.8736 30.2025 23.5749 32.3089 23.5749ZM22.9114 46.9875C22.0202 46.9875 21.2911 46.3394 21.2911 45.5293V41.9647C21.2911 41.1546 22.0202 40.5065 22.9114 40.5065H41.5443C42.4354 40.5065 43.1645 41.1546 43.1645 41.9647V45.5293C43.1645 46.3394 42.4354 46.9875 41.5443 46.9875H22.9114ZM14.8101 51.8483H49.6456V57.7622C49.6456 60.7597 47.2152 63.19 44.2987 63.19H20.157C17.2405 63.19 14.8101 60.7597 14.8101 57.7622V51.8483ZM49.8886 6.23815H14.8101C14.8101 3.24068 17.2405 0.810303 20.238 0.810303H44.4608C47.4582 0.810303 49.8886 3.24068 49.8886 6.23815ZM39.438 33.2964C39.438 29.0027 39.2759 25.6002 32.3089 25.6002C25.3418 25.6002 25.1797 29.0027 25.1797 33.2154C25.1797 33.2964 25.1797 33.3774 25.1797 33.4584L25.0987 33.3774C24.3696 32.8103 23.8025 32.2432 23.2354 31.5951C22.6683 30.947 22.1823 30.2179 21.7772 29.4078C20.9671 27.7875 20.481 25.9242 20.481 23.9799C20.481 17.4989 25.8278 12.1521 32.3089 12.1521C38.7899 12.1521 44.1367 17.4989 44.1367 23.9799C44.1367 27.8685 42.2734 31.2711 39.357 33.4584C39.438 33.4584 39.438 33.3774 39.438 33.2964Z" fill="currentcolor" class="tint"/>
<path fill-rule="evenodd" clip-rule="evenodd" d="M41.5443 47.7975H22.9114C21.5342 47.7975 20.481 46.8253 20.481 45.5291V41.9646C20.481 40.6684 21.6152 39.6962 22.9114 39.6962H41.5443C42.9215 39.6962 43.9747 40.6684 43.9747 41.9646V45.5291C43.9747 46.8253 42.8405 47.7975 41.5443 47.7975ZM41.5443 46.1772C42.0304 46.1772 42.3544 45.8532 42.3544 45.5291V41.9646C42.3544 41.6405 42.0304 41.3165 41.5443 41.3165H22.9114C22.4253 41.3165 22.1013 41.6405 22.1013 41.9646V45.5291C22.1013 45.8532 22.4253 46.1772 22.9114 46.1772H41.5443ZM32.3089 22.7646C33.9291 22.7646 35.3063 21.3873 35.3063 19.7671C35.3063 18.1468 33.9291 16.7696 32.3089 16.7696C30.6886 16.7696 29.3114 18.1468 29.3114 19.7671C29.3924 21.3873 30.6886 22.7646 32.3089 22.7646ZM32.3089 24.3848C29.7975 24.3848 27.6911 22.3595 27.6911 19.7671C27.6911 17.2557 29.7165 15.1494 32.3089 15.1494C34.8203 15.1494 36.9266 17.1747 36.9266 19.7671C36.9266 22.2785 34.9013 24.3848 32.3089 24.3848ZM32.2278 36.4557C25.2608 36.4557 19.6709 30.8658 19.6709 23.8987C19.6709 16.9316 25.2608 11.3418 32.2278 11.3418C39.1949 11.3418 44.7848 16.9316 44.7848 23.8987C44.7848 30.8658 39.1949 36.4557 32.2278 36.4557ZM14.8101 7.29114C14.3241 7.29114 14 6.96709 14 6.48101V6.23797C14 2.75443 16.7544 0 20.157 0H44.2177C47.7013 0 50.4557 2.75443 50.4557 6.23797V42.1266C50.4557 42.6127 50.1316 42.9367 49.6456 42.9367C49.1595 42.9367 48.8354 42.6127 48.8354 42.1266V7.29114H14.8101ZM44.2987 1.62025H20.157C17.8886 1.62025 15.9443 3.40253 15.6203 5.67089H48.8354C48.5114 3.40253 46.5671 1.62025 44.2987 1.62025ZM34.2532 57.9241C34.2532 59.0582 33.362 59.9494 32.2278 59.9494C31.0937 59.9494 30.2025 59.0582 30.2025 57.9241C30.2025 56.7899 31.0937 55.8987 32.2278 55.8987C33.362 55.8987 34.2532 56.7899 34.2532 57.9241ZM15.6203 52.6582V57.762C15.6203 60.3544 17.6456 62.3797 20.157 62.3797H44.2177C46.7291 62.3797 48.7544 60.3544 48.7544 57.762V52.6582H15.6203ZM15.6203 51.038H48.8354V48.0405C48.8354 47.5544 49.1595 47.2304 49.6456 47.2304C50.1316 47.2304 50.4557 47.5544 50.4557 48.0405V51.8481V57.762C50.4557 61.1646 47.7013 64 44.2987 64H20.157C16.7544 64 14 61.2456 14 57.762V9.72152C14 9.23544 14.3241 8.91139 14.8101 8.91139C15.2962 8.91139 15.6203 9.23544 15.6203 9.72152V51.038ZM24.5316 31.6759C24.6127 29.7316 24.8557 28.6785 25.5038 27.6253C26.638 25.9241 28.7443 25.1139 32.1468 25.1139C35.5494 25.1139 37.6557 25.9241 38.7899 27.6253C39.438 28.6785 39.762 29.7316 39.762 31.6759C41.7873 29.7316 43.0025 26.8962 43.0025 23.8987C43.1646 17.8228 38.3038 12.962 32.2278 12.962C26.1519 12.962 21.2911 17.8228 21.2911 23.8987C21.2911 26.9772 22.5063 29.7316 24.5316 31.6759ZM26.1519 32.9722C27.8532 34.1063 29.9595 34.8354 32.2278 34.8354C34.4962 34.8354 36.6025 34.1873 38.3038 32.9722C38.3038 30.5418 38.1418 29.4076 37.4937 28.5165C36.7646 27.3013 35.1443 26.7342 32.2278 26.7342C29.3114 26.7342 27.6911 27.3823 26.962 28.5165C26.3139 29.4886 26.1519 30.5418 26.1519 32.9722Z" fill="currentcolor" class="shade"/>
</svg>
