<svg width="150" height="125" viewBox="0 0 150 125" fill="none" xmlns="http://www.w3.org/2000/svg">
<g clip-path="url(#clip0_21_233)">
<path fill-rule="evenodd" clip-rule="evenodd" d="M52.544 57.595H90.6452V63.5317C90.6452 66.6329 87.987 69.114 84.7971 69.114H58.3921C55.2022 69.114 52.544 66.6329 52.544 63.5317V57.595ZM90.6452 7.08864H52.544C52.544 3.63294 55.2022 0.886108 58.3921 0.886108H84.7085C87.987 0.886108 90.6452 3.63294 90.6452 7.08864ZM57.8604 43.4178C59.3668 43.4178 60.5187 42.2659 60.5187 40.7595C60.5187 39.2532 59.3668 38.1013 57.8604 38.1013C56.3541 38.1013 55.2022 39.2532 55.2022 40.7595C55.2022 42.2659 56.3541 43.4178 57.8604 43.4178ZM57.8604 51.3924C53.43 51.3924 49.8857 47.8481 49.8857 43.4178C49.8857 38.9874 53.43 35.4431 57.8604 35.4431C62.2908 35.4431 65.8351 38.9874 65.8351 43.4178C65.8351 47.8481 62.2908 51.3924 57.8604 51.3924ZM57.8604 23.038C59.3668 23.038 60.5187 21.8861 60.5187 20.3798C60.5187 18.8734 59.3668 17.7215 57.8604 17.7215C56.3541 17.7215 55.2022 18.8734 55.2022 20.3798C55.2022 21.8861 56.3541 23.038 57.8604 23.038ZM57.8604 31.0127C53.43 31.0127 49.8857 27.4684 49.8857 23.038C49.8857 18.6076 53.43 15.0633 57.8604 15.0633C62.2908 15.0633 65.8351 18.6076 65.8351 23.038C65.8351 27.4684 62.2908 31.0127 57.8604 31.0127Z" fill="currentcolor" class="tint"/>
<path fill-rule="evenodd" clip-rule="evenodd" d="M57.8608 50.5063C61.7595 50.5063 64.9494 47.3165 64.9494 43.4177C64.9494 39.519 61.7595 36.3291 57.8608 36.3291C53.962 36.3291 50.7722 39.519 50.7722 43.4177C50.7722 47.3165 53.962 50.5063 57.8608 50.5063ZM57.8608 52.2785C52.9873 52.2785 49 48.2911 49 43.4177C49 38.5443 52.9873 34.557 57.8608 34.557C62.7342 34.557 66.7215 38.5443 66.7215 43.4177C66.7215 48.2911 62.7342 52.2785 57.8608 52.2785ZM57.8608 30.1266C61.7595 30.1266 64.9494 26.9367 64.9494 23.038C64.9494 19.1392 61.7595 15.9494 57.8608 15.9494C53.962 15.9494 50.7722 19.1392 50.7722 23.038C50.7722 26.9367 53.962 30.1266 57.8608 30.1266ZM57.8608 31.8987C52.9873 31.8987 49 27.9114 49 23.038C49 18.1646 52.9873 14.1772 57.8608 14.1772C62.7342 14.1772 66.7215 18.1646 66.7215 23.038C66.7215 27.9114 62.7342 31.8987 57.8608 31.8987ZM69.3797 46.962C68.8481 46.962 68.4937 46.6076 68.4937 46.076C68.4937 45.5443 68.8481 45.1899 69.3797 45.1899H84.443C84.9747 45.1899 85.3291 45.5443 85.3291 46.076C85.3291 46.6076 84.9747 46.962 84.443 46.962H69.3797ZM69.3797 42.5316C68.8481 42.5316 68.4937 42.1772 68.4937 41.6456C68.4937 41.1139 68.8481 40.7595 69.3797 40.7595H99.5063C100.038 40.7595 100.392 41.1139 100.392 41.6456C100.392 42.1772 100.038 42.5316 99.5063 42.5316H69.3797ZM69.3797 26.5823C68.8481 26.5823 68.4937 26.2278 68.4937 25.6962C68.4937 25.1646 68.8481 24.8101 69.3797 24.8101H84.443C84.9747 24.8101 85.3291 25.1646 85.3291 25.6962C85.3291 26.2278 84.9747 26.5823 84.443 26.5823H69.3797ZM69.3797 22.1519C68.8481 22.1519 68.4937 21.7975 68.4937 21.2658C68.4937 20.7342 68.8481 20.3797 69.3797 20.3797H99.5063C100.038 20.3797 100.392 20.7342 100.392 21.2658C100.392 21.7975 100.038 22.1519 99.5063 22.1519H69.3797ZM73.8101 63.3544C73.8101 64.5949 72.8354 65.5696 71.5949 65.5696C70.3544 65.5696 69.3797 64.5949 69.3797 63.3544C69.3797 62.1139 70.3544 61.1392 71.5949 61.1392C72.8354 61.1392 73.8101 62.1139 73.8101 63.3544ZM89.7595 25.6962C89.7595 25.1646 90.1139 24.8101 90.6456 24.8101C91.1772 24.8101 91.5316 25.1646 91.5316 25.6962V37.2152C91.5316 37.7468 91.1772 38.1013 90.6456 38.1013C90.1139 38.1013 89.7595 37.7468 89.7595 37.2152V25.6962ZM89.7595 6.20253C89.4937 3.72152 87.3671 1.77215 84.7975 1.77215H58.3924C55.9114 1.77215 53.7848 3.72152 53.4304 6.20253H89.7595ZM89.7595 7.97468H53.4304V12.5823C53.4304 13.1139 53.0759 13.4684 52.5443 13.4684C52.0127 13.4684 51.6582 13.1139 51.6582 12.5823V6.82278C51.6582 3.01266 54.6709 0 58.3924 0H84.7089C88.519 0 91.5316 3.01266 91.5316 6.82278V16.8354C91.5316 17.3671 91.1772 17.7215 90.6456 17.7215C90.1139 17.7215 89.7595 17.3671 89.7595 16.8354V7.97468ZM53.4304 58.481V63.2658C53.4304 66.0127 55.6456 68.2279 58.3924 68.2279H84.7089C87.4557 68.2279 89.6709 66.0127 89.6709 63.2658V58.481H53.4304ZM53.4304 56.7089H89.7595V46.076C89.7595 45.5443 90.1139 45.1899 90.6456 45.1899C91.1772 45.1899 91.5316 45.5443 91.5316 46.076V63.2658C91.5316 66.9873 88.519 70 84.7975 70H58.3924C54.6709 70 51.6582 66.9873 51.6582 63.2658V54.7595C51.6582 54.2278 52.0127 53.8734 52.5443 53.8734C53.0759 53.8734 53.4304 54.2278 53.4304 54.7595V56.7089Z" fill="currentcolor" class="shade"/>
<path fill-rule="evenodd" clip-rule="evenodd" d="M57.8604 23.9241C62.1136 23.9241 63.1769 25.4304 63.1769 29.4177V29.8608L62.8224 30.1266C61.4047 31.2785 59.6326 31.8987 57.8604 31.8987C56.8857 31.8987 55.911 31.7215 55.025 31.3671C54.2275 31.1013 53.5186 30.6582 52.8984 30.1266L52.5439 29.8608V29.4177C52.5439 25.4304 53.6072 23.9241 57.8604 23.9241ZM57.8604 25.6962C54.9364 25.6962 54.4047 26.2279 54.3161 28.9747C54.7591 29.2405 55.2022 29.5063 55.6452 29.6835C56.3541 29.9494 57.0629 30.1266 57.8604 30.1266C59.1009 30.1266 60.3414 29.7722 61.4047 28.9747C61.3161 26.2279 60.7845 25.6962 57.8604 25.6962ZM57.8604 23.9241C55.911 23.9241 54.3161 22.3291 54.3161 20.3798C54.3161 18.4304 55.911 16.8354 57.8604 16.8354C59.8098 16.8354 61.4047 18.4304 61.4047 20.3798C61.4047 22.3291 59.8098 23.9241 57.8604 23.9241ZM57.8604 22.1519C58.8351 22.1519 59.6326 21.3544 59.6326 20.3798C59.6326 19.4051 58.8351 18.6076 57.8604 18.6076C56.8857 18.6076 56.0882 19.4051 56.0882 20.3798C56.0882 21.3544 56.8857 22.1519 57.8604 22.1519Z" fill="currentcolor" class="shade"/>
<path fill-rule="evenodd" clip-rule="evenodd" d="M57.8604 44.3038C62.1136 44.3038 63.1769 45.8101 63.1769 49.7975V50.2405L62.8224 50.5064C61.4047 51.6582 59.6326 52.2785 57.8604 52.2785C56.8857 52.2785 55.911 52.1013 55.025 51.7469C54.2275 51.481 53.5186 51.038 52.8984 50.5064L52.5439 50.2405V49.7975C52.5439 45.8101 53.6072 44.3038 57.8604 44.3038ZM57.8604 46.076C54.9364 46.076 54.4047 46.6076 54.3161 49.3545C54.7591 49.6203 55.2022 49.8861 55.6452 50.0633C56.3541 50.3291 57.0629 50.5064 57.8604 50.5064C59.1009 50.5064 60.3414 50.1519 61.4047 49.3545C61.3161 46.6076 60.7845 46.076 57.8604 46.076ZM57.8604 44.3038C55.911 44.3038 54.3161 42.7089 54.3161 40.7595C54.3161 38.8101 55.911 37.2152 57.8604 37.2152C59.8098 37.2152 61.4047 38.8101 61.4047 40.7595C61.4047 42.7089 59.8098 44.3038 57.8604 44.3038ZM57.8604 42.5317C58.8351 42.5317 59.6326 41.7342 59.6326 40.7595C59.6326 39.7848 58.8351 38.9874 57.8604 38.9874C56.8857 38.9874 56.0882 39.7848 56.0882 40.7595C56.0882 41.7342 56.8857 42.5317 57.8604 42.5317Z" fill="currentcolor" class="shade"/>
</g>
<defs>
<clipPath id="clip0_21_233">
<rect width="51.3924" height="70" fill="white" transform="translate(49)"/>
</clipPath>
</defs>
</svg>
