<svg width="150" height="110" viewBox="0 0 150 110" fill="none" xmlns="http://www.w3.org/2000/svg">
<path fill-rule="evenodd" clip-rule="evenodd" d="M98 74C89.2 74 82 66.8 82 58C82 49.2 89.2 42 98 42C106.8 42 114 49.2 114 58C114 66.8 106.8 74 98 74ZM37 12V6H107V12H37Z" fill="currentcolor" class="tint"/>
<path fill-rule="evenodd" clip-rule="evenodd" d="M102.5 13.5C101.7 13.5 101 12.8 101 12C101 11.2 101.7 10.5 102.5 10.5C103.3 10.5 104 11.2 104 12C104 12.8 103.3 13.5 102.5 13.5ZM96.5 13.5C95.7 13.5 95 12.8 95 12C95 11.2 95.7 10.5 96.5 10.5C97.3 10.5 98 11.2 98 12C98 12.8 97.3 13.5 96.5 13.5ZM90.5 13.5C89.7 13.5 89 12.8 89 12C89 11.2 89.7 10.5 90.5 10.5C91.3 10.5 92 11.2 92 12C92 12.8 91.3 13.5 90.5 13.5ZM71 35C70.4 35 70 34.6 70 34C70 33.4 70.4 33 71 33H84C84.6 33 85 33.4 85 34C85 34.6 84.6 35 84 35H71ZM71 29C70.4 29 70 28.6 70 28C70 27.4 70.4 27 71 27H100C100.6 27 101 27.4 101 28C101 28.6 100.6 29 100 29H71ZM46 61C45.4 61 45 60.6 45 60C45 59.4 45.4 59 46 59H64C64.6 59 65 59.4 65 60C65 60.6 64.6 61 64 61H46ZM46 55C45.4 55 45 54.6 45 54C45 53.4 45.4 53 46 53H59C59.6 53 60 53.4 60 54C60 54.6 59.6 55 59 55H46ZM46 49C45.4 49 45 48.6 45 48C45 47.4 45.4 47 46 47H48C48.6 47 49 47.4 49 48C49 48.6 48.6 49 48 49H46ZM53 49C52.4 49 52 48.6 52 48C52 47.4 52.4 47 53 47H74C74.6 47 75 47.4 75 48C75 48.6 74.6 49 74 49H53ZM38 11H85C85.6 11 86 11.4 86 12C86 12.6 85.6 13 85 13H37C36.4 13 36 12.6 36 12V6C36 5.4 36.4 5 37 5H107C107.6 5 108 5.4 108 6V37C108 37.6 107.6 38 107 38C106.4 38 106 37.6 106 37V7H38V11ZM38 69H79C79.6 69 80 69.4 80 70C80 70.6 79.6 71 79 71H37C36.4 71 36 70.6 36 70V17C36 16.4 36.4 16 37 16C37.6 16 38 16.4 38 17V69ZM98 73C106.3 73 113 66.3 113 58C113 49.7 106.3 43 98 43C89.7 43 83 49.7 83 58C83 66.3 89.7 73 98 73ZM98 75C88.6 75 81 67.4 81 58C81 48.6 88.6 41 98 41C107.4 41 115 48.6 115 58C115 67.4 107.4 75 98 75ZM99.4 58L105.1 63.7C105.5 64.1 105.5 64.7 105.1 65.1C104.7 65.5 104.1 65.5 103.7 65.1L98 59.4L92.3 65.1C91.9 65.5 91.3 65.5 90.9 65.1C90.5 64.7 90.5 64.1 90.9 63.7L96.6 58L90.9 52.3C90.5 51.9 90.5 51.3 90.9 50.9C91.3 50.5 91.9 50.5 92.3 50.9L98 56.6L103.7 50.9C104.1 50.5 104.7 50.5 105.1 50.9C105.5 51.3 105.5 51.9 105.1 52.3L99.4 58Z" fill="currentcolor" class="shade"/>
<path fill-rule="evenodd" clip-rule="evenodd" d="M55.6 41.3C60.9 41.3 65.2 37 65.2 31.7C65.2 26.4 60.9 22 55.6 22C50.3 22 46 26.3 46 31.6C46 36.9 50.2 41.3 55.6 41.3ZM55.6 43.3C49.2 43.3 44 38.1 44 31.7C44 25.3 49.1 20 55.6 20C62.1 20 67.2 25.2 67.2 31.6C67.2 38 62 43.3 55.6 43.3Z" fill="currentcolor" class="shade"/>
<path fill-rule="evenodd" clip-rule="evenodd" d="M55.5996 34.8C51.0996 34.8 50.2996 35.7 50.1996 39.7C50.8996 40.1 51.5996 40.5 52.2996 40.8C53.2996 41.2 54.4996 41.4 55.5996 41.4C57.4996 41.4 59.3996 40.8 60.9996 39.7C60.8996 35.7 60.0996 34.8 55.5996 34.8ZM55.5996 32.8C61.5996 32.8 62.9996 34.8 62.9996 40.2V40.7L62.4996 41C60.4996 42.5 58.0996 43.3 55.4996 43.3C54.0996 43.3 52.7996 43.1 51.4996 42.6C50.3996 42.2 49.3996 41.7 48.4996 41L48.0996 40.7V40.2C48.1996 34.8 49.5996 32.8 55.5996 32.8ZM55.5996 30.2C56.8996 30.2 57.9996 29.1 57.9996 27.8C57.9996 26.5 56.8996 25.4 55.5996 25.4C54.2996 25.4 53.1996 26.5 53.1996 27.8C53.1996 29.2 54.1996 30.2 55.5996 30.2ZM55.5996 32.2C53.1996 32.2 51.1996 30.2 51.1996 27.8C51.1996 25.4 53.1996 23.4 55.5996 23.4C57.9996 23.4 59.9996 25.4 59.9996 27.8C59.9996 30.3 57.9996 32.2 55.5996 32.2Z" fill="currentcolor" class="shade"/>
</svg>
