<svg width="66" height="64" viewBox="0 0 66 64" fill="none" xmlns="http://www.w3.org/2000/svg">
<path fill-rule="evenodd" clip-rule="evenodd" d="M16.3748 24.8887C17.9621 24.8887 19.2153 23.6355 19.2153 22.0481C19.2153 20.4608 17.9621 19.2076 16.3748 19.2076C14.7874 19.2076 13.5342 20.4608 13.5342 22.0481C13.5342 23.6355 14.7874 24.8887 16.3748 24.8887ZM25.2304 25.3064C25.2304 20.3773 21.2203 16.4507 16.3748 16.4507C11.5292 16.4507 7.43551 20.3773 7.43551 25.3064C7.43551 26.8102 7.76969 28.1469 8.43804 29.4C8.77222 29.9849 9.1064 30.5697 9.52412 31.0709C9.94184 31.5722 10.4431 31.9899 10.9444 32.4076C10.9444 32.4076 11.0279 32.4076 11.0279 32.4912C11.0279 29.4836 11.1115 27.1443 16.3748 27.1443C21.638 27.1443 21.7216 29.4836 21.7216 32.4912C23.8102 30.7368 25.2304 28.1469 25.2304 25.3064ZM59.3165 36.2507C57.1444 34.7469 54.5545 33.9114 51.7975 33.9114C44.4456 33.9114 38.4304 39.9266 38.4304 47.2785C38.4304 51.2887 40.1849 54.8811 42.9418 57.3038H0.83551V8.84814H59.3165V36.2507Z" fill="currentcolor" class="tint"/>
<path fill-rule="evenodd" clip-rule="evenodd" d="M55.557 10.1013C54.8886 10.1013 54.3038 9.51646 54.3038 8.8481C54.3038 8.17975 54.8886 7.59494 55.557 7.59494C56.2253 7.59494 56.8101 8.17975 56.8101 8.8481C56.8101 9.51646 56.2253 10.1013 55.557 10.1013ZM50.5443 10.1013C49.8759 10.1013 49.2911 9.51646 49.2911 8.8481C49.2911 8.17975 49.8759 7.59494 50.5443 7.59494C51.2127 7.59494 51.7975 8.17975 51.7975 8.8481C51.7975 9.51646 51.2127 10.1013 50.5443 10.1013ZM45.5316 10.1013C44.8633 10.1013 44.2785 9.51646 44.2785 8.8481C44.2785 8.17975 44.8633 7.59494 45.5316 7.59494C46.2 7.59494 46.7848 8.17975 46.7848 8.8481C46.7848 9.51646 46.2 10.1013 45.5316 10.1013ZM29.2405 28.0633C28.7392 28.0633 28.4051 27.7291 28.4051 27.2278C28.4051 26.7266 28.7392 26.3924 29.2405 26.3924H40.1013C40.6025 26.3924 40.9367 26.7266 40.9367 27.2278C40.9367 27.7291 40.6025 28.0633 40.1013 28.0633H29.2405ZM29.2405 23.0506C28.7392 23.0506 28.4051 22.7165 28.4051 22.2152C28.4051 21.7139 28.7392 21.3797 29.2405 21.3797H53.4684C53.9696 21.3797 54.3038 21.7139 54.3038 22.2152C54.3038 22.7165 53.9696 23.0506 53.4684 23.0506H29.2405ZM8.35443 49.7848C7.85316 49.7848 7.51899 49.4506 7.51899 48.9494C7.51899 48.4481 7.85316 48.1139 8.35443 48.1139H23.3924C23.8937 48.1139 24.2278 48.4481 24.2278 48.9494C24.2278 49.4506 23.8937 49.7848 23.3924 49.7848H8.35443ZM8.35443 44.7722C7.85316 44.7722 7.51899 44.438 7.51899 43.9367C7.51899 43.4354 7.85316 43.1013 8.35443 43.1013H19.2152C19.7165 43.1013 20.0506 43.4354 20.0506 43.9367C20.0506 44.438 19.7165 44.7722 19.2152 44.7722H8.35443ZM8.35443 39.7595C7.85316 39.7595 7.51899 39.4253 7.51899 38.9241C7.51899 38.4228 7.85316 38.0886 8.35443 38.0886H10.0253C10.5266 38.0886 10.8608 38.4228 10.8608 38.9241C10.8608 39.4253 10.5266 39.7595 10.0253 39.7595H8.35443ZM14.2025 39.7595C13.7013 39.7595 13.3671 39.4253 13.3671 38.9241C13.3671 38.4228 13.7013 38.0886 14.2025 38.0886H31.7468C32.2481 38.0886 32.5823 38.4228 32.5823 38.9241C32.5823 39.4253 32.2481 39.7595 31.7468 39.7595H14.2025ZM1.67089 8.01266H40.9367C41.438 8.01266 41.7722 8.34684 41.7722 8.8481C41.7722 9.34937 41.438 9.68354 40.9367 9.68354H0.835443C0.334177 9.68354 0 9.34937 0 8.8481V3.83544C0 3.33418 0.334177 3 0.835443 3H59.3165C59.8177 3 60.1519 3.33418 60.1519 3.83544V29.7342C60.1519 30.2354 59.8177 30.5696 59.3165 30.5696C58.8152 30.5696 58.481 30.2354 58.481 29.7342V4.67089H1.67089V8.01266ZM1.67089 56.4684H35.924C36.4253 56.4684 36.7595 56.8025 36.7595 57.3038C36.7595 57.8051 36.4253 58.1392 35.924 58.1392H0.835443C0.334177 58.1392 0 57.8051 0 57.3038V13.0253C0 12.5241 0.334177 12.1899 0.835443 12.1899C1.33671 12.1899 1.67089 12.5241 1.67089 13.0253V56.4684ZM51.7975 59.8101C58.7316 59.8101 64.3291 54.2127 64.3291 47.2785C64.3291 40.3443 58.7316 34.7468 51.7975 34.7468C44.8633 34.7468 39.2658 40.3443 39.2658 47.2785C39.2658 54.2127 44.8633 59.8101 51.7975 59.8101ZM51.7975 61.481C43.9443 61.481 37.5949 55.1316 37.5949 47.2785C37.5949 39.4253 43.9443 33.076 51.7975 33.076C59.6506 33.076 66 39.4253 66 47.2785C66 55.1316 59.6506 61.481 51.7975 61.481ZM52.6329 46.443H59.3165C59.8177 46.443 60.1519 46.7772 60.1519 47.2785C60.1519 47.7797 59.8177 48.1139 59.3165 48.1139H52.6329V54.7975C52.6329 55.2987 52.2987 55.6329 51.7975 55.6329C51.2962 55.6329 50.962 55.2987 50.962 54.7975V48.1139H44.2785C43.7772 48.1139 43.443 47.7797 43.443 47.2785C43.443 46.7772 43.7772 46.443 44.2785 46.443H50.962V39.7595C50.962 39.2582 51.2962 38.9241 51.7975 38.9241C52.2987 38.9241 52.6329 39.2582 52.6329 39.7595V46.443Z" fill="currentcolor" class="shade"/>
<path fill-rule="evenodd" clip-rule="evenodd" d="M16.3747 33.3264C20.8026 33.3264 24.395 29.734 24.395 25.3062C24.395 20.8783 20.8026 17.2024 16.3747 17.2024C11.9469 17.2024 8.35448 20.7948 8.35448 25.2226C8.35448 29.6505 11.8633 33.3264 16.3747 33.3264ZM16.3747 34.9973C11.0279 34.9973 6.68359 30.653 6.68359 25.3062C6.68359 19.9593 10.9444 15.5315 16.3747 15.5315C21.8051 15.5315 26.0659 19.8758 26.0659 25.2226C26.0659 30.5695 21.7216 34.9973 16.3747 34.9973Z" fill="currentcolor" class="shade"/>
<path fill-rule="evenodd" clip-rule="evenodd" d="M16.3747 27.8961C12.6152 27.8961 11.9469 28.648 11.8633 31.9898C12.4481 32.324 13.0329 32.6581 13.6177 32.9088C14.4532 33.243 15.4557 33.41 16.3747 33.41C17.9621 33.41 19.5494 32.9088 20.8861 31.9898C20.8026 28.648 20.1342 27.8961 16.3747 27.8961ZM16.3747 26.2252C21.3874 26.2252 22.557 27.8961 22.557 32.4075V32.8252L22.1393 33.0759C20.4684 34.329 18.4633 34.9974 16.2912 34.9974C15.1215 34.9974 14.0355 34.8303 12.9494 34.4126C12.0304 34.0784 11.195 33.6607 10.4431 33.0759L10.1089 32.8252V32.4075C10.1924 27.8961 11.3621 26.2252 16.3747 26.2252ZM16.3747 24.0531C17.4608 24.0531 18.3798 23.1341 18.3798 22.048C18.3798 20.9619 17.4608 20.043 16.3747 20.043C15.2886 20.043 14.3696 20.9619 14.3696 22.048C14.3696 23.2176 15.2051 24.0531 16.3747 24.0531ZM16.3747 25.724C14.3696 25.724 12.6988 24.0531 12.6988 22.048C12.6988 20.043 14.3696 18.3721 16.3747 18.3721C18.3798 18.3721 20.0507 20.043 20.0507 22.048C20.0507 24.1366 18.3798 25.724 16.3747 25.724Z" fill="currentcolor" class="shade"/>
</svg>
