<svg width="150" height="106" viewBox="0 0 150 106" fill="none" xmlns="http://www.w3.org/2000/svg">
<g clip-path="url(#clip0_21_303)">
<path fill-rule="evenodd" clip-rule="evenodd" d="M85 19.0352H100V23.0352H85V19.0352ZM47.5 2.03516H63V5.93516H47.5V2.03516ZM41.7 36.9352V40.8352H70.7V36.9352C70.7 34.8352 69.1 33.0352 67.1 33.0352H45.3C43.3 33.0352 41.7 34.8352 41.7 36.9352ZM38.8 9.03516H73.1C75.8 9.03516 77.9 11.2352 77.9 13.8352V60.1352C77.9 62.8352 75.7 64.9352 73.1 64.9352H38.8C36.2 65.0352 34 62.8352 34 60.2352V13.8352C34 11.2352 36.2 9.03516 38.8 9.03516Z" fill="currentcolor" class="tint"/>
<path fill-rule="evenodd" clip-rule="evenodd" d="M64.2 57.0352H67.3C68.7 57.0352 69.9 55.7352 69.9 54.0352V44.0352C69.9 43.4352 70.3 43.0352 70.9 43.0352C71.5 43.0352 71.9 43.4352 71.9 44.0352V54.0352C71.9 56.7352 69.9 59.0352 67.3 59.0352H64.2C63.6 59.0352 63.2 58.6352 63.2 58.0352C63.2 57.4352 63.7 57.0352 64.2 57.0352ZM58.4 57.0352H60.3C60.9 57.0352 61.3 57.4352 61.3 58.0352C61.3 58.6352 60.9 59.0352 60.3 59.0352H58.4C57.8 59.0352 57.4 58.6352 57.4 58.0352C57.4 57.4352 57.9 57.0352 58.4 57.0352ZM43 44.0352V54.0352C43 55.7352 44.2 57.0352 45.6 57.0352H54.5C55.1 57.0352 55.5 57.4352 55.5 58.0352C55.5 58.6352 55.1 59.0352 54.5 59.0352H45.6C43 59.0352 41 56.7352 41 54.0352V44.0352C41 43.4352 41.4 43.0352 42 43.0352C42.6 43.0352 43 43.4352 43 44.0352ZM42.7 36.9352C42.7 37.5352 42.3 37.9352 41.7 37.9352C41.1 37.9352 40.7 37.5352 40.7 36.9352C40.7 34.2352 42.8 32.0352 45.3 32.0352H67C69.6 32.0352 71.6 34.2352 71.6 36.9352C71.6 37.5352 71.2 37.9352 70.6 37.9352C70 37.9352 69.6 37.5352 69.6 36.9352C69.6 35.3352 68.4 34.0352 67 34.0352H45.3C43.9 34.0352 42.7 35.3352 42.7 36.9352ZM64 42.0352V47.0352C64 47.6352 63.6 48.0352 63 48.0352C62.4 48.0352 62 47.6352 62 47.0352V42.0352H42C41.4 42.0352 41 41.6352 41 41.0352C41 40.4352 41.4 40.0352 42 40.0352H70C70.6 40.0352 71 40.4352 71 41.0352C71 41.6352 70.6 42.0352 70 42.0352H64ZM40 10.0352C37.2 10.0352 35 12.2352 35 15.0352V59.0352C35 61.8352 37.2 64.0352 40 64.0352H72C74.8 64.0352 77 61.8352 77 59.0352V15.0352C77 12.2352 74.8 10.0352 72 10.0352H40ZM43 20.0352C42.4 20.0352 42 19.6352 42 19.0352C42 18.4352 42.4 18.0352 43 18.0352H69C69.6 18.0352 70 18.4352 70 19.0352C70 19.6352 69.6 20.0352 69 20.0352H43ZM98 50.0352H102V45.5352L100 44.2352L98 45.5352V50.0352ZM99 22.0352V21.0352C99 20.4352 98.6 20.0352 98.1 20.0352H86.9C86.4 20.0352 86 20.4352 86 21.0352V22.0352H99ZM63 4.03516V3.03516C63 2.43516 62.6 2.03516 62 2.03516H50C49.4 2.03516 49 2.43516 49 3.03516V4.03516H63ZM86 26.0352H99V24.0352H86V26.0352ZM101 38.0352V42.5352L103.6 44.2352C103.9 44.4352 104 44.7352 104 45.0352V51.0352C104 51.6352 103.6 52.0352 103 52.0352H97C96.4 52.0352 96 51.6352 96 51.0352V45.0352C96 44.7352 96.2 44.4352 96.4 44.2352L99 42.5352V38.0352H84C83.4 38.0352 83 37.6352 83 37.0352C83 36.4352 83.4 36.0352 84 36.0352H108C108.6 36.0352 109 36.4352 109 37.0352C109 37.6352 108.6 38.0352 108 38.0352H101ZM49 8.03516H63V6.03516H49V8.03516ZM79 28.0352V59.0352C79 61.0352 78.2 62.7352 76.9 64.0352H110C112.8 64.0352 115 61.8352 115 59.0352V33.0352C115 30.2352 112.8 28.0352 110 28.0352H79ZM79 26.0352H84V21.0352C84 19.4352 85.3 18.0352 86.9 18.0352H98.1C99.7 18.0352 101 19.4352 101 21.0352V26.0352H110C113.9 26.0352 117 29.1352 117 33.0352V59.0352C117 62.9352 113.9 66.0352 110 66.0352H72H40C36.1 66.0352 33 62.9352 33 59.0352V15.0352C33 11.1352 36.1 8.03516 40 8.03516H47V3.03516C47 1.33516 48.3 0.0351562 50 0.0351562H62C63.7 0.0351562 65 1.33516 65 3.03516V8.03516H72C75.9 8.03516 79 11.1352 79 15.0352V26.0352Z" fill="currentcolor" class="shade"/>
</g>
<defs>
<clipPath id="clip0_21_303">
<rect width="84" height="66" fill="white" transform="translate(33 0.0351562)"/>
</clipPath>
</defs>
</svg>
