<svg width="36" height="35" viewBox="0 0 36 35" fill="none" xmlns="http://www.w3.org/2000/svg">
<g clip-path="url(#clip0_450_1016)">
<path fill-rule="evenodd" clip-rule="evenodd" d="M18 32.75L34.5 22.15C35 21.85 35.6 21.95 35.9 22.45C36.2 22.95 36.1 23.55 35.6 23.85L18.6 34.85C18.3 35.05 17.8 35.05 17.5 34.85L0.500012 23.85C1.2219e-05 23.55 -0.0999878 22.95 0.200012 22.45C0.500012 21.95 1.10001 21.85 1.60001 22.15L18 32.75ZM20.5 10.15C21 9.85 21.6 9.95 21.9 10.45C22.2 10.95 22.1 11.55 21.6 11.85L14.8 16.05C14.3 16.35 13.7 16.25 13.4 15.75C13.1 15.25 13.2 14.65 13.7 14.35L20.5 10.15ZM20.5 6.15C21 5.85 21.6 5.95 21.9 6.45C22.2 6.95 22.1 7.55 21.6 7.85L11.5 14.25C11 14.55 10.4 14.45 10.1 13.95C9.80001 13.45 9.90001 12.85 10.4 12.55L20.5 6.15ZM17.5 4.15C18 3.85 18.6 3.95 18.9 4.45C19.2 4.95 19.1 5.55 18.6 5.85L8.40001 12.25C7.90001 12.55 7.30001 12.35 7.00001 11.95C6.70001 11.45 6.80001 10.85 7.30001 10.55L17.5 4.15ZM18 26.75L34.5 16.15C35 15.85 35.6 15.95 35.9 16.45C36.2 16.95 36.1 17.55 35.6 17.85L18.6 28.85C18.3 29.05 17.8 29.05 17.5 28.85L0.500012 17.85C1.2219e-05 17.55 -0.0999878 16.95 0.200012 16.45C0.500012 15.95 1.10001 15.85 1.60001 16.15L18 26.75ZM35.5 12.35L18.5 22.85C18.2 23.05 17.8 23.05 17.4 22.85L0.400012 12.35C-0.199988 11.95 -0.199988 11.05 0.400012 10.65L17.4 0.15C17.7 -0.05 18.1 -0.05 18.5 0.15L35.5 10.65C36.2 10.95 36.2 11.95 35.5 12.35ZM18 2.15L2.90001 11.45L18 20.75L33.1 11.45L18 2.15Z" fill="currentColor"/>
</g>
<defs>
<clipPath id="clip0_450_1016">
<rect width="36" height="35" fill="white"/>
</clipPath>
</defs>
</svg>
