<svg width="70" height="45" viewBox="0 0 70 45" fill="none" xmlns="http://www.w3.org/2000/svg">
<path d="M7.36845 37.0039H63.8158V7.3457H68.1579V42.2377H7.36845V37.0039Z" fill="currentcolor" class="tint"/>
<path d="M18.421 19.2824C18.421 11.6757 24.6066 5.50928 32.2368 5.50928C39.8671 5.50928 46.0526 11.6757 46.0526 19.2824V21.1188C46.0526 28.7255 39.8671 34.892 32.2368 34.892C24.6066 34.892 18.421 28.7255 18.421 21.1188V19.2824Z" fill="currentcolor" class="tint"/>
<path fill-rule="evenodd" clip-rule="evenodd" d="M63.1944 0C63.7314 0 64.1667 0.42897 64.1667 0.958132L64.1662 5.74753L69.0278 5.74879C69.5647 5.74879 70 6.17776 70 6.70692V43.1159C70 43.6451 69.5647 44.0741 69.0278 44.0741H6.80556C6.26861 44.0741 5.83333 43.6451 5.83333 43.1159L5.8324 38.3252L0.972222 38.3253C0.435279 38.3253 0 37.8963 0 37.3671V0.958132C0 0.42897 0.435279 0 0.972222 0H63.1944ZM68.0555 7.66506L64.1662 7.66476L64.1667 37.3671C64.1667 37.8963 63.7314 38.3253 63.1944 38.3253L7.777 38.3252L7.77778 42.1578H68.0555V7.66506ZM62.2222 1.91626H1.94444V36.409H62.2222V1.91626ZM32.0833 3.83253C40.6744 3.83253 47.6389 10.6961 47.6389 19.1626C47.6389 27.6292 40.6744 34.4928 32.0833 34.4928C23.4922 34.4928 16.5278 27.6292 16.5278 19.1626C16.5278 10.6961 23.4922 3.83253 32.0833 3.83253ZM32.0833 5.74879C24.5661 5.74879 18.4722 11.7544 18.4722 19.1626C18.4722 26.5709 24.5661 32.5765 32.0833 32.5765C39.6005 32.5765 45.6944 26.5709 45.6944 19.1626C45.6944 11.7544 39.6005 5.74879 32.0833 5.74879ZM32.0833 8.54334C32.6203 8.54334 33.0556 8.97231 33.0556 9.50148L33.0561 11.2396C35.7785 11.5869 37.9167 13.37 37.9167 15.6495C37.9167 16.1787 37.4814 16.6076 36.9444 16.6076C36.4075 16.6076 35.9722 16.1787 35.9722 15.6495C35.9722 14.5191 34.7632 13.4717 33.0568 13.1767L33.0561 18.2659C35.7785 18.6132 37.9167 20.3963 37.9167 22.6758C37.9167 24.9553 35.7785 26.7384 33.0561 27.0856L33.0556 28.8238C33.0556 29.353 32.6203 29.7819 32.0833 29.7819C31.5464 29.7819 31.1111 29.353 31.1111 28.8238L31.1109 27.0857C28.3883 26.7385 26.25 24.9554 26.25 22.6758C26.25 22.1466 26.6853 21.7177 27.2222 21.7177C27.7592 21.7177 28.1944 22.1466 28.1944 22.6758C28.1944 23.8065 29.4041 24.8541 31.1113 25.1488L31.1109 20.0594C28.3883 19.7122 26.25 17.9291 26.25 15.6495C26.25 13.3699 28.3883 11.5868 31.1109 11.2396L31.1111 9.50148C31.1111 8.97231 31.5464 8.54334 32.0833 8.54334ZM33.0568 20.203V25.1485C34.7632 24.8536 35.9722 23.8062 35.9722 22.6758C35.9722 21.5454 34.7632 20.498 33.0568 20.203ZM28.1944 15.6495C28.1944 16.7802 29.4041 17.8278 31.1113 18.1225V13.1765C29.4041 13.4711 28.1944 14.5188 28.1944 15.6495Z" fill="currentcolor" class="shade"/>
</svg>
