<?xml version="1.0" encoding="UTF-8" standalone="no"?>
<svg
   width="35"
   height="33"
   viewBox="0 0 35 33"
   fill="none"
   version="1.1"
   id="svg10"
   xmlns="http://www.w3.org/2000/svg"
   xmlns:svg="http://www.w3.org/2000/svg">
  <defs
     id="defs14" />
  <path
     d="m 22.533444,19.384548 v -1.6181 c -0.7895,-0.0753 -1.5357,-0.2823 -2.2387,-0.6209 -0.6922,-0.3513 -1.3033,-0.8154 -1.8332,-1.3924 l 1.1518,-1.8251 c 0.8544,0.9407 1.8278,1.5115 2.9201,1.7122 v -3.0293 l -0.876,-0.207 c -1.0599,-0.2258 -1.817,-0.6021 -2.2712,-1.129 -0.4542,-0.5268 -0.6814,-1.2794 -0.6814,-2.25784 0,-0.75263 0.1515,-1.40491 0.4543,-1.95683 0.3136,-0.55193 0.757,-0.98469 1.3303,-1.29829 0.584,-0.31359 1.2653,-0.48294 2.044,-0.50802 v -1.56171 h 1.087 v 1.61815 c 0.6597,0.07527 1.314,0.23834 1.9629,0.48921 0.6489,0.25088 1.2492,0.58329 1.8007,0.99724 l -0.9409,1.97565 c -0.5083,-0.35123 -0.995,-0.63347 -1.46,-0.84671 -0.4651,-0.21325 -0.9193,-0.36377 -1.3627,-0.45158 v 2.99173 l 0.8598,0.1693 c 1.1356,0.2509 1.9521,0.6397 2.4496,1.1666 0.5083,0.5143 0.7625,1.2356 0.7625,2.1638 0,0.7401 -0.1677,1.3924 -0.5029,1.9568 -0.3245,0.552 -0.7895,0.991 -1.3952,1.3171 -0.6056,0.3262 -1.3303,0.5143 -2.1738,0.5645 v 1.5805 z m 0,-9.0692 v -2.93521 c -0.5299,0.02509 -0.9625,0.16307 -1.2978,0.41395 -0.3245,0.25087 -0.4867,0.58956 -0.4867,1.01605 0,0.30105 0.0487,0.55193 0.146,0.75261 0.1082,0.1882 0.2758,0.3387 0.5029,0.4516 0.2271,0.1129 0.5354,0.207 0.9247,0.2822 z m 1.087,5.419 c 0.584,-0.0502 1.049,-0.207 1.3951,-0.4704 0.3569,-0.276 0.5354,-0.6335 0.5354,-1.0725 0,-0.2885 -0.0487,-0.5206 -0.146,-0.6962 -0.0866,-0.1756 -0.2542,-0.3199 -0.5029,-0.4328 -0.2488,-0.1129 -0.6003,-0.2069 -1.0545,-0.2822 l -0.2271,-0.0564 z"
     id="path2"
     fill="currentcolor" />
  <path
     fill-rule="evenodd"
     clip-rule="evenodd"
     d="m 23.383744,20.302648 c 4.956,-0.1618 8.9239,-4.2304 8.9239,-9.2257 0,-5.09804 -4.1327,-9.23079 -9.2307,-9.23079 -5.098,0 -9.2308,4.13275 -9.2308,9.23079 0,1.3208 0.2774,2.5768 0.7772,3.713 -0.6561,0.0449 -1.2923,0.1619 -1.9008,0.3432 -0.6481,-2.3391 -2.7925,-4.0562 -5.33793,-4.0562 -3.05881,0 -5.53846,2.4796 -5.53846,5.5384 0,2.7854 2.05619,5.0906 4.73349,5.4804 -0.07769,0.4694 -0.11811,0.9513 -0.11811,1.4427 0,0.1359 0.0031,0.2711 0.00922,0.4056 C 2.823544,23.493848 0,20.384348 0,16.615348 c 0,-4.0784 3.306204,-7.38458 7.384614,-7.38458 1.74739,0 3.35303,0.60688 4.61763,1.62148 C 12.121944,4.838328 17.034344,0 23.076944,0 c 6.1176,0 11.0769,4.959308 11.0769,11.076948 0,5.8453 -4.5276,10.6331 -10.2672,11.0478 -0.1025,-0.6326 -0.2727,-1.2425 -0.5029,-1.8221 z"
     id="path4"
     fill="currentcolor" />
  <path
     d="m 14.736344,20.769248 v 10.6154"
     stroke="currentcolor"
     stroke-width="1.84615"
     stroke-linecap="square"
     id="path6" />
  <path
     d="m 20.373044,24.955848 -5.5712,-5.5713 -5.57128,5.5713"
     stroke="currentcolor"
     stroke-width="1.84615"
     stroke-linecap="square"
     id="path8" />
</svg>
