<svg width="28" height="37" viewBox="0 0 28 37" fill="none" xmlns="http://www.w3.org/2000/svg">
<path d="M20 35.5H11.5V30.5H25.5V35.5H18" stroke="currentcolor" stroke-width="2" stroke-linecap="round"/>
<path d="M24.5 29.5V9.5C23.5 9.5 20.9961 10.5309 20.5 14.5C20 18.5 18 20.5 14.5 20" stroke="currentcolor" stroke-width="2" stroke-linecap="round"/>
<path d="M13 30V27.5C10.5 26 9.3 24.9 6.5 22.5C3 19.5 2.5 18 2.5 16C2.5 14.4 2.5 8.33333 2.5 5.5C3.83333 5.66667 6.5 6.9 6.5 10.5C6.5 15 7.5 18 11 19.5" stroke="currentcolor" stroke-width="2" stroke-linecap="round"/>
<circle cx="14" cy="8" r="7" stroke="currentcolor" stroke-width="2"/>
<path d="M13.6467 13V11.9688C13.1336 11.9209 12.6485 11.789 12.1916 11.5731C11.7417 11.3493 11.3445 11.0536 11 10.6859L11.7487 9.52278C12.304 10.1223 12.9367 10.486 13.6467 10.6139V8.68345L13.0773 8.55156C12.3884 8.40767 11.8963 8.16787 11.6011 7.83213C11.3058 7.4964 11.1582 7.01679 11.1582 6.39329C11.1582 5.91367 11.2566 5.498 11.4534 5.14628C11.6573 4.79456 11.9455 4.51878 12.3181 4.31894C12.6977 4.1191 13.1406 4.01119 13.6467 3.9952V3H14.3533V4.03117C14.7821 4.07914 15.2074 4.18305 15.6292 4.34293C16.051 4.5028 16.4411 4.71463 16.7996 4.97842L16.188 6.23741C15.8576 6.01359 15.5413 5.83373 15.239 5.69784C14.9367 5.56195 14.6415 5.46603 14.3533 5.41007V7.31655L14.9121 7.42446C15.6503 7.58433 16.181 7.83213 16.5044 8.16787C16.8348 8.4956 17 8.95524 17 9.54676C17 10.0184 16.891 10.4341 16.6731 10.7938C16.4622 11.1455 16.1599 11.4253 15.7663 11.6331C15.3726 11.8409 14.9016 11.9608 14.3533 11.9928V13H13.6467ZM13.6467 7.22062V5.35012C13.3023 5.36611 13.0211 5.45404 12.8032 5.61391C12.5923 5.77378 12.4868 5.98961 12.4868 6.26139C12.4868 6.45324 12.5185 6.61311 12.5817 6.74101C12.652 6.86091 12.761 6.95683 12.9086 7.02878C13.0562 7.10072 13.2566 7.16067 13.5097 7.20863L13.6467 7.22062ZM14.3533 10.6739C14.7329 10.6419 15.0351 10.542 15.2601 10.3741C15.4921 10.1982 15.6081 9.97042 15.6081 9.69065C15.6081 9.50679 15.5764 9.35891 15.5132 9.247C15.4569 9.13509 15.348 9.04317 15.1863 8.97122C15.0246 8.89928 14.7961 8.83933 14.5009 8.79137L14.3533 8.7554V10.6739Z" fill="currentcolor"/>
<path d="M15 15C15.5 16 16 16.5 19 18" stroke="currentcolor" stroke-width="2" stroke-linecap="round"/>
</svg>
