<svg
   width="31.999998"
   height="31.999998"
   viewBox="0 0 8.4666661 8.4666661"
   version="1.1"
   id="svg5"
   xmlns="http://www.w3.org/2000/svg"
   xmlns:svg="http://www.w3.org/2000/svg">
  <defs
     id="defs2" />
  <g
     id="layer1">
    <path
       fill-rule="evenodd"
       clip-rule="evenodd"
       d="m 5.1604931,1.1139367 c 0,-0.39404654 -0.3013075,-0.69537786 -0.6953779,-0.69537786 -0.394044,0 -0.695378,0.30133132 -0.695378,0.69537786 0,0.3940492 0.301334,0.6953806 0.695378,0.6953806 0.3940704,0 0.6953779,-0.3013314 0.6953779,-0.6953806 z m 2.0861602,4.4040742 c 0,-0.3940439 -0.301334,-0.6953779 -0.6953779,-0.6953779 -0.3940704,0 -0.6953779,0.301334 -0.6953779,0.6953779 0,0.394044 0.3013075,0.695378 0.6953779,0.695378 0.3940439,0 0.6953779,-0.301334 0.6953779,-0.695378 z m 1.1589544,2.6888017 c 0,0.023177 0,0.046355 0,0.069532 0,0 0,0 0,0.023177 0,0.139065 -0.1158875,0.2318015 -0.254979,0.208624 -0.139065,0 -0.231775,-0.115914 -0.2085975,-0.254979 0,-0.023177 0,-0.023177 0,-0.023177 0,-0.023177 0,-0.046355 0,-0.046355 0,-0.7185554 -0.6258454,-1.2980458 -1.3907558,-1.2980458 -0.7649369,0 -1.3907823,0.5794904 -1.3907823,1.2980458 0,0.023178 0,0.023178 0,0.046355 0,0 0,0 0,0.023177 0,0.139065 -0.09271,0.2318015 -0.2085975,0.254979 -0.1390915,0 -0.2318015,-0.092736 -0.254979,-0.208624 0,0 0,0 0,-0.023177 0,-0.046355 0,-0.069532 0,-0.09271 0,-0.7881144 0.5331354,-1.4603148 1.2980459,-1.6689123 C 5.624096,6.3292764 5.3922945,5.9584099 5.3922945,5.5180109 c 0,-0.6490229 0.509958,-1.1589808 1.1589809,-1.1589808 0.6490229,0 1.1589543,0.5099579 1.1589543,1.1589808 0,0.440399 -0.2318014,0.8112655 -0.6026679,1.0198894 0.7649104,0.2085975 1.2980459,0.8807979 1.2980459,1.6689123 z M 5.0214281,2.1338261 c 0.7417329,0.2317935 1.2980458,0.8808032 1.2980458,1.6689176 0,0.023178 0,0.046355 0,0.069532 0,0 0,0 0,0.023178 0,0.139065 -0.1158875,0.2318014 -0.2549789,0.2086239 -0.139065,0 -0.2318015,-0.1159139 -0.2085975,-0.2549789 0,-0.023177 0,-0.023177 0,-0.023177 0,-0.023178 0,-0.046355 0,-0.046355 0,-0.7185555 -0.6258455,-1.2980512 -1.3907823,-1.2980512 -0.7649105,0 -1.3907559,0.5794957 -1.3907559,1.2980512 0,0.023178 0,0.023178 0,0.046355 0,0 0,0 0,0.023177 0,0.139065 -0.09271,0.2318014 -0.2085975,0.2549789 -0.1390914,0 -0.2318014,-0.092736 -0.2549789,-0.2086239 0,0 0,0 0,-0.023178 0,-0.046355 0,-0.069532 0,-0.09271 0,-0.7881144 0.5331354,-1.4603043 1.2980458,-1.6689176 C 3.5379622,1.9252127 3.3061608,1.5543436 3.3061608,1.1139367 c 0,-0.64902021 0.5099579,-1.15896437 1.1589544,-1.15896437 0.6490229,0 1.1589808,0.50994416 1.1589808,1.15896437 0,0.4404069 -0.2318015,0.811276 -0.6026679,1.0198894 z M 2.6107829,5.5180109 c 0,-0.3940439 -0.3013313,-0.6953779 -0.6953806,-0.6953779 -0.3940466,0 -0.6953779,0.301334 -0.6953779,0.6953779 0,0.394044 0.3013313,0.695378 0.6953779,0.695378 0.3940493,0 0.6953806,-0.301334 0.6953806,-0.695378 z M 2.4717073,6.5379003 c 0.7417435,0.231775 1.2980299,0.8807979 1.2980299,1.6689123 0,0.023177 0,0.046355 0,0.069532 0,0 0,0 0,0.023177 0,0.139065 -0.1158875,0.2318015 -0.2549525,0.208624 -0.1390914,0 -0.2318014,-0.115914 -0.2086239,-0.254979 0,-0.023177 0,-0.023177 0,-0.023177 0,-0.023177 0,-0.046355 0,-0.046355 0,-0.7185554 -0.6258454,-1.2980458 -1.3907585,-1.2980458 -0.7649157,0 -1.39075847,0.5794904 -1.39075847,1.2980458 0,0.023178 0,0.023178 0,0.046355 0,0 0,0 0,0.023177 0,0.139065 -0.092715,0.2318015 -0.2086134,0.254979 -0.1158957,0.023178 -0.2317922,-0.092736 -0.2549715,-0.208624 0,0 0,0 0,-0.023177 0,-0.046355 0,-0.069532 0,-0.09271 0,-0.7881144 0.5331227,-1.4603148 1.29804107,-1.6689123 C 0.98823093,6.3292764 0.75643733,5.9584099 0.75643733,5.5180109 c 0,-0.6490229 0.50994467,-1.1589808 1.15896497,-1.1589808 0.6490229,0 1.158957,0.5099579 1.158957,1.1589808 0,0.440399 -0.231775,0.8112655 -0.602652,1.0198894 z"
       id="path141"
       fill="currentcolor" />
  </g>
</svg>
