<svg width="150" height="125" viewBox="0 0 150 125" fill="none" xmlns="http://www.w3.org/2000/svg">
<path fill-rule="evenodd" clip-rule="evenodd" d="M78.8857 16.2025C78.8857 18.0858 77.3791 19.5924 75.4959 19.5924C73.6127 19.5924 72.1061 18.0858 72.1061 16.2025C72.1061 14.3193 73.6127 12.8127 75.4959 12.8127C77.3791 12.8127 78.8857 14.3193 78.8857 16.2025ZM68.3396 63.0575C57.0402 59.969 48.7539 49.5735 48.7539 37.2948C48.7539 25.0914 56.8895 14.8466 68.1136 11.6074C66.5317 15.4492 65.3264 20.421 65.3264 26.5227V33.905L57.0402 40.0067V48.9709H65.3264V52.7374H68.3396V63.0575ZM85.8914 48.9709H93.9516V40.0067L85.6654 33.905V26.5227C85.6654 20.421 84.4601 15.4492 82.9535 11.6074C94.1023 14.8466 102.238 25.0914 102.238 37.2948C102.238 49.5735 93.9516 59.969 82.6522 63.0575V52.7374H85.6654V49.1969H65.8537V45.9577H85.9667V48.9709H85.8914Z" fill="currentcolor" class="tint"/>
<path fill-rule="evenodd" clip-rule="evenodd" d="M87.4727 61.6261C87.096 61.7767 86.6441 61.6261 86.4934 61.2494C86.3427 60.8728 86.4934 60.4208 86.8701 60.2701C95.6836 55.9764 101.484 47.0121 101.484 37.0686C101.484 27.3511 96.0603 18.6129 87.4727 14.2438C87.096 14.0178 86.9454 13.5658 87.1714 13.2645C87.3974 12.8878 87.8493 12.7372 88.1507 12.9632C97.1902 17.5583 102.991 26.8238 102.991 37.0686C102.991 47.6148 96.8889 57.1063 87.4727 61.6261ZM52.5951 22.0027C52.8211 21.6261 53.2731 21.5507 53.6497 21.7767C54.0264 22.0027 54.1017 22.4547 53.8757 22.8313C51.0132 27.0498 49.5066 31.9462 49.5066 37.0686C49.5066 47.1628 55.3823 56.127 64.4218 60.3455C64.7985 60.4961 64.9492 60.9481 64.7985 61.3248C64.6478 61.7014 64.1959 61.8521 63.8192 61.7014C54.2524 57.257 48 47.6901 48 37.0686C48 31.6449 49.5819 26.4472 52.5951 22.0027ZM62.6893 12.9632C63.0659 12.7372 63.5179 12.8878 63.6685 13.2645C63.8192 13.6411 63.7439 14.0931 63.3672 14.2438C61.032 15.4491 58.9228 16.9556 57.1149 18.8389C56.8136 19.1402 56.3616 19.1402 56.0603 18.8389C55.7589 18.5376 55.7589 18.0856 56.0603 17.7843C58.0188 15.8257 60.2787 14.2438 62.6893 12.9632ZM81.9736 58.0103C81.9736 57.5583 82.275 57.257 82.7269 57.257C83.1789 57.257 83.4802 57.5583 83.4802 58.0103V66.8991C83.4802 67.3511 83.1789 67.6524 82.7269 67.6524C82.275 67.6524 81.9736 67.3511 81.9736 66.8991V58.0103ZM77.1525 65.2419C77.1525 64.7899 77.4539 64.4886 77.9058 64.4886C78.3578 64.4886 78.6591 64.7899 78.6591 65.2419V69.3097C78.6591 69.7617 78.3578 70.063 77.9058 70.063C77.4539 70.063 77.1525 69.7617 77.1525 69.3097V65.2419ZM73.1601 58.8389C73.1601 58.3869 73.4614 58.0856 73.9134 58.0856C74.3653 58.0856 74.6667 58.3869 74.6667 58.8389V62.9067C74.6667 63.3587 74.3653 63.66 73.9134 63.66C73.4614 63.66 73.1601 63.3587 73.1601 62.9067V58.8389ZM67.5857 56.4283C67.5857 55.9764 67.887 55.675 68.339 55.675C68.791 55.675 69.0923 55.9764 69.0923 56.4283V66.8991C69.0923 67.3511 68.791 67.6524 68.339 67.6524C67.887 67.6524 67.5857 67.3511 67.5857 66.8991V56.4283ZM79.6384 16.2023C79.6384 18.4622 77.7552 20.3455 75.4953 20.3455C73.2354 20.3455 71.3522 18.4622 71.3522 16.2023C71.3522 13.9425 73.2354 12.0592 75.4953 12.0592C77.7552 12.0592 79.6384 13.9425 79.6384 16.2023ZM78.1318 16.2023C78.1318 14.7711 76.9266 13.5658 75.4953 13.5658C74.064 13.5658 72.8588 14.7711 72.8588 16.2023C72.8588 17.6336 74.064 18.8389 75.4953 18.8389C76.9266 18.8389 78.1318 17.6336 78.1318 16.2023ZM64.5725 35.4114L57.7928 40.3831V48.2174H64.5725V35.4114ZM86.4181 35.4114V48.2174H93.1977V40.3831L86.4181 35.4114ZM86.4181 33.5281L94.403 39.4039C94.629 39.5545 94.7043 39.7805 94.7043 40.0065V48.9707C94.7043 49.4227 94.403 49.724 93.951 49.724H86.4181V52.7372C86.4181 53.1892 86.1168 53.4905 85.6648 53.4905H80.0904C79.6384 53.4905 79.3371 53.1892 79.3371 52.7372C79.3371 52.2852 79.6384 51.9839 80.0904 51.9839H84.9115V49.724H66.0791V51.9839H71.4275C71.8795 51.9839 72.1808 52.2852 72.1808 52.7372C72.1808 53.1892 71.8795 53.4905 71.4275 53.4905H65.3258C64.8738 53.4905 64.5725 53.1892 64.5725 52.7372V49.724H57.0395C56.5876 49.724 56.2863 49.4227 56.2863 48.9707V40.0065C56.2863 39.7805 56.4369 39.5545 56.5876 39.4039L64.5725 33.5281V26.5225C64.5725 18.5376 66.5311 11.9086 69.7702 6.56016C70.9002 4.67692 72.1055 3.095 73.3861 1.8144C73.838 1.36242 74.2147 0.985775 74.5913 0.609128C74.8173 0.383139 74.968 0.307809 75.0433 0.23248C75.3446 0.00649111 75.7213 0.00649111 75.9473 0.23248C76.0226 0.307809 76.1733 0.458469 76.3992 0.609128C76.7759 0.910446 77.1525 1.28709 77.6045 1.8144C78.8851 3.01967 80.0904 4.60159 81.2203 6.48483C84.4595 11.8332 86.4181 18.4622 86.4181 26.5225V33.5281ZM84.9115 33.9048V26.5225C84.9115 18.7636 83.0282 12.4359 79.9397 7.31346C78.8851 5.50555 77.6798 3.99896 76.5499 2.79368C76.1733 2.41704 75.7966 2.04039 75.4953 1.73907C75.194 2.04039 74.8173 2.34171 74.4407 2.79368C73.3107 3.99896 72.1055 5.50555 71.0508 7.31346C67.9623 12.4359 66.0791 18.8389 66.0791 26.5225V33.9048V45.2042H84.9115V33.9048ZM84.9115 48.2174V46.7108H66.0791V48.2174H84.9115Z" fill="currentcolor" class="shade"/>
</svg>
