<svg width="60" height="60" viewBox="0 0 60 60" fill="none" xmlns="http://www.w3.org/2000/svg">
<path fill-rule="evenodd" clip-rule="evenodd" d="M37.8409 46.9772C34.4318 44.3863 33.0682 42.4772 34.9091 41.1818C35.7954 40.5681 36.75 40.8408 37.8409 41.9999C38.7954 40.8408 39.8182 40.6363 40.9091 41.3863C42.5454 42.409 40.5682 44.9999 37.8409 46.9772ZM13.2954 46.0227C9.27272 41.8636 6.81818 36.2045 6.81818 29.9999C6.81818 17.1818 17.1818 6.81812 30 6.81812C42.8182 6.81812 53.1818 17.1818 53.1818 29.9999C53.1818 35.9318 50.9318 41.3863 47.25 45.4772C46.2955 40.5681 43.8409 37.4318 39.8864 36.2045C40.7727 33.0681 41.3864 28.3636 41.6591 22.159C41.9318 16.2954 36.4773 10.909 30.3409 10.909C26.7954 10.909 22.5682 12.7499 20.4545 15.6136C16.0909 21.6136 17.3864 29.1818 20.4545 36.2045C16.7727 37.4318 14.7954 39.1363 13.2954 46.0227Z" fill="currentcolor" class="tint"/>
<path fill-rule="evenodd" clip-rule="evenodd" d="M58.3636 25.9773C58.2955 25.6364 58.5682 25.2273 58.9773 25.2273C59.3182 25.1591 59.7273 25.4318 59.7273 25.8409C59.9318 27.2045 60 28.6364 60 30C60 46.5682 46.5682 60 30 60C13.4318 60 0 46.5682 0 30C0 13.4318 13.4318 0 30 0C41.5909 0 52.0227 6.68182 57 16.9773C57.1364 17.3182 57 17.7273 56.6591 17.8636C56.3182 18 55.9091 17.8636 55.7727 17.5227C51.0682 7.70455 41.1136 1.36364 30 1.36364C14.1818 1.36364 1.36364 14.1818 1.36364 30C1.36364 45.8182 14.1818 58.6364 30 58.6364C45.8182 58.6364 58.6364 45.8182 58.6364 30C58.6364 28.6364 58.5682 27.3409 58.3636 25.9773ZM57.1364 20.8636C57 20.5227 57.2045 20.1136 57.5455 19.9773C57.8864 19.8409 58.2955 20.0455 58.4318 20.3864C58.5682 20.8636 58.7727 21.3409 58.9091 21.8864C58.9773 22.2273 58.7727 22.6364 58.4318 22.7045C58.0909 22.7727 57.6818 22.5682 57.6136 22.2273C57.4773 21.8182 57.3409 21.3409 57.1364 20.8636ZM37.8409 41.0455C38.3182 40.5682 39 40.2273 39.75 40.2273C41.25 40.2273 42.2727 41.1818 42.2727 42.75C42.2727 44.1136 40.3636 46.0227 38.25 47.5909C37.9773 47.7955 37.7045 47.7955 37.4318 47.5909C35.3182 46.0227 33.4091 44.1136 33.4091 42.75C33.4091 41.1136 34.4318 40.2273 35.9318 40.2273C36.6818 40.2273 37.3636 40.5682 37.8409 41.0455ZM40.9091 42.75C40.9091 41.9318 40.5 41.5909 39.75 41.5909C39.1364 41.5909 38.5227 42.1364 38.5227 42.6136C38.4545 42.9545 38.1818 43.0909 37.8409 43.0909C37.5 43.0909 37.2273 42.9545 37.1591 42.6136C37.1591 42.1364 36.6136 41.5909 35.9318 41.5909C35.1818 41.5909 34.7727 41.9318 34.7727 42.75C34.7727 43.3636 36.2727 44.9318 37.8409 46.1591C39.4091 45 40.9091 43.4318 40.9091 42.75ZM19.7045 18.0682C19.5682 18.4091 19.1591 18.5455 18.8182 18.4091C18.4773 18.2727 18.3409 17.8636 18.4773 17.5227C19.0227 16.1591 19.9091 15 21 14.1136C21.2727 13.8409 21.6818 13.9091 21.9545 14.1818C22.2273 14.4545 22.1591 14.8636 21.8864 15.1364C20.9318 15.8864 20.1818 16.9091 19.7045 18.0682ZM30 53.8636C16.8409 53.8636 6.13636 43.1591 6.13636 30C6.13636 16.8409 16.8409 6.13636 30 6.13636C33.9545 6.13636 37.7727 7.09091 41.1818 8.93182C42.9545 9.88636 44.5909 11.0455 46.0909 12.4091C46.9091 13.1591 47.6591 13.9773 48.3409 14.7955C51.8864 19.0227 53.8636 24.3409 53.8636 30C53.8636 43.1591 43.1591 53.8636 30 53.8636ZM37.6364 23.1136C37.7045 23.1818 37.8409 23.25 37.9091 23.3182L37.9773 23.3864C38.1136 23.4545 38.1818 23.5909 38.1818 23.7955C38.25 23.7955 38.3864 23.7955 38.4545 23.8636C39.2727 24.1364 39.6818 24.9545 39.4773 26.1818C39.2727 27.3409 38.7955 28.3636 38.1818 28.8409C37.9091 29.0455 37.6364 29.1818 37.3636 29.25C37.2955 29.5909 37.2273 29.9318 37.1591 30.2727C37.0909 30.6136 37.0227 30.8864 36.9545 31.1591C36.8182 31.7727 36.4773 32.3182 36.0682 32.7273C35.8636 32.9318 35.6591 33.0682 35.4545 33.2045V34.6364C35.6591 34.7045 35.7955 34.7045 36 34.7727C36.8182 34.9773 37.6364 35.1136 38.3864 35.3182C38.7273 35.3864 39.0682 35.5227 39.4091 35.5909C40.6364 28.9773 41.0455 24.0682 40.7727 20.8636C40.3636 15.5455 35.5909 11.5909 30.9545 11.5909C29.25 11.5909 27.8864 11.7273 26.7273 12.0682C25.7727 12.3409 24.9545 12.6818 24.2045 13.2273C23.8636 13.4318 23.4545 13.3636 23.25 13.0227C23.0455 12.6818 23.1136 12.2727 23.4545 12.0682C24.3409 11.4545 25.2955 11.0455 26.3864 10.7045C27.6818 10.3636 29.1818 10.1591 30.9545 10.1591C36.2727 10.1591 41.6591 14.6591 42.2045 20.5227C42.4773 23.9318 42 29.0455 40.7727 35.7955C41.5909 36.0682 42.2045 36.3409 42.8864 36.8182C45.2727 38.25 46.8409 40.6364 47.4545 44.1136C50.5909 40.2955 52.5 35.3864 52.5 30C52.5 24.6818 50.6591 19.6364 47.3182 15.6136C46.6364 14.7955 45.9545 14.0455 45.1364 13.3636C43.7727 12.0682 42.2045 10.9773 40.5 10.0909C37.2955 8.38636 33.75 7.5 30 7.5C17.5909 7.5 7.5 17.5909 7.5 30C7.5 35.5909 9.54545 40.7045 12.8864 44.5909C13.6364 39.9545 16.1591 37.1591 19.6364 35.8636C18.1364 32.25 17.0455 28.3636 17.0455 25.5C17.0455 23.7955 17.1818 22.2955 17.4545 21C17.5227 20.6591 17.8636 20.3864 18.2727 20.4545C18.6136 20.5227 18.8864 20.8636 18.8182 21.2727C18.5455 22.5 18.4091 23.9318 18.4091 25.5C18.4091 28.2273 19.4318 31.9773 20.9318 35.4545C21 35.4545 21.1364 35.3864 21.2045 35.3864C21.4773 35.3182 21.6818 35.25 21.9545 35.1818C22.0909 35.1136 22.0909 35.1136 22.2273 35.1136C22.9773 34.9091 23.7955 34.7727 24.6136 34.5682C24.8182 34.5 25.0227 34.5 25.1591 34.4318V33C24.9545 32.8636 24.75 32.7273 24.4773 32.5909C23.9318 32.1818 23.5909 31.6364 23.3864 30.9545C23.3182 30.6818 23.25 30.4091 23.1818 30.0682C23.1136 29.7273 23.0455 29.3864 22.9773 29.0455C22.7045 29.0455 22.4318 28.8409 22.1591 28.6364C21.5455 28.1591 21 27.1364 20.8636 25.9773C20.6591 24.8182 21.0682 23.9318 21.8864 23.6591H21.9545C21.8864 23.4545 21.8864 23.25 21.8182 23.0455C21.6818 22.5 21.6818 22.0227 21.6818 21.6818V20.4545C21.6818 19.9773 22.1591 19.6364 22.6364 19.8409L24.75 20.6591L24.8182 20.7273C24.8182 20.7273 24.8864 20.7273 24.9545 20.7955C25.6364 21 26.4545 20.8636 27.4773 19.9773C27.75 19.7727 28.0909 19.5 28.4318 19.1591C28.5682 19.0227 28.7727 18.8182 28.9773 18.6136C28.9773 18.6136 29.3864 18.2045 29.5227 18.1364C29.9318 17.7273 30.2727 17.4545 30.5455 17.25C31.3636 16.5682 32.0455 16.2273 32.7273 16.4318C33.2045 16.5682 33.3409 17.1136 33.1364 17.4545C33.0682 17.5227 32.9318 17.7273 32.8636 17.9318C32.7955 18.0682 32.7273 18.1364 32.7273 18.2727C32.7273 18.3409 32.7273 18.3409 32.6591 18.3409C32.6591 18.3409 33.0682 18.4091 33.2045 18.4773C33.4773 18.5455 33.6818 18.6136 33.8864 18.75C34.4318 19.0227 34.9091 19.3636 35.25 19.9091C35.7955 20.7273 36.0682 21.4091 36.0682 21.9545L37.6364 23.1136ZM34.7727 35.7273C34.7045 35.7273 34.7045 35.7273 34.6364 35.7273C34.2955 35.6591 34.0909 35.3864 34.0909 35.0455V32.6591C34.0909 32.3864 34.2955 32.1136 34.5682 32.0455C34.7045 31.9773 34.9091 31.8409 35.1136 31.6364C35.3864 31.3636 35.5227 31.0909 35.6591 30.75C35.7273 30.4773 35.7955 30.2045 35.8636 29.9318C35.9318 29.4545 36.0682 28.9091 36.1364 28.4318C36.1364 28.2273 36.2045 28.0909 36.2045 27.9545C36.2045 27.8864 36.2045 27.8182 36.2045 27.75C36.3409 27 37.2955 27 37.5 27.5455C37.7727 27.2045 37.9773 26.6591 38.1136 25.9773C38.1818 25.6364 38.1136 25.3636 38.1136 25.2273C38.1136 25.1591 38.0455 25.1591 38.0455 25.1591H37.9773C37.6364 25.7727 36.6818 25.4318 36.75 24.75V24.6818C36.75 24.5455 36.75 24.4091 36.6818 24.2045L35.0455 22.8409C34.8409 22.6364 34.7727 22.3636 34.8409 22.1591C34.8409 22.0909 34.8409 22.0227 34.7727 21.8864C34.7045 21.6136 34.5 21.2045 34.2273 20.7273C34.0227 20.3864 33.75 20.1818 33.4091 20.0455C33.2727 19.9773 33.1364 19.9091 32.9318 19.9091C32.7955 19.9091 32.3182 19.7727 32.3864 19.7727C31.8409 19.6364 31.6364 19.5682 31.4318 19.2273C31.2955 19.0227 31.2955 18.8182 31.2955 18.6136C30.8864 18.9545 30.2727 19.5 29.4545 20.3182C29.1136 20.6591 28.7727 20.9318 28.5 21.2045C27.1364 22.3636 25.7727 22.5682 24.75 22.2273C24.6136 22.1591 24.4773 22.1591 24.4091 22.0909L23.1818 21.4773V21.9545C23.1818 22.0227 23.1818 22.0227 23.1818 22.0909C23.1818 22.2955 23.25 22.5682 23.25 22.9091C23.3182 23.1136 23.3182 23.3864 23.3864 23.5909C23.4545 23.7955 23.5227 24.0682 23.5909 24.2727C23.5909 24.3409 23.6591 24.4091 23.6591 24.4773C23.6591 24.5455 23.7273 24.6136 23.7273 24.6136C23.8636 25.3636 22.8409 25.7045 22.5 25.0909H22.4318C22.4318 25.0909 22.3636 25.0909 22.3636 25.1591C22.2955 25.2955 22.2955 25.5 22.3636 25.9091C22.4318 26.5909 22.7045 27.1364 22.9773 27.4773C23.1818 26.9318 24.2045 26.9318 24.2727 27.6818C24.2727 27.6818 24.2727 27.75 24.2727 27.8864C24.2727 28.0227 24.3409 28.2273 24.3409 28.3636C24.4091 28.9091 24.5455 29.3864 24.6136 29.8636C24.6818 30.2045 24.75 30.4773 24.8182 30.6818C24.8864 31.0227 25.0909 31.3636 25.4318 31.5682C25.7045 31.7727 25.9773 31.9091 26.1136 31.9773C26.3864 32.0455 26.5909 32.3182 26.5909 32.6591V35.0455C26.5909 35.3864 26.3864 35.6591 26.0455 35.7273C26.0455 35.7273 25.9773 35.7273 25.9091 35.7273V37.0909L27.1364 37.7727C27.4773 37.9773 27.6136 38.3864 27.4091 38.6591C27.2045 39 26.7955 39.1364 26.5227 38.9318L24.8864 38.1136C24.6818 37.9773 24.5455 37.7727 24.5455 37.5V36C23.8636 36.1364 23.1818 36.3409 22.5682 36.4773C22.4318 36.5455 22.4318 36.5455 22.2955 36.5455C22.0227 36.6136 21.75 36.6818 21.5455 36.75C17.5909 37.7045 14.5909 40.5 14.1818 45.9545C18.2727 50.0455 23.8636 52.5 30.0682 52.5C36.4773 52.5 42.2727 49.8409 46.3636 45.4773C45.9545 41.6591 44.5227 39.3409 42.2727 37.9773C41.5227 37.5 40.9091 37.2273 39.9545 36.9545C39.8864 36.9545 39.8182 36.9545 39.8182 36.8864C39.6136 36.8182 39.4091 36.75 39.2045 36.6818C38.8636 36.6136 38.5909 36.4773 38.1818 36.4091C37.4318 36.2727 36.8182 36.1364 36.1364 36V37.5682C36.1364 37.8409 36 38.0455 35.7955 38.1818L30.8864 40.8409C30.6818 40.9773 30.4773 40.9773 30.2727 40.8409L28.9091 40.1591C28.5682 39.9545 28.4318 39.5455 28.6364 39.2727C28.8409 38.9318 29.25 38.7955 29.5227 39L30.5455 39.5455L34.7727 37.2273V35.7273Z" fill="currentcolor" class="shadet"/>
</svg>
