<svg width="42" height="28" viewBox="0 0 42 28" fill="none" xmlns="http://www.w3.org/2000/svg">
<g clip-path="url(#clip0_79_736)">
<path fill-rule="evenodd" clip-rule="evenodd" d="M31 22H33V24H31V22ZM34 22H36V24H34V22ZM31 16H33V18H31V16ZM34 16H36V18H34V16ZM31 10H33V12H31V10ZM34 10H36V12H34V10ZM37 22H39V24H37V22ZM37 16H39V18H37V16ZM37 10H39V12H37V10ZM17.5 7.8C17.5 4.6 15 2 11.8 2C8.6 2 6.1 4.6 6.1 7.8C6.1 11 8.7 13.6 11.9 13.6C15 13.5 17.5 10.9 17.5 7.8ZM40 21H22V25H40V21ZM40 15H22V18V19H40V15ZM40 13V9H22V13H40ZM41.7 14C41.9 14.3 42 14.6 42 15V19C42 19.4 41.9 19.7 41.7 20C41.9 20.3 42 20.6 42 21V25C42 26.1 41.1 27 40 27H22C20.9 27 20 26.1 20 25V21C20 20.6 20.1 20.3 20.3 20C20.1 19.7 20 19.4 20 19V18.3C18.7 16.8 16.3 15.5 13.1 15.5C6.7 15.5 2 20.2 2 26.6C2 27.2 1.6 27.6 1 27.6C0.4 27.6 0 27.2 0 26.6C0 21 3.2 16.4 7.9 14.5C5.6 13.2 4 10.7 4 7.8C4.1 3.5 7.5 0 11.8 0C16.1 0 19.5 3.5 19.5 7.8C19.5 10.3 18.3 12.6 16.4 14C17.8 14.4 19 15 19.9 15.7V15C19.9 14.6 20 14.3 20.2 14C20 13.7 19.9 13.4 19.9 13V9C19.9 7.9 20.8 7 21.9 7H39.9C41 7 41.9 7.9 41.9 9V13C42 13.4 41.9 13.7 41.7 14Z" fill="currentcolor"/>
</g>
<defs>
<clipPath id="clip0_79_736">
<rect width="42" height="27.6" fill="white"/>
</clipPath>
</defs>
</svg>
