<svg width="32" height="28" viewBox="0 0 32 28" fill="none" xmlns="http://www.w3.org/2000/svg">
    <g clip-path="url(#clip0_252_309)">
        <path fill-rule="evenodd" clip-rule="evenodd"
              d="M26.7383 18.3538C27.1075 17.9846 27.6614 17.9846 28.0306 18.3538C28.3999 18.7231 28.3999 19.2769 28.0306 19.6461L24.3383 23.3385C23.9691 23.7077 23.4152 23.7077 23.046 23.3385L21.1999 21.4923C20.8306 21.1231 20.8306 20.5692 21.1999 20.2C21.5691 19.8308 22.1229 19.8308 22.4922 20.2L23.6922 21.4L26.7383 18.3538ZM29.6922 20.6615C29.6922 17.7077 27.2922 15.3077 24.3383 15.3077C21.3845 15.3077 18.9845 17.7077 18.9845 20.6615C18.9845 23.6154 21.3845 26.0154 24.3383 26.0154C27.3845 25.9231 29.6922 23.5231 29.6922 20.6615ZM16.7691 7.73845C16.7691 4.78461 14.4614 2.38461 11.5075 2.38461C8.5537 2.38461 6.246 4.78461 6.246 7.73845C6.246 10.6923 8.646 13.0923 11.5075 13.0923C14.4614 13 16.7691 10.6 16.7691 7.73845ZM18.246 16.9692C16.5845 15.6769 14.4614 14.8461 12.7075 14.8461C6.79985 14.8461 2.46139 19.1846 2.46139 25.0923C2.46139 25.6461 2.09216 26.0154 1.53831 26.0154C0.984465 26.0154 0.615234 25.6461 0.615234 25.0923C0.615234 19.9231 3.56908 15.6769 7.90754 13.9231C5.78447 12.7231 4.30754 10.4154 4.30754 7.73845C4.39985 3.76922 7.53831 0.538452 11.5075 0.538452C15.4768 0.538452 18.7075 3.76922 18.7075 7.73845C18.7075 10.1385 17.5075 12.2615 15.7537 13.5538C17.046 14.0154 18.3383 14.6615 19.446 15.5846C20.7383 14.2923 22.4922 13.4615 24.5229 13.4615C28.4922 13.4615 31.7229 16.6923 31.7229 20.6615C31.7229 24.6308 28.4922 27.8615 24.5229 27.8615C20.5537 27.8615 17.3229 24.6308 17.3229 20.6615C17.2306 19.2769 17.5998 18.0769 18.246 16.9692Z"
              fill="currentcolor"/>
    </g>
    <defs>
        <clipPath id="clip0_252_309">
            <rect width="30.9231" height="27.2308" fill="white" transform="translate(0.615234 0.538452)"/>
        </clipPath>
    </defs>
</svg>
