<svg width="34" height="34" viewBox="0 0 34 34" fill="none" xmlns="http://www.w3.org/2000/svg">
<path d="M17.0012 16.9997L5.89148 5.49482C8.8529 2.58421 12.8487 0.967761 17.0012 1.00049V16.9997Z" stroke="currentcolor" stroke-width="2" stroke-linejoin="round"/>
<path d="M17.0012 16.9997L32.22 21.9431C30.9092 25.9787 28.0487 29.3283 24.2677 31.2552C20.4868 33.182 16.0951 33.5283 12.0588 32.2177C8.02256 30.9071 4.67232 28.0471 2.74512 24.2668C0.817921 20.4865 0.471637 16.0956 1.78244 12.06C2.5449 9.54746 3.96023 7.28204 5.88409 5.49481L17.0012 16.9997Z" stroke="currentcolor" stroke-width="2" stroke-linejoin="round"/>
<path d="M17.0013 16.9998V1.00055C21.2437 1.00055 25.3124 2.68528 28.3125 5.68421C31.3127 8.68315 32.9986 12.7507 32.9996 16.9923C33.0133 18.6721 32.7486 20.3425 32.2164 21.9357L17.0013 16.9998Z" stroke="currentcolor" stroke-width="2" stroke-linejoin="round"/>
</svg>
