<svg width="27" height="29" viewBox="0 0 27 29" fill="none" xmlns="http://www.w3.org/2000/svg">
<g clip-path="url(#clip0_437_3208)">
<path fill-rule="evenodd" clip-rule="evenodd" d="M21.8461 19.0001C21.8461 18.4463 22.2154 18.077 22.7692 18.077C23.323 18.077 23.6923 18.4463 23.6923 19.0001V20.8463C23.6923 21.4001 23.323 21.7693 22.7692 21.7693C22.2154 21.7693 21.8461 21.4001 21.8461 20.8463V19.0001ZM21.8461 13.4617C21.8461 12.9078 22.2154 12.5386 22.7692 12.5386C23.323 12.5386 23.6923 12.9078 23.6923 13.4617V15.3078C23.6923 15.8617 23.323 16.2309 22.7692 16.2309C22.2154 16.2309 21.8461 15.8617 21.8461 15.3078V13.4617ZM21.8461 7.92319C21.8461 7.36934 22.2154 7.00011 22.7692 7.00011C23.323 7.00011 23.6923 7.36934 23.6923 7.92319V9.76934C23.6923 10.3232 23.323 10.6924 22.7692 10.6924C22.2154 10.6924 21.8461 10.3232 21.8461 9.76934V7.92319ZM5.23074 23.6155C4.6769 23.6155 4.30766 23.2463 4.30766 22.6924C4.30766 22.1386 4.6769 21.7693 5.23074 21.7693H17.2307C17.7846 21.7693 18.1538 22.1386 18.1538 22.6924C18.1538 23.2463 17.7846 23.6155 17.2307 23.6155H5.23074ZM5.23074 19.9232C4.6769 19.9232 4.30766 19.554 4.30766 19.0001C4.30766 18.4463 4.6769 18.077 5.23074 18.077H17.2307C17.7846 18.077 18.1538 18.4463 18.1538 19.0001C18.1538 19.554 17.7846 19.9232 17.2307 19.9232H5.23074ZM0.615356 3.58473C0.615356 1.92319 1.99997 0.538574 3.66151 0.538574H23.5077C25.0769 0.538574 26.4615 1.83088 26.4615 3.58473V25.277C26.4615 26.9386 25.0769 28.3232 23.4154 28.3232H3.66151C1.99997 28.2309 0.615356 26.9386 0.615356 25.1847V3.58473ZM4.30766 8.1078C4.30766 6.53857 5.59997 5.15396 7.26151 5.15396H15.1077C16.7692 5.15396 18.1538 6.44627 18.1538 8.1078V12.2617C18.1538 13.9232 16.8615 15.2155 15.2 15.2155H7.26151C5.69228 15.3078 4.30766 14.0155 4.30766 12.354V8.1078ZM6.15382 8.1078V12.2617C6.15382 12.9078 6.70766 13.4617 7.26151 13.4617H15.1077C15.7538 13.4617 16.2154 12.9078 16.2154 12.354V8.1078C16.3077 7.55396 15.7538 7.00011 15.2 7.00011H7.26151C6.70766 7.00011 6.15382 7.55396 6.15382 8.1078ZM21.8461 26.3847H23.4154C24.0615 26.3847 24.6154 25.8309 24.6154 25.1847V3.58473C24.6154 2.93857 24.0615 2.38473 23.4154 2.38473H21.8461V26.3847ZM20 26.3847V2.38473H3.66151C3.01536 2.38473 2.46151 2.93857 2.46151 3.58473V25.277C2.46151 25.8309 3.01536 26.3847 3.66151 26.3847H20Z" fill="#D5FE81"/>
</g>
<defs>
<clipPath id="clip0_437_3208">
<rect width="25.8462" height="27.6923" fill="white" transform="translate(0.615356 0.538574)"/>
</clipPath>
</defs>
</svg>
