<svg width="66" height="64" viewBox="0 0 66 64" fill="none" xmlns="http://www.w3.org/2000/svg">
<path fill-rule="evenodd" clip-rule="evenodd" d="M29.4869 22.4167C27.547 24.3566 24.4431 27.3829 20.1753 31.5731C15.2091 26.6069 10.3205 21.7183 6.67343 17.9937C3.33676 21.3303 1.24164 26.2965 1.24164 31.4179C2.79358 31.4179 8.92374 31.4179 19.5545 31.4179C19.7097 39.4104 19.7097 45.3854 19.6321 49.3428C29.7197 49.3428 37.945 41.1176 37.945 31.0299C37.945 27.6933 37.557 25.3654 36.0051 22.6495L29.4869 22.4167Z" fill="currentcolor" class="tint"/>
<path fill-rule="evenodd" clip-rule="evenodd" d="M55.8698 31.5732C55.9474 31.4956 56.1026 31.418 56.1802 31.3404C57.4218 30.5645 58.1978 29.1677 58.1978 27.6934C58.1978 26.0638 57.2666 24.5895 55.8698 23.8135V31.5732ZM1.70713 39.1777C1.55194 38.7897 1.70713 38.3242 2.09512 38.169C2.4831 38.0138 2.94869 38.169 3.10388 38.5569C3.18148 38.7121 3.25907 38.7897 3.25907 38.9449C3.41427 39.3329 3.64706 39.7209 3.87985 40.1089C4.11264 40.4969 3.95745 40.9625 3.56946 41.1952C3.18148 41.428 2.71589 41.2728 2.4831 40.8849C2.25031 40.4969 2.01752 40.0313 1.86233 39.6433C1.86233 39.4105 1.78473 39.3329 1.70713 39.1777ZM48.4205 12.6395C51.214 12.6395 53.4643 10.3892 53.4643 7.59574C53.4643 4.72466 51.214 2.47434 48.4205 2.47434C45.627 2.47434 43.3767 4.72466 43.3767 7.51815C43.2991 10.3892 45.627 12.6395 48.4205 12.6395ZM48.4205 14.1915C44.7735 14.1915 41.8248 11.2428 41.8248 7.59574C41.8248 3.94869 44.7735 1 48.4205 1C52.0676 1 55.0163 3.94869 55.0163 7.59574C55.0163 11.2428 52.0676 14.1915 48.4205 14.1915ZM18.6233 31.1852L6.36295 19.0025C3.41427 22.184 1.55194 26.4518 1.55194 31.1852H18.6233ZM28.2453 15.6658C25.607 14.1139 22.5807 13.3379 19.3993 13.3379C14.821 13.3379 10.6308 15.0451 7.52691 17.9161L20.3304 30.7197L27.5469 23.5031H25.8398C23.6671 23.5031 21.9599 21.796 21.9599 19.6233C21.9599 17.4506 23.6671 15.7434 25.8398 15.7434H28.2453V15.6658ZM37.169 23.4255C38.2553 25.831 38.7985 28.4693 38.7985 31.1852C38.7985 41.8936 30.1076 50.5845 19.3993 50.5845C14.2003 50.5845 9.38924 48.567 5.74218 44.9975C5.2766 44.5319 4.81101 44.0663 4.42303 43.5232C4.11264 43.2128 4.19024 42.6696 4.50063 42.4368C4.81101 42.1264 5.35419 42.204 5.58698 42.5144C5.97497 42.98 6.36295 43.4456 6.82854 43.9111C10.1652 47.1702 14.5882 49.0325 19.3993 49.0325V32.7372H1.62954C1.70713 33.9787 2.01752 35.2203 2.32791 36.4618C2.4831 36.8498 2.25031 37.3154 1.78473 37.4706C1.39675 37.6258 0.931164 37.393 0.77597 36.9274C0.310388 35.0651 0 33.1252 0 31.1852C0 20.4768 8.69086 11.786 19.3993 11.786C23.2015 11.786 26.8486 12.8723 29.9524 14.8899C30.03 14.8899 30.3404 15.2002 31.1164 15.6658H53.9299C60.6033 15.6658 65.9575 21.02 65.9575 27.6934C65.9575 31.806 63.8623 35.6859 60.3705 37.8586C58.9737 38.7897 57.189 38.6345 55.8698 37.6258V62.224C55.8698 62.6896 55.5595 63 55.0939 63H41.9024C41.4368 63 41.1264 62.6896 41.1264 62.224V23.4255H37.169ZM35.4618 23.4255H29.7197L20.9512 32.194V48.9549C30.1076 48.179 37.2466 40.4969 37.2466 31.1852C37.2466 28.4693 36.6258 25.831 35.4618 23.4255ZM47.3342 61.4481V38.5569C47.3342 38.0914 47.6446 37.781 48.1101 37.781C48.5757 37.781 48.8861 38.0914 48.8861 38.5569V61.4481H54.3179V22.7272C54.3179 22.2616 54.7835 21.8736 55.2491 21.9512C57.8098 22.572 59.7497 24.9775 59.7497 27.6934C59.7497 29.7109 58.7409 31.5732 57.0338 32.6596C55.9474 33.3579 55.637 34.7547 56.3354 35.841C57.0338 36.9274 58.4305 37.2378 59.5169 36.5394C62.5432 34.5995 64.4055 31.2628 64.4055 27.6934C64.4055 21.8736 59.7497 17.2178 53.9299 17.2178H25.7622C24.4431 17.2178 23.4343 18.2265 23.4343 19.5457C23.4343 20.8648 24.4431 21.8736 25.7622 21.8736H41.9024C42.368 21.8736 42.6783 22.184 42.6783 22.6496V61.4481H47.3342Z" fill="currentcolor" class="shade"/>
</svg>
