<svg width="150" height="125" viewBox="0 0 150 125" fill="none" xmlns="http://www.w3.org/2000/svg">
<path fill-rule="evenodd" clip-rule="evenodd" d="M71.2916 24.1803C69.1014 26.3705 65.597 29.7873 60.7785 34.5182C55.1714 28.9112 49.652 23.3918 45.5344 19.1865C41.7672 22.9537 39.4017 28.5607 39.4017 34.343C41.1539 34.343 48.0751 34.343 60.0776 34.343C60.2528 43.3667 60.2528 50.1127 60.1652 54.5808C71.5544 54.5808 80.841 45.2942 80.841 33.9049C80.841 30.1377 80.403 27.5094 78.6508 24.4431L71.2916 24.1803Z" fill="currentcolor" class="tint"/>
<path fill-rule="evenodd" clip-rule="evenodd" d="M101.079 34.5182C101.166 34.4305 101.342 34.3429 101.429 34.2553C102.831 33.3792 103.707 31.8023 103.707 30.1377C103.707 28.2979 102.656 26.6333 101.079 25.7572V34.5182ZM39.9274 43.1039C39.7522 42.6658 39.9274 42.1402 40.3655 41.965C40.8035 41.7897 41.3292 41.965 41.5044 42.403C41.592 42.5782 41.6796 42.6658 41.6796 42.8411C41.8548 43.2791 42.1176 43.7171 42.3805 44.1552C42.6433 44.5932 42.4681 45.1189 42.03 45.3817C41.592 45.6446 41.0663 45.4693 40.8035 45.0313C40.5407 44.5932 40.2778 44.0676 40.1026 43.6295C40.1026 43.3667 40.015 43.2791 39.9274 43.1039ZM92.6683 13.1414C95.8223 13.1414 98.363 10.6008 98.363 7.44681C98.363 4.20526 95.8223 1.66458 92.6683 1.66458C89.5144 1.66458 86.9737 4.20526 86.9737 7.3592C86.8861 10.6008 89.5144 13.1414 92.6683 13.1414ZM92.6683 14.8936C88.5507 14.8936 85.2215 11.5645 85.2215 7.44681C85.2215 3.32916 88.5507 0 92.6683 0C96.786 0 100.115 3.32916 100.115 7.44681C100.115 11.5645 96.786 14.8936 92.6683 14.8936ZM59.0263 34.0801L45.184 20.3254C41.8548 23.9174 39.7522 28.7359 39.7522 34.0801H59.0263ZM69.8899 16.5582C66.9111 14.806 63.4944 13.9299 59.9024 13.9299C54.7334 13.9299 50.0025 15.8573 46.4981 19.0989L60.9537 33.5544L69.1014 25.4068H67.174C64.7209 25.4068 62.7935 23.4793 62.7935 21.0263C62.7935 18.5732 64.7209 16.6458 67.174 16.6458H69.8899V16.5582ZM79.965 25.3191C81.1915 28.035 81.8048 31.0138 81.8048 34.0801C81.8048 46.1702 71.9925 55.9825 59.9024 55.9825C54.0325 55.9825 48.6008 53.7046 44.4831 49.6746C43.9574 49.1489 43.4318 48.6233 42.9937 48.01C42.6433 47.6596 42.7309 47.0463 43.0814 46.7835C43.4318 46.433 44.0451 46.5206 44.3079 46.8711C44.7459 47.3967 45.184 47.9224 45.7096 48.4481C49.4768 52.1277 54.4706 54.2303 59.9024 54.2303V35.8323H39.8398C39.9274 37.234 40.2778 38.6358 40.6283 40.0375C40.8035 40.4756 40.5407 41.0013 40.015 41.1765C39.577 41.3517 39.0513 41.0889 38.8761 40.5632C38.3504 38.4606 38 36.2703 38 34.0801C38 21.99 47.8123 12.1777 59.9024 12.1777C64.1952 12.1777 68.3129 13.4043 71.8173 15.6821C71.9049 15.6821 72.2553 16.0325 73.1314 16.5582H98.8886C106.423 16.5582 112.468 22.6033 112.468 30.1377C112.468 34.781 110.103 39.1615 106.16 41.6145C104.583 42.6658 102.568 42.4906 101.079 41.3517V69.1239C101.079 69.6496 100.728 70 100.203 70H85.3091C84.7835 70 84.433 69.6496 84.433 69.1239V25.3191H79.965ZM78.0375 25.3191H71.5544L61.6546 35.219V54.1427C71.9925 53.2666 80.0526 44.5932 80.0526 34.0801C80.0526 31.0138 79.3517 28.035 78.0375 25.3191ZM91.4418 68.2478V42.403C91.4418 41.8773 91.7922 41.5269 92.3179 41.5269C92.8436 41.5269 93.194 41.8773 93.194 42.403V68.2478H99.3267V24.5307C99.3267 24.005 99.8523 23.567 100.378 23.6546C103.269 24.3554 105.459 27.0713 105.459 30.1377C105.459 32.4155 104.32 34.5182 102.393 35.7447C101.166 36.5332 100.816 38.1101 101.605 39.3367C102.393 40.5632 103.97 40.9136 105.196 40.1252C108.613 37.9349 110.716 34.1677 110.716 30.1377C110.716 23.567 105.459 18.3104 98.8886 18.3104H67.0864C65.597 18.3104 64.4581 19.4493 64.4581 20.9387C64.4581 22.428 65.597 23.567 67.0864 23.567H85.3091C85.8348 23.567 86.1852 23.9174 86.1852 24.4431V68.2478H91.4418Z" fill="currentcolor" class="shade"/>
</svg>
