<svg width="64" height="64" viewBox="0 0 64 64" fill="none" xmlns="http://www.w3.org/2000/svg">
<path fill-rule="evenodd" clip-rule="evenodd" d="M35.2379 14.7562C35.2379 16.478 33.8605 17.8554 32.1387 17.8554C30.4168 17.8554 29.0394 16.478 29.0394 14.7562C29.0394 13.0344 30.4168 11.6569 32.1387 11.6569C33.8605 11.6569 35.2379 13.0344 35.2379 14.7562ZM25.5958 57.595C15.2648 54.7712 7.68884 45.2668 7.68884 34.0405C7.68884 22.8832 15.1271 13.5165 25.3891 10.5549C23.9428 14.0674 22.8408 18.613 22.8408 24.1917V30.9413L15.2648 36.52V44.7158H22.8408V48.1595H25.5958V57.595ZM41.6431 44.7158H49.0125V36.52L41.4365 30.9413V24.1917C41.4365 18.613 40.3345 14.0674 38.9571 10.5549C49.1502 13.5165 56.5885 22.8832 56.5885 34.0405C56.5885 45.2668 49.0125 54.7712 38.6816 57.595V48.1595H41.4365V44.9224H23.323V41.9609H41.712V44.7158H41.6431Z" fill="currentcolor" class="tint"/>
<path fill-rule="evenodd" clip-rule="evenodd" d="M43.0893 56.2863C42.745 56.424 42.3317 56.2863 42.194 55.9419C42.0562 55.5975 42.194 55.1843 42.5383 55.0465C50.5964 51.1208 55.8996 42.9249 55.8996 33.8337C55.8996 24.9492 50.9408 16.9599 43.0893 12.9653C42.745 12.7587 42.6072 12.3454 42.8138 12.0699C43.0204 11.7256 43.4337 11.5878 43.7092 11.7945C51.9739 15.9957 57.2771 24.467 57.2771 33.8337C57.2771 43.4759 51.6984 52.1539 43.0893 56.2863ZM11.2012 20.0592C11.4079 19.7148 11.8211 19.646 12.1655 19.8526C12.5098 20.0592 12.5787 20.4724 12.3721 20.8168C9.75491 24.6737 8.37745 29.1504 8.37745 33.8337C8.37745 43.0627 13.7495 51.2585 22.0143 55.1154C22.3586 55.2532 22.4964 55.6664 22.3586 56.0108C22.2209 56.3551 21.8076 56.4929 21.4633 56.3551C12.7164 52.2916 7 43.5448 7 33.8337C7 28.8749 8.44633 24.1227 11.2012 20.0592ZM20.4302 11.7945C20.7745 11.5878 21.1878 11.7256 21.3255 12.0699C21.4633 12.4143 21.3944 12.8275 21.05 12.9653C18.915 14.0673 16.9865 15.4447 15.3336 17.1665C15.0581 17.442 14.6449 17.442 14.3694 17.1665C14.0939 16.891 14.0939 16.4778 14.3694 16.2023C16.1601 14.4116 18.2263 12.9653 20.4302 11.7945ZM38.0616 52.9804C38.0616 52.5671 38.3371 52.2916 38.7503 52.2916C39.1636 52.2916 39.4391 52.5671 39.4391 52.9804V61.1073C39.4391 61.5206 39.1636 61.7961 38.7503 61.7961C38.3371 61.7961 38.0616 61.5206 38.0616 61.1073V52.9804ZM33.6538 59.5921C33.6538 59.1789 33.9292 58.9034 34.3425 58.9034C34.7557 58.9034 35.0312 59.1789 35.0312 59.5921V63.3113C35.0312 63.7245 34.7557 64 34.3425 64C33.9292 64 33.6538 63.7245 33.6538 63.3113V59.5921ZM30.0035 53.738C30.0035 53.3247 30.279 53.0492 30.6922 53.0492C31.1055 53.0492 31.381 53.3247 31.381 53.738V57.4571C31.381 57.8703 31.1055 58.1458 30.6922 58.1458C30.279 58.1458 30.0035 57.8703 30.0035 57.4571V53.738ZM24.9069 51.534C24.9069 51.1208 25.1824 50.8453 25.5956 50.8453C26.0089 50.8453 26.2844 51.1208 26.2844 51.534V61.1073C26.2844 61.5206 26.0089 61.7961 25.5956 61.7961C25.1824 61.7961 24.9069 61.5206 24.9069 61.1073V51.534ZM35.9266 14.756C35.9266 16.8222 34.2047 18.544 32.1386 18.544C30.0724 18.544 28.3505 16.8222 28.3505 14.756C28.3505 12.6898 30.0724 10.968 32.1386 10.968C34.2047 10.968 35.9266 12.6898 35.9266 14.756ZM34.5491 14.756C34.5491 13.4474 33.4471 12.3454 32.1386 12.3454C30.83 12.3454 29.728 13.4474 29.728 14.756C29.728 16.0646 30.83 17.1665 32.1386 17.1665C33.4471 17.1665 34.5491 16.0646 34.5491 14.756ZM22.152 32.3185L15.9535 36.8641V44.0269H22.152V32.3185ZM42.1251 32.3185V44.0269H48.3236V36.8641L42.1251 32.3185ZM42.1251 30.5967L49.4256 35.9688C49.6322 36.1065 49.7011 36.3132 49.7011 36.5198V44.7156C49.7011 45.1289 49.4256 45.4044 49.0124 45.4044H42.1251V48.1593C42.1251 48.5725 41.8496 48.848 41.4364 48.848H36.3398C35.9266 48.848 35.6511 48.5725 35.6511 48.1593C35.6511 47.746 35.9266 47.4705 36.3398 47.4705H40.7476V45.4044H23.5295V47.4705H28.4194C28.8327 47.4705 29.1082 47.746 29.1082 48.1593C29.1082 48.5725 28.8327 48.848 28.4194 48.848H22.8407C22.4275 48.848 22.152 48.5725 22.152 48.1593V45.4044H15.2647C14.8515 45.4044 14.576 45.1289 14.576 44.7156V36.5198C14.576 36.3132 14.7137 36.1065 14.8515 35.9688L22.152 30.5967V24.1916C22.152 16.891 23.9427 10.8302 26.9042 5.94027C27.9373 4.21846 29.0393 2.77213 30.2101 1.60129C30.6234 1.18805 30.9677 0.843691 31.3121 0.499327C31.5187 0.292709 31.6564 0.223836 31.7253 0.154964C32.0008 -0.0516546 32.3452 -0.0516546 32.5518 0.154964C32.6207 0.223836 32.7584 0.361582 32.965 0.499327C33.3094 0.774818 33.6538 1.11918 34.067 1.60129C35.2378 2.70326 36.3398 4.14958 37.3729 5.8714C40.3344 10.7614 42.1251 16.8222 42.1251 24.1916V30.5967ZM40.7476 30.9411V24.1916C40.7476 17.0977 39.0258 11.3123 36.202 6.629C35.2378 4.97606 34.1359 3.5986 33.1028 2.49664C32.7584 2.15227 32.414 1.80791 32.1386 1.53242C31.8631 1.80791 31.5187 2.0834 31.1743 2.49664C30.1412 3.5986 29.0393 4.97606 28.0751 6.629C25.2513 11.3123 23.5295 17.1665 23.5295 24.1916V30.9411V41.272H40.7476V30.9411ZM40.7476 44.0269V42.6494H23.5295V44.0269H40.7476Z" fill="currentcolor" class="shade"/>
</svg>
