<svg width="18px" height="18px" viewBox="0 0 18 18" version="1.1" xmlns="http://www.w3.org/2000/svg" xmlns:xlink="http://www.w3.org/1999/xlink">
    <title>Search Icon</title>
    <g fill="currentcolor">
        <path d="M11.5778798,13.6992002 C8.67959906,15.6154803 4.73904855,15.2974548 2.18671754,12.7451238 C-0.728905847,9.82950045 -0.728905847,5.10234093 2.18671754,2.18671754 C5.10234093,-0.728905847 9.82950045,-0.728905847 12.7451238,2.18671754 C15.2974548,4.73904855 15.6154803,8.67959906 13.6992002,11.5778798 L17.5802698,15.4589495 L15.4589495,17.5802698 L11.5778798,13.6992002 Z M10.6238035,10.6238035 C12.367854,8.87975298 12.367854,6.0520884 10.6238035,4.30803789 C8.87975298,2.56398737 6.0520884,2.56398737 4.30803789,4.30803789 C2.56398737,6.0520884 2.56398737,8.87975298 4.30803789,10.6238035 C6.0520884,12.367854 8.87975298,12.367854 10.6238035,10.6238035 Z" id="path-search"></path>
    </g>
</svg>