<svg width="60" height="53" viewBox="0 0 60 53" fill="none" xmlns="http://www.w3.org/2000/svg">
<path fill-rule="evenodd" clip-rule="evenodd" d="M49.0909 30.6136C46.5 32.5227 44.3182 33.4091 42.6136 33.4091C40.9091 33.4091 38.7273 32.5227 36.1364 30.6818C36.1364 28.2955 36.9546 25.8409 42.2727 25.8409C47.7273 25.8409 49.0909 27.75 49.0909 30.6136ZM42.6136 23.8636C40.9091 23.8636 39.5455 22.5 39.5455 20.7955C39.5455 19.0909 40.9091 17.7273 42.6136 17.7273C44.3182 17.7273 45.6818 19.0909 45.6818 20.7955C45.6818 22.5 44.3182 23.8636 42.6136 23.8636ZM42.6136 33.4091C37.5 33.4091 33.4091 29.3182 33.4091 24.2045C33.4091 19.0909 37.5 15 42.6136 15C47.7273 15 51.8182 19.0909 51.8182 24.2045C51.8182 29.3182 47.7273 33.4091 42.6136 33.4091ZM27.2727 31.8409L30.8182 36.4773L16.7046 47.0455L13.1591 42.4091L27.2727 31.8409ZM31.3636 41.8636H59.3182V46.9773C59.3182 49.5682 57.4091 51.75 55.0227 51.75H35.6591C33.2727 51.75 31.3636 49.6364 31.3636 46.9773V41.8636ZM59.3182 4.84091H31.3636C31.3636 2.59091 33.2727 0.75 35.6591 0.75H54.9546C57.4091 0.75 59.3182 2.59091 59.3182 4.84091ZM8.52273 29.3182C6.47728 29.3182 4.77273 27.6136 4.77273 25.5682C4.77273 23.5227 6.47728 21.8182 8.52273 21.8182C10.5682 21.8182 12.2727 23.5227 12.2727 25.5682C12.2727 27.6136 10.5682 29.3182 8.52273 29.3182ZM0.681824 15.6818V11.5909H30.6818L28.0227 15.6818H0.681824Z" fill="currentcolor" class="tint"/>
<path d="M15.6818 27.9545C15.2727 27.9545 15 27.6818 15 27.2727C15 26.8636 15.2727 26.5909 15.6818 26.5909H23.8636C24.2727 26.5909 24.5455 26.8636 24.5455 27.2727C24.5455 27.6818 24.2727 27.9545 23.8636 27.9545H15.6818Z" fill="currentcolor" class="shade"/>
<path d="M15.6818 24.5455C15.2727 24.5455 15 24.2727 15 23.8636C15 23.4545 15.2727 23.1818 15.6818 23.1818H26.5909C27 23.1818 27.2727 23.4545 27.2727 23.8636C27.2727 24.2727 27 24.5455 26.5909 24.5455H15.6818Z" fill="currentcolor" class="shade"/>
<path fill-rule="evenodd" clip-rule="evenodd" d="M8.52273 30C6.06818 30 4.09091 28.0227 4.09091 25.5682C4.09091 23.1136 6.06818 21.1364 8.52273 21.1364C10.9773 21.1364 12.9545 23.1136 12.9545 25.5682C12.9545 28.0227 10.9773 30 8.52273 30ZM8.52273 28.6364C10.2273 28.6364 11.5909 27.2727 11.5909 25.5682C11.5909 23.8636 10.2273 22.5 8.52273 22.5C6.81818 22.5 5.45455 23.8636 5.45455 25.5682C5.45455 27.2727 6.81818 28.6364 8.52273 28.6364Z" fill="currentcolor" class="shade"/>
<path d="M5.45455 36.8182C5.04545 36.8182 4.77273 36.5455 4.77273 36.1364C4.77273 35.7273 5.04545 35.4545 5.45455 35.4545H15C15.4091 35.4545 15.6818 35.7273 15.6818 36.1364C15.6818 36.5455 15.4091 36.8182 15 36.8182H5.45455Z" fill="currentcolor" class="shade"/>
<path d="M5.45455 40.2273C5.04545 40.2273 4.77273 39.9545 4.77273 39.5455C4.77273 39.1364 5.04545 38.8636 5.45455 38.8636H12.0682C12.4773 38.8636 12.75 39.1364 12.75 39.5455C12.75 39.9545 12.4773 40.2273 12.0682 40.2273H5.45455Z" fill="currentcolor" class="shade"/>
<path d="M5.45455 43.6364C5.04545 43.6364 4.77273 43.3636 4.77273 42.9545C4.77273 42.5455 5.04545 42.2727 5.45455 42.2727H8.31818C8.72727 42.2727 9 42.5455 9 42.9545C9 43.3636 8.72727 43.6364 8.31818 43.6364H5.45455Z" fill="currentcolor" class="shade"/>
<path d="M1.36364 15H27.9545C28.3636 15 28.6364 15.2727 28.6364 15.6818C28.6364 16.0909 28.3636 16.3636 27.9545 16.3636H0.681818C0.272727 16.3636 0 16.0909 0 15.6818V11.5909C0 11.1818 0.272727 10.9091 0.681818 10.9091H30.6818C31.0909 10.9091 31.3636 11.1818 31.3636 11.5909C31.3636 12 31.0909 12.2727 30.6818 12.2727H1.36364V15Z" fill="currentcolor" class="shade"/>
<path d="M1.36364 51.1364H30C30.4091 51.1364 30.6818 51.4091 30.6818 51.8182C30.6818 52.2273 30.4091 52.5 30 52.5H0.681818C0.272727 52.5 0 52.2273 0 51.8182V18.4091C0 18 0.272727 17.7273 0.681818 17.7273C1.09091 17.7273 1.36364 18 1.36364 18.4091V51.1364Z" fill="currentcolor" class="shade"/>
<path d="M47.7955 46.3636C47.7955 47.5227 46.9091 48.4091 45.75 48.4091C44.5909 48.4091 43.7045 47.5227 43.7045 46.3636C43.7045 45.2045 44.6591 44.3182 45.75 44.3182C46.9091 44.3182 47.7955 45.2727 47.7955 46.3636Z" fill="currentcolor" class="shade"/>
<path fill-rule="evenodd" clip-rule="evenodd" d="M32.0455 40.9091H58.6364V37.5C58.6364 37.0909 58.9091 36.8182 59.3182 36.8182C59.7273 36.8182 60 37.0909 60 37.5V47.3182C60 50.1136 57.75 52.5 55.0227 52.5H35.6591C32.9318 52.5 30.6818 50.1136 30.6818 47.3182V40.4318C30.6818 40.0227 30.9545 39.75 31.3636 39.75C31.7727 39.75 32.0455 40.0227 32.0455 40.4318V40.9091ZM32.0455 42.2727V47.3182C32.0455 49.4318 33.6818 51.1364 35.6591 51.1364H54.9545C56.9318 51.1364 58.5682 49.4318 58.5682 47.3182V42.2727H32.0455Z" fill="currentcolor" class="shade"/>
<path fill-rule="evenodd" clip-rule="evenodd" d="M32.0455 5.45455V7.5C32.0455 7.90909 31.7727 8.18182 31.3636 8.18182C30.9545 8.18182 30.6818 7.90909 30.6818 7.5V4.77273C30.6818 1.97727 32.6591 0 35.4545 0H55.2273C57.8182 0 59.7955 2.04545 60 4.70455V34.4318C60 34.8409 59.7273 35.1136 59.3182 35.1136C58.9091 35.1136 58.6364 34.8409 58.6364 34.4318V5.52273L32.0455 5.45455ZM32.1136 4.09091L58.5682 4.15909C58.1591 2.52273 56.8636 1.36364 55.2273 1.36364H35.4545C33.6818 1.36364 32.3864 2.45455 32.1136 4.09091Z" fill="currentcolor" class="shade"/>
<path fill-rule="evenodd" clip-rule="evenodd" d="M42.6136 17.0455C44.6591 17.0455 46.3636 18.75 46.3636 20.7955C46.3636 22.8409 44.6591 24.5455 42.6136 24.5455C40.5682 24.5455 38.8636 22.8409 38.8636 20.7955C38.8636 18.75 40.5682 17.0455 42.6136 17.0455ZM42.6136 18.4091C41.3182 18.4091 40.2273 19.5 40.2273 20.7955C40.2273 22.0909 41.3182 23.1818 42.6136 23.1818C43.9091 23.1818 45 22.0909 45 20.7955C45 19.5 43.9091 18.4091 42.6136 18.4091Z" fill="currentcolor" class="shade"/>
<path fill-rule="evenodd" clip-rule="evenodd" d="M42.6136 34.0909C37.1591 34.0909 32.7273 29.6591 32.7273 24.2045C32.7273 18.75 37.1591 14.3182 42.6136 14.3182C48.0682 14.3182 52.5 18.75 52.5 24.2045C52.5 29.6591 48.0682 34.0909 42.6136 34.0909ZM46.3636 31.8591C47.1131 31.491 47.8007 31.0161 48.4065 30.4542C48.3404 27.6265 46.998 26.5909 42.6136 26.5909C38.25 26.5909 36.8182 27.6818 36.8182 30C36.8182 30.14 36.7862 30.2641 36.7278 30.3667C37.3559 30.9669 38.0756 31.4721 38.8636 31.8591V30C38.8636 29.5909 39.1364 29.3182 39.5455 29.3182C39.9545 29.3182 40.2273 29.5909 40.2273 30V32.0455C40.2273 32.1661 40.2036 32.2748 40.1597 32.3682C40.9369 32.6018 41.7607 32.7273 42.6136 32.7273C43.4666 32.7273 44.2904 32.6018 45.0676 32.3682C45.0237 32.2748 45 32.1661 45 32.0455V30C45 29.5909 45.2727 29.3182 45.6818 29.3182C46.0909 29.3182 46.3636 29.5909 46.3636 30V31.8591ZM42.6136 25.2273C46.9867 25.2273 49.0774 26.3927 49.6236 29.0514C50.5773 27.675 51.1364 26.0047 51.1364 24.2045C51.1364 19.5 47.3182 15.6818 42.6136 15.6818C37.9091 15.6818 34.0909 19.5 34.0909 24.2045C34.0909 25.9641 34.625 27.5997 35.5399 28.9579C35.9802 26.4551 38.1492 25.2273 42.6136 25.2273Z" fill="currentcolor" class="shade"/>
<path fill-rule="evenodd" clip-rule="evenodd" d="M33.5455 33.9545L31.0227 35.8636C31.2273 36.4773 31.0227 37.1591 30.4773 37.5682L17.7955 47.1136C17.1136 47.5909 16.1591 47.4545 15.6818 46.8409L13.1591 43.5C12.6818 42.8182 12.8182 41.8636 13.4318 41.3864L26.1136 31.8409C26.7273 31.3636 27.6818 31.4318 28.1591 32.0455L30.6136 30.0682C29.7273 28.2955 29.25 26.3182 29.25 24.2045C29.3182 16.8409 35.25 10.9091 42.6136 10.9091C49.9773 10.9091 55.9091 16.8409 55.9091 24.2045C55.9091 31.5682 49.9773 37.5 42.6136 37.5C39.1364 37.5 35.9318 36.1364 33.5455 33.9545ZM42.6136 36.1364C49.2273 36.1364 54.5455 30.8182 54.5455 24.2045C54.5455 17.5909 49.2273 12.2727 42.6136 12.2727C36 12.2727 30.6818 17.5909 30.6818 24.2045C30.6818 30.8182 36 36.1364 42.6136 36.1364ZM29.7273 36.2727L29.5227 36.0682L27.4773 33.4091C27.4091 33.3409 27.3409 33.2045 27.3409 33.1364L27.1364 32.9318C27.0682 32.8636 27 32.8636 26.9318 32.9318L14.3182 42.4091C14.25 42.4773 14.25 42.5455 14.3182 42.6136L16.8409 45.9545C16.9091 46.0227 16.9773 46.0227 17.0455 45.9545L29.7273 36.4091V36.2727ZM32.5909 32.9318C32.1136 32.3864 31.7045 31.8409 31.3636 31.2273L29.1136 33.0682L30.3409 34.7045L32.5909 32.9318Z" fill="currentcolor" class="shade"/>
</svg>
