<svg width="150" height="110" viewBox="0 0 150 110" fill="none" xmlns="http://www.w3.org/2000/svg">
<path fill-rule="evenodd" clip-rule="evenodd" d="M103.094 14.1489C99.9686 14.1489 97.4111 11.5914 97.4111 8.46558C97.4111 5.33974 99.9686 2.78223 103.094 2.78223C106.22 2.78223 108.778 5.33974 108.778 8.46558C108.778 11.5914 106.22 14.1489 103.094 14.1489ZM38.1147 17.559C50.6181 24.5684 57.4382 27.9784 66.1526 33.0935C66.1526 42.1868 66.0579 53.0799 66.1526 65.2991C53.9334 65.3939 42.7562 59.0474 37.2622 47.0177C32.8103 37.2612 33.4733 26.3682 38.1147 17.559ZM95.5166 45.3127C91.8225 44.9338 89.6438 43.0393 89.8333 35.5562C90.1175 23.7159 89.5491 16.9906 103.094 16.9906C116.64 16.9906 116.356 24.1895 116.356 35.5562C116.356 42.7552 114.272 44.7443 110.672 45.2179V69.088H95.5166V45.3127Z" fill="currentcolor" class="tint"/>
<path fill-rule="evenodd" clip-rule="evenodd" d="M103.095 13.2016C105.747 13.2016 107.831 11.1177 107.831 8.46547C107.831 5.81323 105.747 3.72934 103.095 3.72934C100.442 3.72934 98.3586 5.81323 98.3586 8.46547C98.3586 11.1177 100.442 13.2016 103.095 13.2016ZM103.095 15.096C99.4005 15.096 96.4641 12.1596 96.4641 8.46547C96.4641 4.77129 99.4005 1.83489 103.095 1.83489C106.789 1.83489 109.725 4.77129 109.725 8.46547C109.725 12.1596 106.789 15.096 103.095 15.096ZM49.387 4.48712C49.8606 4.20295 50.429 4.3924 50.7131 4.86601C50.9973 5.33962 50.8078 5.90796 50.3342 6.19213C49.4817 6.66574 48.6292 7.23407 47.8714 7.80241C47.3031 8.1813 46.8295 8.65491 46.2612 9.0338C45.5034 9.69686 44.7456 10.3599 43.9878 11.1177C43.7037 11.4019 43.4195 11.686 43.1353 12.0649C42.6617 12.5385 42.1881 13.1069 41.8092 13.6752C37.3572 19.0744 34.8945 25.8944 34.8945 33.0933C34.8945 36.5981 35.4628 40.1028 36.5995 43.4181C36.9783 44.5548 37.452 45.5967 37.9256 46.6387C38.3992 47.4912 38.8728 48.4384 39.3464 49.2909C39.82 50.0487 40.2936 50.8065 40.862 51.5643C41.3356 52.2273 41.9039 52.8904 42.4723 53.5534C43.1353 54.3112 43.7037 54.9743 44.3667 55.6373C44.7456 56.0162 44.7456 56.5845 44.3667 56.9634C43.9878 57.3423 43.4195 57.3423 43.0406 56.9634C42.2828 56.3004 41.6198 55.5426 40.9567 54.7848C40.3884 54.1218 39.82 53.364 39.2517 52.7009C38.7781 51.8484 38.3045 51.0906 37.7361 50.2381C37.1678 49.2909 36.6942 48.4384 36.2206 47.4912C35.6522 46.3545 35.1786 45.2178 34.7997 43.9864C33.6631 40.5764 33 36.8822 33 33.0933C33 25.4208 35.5575 18.2219 40.2936 12.3491C40.7673 11.7808 41.2409 11.2124 41.7145 10.6441C41.9986 10.3599 42.2828 9.98103 42.6617 9.69686C43.4195 8.93908 44.1773 8.1813 45.0298 7.51824C45.5981 7.04463 46.1664 6.66574 46.7348 6.19213C47.5873 5.62379 48.4398 5.05545 49.387 4.48712ZM55.1651 1.83489C55.7334 1.64544 56.207 1.83489 56.3965 2.40322C56.5859 2.87683 56.3018 3.44517 55.8281 3.63462C55.544 3.72934 55.2598 3.82406 55.0704 3.91878C54.5968 4.10823 54.0284 3.82406 53.839 3.35045C53.6495 2.78211 53.839 2.3085 54.4073 2.11905C54.6915 2.02433 54.9756 1.92961 55.1651 1.83489ZM51.092 57.5318L53.5548 53.4587C53.839 52.9851 54.4073 52.8904 54.8809 53.1745C55.3545 53.4587 55.4493 54.027 55.1651 54.5007L52.7023 58.5737C52.4181 59.0473 51.8498 59.1421 51.3762 58.8579C50.9973 58.5737 50.9026 57.9107 51.092 57.5318ZM41.7145 46.544L45.977 44.5548C46.4506 44.3653 47.0189 44.5548 47.2084 45.0284C47.3978 45.502 47.2084 46.0703 46.7348 46.2598L42.4723 48.249C41.9986 48.4384 41.4303 48.249 41.2409 47.7753C41.0514 47.3017 41.2409 46.7334 41.7145 46.544ZM80.7402 57.5318C81.0244 58.0054 80.8349 58.5737 80.456 58.8579C79.9824 59.1421 79.4141 58.9526 79.1299 58.5737L76.6671 54.5007C76.3829 54.027 76.5724 53.4587 76.9513 53.1745C77.4249 52.8904 77.9932 53.0798 78.2774 53.4587L80.7402 57.5318ZM90.8755 46.544C91.3491 46.7334 91.5386 47.3017 91.3491 47.7753C91.1597 48.249 90.5913 48.4384 90.1177 48.249L85.8552 46.2598C85.3816 46.0703 85.1922 45.502 85.3816 45.0284C85.571 44.5548 86.1394 44.3653 86.613 44.5548L90.8755 46.544ZM76.6671 13.0122L79.1299 8.93908C79.4141 8.46547 79.9824 8.37074 80.456 8.56019C80.9296 8.84436 81.0244 9.41269 80.7402 9.88631L78.2774 13.9594C77.9932 14.433 77.4249 14.5277 76.9513 14.2435C76.5724 14.0541 76.4777 13.391 76.6671 13.0122ZM85.7605 20.9689L90.023 18.9797C90.4966 18.7902 91.065 18.9797 91.2544 19.4533C91.4438 19.9269 91.2544 20.4952 90.7808 20.6847L86.5183 22.6739C86.0447 22.8633 85.4763 22.6739 85.2869 22.2002C85.0974 21.7266 85.2869 21.1583 85.7605 20.9689ZM55.1651 13.0122C55.4493 13.4858 55.2598 14.0541 54.8809 14.3383C54.4073 14.6224 53.839 14.433 53.5548 14.0541L51.092 9.98103C50.9026 9.41269 50.9973 8.84436 51.4709 8.56019C51.9445 8.37074 52.5129 8.46547 52.797 8.93908L55.1651 13.0122ZM46.3559 20.9689C46.8295 21.1583 47.0189 21.7266 46.8295 22.2002C46.6401 22.6739 46.0717 22.8633 45.5981 22.6739L41.3356 20.6847C40.862 20.4952 40.6725 19.9269 40.862 19.4533C41.0514 18.9797 41.6198 18.7902 42.0934 18.9797L46.3559 20.9689ZM42.4723 32.1461C43.0406 32.1461 43.4195 32.525 43.4195 33.0933C43.4195 33.6617 43.0406 34.0406 42.4723 34.0406H37.7361C37.1678 34.0406 36.7889 33.6617 36.7889 33.0933C36.7889 32.525 37.1678 32.1461 37.7361 32.1461H42.4723ZM65.2057 4.67656C65.2057 4.10823 65.5846 3.72934 66.1529 3.72934C66.7212 3.72934 67.1001 4.10823 67.1001 4.67656V9.41269C67.1001 9.98103 66.7212 10.3599 66.1529 10.3599C65.5846 10.3599 65.2057 9.98103 65.2057 9.41269V4.67656ZM65.2057 56.774C65.2057 56.2057 65.5846 55.8268 66.1529 55.8268C66.7212 55.8268 67.1001 56.2057 67.1001 56.774V61.5101C67.1001 62.0785 66.7212 62.4574 66.1529 62.4574C65.5846 62.4574 65.2057 62.0785 65.2057 61.5101V56.774ZM66.1529 34.9878C67.1949 34.9878 68.0474 34.1353 68.0474 33.0933C68.0474 32.0514 67.1949 31.1989 66.1529 31.1989C65.111 31.1989 64.2585 32.0514 64.2585 33.0933C64.2585 34.1353 65.111 34.9878 66.1529 34.9878ZM69.8471 34.0406C69.4682 35.6509 67.9526 36.8822 66.1529 36.8822C64.069 36.8822 62.364 35.1772 62.364 33.0933C62.364 31.2936 63.5954 29.8728 65.2057 29.3992V15.096C65.2057 14.5277 65.5846 14.1488 66.1529 14.1488C66.7212 14.1488 67.1001 14.5277 67.1001 15.096V29.3992C68.4263 29.7781 69.4682 30.82 69.8471 32.1461H81.3085C81.8769 32.1461 82.2558 32.525 82.2558 33.0933C82.2558 33.6617 81.8769 34.0406 81.3085 34.0406H69.8471ZM94.5697 46.1651C94.475 46.1651 94.3802 46.1651 94.3802 46.1651C90.4966 45.4073 88.7916 42.2814 88.8863 35.5561C88.8863 34.9878 88.8863 34.8931 88.8863 33.6617C89.0758 26.1786 89.3599 23.5264 90.8755 20.8741C91.5386 19.7375 92.3911 18.885 93.5277 18.1272C92.77 16.7063 91.8227 15.3802 90.8755 14.0541C89.8336 12.6333 88.6022 11.3071 87.276 10.1705C85.7605 8.74963 84.1502 7.51824 82.4452 6.47629C80.9296 5.52907 79.4141 4.77129 77.8038 4.10823C75.6252 3.25572 73.2571 2.59267 70.889 2.21378C69.2788 1.92961 67.7632 1.83489 66.1529 1.83489C63.5954 1.83489 61.1326 2.11905 58.6698 2.78211C58.1962 2.87683 57.6279 2.59267 57.5332 2.11905C57.4384 1.64544 57.7226 1.0771 58.1962 0.982382C60.7537 0.319324 63.406 0.0351562 66.1529 0.0351562C67.8579 0.0351562 69.4682 0.129879 71.1732 0.414047C73.7307 0.792937 76.1935 1.456 78.5616 2.40322C80.2666 3.06628 81.9716 3.91878 83.4871 4.86601C85.2869 6.00268 87.0866 7.3288 88.6969 8.74963C90.1177 9.98103 91.3491 11.4019 92.4858 12.9174C93.5277 14.3383 94.475 15.7591 95.3275 17.2747C97.3167 16.4222 99.8742 16.0433 103.189 16.0433C109.82 16.0433 113.704 17.7483 115.598 21.3477C117.114 24.1894 117.398 26.9364 117.398 34.7984C117.398 35.1772 117.398 35.1772 117.398 35.5561C117.398 41.9973 115.693 45.0284 111.999 45.9756C111.904 45.9756 111.809 45.9756 111.714 45.9756V69.0879C111.714 69.6563 111.336 70.0352 110.767 70.0352H95.5169C94.9486 70.0352 94.5697 69.6563 94.5697 69.0879V50.1434C88.6022 59.9946 77.8985 66.2463 66.1529 66.2463C62.9323 66.2463 59.7118 65.7726 56.6806 64.8254C54.6915 64.2571 52.797 63.4993 50.9973 62.5521C50.5237 62.2679 50.3342 61.6996 50.6184 61.3207C50.9026 60.8471 51.4709 60.6576 51.8498 60.9418C53.5548 61.7943 55.3545 62.5521 57.249 63.1204C60.0907 63.9729 63.1218 64.4465 66.1529 64.4465C77.8038 64.4465 88.2233 58.1001 93.6225 48.0595C93.8119 47.6806 94.1908 47.5859 94.5697 47.5859V46.1651ZM104.042 68.1407H109.725V28.3572C109.725 27.7889 110.104 27.41 110.673 27.41C111.241 27.41 111.62 27.7889 111.62 28.3572V44.0812C114.272 43.3234 115.409 41.1448 115.409 35.5561C115.409 35.1772 115.409 35.1772 115.409 34.7984C115.409 27.2205 115.124 24.5683 113.893 22.2002C112.378 19.2638 109.157 17.9377 103.095 17.9377C99.59 17.9377 97.1272 18.4113 95.3275 19.2638C94.1908 19.8322 93.2436 20.6847 92.6752 21.7266C91.3491 23.9053 91.065 26.4628 90.8755 33.567C90.8755 34.8931 90.8755 34.9878 90.8755 35.4614C90.7808 41.2395 91.9175 43.4181 94.6644 44.0812V28.3572C94.6644 27.7889 95.0433 27.41 95.6116 27.41C96.18 27.41 96.5589 27.7889 96.5589 28.3572V68.1407H102.242V42.5656C102.242 41.9973 102.621 41.6184 103.189 41.6184C103.758 41.6184 104.137 41.9973 104.137 42.5656V68.1407H104.042Z" fill="currentcolor" class="shade"/>
</svg>
