<svg width="68" height="64" viewBox="0 0 68 64" fill="none" xmlns="http://www.w3.org/2000/svg">
<path fill-rule="evenodd" clip-rule="evenodd" d="M56.436 15.1011C53.9175 15.1011 51.8569 13.0405 51.8569 10.522C51.8569 8.00348 53.9175 5.94287 56.436 5.94287C58.9545 5.94287 61.0151 8.00348 61.0151 10.522C61.0151 13.0405 58.9545 15.1011 56.436 15.1011ZM4.08136 17.8486C14.1554 23.4962 19.6504 26.2437 26.6717 30.3649C26.6717 37.6915 26.5954 46.4681 26.6717 56.3132C16.8266 56.3896 7.82098 51.2762 3.39449 41.5837C-0.192491 33.7229 0.34174 24.9462 4.08136 17.8486ZM50.3305 40.21C47.3541 39.9047 45.5988 38.3783 45.7514 32.3492C45.9803 22.8093 45.5224 17.3907 56.436 17.3907C67.3496 17.3907 67.1206 23.1909 67.1206 32.3492C67.1206 38.1494 65.4416 39.7521 62.5415 40.1337V59.366H50.3305V40.21Z" fill="currentcolor" class="tint"/>
<path fill-rule="evenodd" clip-rule="evenodd" d="M56.4759 14.6083C58.6128 14.6083 60.2918 12.9293 60.2918 10.7924C60.2918 8.65544 58.6128 6.97643 56.4759 6.97643C54.3389 6.97643 52.6599 8.65544 52.6599 10.7924C52.6599 12.9293 54.3389 14.6083 56.4759 14.6083ZM56.4759 16.1347C53.4994 16.1347 51.1336 13.7688 51.1336 10.7924C51.1336 7.81594 53.4994 5.45006 56.4759 5.45006C59.4523 5.45006 61.8182 7.81594 61.8182 10.7924C61.8182 13.7688 59.4523 16.1347 56.4759 16.1347ZM13.2031 7.58698C13.5847 7.35802 14.0427 7.51066 14.2716 7.89226C14.5006 8.27385 14.3479 8.73176 13.9663 8.96072C13.2795 9.34231 12.5926 9.80022 11.982 10.2581C11.5241 10.5634 11.1425 10.945 10.6846 11.2503C10.0741 11.7845 9.46352 12.3187 8.85297 12.9293C8.62402 13.1582 8.39506 13.3872 8.16611 13.6925C7.78451 14.0741 7.40292 14.532 7.09764 14.9899C3.51066 19.3401 1.52637 24.835 1.52637 30.6352C1.52637 33.459 1.98429 36.2828 2.90011 38.954C3.20539 39.8698 3.58698 40.7093 3.96857 41.5488C4.35017 42.2357 4.73176 42.9989 5.11336 43.6857C5.49495 44.2963 5.87654 44.9068 6.33446 45.5174C6.71605 46.0516 7.17396 46.5859 7.63187 47.1201C8.16611 47.7306 8.62402 48.2649 9.15825 48.7991C9.46352 49.1044 9.46352 49.5623 9.15825 49.8676C8.85297 50.1728 8.39506 50.1728 8.08979 49.8676C7.47924 49.3333 6.94501 48.7228 6.41077 48.1122C5.95286 47.578 5.49495 46.9674 5.03704 46.4332C4.65544 45.7463 4.27385 45.1358 3.81594 44.4489C3.35802 43.6857 2.97643 42.9989 2.59484 42.2357C2.13692 41.3199 1.75533 40.404 1.45006 39.4119C0.534231 36.6644 0 33.688 0 30.6352C0 24.4534 2.06061 18.6532 5.87654 13.9214C6.25814 13.4635 6.63973 13.0056 7.02132 12.5477C7.25028 12.3187 7.47924 12.0135 7.78451 11.7845C8.39506 11.174 9.00561 10.5634 9.69248 10.0292C10.1504 9.64759 10.6083 9.34231 11.0662 8.96072C11.7531 8.50281 12.44 8.04489 13.2031 7.58698ZM17.8586 5.45006C18.3165 5.29742 18.6981 5.45006 18.8507 5.90797C19.0034 6.28956 18.7744 6.74747 18.3928 6.90011C18.1639 6.97643 17.9349 7.05275 17.7823 7.12907C17.4007 7.28171 16.9428 7.05275 16.7901 6.67116C16.6375 6.21324 16.7901 5.83165 17.248 5.67901C17.477 5.60269 17.7059 5.52637 17.8586 5.45006ZM14.5769 50.3255L16.5612 47.0438C16.7901 46.6622 17.248 46.5859 17.6296 46.8148C18.0112 47.0438 18.0875 47.5017 17.8586 47.8833L15.8743 51.165C15.6453 51.5466 15.1874 51.6229 14.8058 51.3939C14.5006 51.165 14.4242 50.6307 14.5769 50.3255ZM7.02132 41.4725L10.4557 39.8698C10.8373 39.7172 11.2952 39.8698 11.4478 40.2514C11.6004 40.633 11.4478 41.0909 11.0662 41.2435L7.63187 42.8462C7.25028 42.9989 6.79237 42.8462 6.63973 42.4646C6.48709 42.083 6.63973 41.6251 7.02132 41.4725ZM38.4646 50.3255C38.6936 50.7071 38.541 51.165 38.2357 51.3939C37.8541 51.6229 37.3962 51.4703 37.1672 51.165L35.1829 47.8833C34.954 47.5017 35.1066 47.0438 35.4119 46.8148C35.7935 46.5859 36.2514 46.7385 36.4804 47.0438L38.4646 50.3255ZM46.6308 41.4725C47.0123 41.6251 47.165 42.083 47.0123 42.4646C46.8597 42.8462 46.4018 42.9989 46.0202 42.8462L42.5859 41.2435C42.2043 41.0909 42.0516 40.633 42.2043 40.2514C42.3569 39.8698 42.8148 39.7172 43.1964 39.8698L46.6308 41.4725ZM35.1829 14.4557L37.1672 11.174C37.3962 10.7924 37.8541 10.716 38.2357 10.8687C38.6173 11.0976 38.6936 11.5556 38.4646 11.9371L36.4804 15.2189C36.2514 15.6004 35.7935 15.6768 35.4119 15.4478C35.1066 15.2952 35.0303 14.7609 35.1829 14.4557ZM42.5095 20.8664L45.9439 19.2637C46.3255 19.1111 46.7834 19.2637 46.936 19.6453C47.0887 20.0269 46.936 20.4848 46.5544 20.6375L43.1201 22.2402C42.7385 22.3928 42.2806 22.2402 42.1279 21.8586C41.9753 21.477 42.1279 21.0191 42.5095 20.8664ZM17.8586 14.4557C18.0875 14.8373 17.9349 15.2952 17.6296 15.5241C17.248 15.7531 16.7901 15.6004 16.5612 15.2952L14.5769 12.0135C14.4242 11.5556 14.5006 11.0976 14.8822 10.8687C15.2637 10.716 15.7217 10.7924 15.9506 11.174L17.8586 14.4557ZM10.7609 20.8664C11.1425 21.0191 11.2952 21.477 11.1425 21.8586C10.9899 22.2402 10.532 22.3928 10.1504 22.2402L6.71605 20.6375C6.33446 20.4848 6.18182 20.0269 6.33446 19.6453C6.48709 19.2637 6.94501 19.1111 7.3266 19.2637L10.7609 20.8664ZM7.63187 29.8721C8.08979 29.8721 8.39506 30.1773 8.39506 30.6352C8.39506 31.0932 8.08979 31.3984 7.63187 31.3984H3.81594C3.35802 31.3984 3.05275 31.0932 3.05275 30.6352C3.05275 30.1773 3.35802 29.8721 3.81594 29.8721H7.63187ZM25.9484 7.73962C25.9484 7.28171 26.2536 6.97643 26.7116 6.97643C27.1695 6.97643 27.4747 7.28171 27.4747 7.73962V11.5556C27.4747 12.0135 27.1695 12.3187 26.7116 12.3187C26.2536 12.3187 25.9484 12.0135 25.9484 11.5556V7.73962ZM25.9484 49.7149C25.9484 49.257 26.2536 48.9517 26.7116 48.9517C27.1695 48.9517 27.4747 49.257 27.4747 49.7149V53.5309C27.4747 53.9888 27.1695 54.294 26.7116 54.294C26.2536 54.294 25.9484 53.9888 25.9484 53.5309V49.7149ZM26.7116 32.1616C27.5511 32.1616 28.2379 31.4747 28.2379 30.6352C28.2379 29.7957 27.5511 29.1089 26.7116 29.1089C25.8721 29.1089 25.1852 29.7957 25.1852 30.6352C25.1852 31.4747 25.8721 32.1616 26.7116 32.1616ZM29.688 31.3984C29.3827 32.6958 28.1616 33.688 26.7116 33.688C25.0325 33.688 23.6588 32.3143 23.6588 30.6352C23.6588 29.1852 24.651 28.0404 25.9484 27.6588V16.1347C25.9484 15.6768 26.2536 15.3715 26.7116 15.3715C27.1695 15.3715 27.4747 15.6768 27.4747 16.1347V27.6588C28.5432 27.9641 29.3827 28.8036 29.688 29.8721H38.9226C39.3805 29.8721 39.6857 30.1773 39.6857 30.6352C39.6857 31.0932 39.3805 31.3984 38.9226 31.3984H29.688ZM49.6072 41.1672C49.5309 41.1672 49.4546 41.1672 49.4546 41.1672C46.3255 40.5567 44.9517 38.0382 45.0281 32.6195C45.0281 32.1616 45.0281 32.0853 45.0281 31.0932C45.1807 25.064 45.4097 22.927 46.6308 20.7901C47.165 19.8743 47.8519 19.1874 48.7677 18.5769C48.1571 17.4321 47.3939 16.3636 46.6308 15.2952C45.7912 14.1504 44.7991 13.0819 43.7306 12.1661C42.5095 11.0213 41.2121 10.0292 39.8384 9.18967C38.6173 8.42649 37.3962 7.81594 36.0988 7.28171C34.3434 6.59484 32.4355 6.06061 30.5275 5.75533C29.2301 5.52637 28.009 5.45006 26.7116 5.45006C24.651 5.45006 22.6667 5.67901 20.6824 6.21324C20.3008 6.28956 19.8429 6.06061 19.7666 5.67901C19.6902 5.29742 19.9192 4.83951 20.3008 4.76319C22.3614 4.22896 24.4983 4 26.7116 4C28.0853 4 29.3827 4.07632 30.7565 4.30527C32.8171 4.61055 34.8013 5.14478 36.7093 5.90797C38.0831 6.4422 39.4568 7.12907 40.6779 7.89226C42.1279 8.80808 43.578 9.87654 44.8754 11.0213C46.0202 12.0135 47.0123 13.1582 47.9282 14.3793C48.7677 15.5241 49.5309 16.6689 50.2177 17.89C51.8204 17.2031 53.881 16.8979 56.5522 16.8979C61.8945 16.8979 65.0236 18.2716 66.5499 21.1717C67.771 23.4613 68 25.6745 68 32.009C68 32.3143 68 32.3143 68 32.6195C68 37.8092 66.6263 40.2514 63.6498 41.0146C63.5735 41.0146 63.4972 41.0146 63.4209 41.0146V59.6364C63.4209 60.0943 63.1156 60.3995 62.6577 60.3995H50.3704C49.9125 60.3995 49.6072 60.0943 49.6072 59.6364V44.3726C44.7991 52.3098 36.1751 57.3468 26.7116 57.3468C24.1167 57.3468 21.5219 56.9652 19.0797 56.202C17.477 55.7441 15.9506 55.1336 14.5006 54.3704C14.119 54.1414 13.9663 53.6835 14.1953 53.3782C14.4242 52.9966 14.8822 52.844 15.1874 53.0729C16.5612 53.7598 18.0112 54.3704 19.5376 54.8283C21.8272 55.5151 24.2694 55.8967 26.7116 55.8967C36.0988 55.8967 44.4938 50.7834 48.844 42.6936C48.9966 42.3883 49.3019 42.312 49.6072 42.312V41.1672ZM57.2391 58.8732H61.8182V26.8193C61.8182 26.3614 62.1235 26.0561 62.5814 26.0561C63.0393 26.0561 63.3446 26.3614 63.3446 26.8193V39.4882C65.4815 38.8777 66.3973 37.1223 66.3973 32.6195C66.3973 32.3143 66.3973 32.3143 66.3973 32.009C66.3973 25.9035 66.1684 23.7666 65.1762 21.8586C63.9551 19.4927 61.3603 18.4242 56.4759 18.4242C53.6521 18.4242 51.6678 18.8058 50.2177 19.4927C49.3019 19.9506 48.5387 20.6375 48.0808 21.477C47.0123 23.2323 46.7834 25.2929 46.6308 31.0168C46.6308 32.0853 46.6308 32.1616 46.6308 32.5432C46.5544 37.1987 47.4703 38.954 49.6835 39.4882V26.8193C49.6835 26.3614 49.9888 26.0561 50.4467 26.0561C50.9046 26.0561 51.2099 26.3614 51.2099 26.8193V58.8732H55.789V38.2671C55.789 37.8092 56.0943 37.5039 56.5522 37.5039C57.0101 37.5039 57.3154 37.8092 57.3154 38.2671V58.8732H57.2391Z" fill="currentcolor" class="shade"/>
</svg>
