<?xml version="1.0" encoding="UTF-8"?>
<svg width="14px" height="12px" viewBox="0 0 14 12" version="1.1" xmlns="http://www.w3.org/2000/svg" xmlns:xlink="http://www.w3.org/1999/xlink">
    <!-- Generator: Sketch 53.2 (72643) - https://sketchapp.com -->
    <title>icon-twitter</title>
    <desc>Created with Sketch.</desc>
    <defs>
        <path d="M12.2877518,5.07769701 C12.8780217,4.70995208 13.3309434,4.12683796 13.5443236,3.43220858 C12.9916611,3.77271319 12.3809525,4.02043034 11.7285489,4.15322705 C11.2085881,3.57522056 10.4654364,3.21428571 9.64298301,3.21428571 C8.06593212,3.21428571 6.78646893,4.54650986 6.78646893,6.18944432 C6.78646893,6.42269009 6.8109954,6.64912548 6.86004835,6.86704835 C4.48507022,6.74276416 2.3798833,5.55951086 0.969612254,3.75739058 C0.723530379,4.19834395 0.582911875,4.70995208 0.582911875,5.25475939 C0.582911875,6.28648819 1.08733944,7.19733798 1.85419958,7.7310788 C1.38656201,7.71660742 0.945085781,7.58125674 0.559203125,7.35992869 L0.559203125,7.39653305 C0.559203125,8.83857 1.54434893,10.0414023 2.85242634,10.3138058 C2.61288451,10.3836094 2.36026201,10.418511 2.09946431,10.418511 C1.91551576,10.418511 1.73565525,10.4006347 1.56151734,10.3657328 C1.92532641,11.5472837 2.97996388,12.4079089 4.23081286,12.4308931 C3.25302482,13.2293762 2.02016199,13.7052314 0.681835201,13.7052314 C0.451286585,13.7052314 0.223190558,13.6916113 0,13.664371 C1.26474737,14.5071197 2.76740112,15 4.380424,15 C9.63726011,15 12.5109426,10.4670331 12.5109426,6.53505656 C12.5109426,6.40566474 12.50849,6.27627292 12.5035846,6.14943506 C13.0619702,5.72976316 13.5467762,5.20623731 13.9285714,4.60950303 C13.4167861,4.84615398 12.8657585,5.00619102 12.2877518,5.07769701 Z" id="path-twitter"></path>
    </defs>
    <g id="Ready-for-Invision" stroke="none" stroke-width="1" fill="none" fill-rule="evenodd">
        <g id="Footer---Desktop---1920x1080" transform="translate(-1590.000000, -452.000000)">
            <g id="Subscribe-Group" transform="translate(1177.000000, 140.000000)">
                <g id="Social-Media-Icons-and-Legal-Text" transform="translate(295.000000, 309.000000)">
                    <g id="Icon/Social-Media-Icons" transform="translate(83.000000, 0.000000)">
                        <g id="logo/social/left-aligned/twitter" transform="translate(35.000000, 0.000000)">
                            <mask id="mask-2" fill="white">
                                <use xlink:href="#path-twitter"></use>
                            </mask>
                            <use id="logo/social/twitter" fill="#9CA393" fill-rule="evenodd" xlink:href="#path-twitter"></use>
                        </g>
                    </g>
                </g>
            </g>
        </g>
    </g>
</svg>