<svg width="50" height="50" viewBox="0 0 50 50" fill="none" xmlns="http://www.w3.org/2000/svg">
<path d="M49.6685 31.1058C49.2442 30.0716 48.4354 29.2628 47.388 28.8385C46.3538 28.401 45.2002 28.401 44.1527 28.8385L40.0424 30.6417C44.829 25.59 49.9867 18.3373 49.9867 12.6757C49.9867 5.68815 44.2986 0 37.3111 0C33.3864 0 29.6871 1.84301 27.3004 4.91912C24.9138 1.85627 21.2145 0 17.2898 0C10.3023 0 4.61416 5.68815 4.61416 12.6757C4.61416 19.04 11.1641 26.9159 13.8557 29.8727L6.88146 33.9433L6.69583 33.6516C6.39087 33.161 5.75444 32.9753 5.23733 33.2405L0.623173 35.5476C0.0662917 35.826 -0.159113 36.5023 0.119328 37.0591C0.397769 37.616 1.07398 37.8414 1.63086 37.563L5.33015 35.72L11.8801 46.1946L9.01617 47.9051C8.48581 48.2233 8.31344 48.9128 8.63166 49.4564C8.84381 49.8144 9.21506 50 9.59957 50C9.79846 50 9.99734 49.947 10.183 49.8409L14.0281 47.5338C14.2933 47.3747 14.4789 47.1228 14.5452 46.8311C14.6115 46.5394 14.5717 46.2212 14.3994 45.9692L14.227 45.6908L16.481 44.3384C17.0247 44.0069 17.6478 43.8345 18.271 43.8345H30.3633C31.5566 43.8345 32.7102 43.5959 33.8504 43.1185L47.4012 36.6083C48.4354 36.184 49.2442 35.3752 49.6685 34.3278C50.0928 33.2803 50.1061 32.14 49.6685 31.1058ZM17.2898 2.25404C21.0024 2.25404 24.463 4.25617 26.3193 7.49138C26.7171 8.19411 27.8706 8.19411 28.2684 7.49138C30.1246 4.25617 33.5853 2.25404 37.2978 2.25404C43.039 2.25404 47.7194 6.9345 47.7194 12.6757C47.7194 18.9075 39.6447 28.4805 34.5532 32.7367C34.5532 32.7234 34.5532 32.7102 34.5532 32.6969C34.5532 30.3766 32.6704 28.4938 30.35 28.4938H18.6025C17.7141 28.4938 16.8523 28.6529 16.0037 28.9048C16.0037 28.8915 15.9905 28.865 15.9772 28.8518C11.5752 24.1315 6.8682 17.4092 6.8682 12.6757C6.8682 6.9345 11.5487 2.25404 17.2898 2.25404ZM47.5868 33.4527C47.388 33.9433 47.0167 34.3145 46.4731 34.5399L32.9223 41.0501C32.1135 41.3949 31.2517 41.5672 30.3633 41.5672H18.2578C17.2103 41.5672 16.1893 41.8457 15.301 42.3893L13.0204 43.755L8.07478 35.8393L15.2877 31.6362C16.2954 31.0528 17.4357 30.7478 18.6025 30.7478H30.3766C31.4505 30.7478 32.3256 31.6229 32.3256 32.6969C32.3256 33.7709 31.4505 34.646 30.3766 34.646H21.1482C20.5251 34.646 20.0212 35.1631 20.0212 35.773C20.0212 36.3962 20.5251 36.9 21.1482 36.9H30.3766C30.5489 36.9 30.708 36.8603 30.8671 36.847C31.1058 36.9133 31.3577 36.9133 31.6097 36.8072L45.0411 30.9069C45.5184 30.708 46.0488 30.708 46.5394 30.9069C47.03 31.1058 47.4012 31.4771 47.6001 31.9544C47.799 32.4317 47.799 32.9621 47.6001 33.4527H47.5868Z" fill="currentcolor"/>
</svg>
