<svg width="150" height="125" viewBox="0 0 150 125" fill="none" xmlns="http://www.w3.org/2000/svg">
<path fill-rule="evenodd" clip-rule="evenodd" d="M75 58.3778C76.8089 58.3778 78.2889 56.8978 78.2889 55.0889C78.2889 53.28 76.8089 51.8 75 51.8C73.1911 51.8 71.7111 53.28 71.7111 55.0889C71.7111 56.8978 73.1911 58.3778 75 58.3778ZM42.9333 66.7645C42.9333 62.9822 42.9333 60.0222 49.5111 60.0222C56.0889 60.0222 56.0889 63.0644 56.0889 66.7645C54.28 68.2444 51.9778 69.0667 49.5111 69.0667C47.0445 69.0667 44.7422 68.2444 42.9333 66.7645ZM49.5111 58.3778C47.7022 58.3778 46.2222 56.8978 46.2222 55.0889C46.2222 53.28 47.7022 51.8 49.5111 51.8C51.32 51.8 52.8 53.28 52.8 55.0889C52.8 56.8978 51.32 58.3778 49.5111 58.3778ZM93.9111 66.7645C93.9111 62.9822 93.9111 60.0222 100.489 60.0222C107.067 60.0222 107.067 63.0644 107.067 66.7645C105.258 68.2444 102.956 69.0667 100.489 69.0667C98.0222 69.0667 95.72 68.2444 93.9111 66.7645ZM100.489 58.3778C98.68 58.3778 97.2 56.8978 97.2 55.0889C97.2 53.28 98.68 51.8 100.489 51.8C102.298 51.8 103.778 53.28 103.778 55.0889C103.778 56.8978 102.298 58.3778 100.489 58.3778ZM74.6711 18.5822C77.6311 18.5822 80.0156 16.1978 80.0156 13.2378C80.0156 10.2778 77.6311 7.89334 74.6711 7.89334C71.7111 7.89334 69.3267 10.2778 69.3267 13.2378C69.3267 16.1978 71.7111 18.5822 74.6711 18.5822ZM64.7222 30.9978C60.6933 27.9556 58.1445 23.1867 58.1445 17.76C58.1445 8.63334 65.5445 1.23334 74.6711 1.23334C83.7978 1.23334 91.1978 8.63334 91.1978 17.76C91.1978 23.0222 88.8133 27.6267 85.0311 30.6689C85.0311 25.2422 84.4556 21.0489 74.9178 21.0489C65.1334 21.1311 64.8045 25.4889 64.7222 30.9978ZM68.5045 66.8467C65.9556 64.8733 64.3111 61.8311 64.3111 58.3778C64.3111 52.4578 69.08 47.6889 75 47.6889C80.92 47.6889 85.6889 52.4578 85.6889 58.3778C85.6889 61.7489 84.1267 64.7911 81.66 66.7645C81.66 63.0644 80.8378 59.94 75 59.94C69.08 59.94 68.4222 63.0645 68.5045 66.8467Z" fill="currentcolor" class="tint"/>
<path d="M104.6 55.0889C104.6 52.7867 102.791 50.9778 100.489 50.9778C98.1867 50.9778 96.3778 52.7867 96.3778 55.0889C96.3778 57.3911 98.1867 59.2 100.489 59.2C102.791 59.2 104.6 57.3911 104.6 55.0889ZM100.489 57.5556C99.0911 57.5556 98.0223 56.4867 98.0223 55.0889C98.0223 53.6911 99.0911 52.6222 100.489 52.6222C101.887 52.6222 102.956 53.6911 102.956 55.0889C102.956 56.4867 101.887 57.5556 100.489 57.5556Z" fill="currentcolor" class="shade"/>
<path d="M101.311 46.9489V40.2889C101.311 39.7956 100.982 39.4667 100.489 39.4667H75.8222V35.2733C85.0311 34.6156 92.2667 26.9689 92.2667 17.6778C92.2667 13.7311 91.0333 10.0311 88.6489 6.98889C88.4022 6.66 87.8267 6.57778 87.4978 6.82444C87.1689 7.07111 87.0867 7.64667 87.3333 7.97555C89.4711 10.7711 90.6222 14.1422 90.6222 17.6778C90.6222 22.2 88.7311 26.3111 85.6067 29.2711C85.4422 24.2556 83.88 20.5556 75 20.5556C65.9556 20.5556 64.5578 24.7489 64.3111 30.0111C60.7756 27.0511 58.5556 22.6111 58.5556 17.6778C58.5556 8.79778 65.7089 1.64444 74.5889 1.64444C77.0556 1.64444 79.5222 2.22 81.7422 3.28889C82.1533 3.45333 82.6467 3.28889 82.8111 2.87778C82.9756 2.46667 82.8111 1.97333 82.4 1.80889C79.9333 0.575556 77.3022 0 74.5889 0C64.8044 0 56.9111 7.89333 56.9111 17.6778C56.9111 27.2978 64.64 35.1089 74.1778 35.3556V39.4667H49.5111C49.0178 39.4667 48.6889 39.7956 48.6889 40.2889V46.9489C42.6867 47.36 38 52.2933 38 58.3778C38 64.7089 43.18 69.8889 49.5111 69.8889C55.8422 69.8889 61.0222 64.7089 61.0222 58.3778C61.0222 52.2933 56.3356 47.36 50.3333 46.9489V41.1111H99.6667V46.9489C93.6644 47.36 88.9778 52.3756 88.9778 58.3778C88.9778 64.7089 94.1578 69.8889 100.489 69.8889C106.82 69.8889 112 64.7089 112 58.3778C112 52.2933 107.313 47.36 101.311 46.9489ZM75 22.2C83.3867 22.2 83.9622 25.2422 84.0444 30.5867C83.3044 31.1622 82.4822 31.6556 81.5778 32.0667V27.9556C81.5778 27.4622 81.2489 27.1333 80.7556 27.1333C80.2622 27.1333 79.9333 27.4622 79.9333 27.9556V32.8067C78.2889 33.3822 76.48 33.7111 74.5889 33.7111C73.0267 33.7111 71.4644 33.4644 70.0667 33.0533C70.0667 32.9711 70.0667 32.9711 70.0667 32.8889V27.9556C70.0667 27.4622 69.7378 27.1333 69.2444 27.1333C68.7511 27.1333 68.4222 27.4622 68.4222 27.9556V32.4778C67.5178 32.1489 66.7778 31.6556 65.9556 31.1622C66.0378 25.5711 66.6956 22.2 75 22.2ZM43.7556 66.3533C43.8378 62.9 44.2489 60.8444 49.5111 60.8444C54.9378 60.8444 55.2667 62.7355 55.2667 66.3533C55.2667 66.3533 55.2667 66.3533 55.2667 66.4356C53.6222 67.5867 51.6489 68.3267 49.5111 68.3267C47.3733 68.2444 45.4 67.5867 43.7556 66.3533ZM59.3778 58.3778C59.3778 60.9267 58.3911 63.2289 56.8289 64.9556C56.5822 61.5844 55.4311 59.2 49.5111 59.2C43.6733 59.2 42.44 61.6667 42.1933 64.9556C40.6311 63.2289 39.6444 60.9267 39.6444 58.3778C39.6444 52.9511 44.0844 48.5111 49.5111 48.5111C54.9378 48.5111 59.3778 52.9511 59.3778 58.3778ZM94.7333 66.3533C94.8156 62.9 95.2267 60.8444 100.489 60.8444C105.916 60.8444 106.244 62.7355 106.244 66.3533C106.244 66.3533 106.244 66.3533 106.244 66.4356C104.6 67.5867 102.627 68.3267 100.489 68.3267C98.3511 68.2444 96.3778 67.5867 94.7333 66.3533ZM107.807 64.9556C107.56 61.5844 106.409 59.2 100.489 59.2C94.6511 59.2 93.4178 61.6667 93.1711 64.9556C91.6089 63.2289 90.6222 60.9267 90.6222 58.3778C90.6222 52.9511 95.0622 48.5111 100.489 48.5111C105.916 48.5111 110.356 52.9511 110.356 58.3778C110.356 60.9267 109.369 63.2289 107.807 64.9556Z" fill="currentcolor" class="shade"/>
<path d="M79.1111 55.0889C79.1111 52.7867 77.3022 50.9778 75 50.9778C72.6978 50.9778 70.8889 52.7867 70.8889 55.0889C70.8889 57.3911 72.6978 59.2 75 59.2C77.3022 59.2 79.1111 57.3911 79.1111 55.0889ZM75 57.5556C73.6022 57.5556 72.5334 56.4867 72.5334 55.0889C72.5334 53.6911 73.6022 52.6222 75 52.6222C76.3978 52.6222 77.4667 53.6911 77.4667 55.0889C77.4667 56.4867 76.3978 57.5556 75 57.5556Z" fill="currentcolor" class="shade"/>
<path d="M75 46.8667C68.6689 46.8667 63.4889 52.0467 63.4889 58.3778C63.4889 64.7089 68.6689 69.8889 75 69.8889C81.3311 69.8889 86.5111 64.7089 86.5111 58.3778C86.5111 52.0467 81.3311 46.8667 75 46.8667ZM69.2444 66.3534C69.3267 62.9 69.7378 60.8445 75 60.8445C80.4267 60.8445 80.7556 62.7356 80.7556 66.3534C80.7556 66.3534 80.7556 66.3534 80.7556 66.4356C79.1111 67.5867 77.1378 68.3267 75 68.3267C72.8622 68.2445 70.8889 67.5867 69.2444 66.3534ZM82.3178 64.9556C82.0711 61.5845 80.92 59.2 75 59.2C69.1622 59.2 67.9289 61.6667 67.6822 64.9556C66.12 63.2289 65.1333 60.9267 65.1333 58.3778C65.1333 52.9511 69.5733 48.5111 75 48.5111C80.4267 48.5111 84.8667 52.9511 84.8667 58.3778C84.8667 60.9267 83.88 63.2289 82.3178 64.9556Z" fill="currentcolor" class="shade"/>
<path d="M53.6222 55.0889C53.6222 52.7867 51.8134 50.9778 49.5111 50.9778C47.2089 50.9778 45.4 52.7867 45.4 55.0889C45.4 57.3911 47.2089 59.2 49.5111 59.2C51.8134 59.2 53.6222 57.3911 53.6222 55.0889ZM49.5111 57.5556C48.1134 57.5556 47.0445 56.4867 47.0445 55.0889C47.0445 53.6911 48.1134 52.6222 49.5111 52.6222C50.9089 52.6222 51.9778 53.6911 51.9778 55.0889C51.9778 56.4867 50.9089 57.5556 49.5111 57.5556Z" fill="currentcolor" class="shade"/>
<path d="M68.4222 13.5667C68.4222 16.9378 71.2178 19.7334 74.5889 19.7334C77.96 19.7334 80.7556 16.9378 80.7556 13.5667C80.7556 10.1956 77.96 7.40002 74.5889 7.40002C71.2178 7.40002 68.4222 10.1956 68.4222 13.5667ZM79.1111 13.5667C79.1111 16.0334 77.0556 18.0889 74.5889 18.0889C72.1222 18.0889 70.0667 16.0334 70.0667 13.5667C70.0667 11.1 72.1222 9.04447 74.5889 9.04447C77.0556 9.04447 79.1111 11.1 79.1111 13.5667Z" fill="currentcolor" class="shade"/>
<path d="M85.0311 5.50887C85.1956 5.67331 85.36 5.67331 85.6067 5.67331C85.8533 5.67331 86.1 5.59109 86.2645 5.42665C86.5933 5.09776 86.5111 4.5222 86.1822 4.27554C85.6889 3.94665 85.2778 3.61776 84.8667 3.28887C84.5378 3.0422 83.9622 3.12443 83.7156 3.45331C83.4689 3.7822 83.5511 4.35776 83.88 4.60443C84.2911 4.93331 84.7022 5.17998 85.0311 5.50887Z" fill="currentcolor" class="shade"/>
</svg>
