<svg width="64" height="64" viewBox="0 0 64 64" fill="none" xmlns="http://www.w3.org/2000/svg">
<path fill-rule="evenodd" clip-rule="evenodd" d="M32 53.4889C33.5644 53.4889 34.8444 52.2089 34.8444 50.6444C34.8444 49.08 33.5644 47.8 32 47.8C30.4356 47.8 29.1556 49.08 29.1556 50.6444C29.1556 52.2089 30.4356 53.4889 32 53.4889ZM4.26666 60.7422C4.26666 57.4711 4.26666 54.9111 9.95555 54.9111C15.6444 54.9111 15.6444 57.5422 15.6444 60.7422C14.08 62.0222 12.0889 62.7333 9.95555 62.7333C7.82222 62.7333 5.83111 62.0222 4.26666 60.7422ZM9.95555 53.4889C8.39111 53.4889 7.11111 52.2089 7.11111 50.6444C7.11111 49.08 8.39111 47.8 9.95555 47.8C11.52 47.8 12.8 49.08 12.8 50.6444C12.8 52.2089 11.52 53.4889 9.95555 53.4889ZM48.3555 60.7422C48.3555 57.4711 48.3555 54.9111 54.0444 54.9111C59.7333 54.9111 59.7333 57.5422 59.7333 60.7422C58.1689 62.0222 56.1778 62.7333 54.0444 62.7333C51.9111 62.7333 49.92 62.0222 48.3555 60.7422ZM54.0444 53.4889C52.48 53.4889 51.2 52.2089 51.2 50.6444C51.2 49.08 52.48 47.8 54.0444 47.8C55.6089 47.8 56.8889 49.08 56.8889 50.6444C56.8889 52.2089 55.6089 53.4889 54.0444 53.4889ZM31.7155 19.0711C34.2755 19.0711 36.3378 17.0089 36.3378 14.4489C36.3378 11.8889 34.2755 9.82665 31.7155 9.82665C29.1555 9.82665 27.0933 11.8889 27.0933 14.4489C27.0933 17.0089 29.1555 19.0711 31.7155 19.0711ZM23.1111 29.8089C19.6267 27.1778 17.4222 23.0533 17.4222 18.36C17.4222 10.4667 23.8222 4.06665 31.7155 4.06665C39.6089 4.06665 46.0089 10.4667 46.0089 18.36C46.0089 22.9111 43.9467 26.8933 40.6755 29.5244C40.6755 24.8311 40.1778 21.2044 31.9289 21.2044C23.4667 21.2755 23.1822 25.0444 23.1111 29.8089ZM26.3822 60.8133C24.1778 59.1067 22.7556 56.4755 22.7556 53.4889C22.7556 48.3689 26.88 44.2444 32 44.2444C37.12 44.2444 41.2444 48.3689 41.2444 53.4889C41.2444 56.4044 39.8933 59.0355 37.76 60.7422C37.76 57.5422 37.0489 54.84 32 54.84C26.88 54.84 26.3111 57.5422 26.3822 60.8133Z" fill="currentcolor" class="tint"/>
<path d="M57.6001 50.6447C57.6001 48.6536 56.0357 47.0891 54.0446 47.0891C52.0535 47.0891 50.489 48.6536 50.489 50.6447C50.489 52.6358 52.0535 54.2002 54.0446 54.2002C56.0357 54.2002 57.6001 52.6358 57.6001 50.6447ZM54.0446 52.778C52.8357 52.778 51.9112 51.8536 51.9112 50.6447C51.9112 49.4358 52.8357 48.5113 54.0446 48.5113C55.2535 48.5113 56.1779 49.4358 56.1779 50.6447C56.1779 51.8536 55.2535 52.778 54.0446 52.778Z" fill="currentcolor" class="shade"/>
<path d="M54.7556 43.6044V37.8444C54.7556 37.4178 54.4711 37.1333 54.0444 37.1333H32.7111V33.5067C40.6756 32.9378 46.9333 26.3244 46.9333 18.2889C46.9333 14.8756 45.8667 11.6756 43.8044 9.04444C43.5911 8.76 43.0933 8.68889 42.8089 8.90222C42.5244 9.11555 42.4533 9.61333 42.6667 9.89778C44.5156 12.3156 45.5111 15.2311 45.5111 18.2889C45.5111 22.2 43.8756 25.7556 41.1733 28.3156C41.0311 23.9778 39.68 20.7778 32 20.7778C24.1778 20.7778 22.9689 24.4044 22.7556 28.9556C19.6978 26.3956 17.7778 22.5556 17.7778 18.2889C17.7778 10.6089 23.9644 4.42222 31.6444 4.42222C33.7778 4.42222 35.9111 4.92 37.8311 5.84444C38.1867 5.98667 38.6133 5.84444 38.7556 5.48889C38.8978 5.13333 38.7556 4.70667 38.4 4.56444C36.2667 3.49778 33.9911 3 31.6444 3C23.1822 3 16.3556 9.82667 16.3556 18.2889C16.3556 26.6089 23.04 33.3644 31.2889 33.5778V37.1333H9.95556C9.52889 37.1333 9.24444 37.4178 9.24444 37.8444V43.6044C4.05333 43.96 0 48.2267 0 53.4889C0 58.9644 4.48 63.4444 9.95556 63.4444C15.4311 63.4444 19.9111 58.9644 19.9111 53.4889C19.9111 48.2267 15.8578 43.96 10.6667 43.6044V38.5555H53.3333V43.6044C48.1422 43.96 44.0889 48.2978 44.0889 53.4889C44.0889 58.9644 48.5689 63.4444 54.0444 63.4444C59.52 63.4444 64 58.9644 64 53.4889C64 48.2267 59.9467 43.96 54.7556 43.6044ZM32 22.2C39.2533 22.2 39.7511 24.8311 39.8222 29.4533C39.1822 29.9511 38.4711 30.3778 37.6889 30.7333V27.1778C37.6889 26.7511 37.4044 26.4667 36.9778 26.4667C36.5511 26.4667 36.2667 26.7511 36.2667 27.1778V31.3733C34.8444 31.8711 33.28 32.1556 31.6444 32.1556C30.2933 32.1556 28.9422 31.9422 27.7333 31.5867C27.7333 31.5156 27.7333 31.5156 27.7333 31.4444V27.1778C27.7333 26.7511 27.4489 26.4667 27.0222 26.4667C26.5956 26.4667 26.3111 26.7511 26.3111 27.1778V31.0889C25.5289 30.8044 24.8889 30.3778 24.1778 29.9511C24.2489 25.1156 24.8178 22.2 32 22.2ZM4.97778 60.3867C5.04889 57.4 5.40444 55.6222 9.95556 55.6222C14.6489 55.6222 14.9333 57.2578 14.9333 60.3867C14.9333 60.3867 14.9333 60.3867 14.9333 60.4578C13.5111 61.4533 11.8044 62.0933 9.95556 62.0933C8.10667 62.0222 6.4 61.4533 4.97778 60.3867ZM18.4889 53.4889C18.4889 55.6933 17.6356 57.6844 16.2844 59.1778C16.0711 56.2622 15.0756 54.2 9.95556 54.2C4.90667 54.2 3.84 56.3333 3.62667 59.1778C2.27556 57.6844 1.42222 55.6933 1.42222 53.4889C1.42222 48.7955 5.26222 44.9556 9.95556 44.9556C14.6489 44.9556 18.4889 48.7955 18.4889 53.4889ZM49.0667 60.3867C49.1378 57.4 49.4933 55.6222 54.0444 55.6222C58.7378 55.6222 59.0222 57.2578 59.0222 60.3867C59.0222 60.3867 59.0222 60.3867 59.0222 60.4578C57.6 61.4533 55.8933 62.0933 54.0444 62.0933C52.1956 62.0222 50.4889 61.4533 49.0667 60.3867ZM60.3733 59.1778C60.16 56.2622 59.1644 54.2 54.0444 54.2C48.9956 54.2 47.9289 56.3333 47.7156 59.1778C46.3644 57.6844 45.5111 55.6933 45.5111 53.4889C45.5111 48.7955 49.3511 44.9556 54.0444 44.9556C58.7378 44.9556 62.5778 48.7955 62.5778 53.4889C62.5778 55.6933 61.7244 57.6844 60.3733 59.1778Z" fill="currentcolor" class="shade"/>
<path d="M35.5556 50.6447C35.5556 48.6536 33.9911 47.0891 32 47.0891C30.0089 47.0891 28.4445 48.6536 28.4445 50.6447C28.4445 52.6358 30.0089 54.2002 32 54.2002C33.9911 54.2002 35.5556 52.6358 35.5556 50.6447ZM32 52.778C30.7911 52.778 29.8667 51.8536 29.8667 50.6447C29.8667 49.4358 30.7911 48.5113 32 48.5113C33.2089 48.5113 34.1333 49.4358 34.1333 50.6447C34.1333 51.8536 33.2089 52.778 32 52.778Z" fill="currentcolor" class="shade"/>
<path d="M32 43.5334C26.5244 43.5334 22.0444 48.0134 22.0444 53.489C22.0444 58.9646 26.5244 63.4446 32 63.4446C37.4755 63.4446 41.9555 58.9646 41.9555 53.489C41.9555 48.0134 37.4755 43.5334 32 43.5334ZM27.0222 60.3868C27.0933 57.4001 27.4489 55.6223 32 55.6223C36.6933 55.6223 36.9778 57.2579 36.9778 60.3868C36.9778 60.3868 36.9778 60.3868 36.9778 60.4579C35.5555 61.4534 33.8489 62.0934 32 62.0934C30.1511 62.0223 28.4444 61.4534 27.0222 60.3868ZM38.3289 59.1779C38.1155 56.2623 37.12 54.2001 32 54.2001C26.9511 54.2001 25.8844 56.3334 25.6711 59.1779C24.32 57.6846 23.4667 55.6934 23.4667 53.489C23.4667 48.7957 27.3067 44.9557 32 44.9557C36.6933 44.9557 40.5333 48.7957 40.5333 53.489C40.5333 55.6934 39.68 57.6846 38.3289 59.1779Z" fill="currentcolor" class="shade"/>
<path d="M13.5111 50.6447C13.5111 48.6536 11.9467 47.0891 9.95558 47.0891C7.96447 47.0891 6.40002 48.6536 6.40002 50.6447C6.40002 52.6358 7.96447 54.2002 9.95558 54.2002C11.9467 54.2002 13.5111 52.6358 13.5111 50.6447ZM9.95558 52.778C8.74669 52.778 7.82225 51.8536 7.82225 50.6447C7.82225 49.4358 8.74669 48.5113 9.95558 48.5113C11.1645 48.5113 12.0889 49.4358 12.0889 50.6447C12.0889 51.8536 11.1645 52.778 9.95558 52.778Z" fill="currentcolor" class="shade"/>
<path d="M26.3112 14.7335C26.3112 17.649 28.7289 20.0668 31.6445 20.0668C34.56 20.0668 36.9778 17.649 36.9778 14.7335C36.9778 11.8179 34.56 9.40015 31.6445 9.40015C28.7289 9.40015 26.3112 11.8179 26.3112 14.7335ZM35.5556 14.7335C35.5556 16.8668 33.7778 18.6446 31.6445 18.6446C29.5112 18.6446 27.7334 16.8668 27.7334 14.7335C27.7334 12.6001 29.5112 10.8224 31.6445 10.8224C33.7778 10.8224 35.5556 12.6001 35.5556 14.7335Z" fill="currentcolor" class="shade"/>
<path d="M40.6755 7.76474C40.8177 7.90697 40.96 7.90697 41.1733 7.90697C41.3866 7.90697 41.6 7.83586 41.7422 7.69363C42.0266 7.40919 41.9555 6.91141 41.6711 6.69808C41.2444 6.41363 40.8888 6.12919 40.5333 5.84474C40.2488 5.63141 39.7511 5.70252 39.5377 5.98697C39.3244 6.27141 39.3955 6.76919 39.68 6.98252C40.0355 7.26697 40.3911 7.4803 40.6755 7.76474Z" fill="currentcolor" class="shade"/>
</svg>
