<svg width="52" height="52" viewBox="0 0 52 52" fill="none" xmlns="http://www.w3.org/2000/svg">
<path d="M3.67581 19.8336L5.73413 23.6244C5.8199 23.7787 5.93997 23.9674 6.07719 24.1389C6.1458 24.4305 6.33448 24.6878 6.64322 24.8079C6.7976 24.9623 6.93482 25.0995 7.07204 25.2024L8.34134 26.1973C8.46141 26.3002 8.59863 26.6089 8.58147 26.7633L8.08405 31.1715C7.99828 31.9262 8.32418 32.8525 8.85592 33.4014L10.2796 34.825C10.4854 35.0309 10.7599 35.5283 10.8285 35.837L11.7719 40.0909C11.9091 40.7084 12.3379 41.5317 12.7496 41.9949L17.9983 47.7581C9.16466 44.4991 2.83533 35.9743 2.83533 26.0086C2.83533 23.8645 3.12693 21.8062 3.67581 19.8336ZM14.705 5.80274L18.3928 10.1252L15.8714 10.9485C15.1338 11.1887 14.4305 11.9091 14.2075 12.6467L13.0755 16.3345L10.7599 15.7341C9.83362 15.494 8.85592 16.0086 8.53002 16.9005L6.81475 21.7033L4.49914 17.4666C6.4717 12.5094 10.1081 8.3928 14.7221 5.80274M19.1647 3.88165L22.0635 7.22641C22.5266 7.7753 23.1955 8.08405 23.8816 8.08405C24.5678 8.08405 25.2367 7.75815 25.6998 7.20926L29.1818 3.07547C30.6398 3.2813 32.0463 3.6072 33.4014 4.07033L32.9897 4.49914C32.4065 5.08233 32.1664 6.06003 32.3894 6.84906L32.9039 8.59863C32.9554 8.78731 32.9039 9.19897 32.7839 9.35334L31 11.9091C30.5369 12.5952 30.4683 13.6072 30.8456 14.3276L31.2058 15.0309C31.5832 15.7341 32.4065 16.283 33.1955 16.3516L35.5798 16.5575C35.5798 16.5575 35.6998 16.5575 35.7513 16.5575C36.506 16.5575 37.3293 16.1629 37.7753 15.5798L39.5077 13.3156C39.5077 13.3156 39.765 13.1784 39.8508 13.2127L46.5746 15.3911C47.0377 16.3002 47.4665 17.2436 47.8096 18.2213L42.578 18.5815C42.2178 18.5986 41.566 18.53 41.2058 18.4271L37.1063 17.1921C36.3173 16.952 35.3396 17.1921 34.7564 17.7925L32.3551 20.1938C31.8233 20.7256 31.4974 21.6518 31.566 22.4065L31.7376 24.2075C31.8062 24.9108 32.2178 25.7513 32.7324 26.2316L33.6244 27.072C34.2075 27.6209 35.1852 27.8782 35.9571 27.6724L37.9983 27.1235C37.9983 27.1235 38.2899 27.175 38.3413 27.2436L42.1492 32.681C42.2693 32.8525 42.3551 33.2985 42.3208 33.5214L41.446 37.5523C41.2916 38.2556 41.446 39.199 41.8405 39.8165L43.024 41.6861C38.7873 46.283 32.7153 49.1647 25.9914 49.1647C24.0703 49.1647 22.2007 48.9245 20.3997 48.4786C20.6055 48.3585 20.777 48.1698 20.9142 47.964L22.4065 45.5798C22.8353 44.9108 22.8868 43.8988 22.5266 43.1784L21.1715 40.4511C21.1201 40.3653 21.1715 40.1252 21.223 40.0394L22.4237 38.6672C22.8182 38.2041 23.2641 37.4322 23.4357 36.8491L24.259 34.1218C24.5334 33.1955 24.0189 32.2007 23.1098 31.8748C21.6003 31.3602 19.8508 30.7084 19.1647 30.3825C19.0961 30.0395 18.976 29.4563 18.7187 28.4614C18.5472 27.7753 17.9983 27.0034 17.4151 26.5918L13.59 24.0017C12.9039 23.5386 11.8405 23.5214 11.1372 23.9674L9.66209 24.9108C9.66209 24.9108 9.55918 24.8079 9.49056 24.7736L8.22127 23.7787C8.22127 23.7787 8.11835 23.693 8.06689 23.6415L10.2796 17.5352L12.5952 18.1355C13.5214 18.3756 14.5163 17.8268 14.7907 16.9177L15.94 13.2298C15.9914 13.0583 16.2659 12.7839 16.4374 12.7324L19.4391 11.7547C19.9537 11.5832 20.3139 11.223 20.4511 10.7427C20.5883 10.2624 20.4511 9.76501 20.1081 9.35334L16.3859 4.97942C17.2779 4.56775 18.2041 4.20755 19.1475 3.91595M26.0086 2.88679C26.3173 2.88679 26.6432 2.88679 26.952 2.90394L24.2933 6.06003C24.1732 6.19726 24.0189 6.28302 23.8645 6.28302C23.7273 6.30017 23.5557 6.21441 23.4357 6.06003L21.1201 3.40137C22.6981 3.05832 24.3276 2.88679 25.9914 2.88679M45.1509 13.0412L40.4168 11.4974C39.5935 11.2401 38.5815 11.5489 38.0497 12.235L36.3173 14.4991C36.2144 14.6364 35.8885 14.7736 35.7341 14.7564L33.3499 14.5506C33.1784 14.5506 32.8868 14.3448 32.8182 14.1904L32.458 13.4871C32.3894 13.3671 32.4065 13.0755 32.4923 12.9554L34.2762 10.3997C34.705 9.78216 34.8593 8.80446 34.6535 8.0669L34.1389 6.31732C34.1046 6.1801 34.1732 5.88851 34.2762 5.78559L35.271 4.79074C39.2847 6.55746 42.7153 9.42196 45.1681 13.0069M44.2761 40.211L43.4014 38.8216C43.2813 38.6329 43.1955 38.1527 43.247 37.9297L44.1218 33.8988C44.2761 33.1784 44.0875 32.2178 43.6587 31.6175L39.8679 26.1801C39.3705 25.4768 38.3756 25.1166 37.5523 25.3396L35.5111 25.8885C35.3568 25.9228 35.0309 25.837 34.9108 25.7341L34.0189 24.8937C33.8302 24.7221 33.6072 24.259 33.59 24.0017L33.4014 22.2007C33.3842 21.9949 33.5214 21.6003 33.6587 21.4631L36.06 19.0618C36.1629 18.9588 36.4545 18.8902 36.5918 18.9245L40.6912 20.1595C41.2573 20.331 42.1321 20.434 42.7153 20.3825L48.3756 19.988C48.8902 21.8919 49.1647 23.8988 49.1647 25.9743C49.1647 31.3259 47.3293 36.2487 44.2761 40.1767M19.542 41.223L20.8971 43.9503C20.9657 44.0875 20.9485 44.4305 20.8628 44.5677L19.5592 46.6604L14.1561 40.7084C13.9503 40.4683 13.6758 39.9537 13.6072 39.6449L12.6638 35.3911C12.5266 34.7564 12.0806 33.9331 11.6175 33.4871L10.1938 32.0635C10.0566 31.9262 9.91938 31.5317 9.93653 31.3431L10.434 26.9348C10.434 26.8147 10.434 26.6775 10.434 26.5403L12.1149 25.4768C12.2178 25.4082 12.4751 25.4254 12.5609 25.4768L16.3859 28.084C16.5918 28.2213 16.8834 28.6329 16.9348 28.8731C17.1406 29.6964 17.3808 30.7256 17.3979 30.8971C17.3979 31.5832 17.3979 31.8405 22.4923 33.5557L21.669 36.283C21.566 36.6089 21.2573 37.1578 21.0343 37.4151L19.8336 38.7873C19.2847 39.422 19.1475 40.4683 19.5249 41.223M25.9914 50.9657C33.5043 50.9657 40.2453 47.6381 44.825 42.3722L44.928 42.2521C48.6844 37.8782 50.9657 32.2007 50.9657 25.9914C50.9657 21.7547 49.9022 17.7581 48.0326 14.259L47.9811 14.1732C45.2367 9.09606 40.7942 5.06518 35.4254 2.86964C35.3911 2.86964 35.3568 2.83533 35.3053 2.81818C32.4237 1.6518 29.2676 1 25.9743 1C23.6244 1 21.3602 1.3259 19.199 1.9434C19.1647 1.9434 19.1304 1.96055 19.0961 1.9777C11.5146 4.15609 5.37393 9.86792 2.61235 17.1921C2.61235 17.2264 2.57804 17.2436 2.57804 17.2779C1.56604 20.0051 1 22.9382 1 26.0086C1 39.7822 12.2178 51 25.9914 51" fill="currentcolor"/>
<path d="M3.67581 19.8335L5.73413 23.6242C5.8199 23.7786 5.93996 23.9673 6.07719 24.1388C6.1458 24.4304 6.33448 24.6877 6.64322 24.8078C6.7976 24.9621 6.93482 25.0994 7.07204 25.2023L8.34134 26.1971C8.46141 26.3 8.59863 26.6088 8.58147 26.7632L8.08405 31.1714C7.99828 31.9261 8.32418 32.8524 8.85592 33.4012L10.2796 34.8249C10.4854 35.0307 10.7599 35.5282 10.8285 35.8369L11.7719 40.0908C11.9091 40.7083 12.3379 41.5316 12.7496 41.9947L17.9983 47.758C9.16466 44.499 2.83533 35.9741 2.83533 26.0084C2.83533 23.8644 3.12693 21.806 3.67581 19.8335ZM14.705 5.80262L18.3928 10.1251L15.8714 10.9484C15.1338 11.1886 14.4305 11.909 14.2075 12.6465L13.0755 16.3343L10.7599 15.734C9.83362 15.4939 8.85592 16.0084 8.53002 16.9004L6.81475 21.7031L4.49914 17.4664C6.4717 12.5093 10.1081 8.39267 14.7221 5.80262H14.705ZM19.1475 3.88152L22.0463 7.22629C22.5094 7.77517 23.1784 8.08392 23.8645 8.08392C24.5506 8.08392 25.2195 7.75802 25.6827 7.20914L29.1647 3.07535C30.6226 3.28118 32.0292 3.60708 33.3842 4.0702L32.9725 4.49902C32.3894 5.08221 32.1492 6.05991 32.3722 6.84893L32.8868 8.5985C32.9382 8.78718 32.8868 9.19884 32.7667 9.35322L30.9828 11.909C30.5197 12.5951 30.4511 13.6071 30.8285 14.3275L31.1887 15.0307C31.566 15.734 32.3894 16.2829 33.1784 16.3515L35.5626 16.5573C35.5626 16.5573 35.6827 16.5573 35.7341 16.5573C36.4888 16.5573 37.3122 16.1628 37.7581 15.5796L39.4906 13.3155C39.4906 13.3155 39.7478 13.1783 39.8336 13.2126L46.5575 15.391C47.0206 16.3 47.4494 17.2434 47.7924 18.2211L42.5609 18.5813C42.2007 18.5985 41.5489 18.5299 41.1887 18.427L37.0892 17.192C36.3002 16.9518 35.3225 17.192 34.7393 17.7923L32.3379 20.1937C31.8062 20.7254 31.4803 21.6517 31.5489 22.4064L31.7204 24.2074C31.789 24.9107 32.2007 25.7512 32.7153 26.2314L33.6072 27.0719C34.1904 27.6208 35.1681 27.8781 35.94 27.6723L37.9811 27.1234C37.9811 27.1234 38.2727 27.1748 38.3242 27.2434L42.1321 32.6808C42.2521 32.8524 42.3379 33.2983 42.3036 33.5213L41.4288 37.5522C41.2744 38.2554 41.4288 39.1988 41.8233 39.8163L43.0069 41.686C38.7701 46.2829 32.6981 49.1645 25.9743 49.1645C24.0532 49.1645 22.1835 48.9244 20.3825 48.4784C20.5883 48.3584 20.7599 48.1697 20.8971 47.9638L22.3894 45.5796C22.8182 44.9107 22.8696 43.8987 22.5094 43.1783L21.1544 40.451C21.1029 40.3652 21.1544 40.1251 21.2058 40.0393L22.4065 38.6671C22.801 38.204 23.247 37.4321 23.4185 36.8489L24.2418 34.1217C24.5163 33.1954 24.0017 32.2006 23.0926 31.8747C21.5832 31.3601 19.8336 30.7083 19.1475 30.3824C19.0789 30.0393 18.9588 29.4561 18.7015 28.4613C18.53 27.7752 17.9811 27.0033 17.3979 26.5916L13.5729 24.0016C12.8868 23.5385 11.8233 23.5213 11.1201 23.9673L9.64494 24.9107C9.64494 24.9107 9.54202 24.8078 9.47341 24.7735L8.20411 23.7786C8.20411 23.7786 8.1012 23.6928 8.04974 23.6414L10.2624 17.535L12.578 18.1354C13.5043 18.3755 14.4991 17.8266 14.7736 16.9175L15.9228 13.2297C15.9743 13.0582 16.2487 12.7837 16.4202 12.7323L19.422 11.7546C19.9365 11.5831 20.2967 11.2229 20.434 10.7426C20.5712 10.2623 20.434 9.76488 20.0909 9.35322L16.3688 4.97929C17.2607 4.56763 18.187 4.20742 19.1304 3.91583L19.1475 3.88152ZM26.0086 2.85236C26.3173 2.85236 26.6432 2.85236 26.952 2.86951L24.2933 6.0256C24.1732 6.16282 24.0189 6.24859 23.8645 6.24859C23.7273 6.26574 23.5557 6.17998 23.4357 6.0256L21.1201 3.36694C22.6981 3.02389 24.3276 2.85236 25.9914 2.85236H26.0086ZM45.1681 13.0067L40.434 11.463C39.6106 11.2057 38.5986 11.5145 38.0669 12.2006L36.3345 14.4647C36.2316 14.6019 35.9057 14.7392 35.7513 14.722L33.3671 14.5162C33.1955 14.5162 32.9039 14.3103 32.8353 14.156L32.4751 13.4527C32.4065 13.3326 32.4237 13.041 32.5094 12.921L34.2933 10.3652C34.7221 9.74773 34.8765 8.77003 34.6707 8.03246L34.1561 6.28289C34.1218 6.14567 34.1904 5.85408 34.2933 5.75116L35.2882 4.75631C39.3019 6.52303 42.7324 9.38752 45.1852 12.9724L45.1681 13.0067ZM44.2761 40.2108L43.4014 38.8215C43.2813 38.6328 43.1955 38.1525 43.247 37.9295L44.1218 33.8987C44.2761 33.1783 44.0875 32.2177 43.6587 31.6174L39.8679 26.18C39.3705 25.4767 38.3756 25.1165 37.5523 25.3395L35.5111 25.8884C35.3568 25.9227 35.0309 25.8369 34.9108 25.734L34.0189 24.8935C33.8302 24.722 33.6072 24.2589 33.59 24.0016L33.4014 22.2006C33.3842 21.9947 33.5214 21.6002 33.6587 21.463L36.06 19.0616C36.1629 18.9587 36.4545 18.8901 36.5918 18.9244L40.6912 20.1594C41.2573 20.3309 42.1321 20.4338 42.7153 20.3824L48.3756 19.9879C48.8902 21.8918 49.1647 23.8987 49.1647 25.9741C49.1647 31.3258 47.3293 36.2486 44.2761 40.1765V40.2108ZM19.542 41.2572L20.8971 43.9844C20.9657 44.1217 20.9485 44.4647 20.8628 44.6019L19.5592 46.6945L14.1561 40.7426C13.9503 40.5024 13.6758 39.9879 13.6072 39.6791L12.6638 35.4253C12.5266 34.7906 12.0806 33.9673 11.6175 33.5213L10.1938 32.0976C10.0566 31.9604 9.91938 31.5659 9.93653 31.3772L10.434 26.969C10.434 26.8489 10.434 26.7117 10.434 26.5745L12.1149 25.511C12.2178 25.4424 12.4751 25.4596 12.5609 25.511L16.3859 28.1182C16.5918 28.2554 16.8834 28.6671 16.9348 28.9072C17.1406 29.7306 17.3808 30.7597 17.3979 30.9313C17.3979 31.6174 17.3979 31.8747 22.4923 33.5899L21.6689 36.3172C21.566 36.6431 21.2573 37.192 21.0343 37.4493L19.8336 38.8215C19.2847 39.4561 19.1475 40.5024 19.5249 41.2572H19.542ZM26.0086 50.9999C33.5214 50.9999 40.2624 47.6723 44.8422 42.4064L44.9451 42.2863C48.7015 37.9124 50.9828 32.2349 50.9828 26.0256C50.9828 21.7889 49.9194 17.7923 48.0497 14.2932L47.9983 14.2074C45.2538 9.13023 40.8113 5.09936 35.4425 2.90382C35.4082 2.90382 35.3739 2.86951 35.3225 2.85236C32.4408 1.68598 29.2847 1.03418 25.9914 1.03418C23.6415 1.03418 21.3774 1.36008 19.2161 1.97758C19.1818 1.97758 19.1475 1.99473 19.1132 2.01188C11.5146 4.15596 5.37393 9.8678 2.61235 17.192C2.61235 17.2263 2.57804 17.2434 2.57804 17.2777C1.56604 20.005 1 22.9381 1 26.0084C1 39.782 12.2178 50.9999 25.9914 50.9999H26.0086Z" stroke="currentcolor" stroke-width="0.5" stroke-miterlimit="10"/>
</svg>
