<?xml version="1.0" encoding="UTF-8"?>
<svg width="14px" height="11px" viewBox="0 0 14 11" version="1.1" xmlns="http://www.w3.org/2000/svg" xmlns:xlink="http://www.w3.org/1999/xlink">
    <!-- Generator: Sketch 53.2 (72643) - https://sketchapp.com -->
    <title>icon-youtube</title>
    <desc>Created with Sketch.</desc>
    <defs>
        <path d="M5.35757658,11.7857143 L5.35714286,7.5 L9.10714286,9.6502455 L5.35757658,11.7857143 Z M13.7892857,7.0170551 C13.7892857,7.0170551 13.6530468,6.01986525 13.235625,5.58073982 C12.705904,5.00413363 12.1121986,5.00142014 11.8401562,4.9679545 C9.89102679,4.82142857 6.96733259,4.82142857 6.96733259,4.82142857 L6.96123884,4.82142857 C6.96123884,4.82142857 4.03754464,4.82142857 2.08841518,4.9679545 C1.8159375,5.00142014 1.22266741,5.00413363 0.692511161,5.58073982 C0.275089286,6.01986525 0.139285714,7.0170551 0.139285714,7.0170551 C0.139285714,7.0170551 0,8.1883572 0,9.35920725 L0,10.4572467 C0,11.6285488 0.139285714,12.7993988 0.139285714,12.7993988 C0.139285714,12.7993988 0.275089286,13.7965887 0.692511161,14.2357138 C1.22266741,14.8123203 1.91866071,14.7942306 2.22857143,14.8543788 C3.34285714,14.9656296 6.96428571,15 6.96428571,15 C6.96428571,15 9.89102679,14.9954778 11.8401562,14.8489518 C12.1121986,14.8150338 12.705904,14.8123203 13.235625,14.2357138 C13.6530468,13.7965887 13.7892857,12.7993988 13.7892857,12.7993988 C13.7892857,12.7993988 13.9285714,11.6285488 13.9285714,10.4572467 L13.9285714,9.35920725 C13.9285714,8.1883572 13.7892857,7.0170551 13.7892857,7.0170551 L13.7892857,7.0170551 Z" id="path-1"></path>
    </defs>
    <g id="Ready-for-Invision" stroke="none" stroke-width="1" fill="none" fill-rule="evenodd">
        <g id="Footer---Desktop---1920x1080" transform="translate(-1695.000000, -453.000000)">
            <g id="Subscribe-Group" transform="translate(1177.000000, 140.000000)">
                <g id="Social-Media-Icons-and-Legal-Text" transform="translate(295.000000, 309.000000)">
                    <g id="Icon/Social-Media-Icons" transform="translate(83.000000, 0.000000)">
                        <g id="logo/social/left-aligned/youtube" transform="translate(140.000000, 0.000000)">
                            <mask id="mask-2" fill="white">
                                <use xlink:href="#path-1"></use>
                            </mask>
                            <use id="Youtube" fill="#9CA393" fill-rule="evenodd" xlink:href="#path-1"></use>
                        </g>
                    </g>
                </g>
            </g>
        </g>
    </g>
</svg>