<svg width="1900" height="803" viewBox="0 0 1900 803" fill="none" xmlns="http://www.w3.org/2000/svg">
<path d="M1119.05 57.4976L1119.76 56.177L1119.05 57.4977L1704.66 372.869C1798.03 423.153 1857.51 520.363 1860.71 627.918L1880.71 1302.34C1883.9 1409.9 1830.3 1511.42 1740.11 1568.68L1174.51 1927.72C1084.33 1984.96 971.261 1989.26 877.896 1938.97L292.282 1623.6C198.915 1573.32 139.428 1476.11 136.235 1368.55L116.234 694.127C113.049 586.582 166.647 485.059 256.836 427.807L256.032 426.54L256.836 427.807L822.429 68.7481C912.612 11.5076 1025.68 7.21425 1119.05 57.4976Z" stroke="url(#paint0_linear_4_253)" stroke-width="3"/>
<path d="M26.4595 902.752L198.477 1554.94C226.047 1659.46 306.397 1741.08 409.281 1769.09L1051.28 1943.84C1154.16 1971.84 1263.93 1941.96 1339.25 1865.46L1809.22 1388.03C1884.53 1311.52 1913.94 1200 1886.37 1095.49L1714.36 443.301C1686.79 338.784 1606.44 257.158 1503.55 229.151L861.554 54.4034C758.67 26.396 648.899 56.284 573.585 132.783L103.625 610.222C28.3108 686.732 -1.10026 798.245 26.4595 902.752Z" fill="url(#paint1_linear_4_253)"/>
<defs>
<linearGradient id="paint0_linear_4_253" x1="313.658" y1="348.861" x2="1701.54" y2="1627.65" gradientUnits="userSpaceOnUse">
<stop stop-color="#82F2D9"/>
<stop offset="1" stop-color="#34B9AC"/>
</linearGradient>
<linearGradient id="paint1_linear_4_253" x1="633.5" y1="999" x2="586" y2="463" gradientUnits="userSpaceOnUse">
<stop stop-color="#82F2D9"/>
<stop offset="0.870552" stop-color="#34B9AC"/>
</linearGradient>
</defs>
</svg>
