<svg width="460" height="431" viewBox="0 0 460 431" fill="none" xmlns="http://www.w3.org/2000/svg">
    <g clip-path="url(#clip0_513_396)">
        <path d="M254.635 174.07C238.269 172.583 222.352 179.94 212.88 193.371L163.432 263.491C153.96 276.922 152.374 294.385 159.27 309.303L195.271 387.187C202.167 402.105 216.497 412.21 232.864 413.697L318.315 421.461C334.681 422.948 350.598 415.59 360.069 402.16L409.518 332.039C418.989 318.609 420.576 301.145 413.68 286.228L377.679 208.344C370.783 193.426 356.453 183.32 340.086 181.833L254.635 174.07Z"
              stroke="currentcolor" class="theme" stroke-width="2"/>
        <path d="M101.425 116.824C84.9805 120.219 71.5966 132.13 66.3148 148.069L27.8681 264.094C22.5864 280.033 26.2093 297.579 37.3722 310.123L118.629 401.431C129.792 413.975 146.799 419.61 163.244 416.215L282.948 391.498C299.392 388.103 312.776 376.192 318.058 360.253L356.505 244.228C361.786 228.289 358.163 210.743 347.001 198.199L265.743 106.891C254.581 94.347 237.574 88.7115 221.129 92.107L101.425 116.824Z"
              fill="currentcolor" class="theme-tint-15"/>
        <path d="M137.88 12.2804C129.396 5.16139 117.758 3.10936 107.351 6.89731L60.6844 23.8825C50.2771 27.6705 42.6812 36.7229 40.758 47.6299L32.1344 96.5368C30.2112 107.444 34.2529 118.548 42.737 125.667L80.7798 157.589C89.264 164.708 100.902 166.76 111.309 162.972L157.975 145.987C168.383 142.199 175.979 133.147 177.902 122.24L186.525 73.3326C188.449 62.4257 184.407 51.3212 175.923 44.2021L137.88 12.2804Z"
              stroke="currentcolor" class="theme-tint-5" stroke-width="2"/>
    </g>
    <defs>
        <clipPath id="clip0_513_396">
            <rect width="460" height="431" fill="white" transform="matrix(-1 0 0 1 460 0)"/>
        </clipPath>
    </defs>
</svg>
