<svg fill="none" xmlns="http://www.w3.org/2000/svg" viewBox="0 0 850 1121">
  <path d="m772.015 450.031 73.271 294.071c11.741 47.127-2.363 96.752-37.001 130.194L592.134 1082.97c-34.638 33.44-84.549 45.6-130.926 31.92l-289.415-85.4c-46.379-13.68-82.182-51.142-93.923-98.27L4.6 637.149c-11.741-47.127 2.362-96.752 37-130.194l216.151-208.67c34.639-33.442 84.549-45.608 130.926-31.927l289.413 85.405c46.38 13.686 82.183 51.147 93.925 98.268Z" fill="url(#block-center-right-double-1-a)"/>
  <path d="m735.891 69.338 26.577 106.668c4.259 17.094-.857 35.094-13.421 47.225l-78.404 75.69c-12.564 12.13-30.668 16.543-47.49 11.581l-104.979-30.977c-16.823-4.964-29.809-18.552-34.068-35.646l-26.577-106.668c-4.259-17.094.857-35.094 13.421-47.225l78.403-75.69c12.565-12.13 30.669-16.543 47.491-11.58l104.978 30.978c16.823 4.964 29.81 18.552 34.069 35.644Z" fill="var(--theme-tint15)"/>
  <defs>
    <linearGradient id="block-center-right-double-1-a" x1="217.978" y1="314.898" x2="631.905" y2="1066.35" gradientUnits="userSpaceOnUse">
      <stop stop-color="var(--theme-tint10)"/>
      <stop offset="1" stop-color="var(--theme-tint15)"/>
    </linearGradient>
  </defs>
</svg>