<svg width="768" height="492" viewBox="0 0 768 492" fill="none" xmlns="http://www.w3.org/2000/svg">
    <path opacity="0.75"
          d="M-41.1277 158.841L-41.3467 157.866L-41.1278 158.841L-320.719 221.577C-365.173 231.553 -401.003 264.717 -414.715 308.592L-500.928 584.479C-514.64 628.355 -504.142 676.262 -473.392 710.155L-280.018 923.302C-249.269 957.19 -202.945 971.924 -158.492 961.948L121.099 899.213C165.553 889.237 201.384 856.073 215.096 812.198L301.308 536.311C315.016 492.439 304.518 444.532 273.768 410.638L80.3983 197.487C49.6497 163.599 3.32535 148.866 -41.1277 158.841Z"
          stroke="currentcolor" class="theme-tint-15" stroke-width="2"/>
    <path d="M827.808 127.962L827.562 126.993L827.808 127.962L680.059 165.399C656.731 171.31 638.29 189.341 631.684 212.711L589.868 360.663L588.906 360.391L589.868 360.663C583.262 384.034 589.501 409.182 606.23 426.635L712.16 537.148C728.888 554.597 753.562 561.705 776.889 555.794L924.638 518.358C947.965 512.446 966.407 494.416 973.012 471.045L1014.83 323.093C1021.43 299.725 1015.19 274.577 998.464 257.124L999.186 256.432L998.464 257.124L892.537 146.609C875.809 129.159 851.135 122.051 827.808 127.962Z"
          stroke="currentcolor" class="secondary" stroke-width="2"/>
    <path d="M616.066 211.21L571.541 358.37C564.404 381.953 545.36 399.906 521.576 405.47L373.165 440.188C349.381 445.752 324.475 438.078 307.827 420.061L203.944 307.621C187.296 289.603 181.437 263.976 188.573 240.392L233.099 93.233C240.235 69.6498 259.279 51.697 283.063 46.1326L431.474 11.4152C455.258 5.85089 480.164 13.5253 496.812 31.5418L600.693 143.984C617.341 162.002 623.2 187.63 616.066 211.21Z"
          fill="currentcolor" class="secondary-tint-10"/>
</svg>
