<svg width="1901" height="2306" viewBox="0 0 1901 2306" fill="none" xmlns="http://www.w3.org/2000/svg">
    <g clip-path="url(#bg-center-multi-1-c)">
        <path opacity="0.13"
              d="M594.426 433.453C622.199 348.857 692.993 285.504 780.142 267.259L1664.19 82.1707C1751.34 63.925 1841.6 93.5584 1900.98 159.908L2503.29 832.973C2562.67 899.323 2582.14 992.309 2554.36 1076.91L2272.63 1935.06C2244.86 2019.65 2174.06 2083.01 2086.91 2101.25L1202.86 2286.34C1115.72 2304.59 1025.45 2274.95 966.078 2208.6L363.763 1535.54C304.387 1469.19 284.919 1376.2 312.692 1291.61L594.426 433.453Z"
              fill="#73C41D"/>
    </g>
    <path d="M1574.15 215.959C1585.07 214.108 1596.14 218.223 1603.21 226.754L1691.15 332.973C1698.21 341.504 1700.19 353.155 1696.33 363.537L1648.31 492.805C1644.45 503.187 1635.35 510.723 1624.43 512.574L1488.47 535.622C1477.55 537.473 1466.48 533.359 1459.41 524.828L1371.47 418.608C1364.41 410.077 1362.44 398.427 1366.29 388.044L1414.31 258.777C1418.17 248.395 1427.27 240.859 1438.19 239.008L1574.15 215.959Z"
          stroke="#1D9336" stroke-width="2"/>
    <g clip-path="url(#bg-center-multi-1-d)">
        <path d="M232.42 201.844C257.781 197.545 283.509 207.102 299.913 226.916L375.075 317.701C391.479 337.515 396.067 364.575 387.109 388.689L346.068 499.174C337.111 523.287 315.97 540.79 290.608 545.089L174.405 564.788C149.043 569.088 123.315 559.531 106.911 539.717L31.7489 448.931C15.3448 429.117 10.7575 402.057 19.7147 377.944L60.7563 267.459C69.7135 243.346 90.8546 225.843 116.216 221.544L232.42 201.844Z"
              fill="url(#bg-center-multi-1-a)"/>
        <path d="M57.2019 547.591C68.4735 545.68 79.9084 549.928 87.1991 558.734L108.684 584.685C115.975 593.491 118.014 605.518 114.033 616.235L102.301 647.817C98.3199 658.534 88.9238 666.313 77.6522 668.224L44.4354 673.855C33.1637 675.765 21.7289 671.518 14.4382 662.712L-7.04683 636.761C-14.3375 627.955 -16.3763 615.928 -12.3953 605.211L-0.663613 573.629C3.31739 562.912 12.7134 555.133 23.9851 553.222L57.2019 547.591Z"
              fill="#D5FE81"/>
        <path d="M247.742 576.911C258.662 575.06 269.739 579.175 276.802 587.706L322.708 643.154C329.771 651.685 331.746 663.336 327.889 673.718L302.823 741.198C298.966 751.58 289.864 759.116 278.944 760.967L207.972 772.999C197.052 774.85 185.975 770.735 178.912 762.204L133.006 706.756C125.943 698.225 123.968 686.574 127.825 676.192L152.891 608.712C156.748 598.33 165.85 590.794 176.77 588.943L247.742 576.911Z"
              stroke="#1D9336" stroke-width="2"/>
    </g>
    <g clip-path="url(#bg-center-multi-1-e)">
        <path d="M1348.9 1916.4C1356.73 1908.57 1368.15 1905.51 1378.85 1908.38L1437.28 1924.04C1447.98 1926.9 1456.34 1935.26 1459.2 1945.96L1474.86 2004.39C1477.73 2015.09 1474.67 2026.5 1466.84 2034.34L1424.06 2077.11C1416.23 2084.95 1404.81 2088 1394.11 2085.14L1335.68 2069.48C1324.98 2066.61 1316.62 2058.26 1313.76 2047.56L1298.1 1989.12C1295.23 1978.42 1298.29 1967.01 1306.12 1959.18L1348.9 1916.4Z"
              stroke="#73C41D" stroke-width="2"/>
        <path d="M1262.59 1963.18C1270.61 1950.79 1284.8 1943.83 1299.5 1945.06L1403.89 1953.8C1417.9 1954.98 1430.27 1963.42 1436.46 1976.04L1485.04 2075.04C1491.24 2087.66 1490.35 2102.6 1482.7 2114.41L1425.75 2202.33C1417.73 2214.71 1403.54 2221.67 1388.84 2220.44L1284.45 2211.7C1270.44 2210.53 1258.07 2202.08 1251.88 2189.46L1203.3 2090.47C1197.1 2077.85 1197.99 2062.9 1205.63 2051.1L1262.59 1963.18Z"
              fill="url(#bg-center-multi-1-b)"/>
    </g>
    <defs>
        <linearGradient id="bg-center-multi-1-a" x1="75.2312" y1="228.489" x2="331.587" y2="538.132"
                        gradientUnits="userSpaceOnUse">
            <stop stop-color="#9FE12D"/>
            <stop offset="1" stop-color="#1D9336"/>
        </linearGradient>
        <linearGradient id="bg-center-multi-1-b" x1="1193.31" y1="2070.12" x2="1495.52" y2="2085.7"
                        gradientUnits="userSpaceOnUse">
            <stop stop-color="#9FE12D"/>
            <stop offset="1" stop-color="#1D9336"/>
        </linearGradient>
        <clipPath id="bg-center-multi-1-c">
            <rect width="1644" height="2306" fill="white" transform="translate(257)"/>
        </clipPath>
        <clipPath id="bg-center-multi-1-d">
            <rect width="416" height="592" fill="white" transform="translate(0 188.904)"/>
        </clipPath>
        <clipPath id="bg-center-multi-1-e">
            <rect width="308" height="340" fill="white" transform="translate(1191 1902)"/>
        </clipPath>
    </defs>
</svg>
