<svg width="427" height="1731" viewBox="0 0 427 1731" fill="none" xmlns="http://www.w3.org/2000/svg">
    <path d="M735.109 154.058C776.904 180.925 801.19 228.049 798.819 277.678L787.204 520.824C784.833 570.453 756.166 615.047 712.001 637.808L495.622 749.323C451.457 772.084 398.504 769.554 356.709 742.687L151.946 611.055C110.151 584.187 85.8653 537.064 88.2361 487.435L99.8511 244.288C102.222 194.659 130.889 150.065 175.054 127.304L391.433 15.7899C435.598 -6.9714 488.551 -4.4418 530.346 22.4257L735.109 154.058Z"
          fill="currentcolor" class="theme-tint-15"/>
    <path opacity="0.16"
          d="M-383.007 1640.01C-445.593 1624.39 -495.092 1576.57 -512.86 1514.56L-609.187 1178.39C-626.955 1116.38 -610.291 1049.6 -565.474 1003.21L-322.501 751.7C-277.684 705.308 -211.521 686.35 -148.936 701.967L190.363 786.633C252.949 802.251 302.448 850.07 320.216 912.079L416.543 1248.25C434.311 1310.26 417.647 1377.04 372.83 1423.43L129.857 1674.94C85.0401 1721.33 18.8774 1740.29 -43.7077 1724.67L-383.007 1640.01Z"
          fill="currentcolor" class="theme"/>
</svg>
