<svg width="360" height="2652" viewBox="0 0 360 2652" fill="none" xmlns="http://www.w3.org/2000/svg">
    <g clip-path="url(#bg-center-multi-1-mobile-c)">
        <path opacity="0.13"
              d="M207.792 871.418C227.743 810.646 278.601 765.134 341.207 752.027L790.612 657.937C853.218 644.83 918.061 666.118 960.716 713.783L1266.9 1055.93C1309.56 1103.6 1323.54 1170.4 1303.59 1231.17L1160.37 1667.41C1140.42 1728.18 1089.56 1773.7 1026.96 1786.8L577.551 1880.89C514.944 1894 450.101 1872.71 407.447 1825.05L101.261 1482.9C58.6065 1435.23 44.6211 1368.43 64.5728 1307.66L207.792 871.418Z"
              fill="currentcolor" class="theme"/>
    </g>
    <g clip-path="url(#bg-center-multi-1-mobile-d)">
        <path d="M403.148 8.95937C414.067 7.10825 425.145 11.2232 432.208 19.7541L520.147 125.973C527.21 134.504 529.185 146.155 525.329 156.537L477.31 285.805C473.453 296.187 464.351 303.723 453.431 305.574L317.473 328.622C306.554 330.473 295.476 326.359 288.413 317.828L200.474 211.608C193.411 203.077 191.436 191.427 195.292 181.044L243.311 51.7769C247.168 41.3949 256.27 33.8589 267.189 32.0078L403.148 8.95937Z"
              stroke="currentcolor" class="theme-shade-5" stroke-width="2"/>
    </g>
    <g clip-path="url(#bg-center-multi-1-mobile-e)">
        <path d="M151.408 260.429C167.93 257.629 184.69 263.855 195.376 276.762L244.34 335.904C255.026 348.811 258.015 366.439 252.18 382.148L225.443 454.122C219.608 469.831 205.836 481.233 189.315 484.034L113.615 496.867C97.0934 499.668 80.3328 493.442 69.6465 480.534L20.6827 421.392C9.99648 408.485 7.00807 390.857 12.8432 375.148L39.5794 303.174C45.4146 287.465 59.1868 276.063 75.7082 273.263L151.408 260.429Z"
              fill="url(#bg-center-multi-1-mobile-a)"/>
        <path d="M37.2639 485.664C44.6068 484.419 52.0559 487.186 56.8054 492.923L70.8016 509.828C75.5511 515.565 76.8793 523.4 74.2859 530.381L66.6433 550.955C64.05 557.936 57.929 563.004 50.5861 564.249L28.9473 567.917C21.6045 569.162 14.1553 566.395 9.40587 560.658L-4.59038 543.753C-9.33983 538.016 -10.668 530.181 -8.07463 523.2L-0.432101 502.626C2.16129 495.644 8.28228 490.577 15.6251 489.332L37.2639 485.664Z"
              fill="currentcolor" class="theme-tint-10"/>
    </g>
    <g clip-path="url(#bg-center-multi-1-mobile-f)">
        <path d="M331.247 697.709C338.238 696.524 345.33 699.158 349.851 704.62L379.756 740.741C384.278 746.202 385.543 753.661 383.074 760.308L366.744 804.267C364.275 810.914 358.448 815.738 351.457 816.923L305.223 824.761C298.232 825.946 291.14 823.312 286.619 817.85L256.714 781.729C252.192 776.268 250.928 768.809 253.397 762.162L269.726 718.203C272.195 711.556 278.022 706.732 285.013 705.547L331.247 697.709Z"
              stroke="currentcolor" class="theme-shade-5" stroke-width="2"/>
    </g>
    <g clip-path="url(#bg-center-multi-1-mobile-g)">
        <g clip-path="url(#bg-center-multi-1-mobile-h)">
            <path d="M299.902 2333.4C307.733 2325.57 319.148 2322.51 329.845 2325.38L388.282 2341.03C398.98 2343.9 407.336 2352.26 410.202 2362.96L425.86 2421.39C428.727 2432.09 425.668 2443.5 417.837 2451.34L375.058 2494.11C367.227 2501.94 355.813 2505 345.115 2502.14L286.678 2486.48C275.98 2483.61 267.624 2475.26 264.758 2464.56L249.1 2406.12C246.233 2395.42 249.292 2384.01 257.123 2376.18L299.902 2333.4Z"
                  stroke="currentcolor" class="theme" stroke-width="2"/>
            <path d="M213.588 2380.18C221.61 2367.79 235.795 2360.83 250.497 2362.06L354.889 2370.8C368.9 2371.98 381.266 2380.42 387.46 2393.04L436.041 2492.04C442.236 2504.66 441.348 2519.6 433.704 2531.41L376.75 2619.33C368.728 2631.71 354.543 2638.67 339.841 2637.44L235.449 2628.7C221.438 2627.53 209.072 2619.08 202.878 2606.46L154.297 2507.47C148.102 2494.85 148.99 2479.9 156.634 2468.1L213.588 2380.18Z"
                  fill="url(#bg-center-multi-1-mobile-b)"/>
        </g>
    </g>
    <defs>
        <linearGradient id="bg-center-multi-1-mobile-a" x1="49.009" y1="277.787" x2="216.01" y2="479.502"
                        gradientUnits="userSpaceOnUse">
            <stop stop-color="currentcolor" class="theme-tint-5"/>
            <stop offset="1" stop-color="currentcolor" class="theme-shade-5"/>
        </linearGradient>
        <linearGradient id="bg-center-multi-1-mobile-b" x1="144.31" y1="2487.12" x2="446.518" y2="2502.7"
                        gradientUnits="userSpaceOnUse">
            <stop stop-color="currentcolor" class="theme-tint-5"/>
            <stop offset="1" stop-color="currentcolor" class="theme-shade-5"/>
        </linearGradient>
        <clipPath id="bg-center-multi-1-mobile-c">
            <rect width="360" height="1045.78" fill="white" transform="translate(0 734.738)"/>
        </clipPath>
        <clipPath id="bg-center-multi-1-mobile-d">
            <rect width="228" height="394" fill="white" transform="translate(136)"/>
        </clipPath>
        <clipPath id="bg-center-multi-1-mobile-e">
            <rect width="271" height="385.654" fill="white" transform="translate(0 252)"/>
        </clipPath>
        <clipPath id="bg-center-multi-1-mobile-f">
            <rect width="133" height="138" fill="white" transform="translate(227 692)"/>
        </clipPath>
        <clipPath id="bg-center-multi-1-mobile-g">
            <rect width="218" height="334" fill="white" transform="translate(142 2318)"/>
        </clipPath>
        <clipPath id="bg-center-multi-1-mobile-h">
            <rect width="308" height="334" fill="white" transform="translate(142 2318)"/>
        </clipPath>
    </defs>
</svg>
