<svg width="760" height="1411" viewBox="0 0 760 1411" fill="none" xmlns="http://www.w3.org/2000/svg">
    <path opacity="0.16"
          d="M-424.268 1310.96C-493.595 1293.66 -548.427 1240.68 -568.109 1172L-674.813 799.605C-694.495 730.916 -676.037 656.945 -626.392 605.555L-357.244 326.952C-307.598 275.562 -234.308 254.562 -164.981 271.861L210.871 365.648C280.198 382.947 335.03 435.918 354.712 504.607L461.416 876.998C481.098 945.687 462.64 1019.66 412.995 1071.05L143.847 1349.65C94.2014 1401.04 20.9111 1422.04 -48.4162 1404.74L-424.268 1310.96Z"
          fill="currentcolor" class="theme"/>
    <path d="M1068.11 154.058C1109.9 180.925 1134.19 228.049 1131.82 277.678L1120.2 520.824C1117.83 570.453 1089.17 615.047 1045 637.808L828.622 749.323C784.457 772.084 731.504 769.554 689.709 742.687L484.946 611.055C443.151 584.187 418.865 537.064 421.236 487.435L432.851 244.288C435.222 194.659 463.889 150.065 508.054 127.304L724.433 15.7899C768.598 -6.9714 821.551 -4.4418 863.346 22.4257L1068.11 154.058Z"
          fill="currentcolor" class="theme-tint-15"/>
</svg>
