<svg width="1440" height="1211" viewBox="0 0 1440 1211" fill="none" xmlns="http://www.w3.org/2000/svg">
    <path d="M1579.11 154.058C1620.9 180.925 1645.19 228.049 1642.82 277.678L1631.2 520.824C1628.83 570.453 1600.17 615.047 1556 637.809L1339.62 749.323C1295.46 772.084 1242.5 769.554 1200.71 742.687L995.946 611.055C954.151 584.187 929.865 537.064 932.236 487.435L943.851 244.288C946.222 194.659 974.889 150.065 1019.05 127.304L1235.43 15.7899C1279.6 -6.9714 1332.55 -4.4418 1374.35 22.4257L1579.11 154.058Z"
          fill="currentcolor" class="theme-tint-15"/>
    <path opacity="0.16"
          d="M-47.2679 1110.96C-116.595 1093.66 -171.427 1040.68 -191.109 971.996L-297.813 599.605C-317.495 530.916 -299.037 456.945 -249.392 405.555L19.7563 126.952C69.4017 75.5621 142.692 54.5616 212.019 71.861L587.871 165.648C657.199 182.947 712.03 235.918 731.712 304.607L838.416 676.998C858.098 745.687 839.64 819.658 789.995 871.048L520.847 1149.65C471.202 1201.04 397.911 1222.04 328.584 1204.74L-47.2679 1110.96Z"
          fill="currentcolor" class="theme"/>
</svg>
