<svg width="1900" height="2306" viewBox="0 0 1900 2306" fill="none" xmlns="http://www.w3.org/2000/svg">
    <g clip-path="url(#bg-center-multi-1-c)">
        <path opacity="0.13" d="M593.426 433.453C621.199 348.857 691.994 285.504 779.142 267.259L1663.19 82.1707C1750.34 63.925 1840.6 93.5584 1899.98 159.908L2502.29 832.973C2561.67 899.323 2581.14 992.309 2553.36 1076.91L2271.63 1935.06C2243.86 2019.65 2173.06 2083.01 2085.91 2101.25L1201.86 2286.34C1114.72 2304.59 1024.45 2274.95 965.078 2208.6L362.763 1535.54C303.387 1469.19 283.919 1376.2 311.692 1291.61L593.426 433.453Z"
         fill="currentcolor" class="theme" />
    </g>
    <path d="M1573.15 215.959C1584.07 214.108 1595.14 218.223 1602.21 226.754L1690.15 332.973C1697.21 341.504 1699.19 353.155 1695.33 363.537L1647.31 492.805C1643.45 503.187 1634.35 510.723 1623.43 512.574L1487.47 535.622C1476.55 537.473 1465.48 533.359 1458.41 524.828L1370.47 418.608C1363.41 410.077 1361.44 398.427 1365.29 388.044L1413.31 258.777C1417.17 248.395 1426.27 240.859 1437.19 239.008L1573.15 215.959Z"
     stroke="currentcolor" class="theme-shade-5" stroke-width="2" />
    <g clip-path="url(#bg-center-multi-1-d)">
        <path d="M231.419 201.844C256.781 197.545 282.509 207.102 298.913 226.916L374.075 317.701C390.479 337.515 395.067 364.575 386.109 388.689L345.068 499.174C336.111 523.287 314.969 540.79 289.608 545.089L173.405 564.788C148.043 569.088 122.315 559.531 105.911 539.717L30.7487 448.931C14.3447 429.117 9.75733 402.057 18.7146 377.944L59.7562 267.459C68.7134 243.346 89.8545 225.843 115.216 221.544L231.419 201.844Z"
         fill="url(#bg-center-multi-1-a)" />
        <path d="M56.2016 547.591C67.4733 545.68 78.9082 549.928 86.1988 558.734L107.684 584.685C114.975 593.491 117.013 605.518 113.032 616.235L101.301 647.817C97.3196 658.534 87.9236 666.313 76.6519 668.224L43.4352 673.855C32.1635 675.765 20.7286 671.518 13.438 662.712L-8.04707 636.761C-15.3377 627.955 -17.3766 615.928 -13.3956 605.211L-1.66386 573.629C2.31715 562.912 11.7132 555.133 22.9849 553.222L56.2016 547.591Z"
         fill="currentcolor" class="theme-tint-10" />
        <path d="M246.742 576.911C257.662 575.06 268.739 579.175 275.802 587.706L321.708 643.154C328.771 651.685 330.746 663.336 326.889 673.718L301.823 741.198C297.966 751.58 288.864 759.116 277.944 760.967L206.972 772.999C196.052 774.85 184.975 770.735 177.912 762.204L132.006 706.756C124.943 698.225 122.968 686.574 126.825 676.192L151.891 608.712C155.748 598.33 164.85 590.794 175.77 588.943L246.742 576.911Z"
         stroke="currentcolor" class="theme-shade-5" stroke-width="2" />
    </g>
    <g clip-path="url(#bg-center-multi-1-e)">
        <path d="M1347.9 1916.4C1355.73 1908.57 1367.15 1905.51 1377.85 1908.38L1436.28 1924.04C1446.98 1926.9 1455.34 1935.26 1458.2 1945.96L1473.86 2004.39C1476.73 2015.09 1473.67 2026.5 1465.84 2034.34L1423.06 2077.11C1415.23 2084.95 1403.81 2088 1393.11 2085.14L1334.68 2069.48C1323.98 2066.61 1315.62 2058.26 1312.76 2047.56L1297.1 1989.12C1294.23 1978.42 1297.29 1967.01 1305.12 1959.18L1347.9 1916.4Z"
         stroke="currentcolor" class="theme" stroke-width="2" />
        <path d="M1261.59 1963.18C1269.61 1950.79 1283.8 1943.83 1298.5 1945.06L1402.89 1953.8C1416.9 1954.98 1429.27 1963.42 1435.46 1976.04L1484.04 2075.04C1490.24 2087.66 1489.35 2102.6 1481.7 2114.41L1424.75 2202.33C1416.73 2214.71 1402.54 2221.67 1387.84 2220.44L1283.45 2211.7C1269.44 2210.53 1257.07 2202.08 1250.88 2189.46L1202.3 2090.47C1196.1 2077.85 1196.99 2062.9 1204.63 2051.1L1261.59 1963.18Z"
         fill="url(#bg-center-multi-1-b)" />
    </g>
    <defs>
        <linearGradient id="bg-center-multi-1-a" x1="74.2311" y1="228.489" x2="330.587" y2="538.132" gradientUnits="userSpaceOnUse">
            <stop stop-color="currentcolor" class="theme-tint-5" />
            <stop offset="1" stop-color="currentcolor" class="theme-shade-5" />
        </linearGradient>
        <linearGradient id="bg-center-multi-1-b" x1="1192.31" y1="2070.12" x2="1494.52" y2="2085.7" gradientUnits="userSpaceOnUse">
            <stop stop-color="currentcolor" class="theme-tint-5" />
            <stop offset="1" stop-color="currentcolor" class="theme-shade-5" />
        </linearGradient>
        <clipPath id="bg-center-multi-1-c">
            <rect width="1644" height="2306" fill="white" transform="translate(256)" />
        </clipPath>
        <clipPath id="bg-center-multi-1-d">
            <rect width="416" height="592" fill="white" transform="translate(-1 188.904)" />
        </clipPath>
        <clipPath id="bg-center-multi-1-e">
            <rect width="308" height="340" fill="white" transform="translate(1190 1902)" />
        </clipPath>
    </defs>
</svg>
