<svg width="768" height="2716" viewBox="0 0 768 2716" fill="none" xmlns="http://www.w3.org/2000/svg">
    <g clip-path="url(#bg-center-multi-1-tablet-b)">
        <path d="M669.902 2397.4C677.733 2389.57 689.148 2386.51 699.845 2389.38L758.282 2405.04C768.98 2407.9 777.336 2416.26 780.202 2426.96L795.86 2485.39C798.727 2496.09 795.668 2507.5 787.837 2515.34L745.058 2558.11C737.227 2565.95 725.813 2569 715.115 2566.14L656.678 2550.48C645.98 2547.61 637.624 2539.26 634.758 2528.56L619.1 2470.12C616.233 2459.42 619.292 2448.01 627.123 2440.18L669.902 2397.4Z"
              stroke="currentcolor" class="theme" stroke-width="2"/>
        <path d="M583.588 2444.18C591.61 2431.79 605.795 2424.83 620.497 2426.06L724.889 2434.8C738.9 2435.98 751.266 2444.42 757.46 2457.04L806.041 2556.04C812.236 2568.66 811.348 2583.6 803.704 2595.41L746.75 2683.33C738.728 2695.71 724.543 2702.67 709.841 2701.44L605.449 2692.7C591.438 2691.53 579.072 2683.08 572.878 2670.46L524.297 2571.47C518.102 2558.85 518.99 2543.9 526.634 2532.1L583.588 2444.18Z"
              fill="url(#bg-center-multi-1-tablet-a)"/>
    </g>
    <g clip-path="url(#bg-center-multi-1-tablet-c)">
        <path opacity="0.13"
              d="M443.289 288.585C485.853 158.938 594.349 61.8457 727.909 33.8831L1686.64 -166.84C1820.2 -194.803 1958.53 -149.388 2049.53 -47.7034L2702.72 682.22C2793.72 783.905 2823.56 926.411 2780.99 1056.06L2475.46 1986.71C2432.9 2116.35 2324.4 2213.44 2190.84 2241.41L1232.11 2442.13C1098.55 2470.09 960.217 2424.68 869.221 2322.99L216.024 1593.07C125.028 1491.39 95.1917 1348.88 137.755 1219.23L443.289 288.585Z"
              fill="currentcolor" class="theme"/>
    </g>
    <defs>
        <linearGradient id="bg-center-multi-1-tablet-a" x1="514.31" y1="2551.12" x2="816.518" y2="2566.7"
                        gradientUnits="userSpaceOnUse">
            <stop stop-color="currentcolor" class="theme-tint-5"/>
            <stop offset="1" stop-color="currentcolor" class="theme-shade-5"/>
        </linearGradient>
        <clipPath id="bg-center-multi-1-tablet-b">
            <rect width="256" height="334" fill="white" transform="translate(512 2382)"/>
        </clipPath>
        <clipPath id="bg-center-multi-1-tablet-c">
            <rect width="768" height="2228" fill="white"/>
        </clipPath>
    </defs>
</svg>
