<svg width="1440" height="2314" viewBox="0 0 1440 2314" fill="none" xmlns="http://www.w3.org/2000/svg">
    <path opacity="0.13"
          d="M386.426 454.912C414.199 370.316 484.993 306.963 572.142 288.717L1456.19 103.63C1543.34 85.3839 1633.6 115.017 1692.98 181.367L2295.29 854.432C2354.67 920.782 2374.14 1013.77 2346.36 1098.36L2064.63 1956.52C2036.86 2041.11 1966.06 2104.47 1878.91 2122.71L994.864 2307.8C907.716 2326.04 817.453 2296.41 758.078 2230.06L155.763 1557C96.3872 1490.65 76.9193 1397.66 104.692 1313.06L386.426 454.912Z"
          fill="currentcolor" class="theme"/>
    <g clip-path="url(#bg-center-multi-1-laptop-c)">
        <path d="M1168.85 1553.38L1227.28 1569.04C1237.98 1571.9 1246.34 1580.26 1249.2 1590.96L1264.86 1649.39C1267.73 1660.09 1264.67 1671.5 1256.84 1679.34L1214.06 1722.11C1206.23 1729.95 1194.81 1733 1184.11 1730.14L1125.68 1714.48C1114.98 1711.61 1106.62 1703.26 1103.76 1692.56L1088.1 1634.12C1085.23 1623.42 1088.29 1612.01 1096.12 1604.18L1138.9 1561.4C1146.73 1553.57 1158.15 1550.51 1168.85 1553.38Z"
              stroke="currentcolor" class="theme" stroke-width="2"/>
        <path d="M1052.59 1608.18C1060.61 1595.79 1074.8 1588.83 1089.5 1590.06L1193.89 1598.8C1207.9 1599.98 1220.27 1608.42 1226.46 1621.04L1275.04 1720.04C1281.24 1732.66 1280.35 1747.6 1272.7 1759.41L1215.75 1847.33C1207.73 1859.71 1193.54 1866.67 1178.84 1865.44L1074.45 1856.7C1060.44 1855.53 1048.07 1847.08 1041.88 1834.46L993.297 1735.47C987.102 1722.85 987.99 1707.9 995.634 1696.1L1052.59 1608.18Z"
              fill="url(#bg-center-multi-1-laptop-a)"/>
    </g>
    <g clip-path="url(#bg-center-multi-1-laptop-d)">
        <path d="M232.419 13.8441C257.781 9.54472 283.509 19.102 299.913 38.9158L375.075 129.701C391.479 149.515 396.067 176.575 387.109 200.689L346.068 311.174C337.111 335.287 315.969 352.79 290.608 357.089L174.405 376.788C149.043 381.088 123.315 371.531 106.911 351.717L31.7488 260.931C15.3447 241.117 10.7574 214.057 19.7146 189.944L60.7562 79.459C69.7135 55.3458 90.8545 37.843 116.216 33.5436L232.419 13.8441Z"
              fill="url(#bg-center-multi-1-laptop-b)"/>
        <path d="M57.2016 359.591C68.4733 357.68 79.9082 361.928 87.1988 370.734L108.684 396.685C115.975 405.491 118.013 417.518 114.032 428.235L102.301 459.817C98.3197 470.534 88.9236 478.313 77.6519 480.224L44.4352 485.855C33.1635 487.765 21.7287 483.518 14.438 474.712L-7.04705 448.761C-14.3377 439.955 -16.3765 427.928 -12.3955 417.211L-0.663834 385.629C3.31717 374.912 12.7132 367.133 23.9849 365.222L57.2016 359.591Z"
              fill="currentcolor" class="theme-tint-10"/>
        <path d="M276.802 399.706L322.708 455.154C329.771 463.685 331.746 475.336 327.889 485.718L302.823 553.198C298.966 563.58 289.864 571.116 278.944 572.967L207.972 584.999C197.052 586.85 185.975 582.735 178.912 574.204L133.006 518.756C125.943 510.225 123.968 498.574 127.825 488.192L152.891 420.712C156.748 410.33 165.85 402.794 176.77 400.943L247.742 388.911C258.662 387.06 269.739 391.175 276.802 399.706Z"
              stroke="currentcolor" class="theme-shade-5" stroke-width="2"/>
    </g>
    <path d="M1265.21 38.7541L1353.15 144.973C1360.21 153.504 1362.19 165.155 1358.33 175.537L1310.31 304.805C1306.45 315.187 1297.35 322.723 1286.43 324.574L1150.47 347.622C1139.55 349.473 1128.48 345.359 1121.41 336.828L1033.47 230.608C1026.41 222.077 1024.44 210.427 1028.29 200.044L1076.31 70.7769C1080.17 60.3949 1089.27 52.8589 1100.19 51.0078L1236.15 27.9594C1247.07 26.1083 1258.14 30.2232 1265.21 38.7541Z"
          stroke="currentcolor" class="theme-shade-5" stroke-width="2"/>
    <defs>
        <linearGradient id="bg-center-multi-1-laptop-a" x1="983.31" y1="1715.12" x2="1285.52" y2="1730.7"
                        gradientUnits="userSpaceOnUse">
            <stop stop-color="currentcolor" class="theme-tint-5"/>
            <stop offset="1" stop-color="currentcolor" class="theme-shade-5"/>
        </linearGradient>
        <linearGradient id="bg-center-multi-1-laptop-b" x1="75.2312" y1="40.4887" x2="331.587" y2="350.132"
                        gradientUnits="userSpaceOnUse">
            <stop stop-color="currentcolor" class="theme-tint-5"/>
            <stop offset="1" stop-color="currentcolor" class="theme-shade-5"/>
        </linearGradient>
        <clipPath id="bg-center-multi-1-laptop-c">
            <rect width="308" height="340" fill="white" transform="translate(981 1547)"/>
        </clipPath>
        <clipPath id="bg-center-multi-1-laptop-d">
            <rect width="416" height="592" fill="white" transform="translate(0 0.904297)"/>
        </clipPath>
    </defs>
</svg>
