<svg width="649" height="579" viewBox="0 0 649 579" fill="none" xmlns="http://www.w3.org/2000/svg">
    <path d="M576.053 367.832L450.113 533.586C429.929 560.149 397.289 573.948 364.479 569.788L159.748 543.825C126.938 539.665 98.9507 518.174 86.3233 487.454L7.53448 295.742C-5.09168 265.019 -0.436299 229.731 19.7473 203.168L145.688 37.4143C165.872 10.8516 198.512 -2.94704 231.321 1.21283L436.053 27.1758C468.862 31.3356 496.85 52.8264 509.477 83.5461L588.262 275.261C600.888 305.983 596.233 341.271 576.053 367.832Z"
          fill="currentcolor" class="theme-tint-10"/>
    <path d="M734.748 202.687L698.34 250.605C692.505 258.284 683.069 262.273 673.584 261.07L614.398 253.564C604.913 252.362 596.823 246.149 593.172 237.268L570.395 181.846C566.745 172.965 568.091 162.763 573.926 155.084L610.334 107.167C616.169 99.4879 625.605 95.4988 635.089 96.7014L694.275 104.207C703.76 105.41 711.851 111.622 715.501 120.503L738.277 175.926C741.927 184.807 740.581 195.009 734.748 202.687Z"
          fill="url(#paint0_linear_0_1)"/>
    <path d="M555.333 413.588L554.138 412.681L555.333 413.588C546.527 425.177 544.498 440.571 550.004 453.967L585.628 540.648C591.133 554.041 603.331 563.405 617.627 565.218L710.195 576.957C724.492 578.769 738.725 572.757 747.53 561.169L804.473 486.225C813.277 474.637 815.306 459.243 809.8 445.847L811.188 445.277L809.8 445.847L774.178 359.165C774.178 359.165 774.178 359.165 774.178 359.165C768.673 345.772 756.475 336.408 742.179 334.595L742.351 333.234L742.179 334.595L649.611 322.856C635.314 321.044 621.081 327.056 612.276 338.644L555.333 413.588Z"
          stroke="url(#paint1_linear_0_1)" stroke-width="3"/>
    <defs>
        <linearGradient id="paint0_linear_0_1" x1="738.082" y1="167.297" x2="570.407" y2="189.016"
                        gradientUnits="userSpaceOnUse">
            <stop stop-color="currentcolor" class="theme-tint-5"/>
            <stop offset="1" stop-color="currentcolor" class="theme-shade-5"/>
        </linearGradient>
        <linearGradient id="paint1_linear_0_1" x1="810.883" y1="431.781" x2="548.635" y2="465.75"
                        gradientUnits="userSpaceOnUse">
            <stop stop-color="currentcolor" class="theme-tint-5"/>
            <stop offset="1" stop-color="currentcolor" class="theme-shade-5"/>
        </linearGradient>
    </defs>
</svg>
