<svg width="1011" height="882" viewBox="0 0 1011 882" fill="none" xmlns="http://www.w3.org/2000/svg">
    <path d="M647.681 559.759L455.793 812.308C425.041 852.78 375.309 873.804 325.319 867.465L13.3829 827.907C-36.6072 821.569 -79.2502 788.825 -98.4897 742.019L-218.535 449.919C-237.773 403.109 -230.68 349.343 -199.927 308.871L-8.03967 56.3222C22.7128 15.8503 72.4445 -5.1738 122.435 1.16434L434.37 40.7224C484.36 47.0605 527.004 79.8047 546.243 126.61L666.282 418.713C685.52 465.523 678.427 519.29 647.681 559.759Z"
          fill="currentcolor" class="theme-tint-10"/>
    <path d="M889.474 308.137L834.001 381.146C825.111 392.846 810.734 398.924 796.282 397.092L706.105 385.656C691.654 383.824 679.326 374.358 673.764 360.827L639.06 276.384C633.499 262.851 635.549 247.308 644.44 235.608L699.912 162.599C708.802 150.899 723.179 144.821 737.631 146.654L827.808 158.089C842.26 159.922 854.587 169.388 860.149 182.919L894.851 267.362C900.412 280.895 898.362 296.438 889.474 308.137Z"
          fill="url(#paint0_linear_0_1)"/>
    <path d="M1004.55 678.326L1005.91 677.768L1004.55 678.326L950.278 546.254C941.783 525.588 922.959 511.136 900.895 508.338L901.083 506.85L900.895 508.338L759.856 490.452C737.79 487.655 715.829 496.934 702.246 514.811L615.485 628.999C601.901 646.877 598.77 670.625 607.265 691.295L661.542 823.366C670.037 844.032 688.862 858.484 710.926 861.281L710.768 862.525L710.926 861.281L851.965 879.167C874.03 881.965 895.991 872.686 909.575 854.809L996.335 740.621C1009.92 722.744 1013.05 698.996 1004.55 678.326Z"
          stroke="url(#paint1_linear_0_1)" stroke-width="3"/>
    <defs>
        <linearGradient id="paint0_linear_0_1" x1="894.555" y1="254.215" x2="639.078" y2="287.307"
                        gradientUnits="userSpaceOnUse">
            <stop stop-color="currentcolor" class="theme-tint-5"/>
            <stop offset="1" stop-color="currentcolor" class="theme-shade-5"/>
        </linearGradient>
        <linearGradient id="paint1_linear_0_1" x1="1005.48" y1="657.193" x2="605.905" y2="708.949"
                        gradientUnits="userSpaceOnUse">
            <stop stop-color="currentcolor" class="theme-tint-5"/>
            <stop offset="1" stop-color="currentcolor" class="theme-shade-5"/>
        </linearGradient>
    </defs>
</svg>
