<svg width="695" height="579" viewBox="0 0 695 579" fill="none" xmlns="http://www.w3.org/2000/svg">
    <path d="M238.522 367.832L364.462 533.586C384.646 560.149 417.286 573.948 450.096 569.788L654.827 543.825C687.637 539.665 715.625 518.174 728.252 487.454L807.041 295.742C819.667 265.019 815.011 229.731 794.828 203.168L668.887 37.4143C648.704 10.8516 616.063 -2.94704 583.254 1.21283L378.523 27.1758C345.713 31.3356 317.725 52.8264 305.098 83.5461L226.313 275.261C213.687 305.983 218.342 341.271 238.522 367.832Z"
          fill="currentcolor" class="theme-tint-15"/>
    <path d="M79.8276 202.687L116.236 250.604C122.07 258.283 131.506 262.272 140.991 261.07L200.177 253.564C209.662 252.362 217.753 246.149 221.403 237.268L244.18 181.846C247.83 172.965 246.484 162.763 240.649 155.084L204.241 107.167C198.407 99.4876 188.971 95.4986 179.486 96.7012L120.3 104.207C110.815 105.409 102.724 111.622 99.074 120.503L76.2982 175.925C72.6481 184.807 73.9939 195.008 79.8276 202.687Z"
          fill="currentcolor" class="theme-tint-10"/>
    <path d="M259.242 413.588L260.437 412.681L259.242 413.588C268.048 425.177 270.077 440.57 264.571 453.967L228.948 540.648C223.442 554.041 211.244 563.405 196.948 565.218L104.38 576.956C90.0832 578.769 75.8502 572.757 67.045 561.169L10.102 486.225C1.29804 474.637 -0.730584 459.243 4.77497 445.847L3.38757 445.277L4.77498 445.847L40.3968 359.165C40.3968 359.165 40.3968 359.165 40.3968 359.165C45.9021 345.772 58.1005 336.408 72.3965 334.595L72.2239 333.234L72.3966 334.595L164.964 322.856C179.261 321.043 193.494 327.056 202.299 338.644L259.242 413.588Z"
          stroke="url(#paint0_linear_0_1)" stroke-width="3"/>
    <defs>
        <linearGradient id="paint0_linear_0_1" x1="3.69199" y1="431.781" x2="265.94" y2="465.75"
                        gradientUnits="userSpaceOnUse">
            <stop stop-color="currentcolor" class="theme-tint-5"/>
            <stop offset="1" stop-color="currentcolor" class="theme-shade-5"/>
        </linearGradient>
    </defs>
</svg>
