<svg width="822" height="947" viewBox="0 0 822 947" fill="none" xmlns="http://www.w3.org/2000/svg">
    <path d="M922.329 515.082L795.077 650.918C774.683 672.686 744.385 681.957 715.587 675.24L535.891 633.322C507.093 626.605 484.178 604.917 475.772 576.435L423.33 398.684C414.925 370.198 422.311 339.242 442.705 317.474L569.957 181.637C590.35 159.869 620.649 150.599 649.447 157.316L829.143 199.234C857.94 205.951 880.856 227.638 889.261 256.121L941.7 433.873C950.104 462.358 942.719 493.315 922.329 515.082Z"
          fill="currentcolor" class="theme-tint-15"/>
    <path d="M352.952 252.775L263.675 348.074C249.368 363.345 228.111 369.849 207.908 365.137L81.8388 335.728C61.6352 331.016 45.5586 315.801 39.6616 295.818L2.86938 171.114C-3.02669 151.129 2.15482 129.411 16.4623 114.139L105.738 18.841C120.046 3.56911 141.302 -2.93479 161.506 1.77761L287.575 31.1863C307.779 35.8987 323.855 51.1138 329.752 71.0964L366.542 195.802C372.438 215.786 367.256 237.504 352.952 252.775Z"
          fill="currentcolor" class="theme-tint-15"/>
    <path d="M640.627 854.566L568.806 931.232C557.296 943.518 540.195 948.75 523.942 944.959L422.521 921.301C406.268 917.509 393.334 905.269 388.59 889.193L358.991 788.87C354.248 772.793 358.416 755.322 369.927 743.035L441.748 666.369C453.258 654.083 470.359 648.851 486.612 652.642L588.033 676.301C604.286 680.092 617.22 692.332 621.964 708.408L651.561 808.732C656.304 824.809 652.135 842.281 640.627 854.566Z"
          fill="currentcolor" class="theme-tint-15"/>
</svg>
