<svg width="1011" height="882" viewBox="0 0 1011 882" fill="none" xmlns="http://www.w3.org/2000/svg">
    <path d="M363.319 560.238L555.207 812.787C585.959 853.259 635.691 874.283 685.681 867.945L997.617 828.387C1047.61 822.048 1090.25 789.304 1109.49 742.499L1229.54 450.398C1248.77 403.588 1241.68 349.822 1210.93 309.35L1019.04 56.8013C988.287 16.3294 938.555 -4.69467 888.565 1.64346L576.63 41.2015C526.64 47.5397 483.996 80.2838 464.757 127.089L344.718 419.192C325.48 466.003 332.573 519.769 363.319 560.238Z"
          fill="currentcolor" class="theme-tint-15"/>
    <path d="M121.526 308.616L176.999 381.625C185.889 393.325 200.266 399.403 214.718 397.571L304.895 386.135C319.346 384.303 331.674 374.837 337.236 361.306L371.94 276.863C377.501 263.331 375.451 247.787 366.56 236.087L311.088 163.078C302.198 151.378 287.821 145.301 273.369 147.133L183.192 158.569C168.74 160.401 156.413 169.867 150.851 183.398L116.149 267.842C110.588 281.374 112.638 296.917 121.526 308.616Z"
          fill="currentcolor" class="theme-tint-10"/>
    <path d="M6.44699 678.805L5.08895 678.247L6.447 678.805L60.7217 546.733C69.2166 526.067 88.0413 511.615 110.105 508.818L109.917 507.329L110.105 508.818L251.144 490.932C273.21 488.134 295.171 497.413 308.754 515.29L395.515 629.478C409.099 647.356 412.23 671.104 403.735 691.774L349.458 823.845C340.963 844.511 322.138 858.963 300.074 861.761L300.232 863.004L300.074 861.761L159.035 879.646C136.97 882.444 115.009 873.165 101.425 855.288L14.6646 741.1C1.08292 723.224 -2.0479 699.475 6.44699 678.805Z"
          stroke="url(#paint0_linear_0_1)" stroke-width="3"/>
    <defs>
        <linearGradient id="paint0_linear_0_1" x1="5.52342" y1="657.672" x2="405.095" y2="709.429"
                        gradientUnits="userSpaceOnUse">
            <stop stop-color="currentcolor" class="theme-tint-5"/>
            <stop offset="1" stop-color="currentcolor" class="theme-shade-5"/>
        </linearGradient>
    </defs>
</svg>
