<svg width="544" height="934" viewBox="0 0 544 934" fill="none" xmlns="http://www.w3.org/2000/svg">
  <path d="M896.495 356.219L834.1 640.489C824.1 686.045 790.797 722.727 746.73 736.724L471.747 824.064C427.679 838.062 379.547 827.24 345.48 795.686L132.897 598.759C98.8296 567.2 84.0043 519.697 94.0048 474.141L156.4 189.871C166.401 144.314 199.703 107.633 243.77 93.6354L518.753 6.29621C562.821 -7.7017 610.953 3.12 645.02 34.6739L857.599 231.606C891.666 263.164 906.492 310.667 896.495 356.219Z"
   fill="currentcolor" class="theme-tint-15" />
  <path d="M133.198 679.235L132.896 678.282L133.198 679.235L48.0872 706.268C34.7918 710.491 24.7383 721.56 21.7188 735.315L2.40657 823.301C-0.613106 837.057 3.86429 851.399 14.1471 860.924L79.9447 921.876C90.2263 931.399 104.749 934.663 118.044 930.44L203.155 903.407C216.45 899.184 226.504 888.115 229.523 874.36L248.836 786.374C251.854 772.619 247.377 758.278 237.094 748.752L237.773 748.019L237.094 748.752L171.298 687.799C161.016 678.276 146.493 675.012 133.198 679.235Z"
   stroke="currentcolor" class="theme-tint-5" stroke-width="2" />
</svg>
