<svg width="428" height="781" viewBox="0 0 428 781" fill="none" xmlns="http://www.w3.org/2000/svg">
    <path d="M452.473 72.1385C489.207 76.5717 520.786 100.266 535.314 134.295L649.522 401.812C664.05 435.841 659.32 475.036 637.114 504.633L462.542 737.299C440.335 766.895 404.026 782.396 367.292 777.963L78.5112 743.112C41.777 738.679 10.1981 714.985 -4.32983 680.955L-118.538 413.438C-133.066 379.409 -128.336 340.214 -106.13 310.618L68.4424 77.9517C90.6488 48.3555 126.958 32.8544 163.692 37.2876L452.473 72.1385Z"
          stroke="currentcolor" class="theme-shade-5" stroke-width="3"/>
    <path d="M377.694 -91.1114C411.302 -96.1306 445.291 -84.8363 469.211 -60.7008L741.65 214.19C769.944 242.738 779.788 284.769 767.113 322.912L664.005 633.203C651.33 671.346 618.289 699.126 578.536 705.063L195.757 762.229C162.148 767.248 128.16 755.954 104.239 731.818L-168.199 456.927C-196.494 428.379 -206.337 386.349 -193.662 348.205L-90.5544 37.9145C-77.8795 -0.22912 -44.8387 -28.009 -5.08518 -33.9459L377.694 -91.1114Z"
          fill="url(#paint0_radial_0_1)"/>
    <defs>
        <radialGradient id="paint0_radial_0_1" cx="0" cy="0" r="1" gradientUnits="userSpaceOnUse"
                        gradientTransform="translate(457.991 453.524) rotate(134.91) scale(447.166 312.967)">
            <stop stop-color="currentcolor" class="theme-shade-10"/>
            <stop offset="0.912806" stop-color="currentcolor" class="theme-shade-15"/>
        </radialGradient>
    </defs>
</svg>
