<svg width="428" height="1019" viewBox="0 0 428 1019" fill="none" xmlns="http://www.w3.org/2000/svg">
    <path d="M547.764 857.291L408.768 992.297C386.492 1013.93 354.53 1022.08 324.913 1013.69L140.109 961.272C110.493 952.873 87.7287 929.195 80.3865 899.164L34.5802 711.749C27.2396 681.716 36.4397 649.887 58.7155 628.252L197.712 493.247C219.988 471.612 251.95 463.46 281.566 471.858L466.37 524.272C495.987 532.671 518.751 556.348 526.093 586.379L571.896 773.795C579.236 803.829 570.036 835.657 547.764 857.291Z"
          fill="currentcolor" class="theme-tint-15"/>
    <path d="M810.317 215.196L586.184 432.893C550.264 467.779 498.725 480.925 450.969 467.382L152.971 382.865C105.214 369.322 68.5069 331.142 56.6678 282.716L-17.1952 -19.4912C-29.032 -67.9209 -14.1967 -119.244 21.7232 -154.131L245.856 -371.827C281.776 -406.714 333.315 -419.86 381.071 -406.317L679.069 -321.8C726.825 -308.256 763.533 -270.077 775.372 -221.651L849.229 80.5579C861.066 128.988 846.23 180.311 810.317 215.196Z"
          fill="currentcolor" class="theme-tint-10"/>
</svg>
