<svg width="1440" height="1031" viewBox="0 0 1440 1031" fill="none" xmlns="http://www.w3.org/2000/svg">
<path d="M1168.17 -205.962L1382.31 295.632C1409.74 359.869 1400.81 433.856 1358.89 489.724L1031.56 925.973C989.647 981.841 921.107 1011.1 851.765 1002.73L310.301 937.388C240.959 929.019 181.348 884.293 153.924 820.056L-60.2169 318.462C-87.6408 254.226 -78.7118 180.238 -36.7933 124.37L290.53 -311.878C332.448 -367.746 400.987 -397.007 470.33 -388.639L1011.79 -323.293C1081.14 -314.925 1140.75 -270.198 1168.17 -205.962Z" stroke="currentcolor" class="theme" stroke-width="3"/>
<path d="M823.454 -515.822C886.469 -525.233 950.198 -504.056 995.048 -458.802L1448.84 -0.922328C1501.9 52.6065 1520.35 131.413 1496.59 202.932L1326.36 715.221C1302.59 786.74 1240.64 838.828 1166.1 849.959L528.514 945.179C465.498 954.59 401.77 933.413 356.919 888.159L-96.8769 430.279C-149.928 376.75 -168.385 297.944 -144.619 226.424L25.6114 -285.864C49.3768 -357.384 111.328 -409.471 185.866 -420.603L823.454 -515.822Z" fill="currentcolor" class="theme-shade-15"/>
<path d="M563.097 635.345C569.039 607.388 589.445 584.725 616.627 575.893L789.174 519.829C816.357 510.997 846.186 517.337 867.426 536.462L1002.25 657.86C1023.49 676.985 1032.92 705.988 1026.97 733.945L989.253 911.407C983.311 939.364 962.905 962.027 935.723 970.859L763.175 1026.92C735.993 1035.75 706.164 1029.41 684.924 1010.29L550.097 888.891C528.857 869.767 519.433 840.764 525.376 812.807L563.097 635.345Z" fill="currentcolor" class="theme"/>
<path d="M626.631 428.016C629.008 416.833 637.17 407.768 648.043 404.235L683.217 392.806C694.09 389.273 706.022 391.81 714.518 399.459L742.003 424.207C750.499 431.857 754.268 443.458 751.891 454.641L744.202 490.817C741.825 501.999 733.662 511.064 722.789 514.597L687.615 526.026C676.742 529.559 664.811 527.023 656.315 519.373L628.83 494.626C620.334 486.976 616.564 475.374 618.941 464.192L626.631 428.016Z" fill="currentcolor" class="theme-tint-10"/>
</svg>
