<svg width="768" height="799" viewBox="0 0 768 799" fill="none" xmlns="http://www.w3.org/2000/svg">
    <path d="M222.782 666.772L107.582 777.89C89.1196 795.697 62.6951 802.339 38.2556 795.317L-114.245 751.493C-138.685 744.47 -157.421 724.847 -163.399 700.02L-200.699 545.081C-206.676 520.251 -198.985 493.987 -180.523 476.18L-65.3225 365.062C-46.8603 347.255 -20.4358 340.613 4.00373 347.635L156.505 391.459C180.944 398.482 199.68 418.105 205.658 442.932L242.955 597.872C248.932 622.702 241.241 648.966 222.782 666.772Z"
          fill="currentcolor" class="theme"/>
    <path opacity="0.5"
          d="M-97.5437 -175.24L-98.2187 -175.977L-97.5438 -175.24L-229.979 -53.9799C-250.94 -34.7864 -260.085 -5.95585 -253.975 21.6572L-215.36 196.15C-209.251 223.763 -188.814 245.963 -161.745 254.387L9.30159 307.619C36.3704 316.042 65.9605 309.412 86.922 290.218L219.357 168.958C240.319 149.765 249.463 120.934 243.353 93.3211L204.739 -81.172C198.628 -108.781 178.191 -130.981 151.122 -139.405L151.419 -140.36L151.122 -139.405L-19.9233 -192.641C-46.9921 -201.063 -76.5822 -194.433 -97.5437 -175.24Z"
          stroke="url(#bg-top-multi-5-tablet-a)" stroke-width="2"/>
    <path d="M1117.28 166.686L871.077 401.494C831.619 439.123 775.372 452.924 723.507 437.704L399.878 342.719C348.014 327.498 308.425 285.562 296.015 232.717L218.593 -97.0695C206.186 -149.919 222.849 -205.654 262.306 -243.283L508.511 -478.091C547.968 -515.72 604.216 -529.521 656.08 -514.301L979.71 -419.316C1031.57 -404.095 1071.16 -362.159 1083.57 -309.314L1160.99 20.4741C1173.4 73.3234 1156.73 129.059 1117.28 166.686Z"
          fill="url(#bg-top-multi-5-tablet-b)"/>
    <defs>
        <linearGradient id="bg-top-multi-5-tablet-a" x1="52.1905" y1="377.698" x2="157.766" y2="57.4895"
                        gradientUnits="userSpaceOnUse">
            <stop stop-color="currentcolor" class="theme-shade-15"/>
            <stop offset="1" stop-color="currentcolor" class="theme-tint-15"/>
        </linearGradient>
        <linearGradient id="bg-top-multi-5-tablet-b" x1="603.52" y1="-10.4782" x2="438.173" y2="372.294"
                        gradientUnits="userSpaceOnUse">
            <stop stop-color="currentcolor" class="theme-tint-5"/>
            <stop offset="1" stop-color="currentcolor" class="theme-tint-15"/>
        </linearGradient>
    </defs>
</svg>
