<svg width="1440" height="1521" viewBox="0 0 1440 1521" fill="none" xmlns="http://www.w3.org/2000/svg">
<rect x="0.738403" y="57.8996" width="1439.26" height="1412.28" fill="currentcolor" class="theme-tint-15"/>
<path d="M-133.566 -143.554C-119.703 -195.291 -79.2914 -235.703 -27.5542 -249.566L348.684 -350.378C400.421 -364.241 455.624 -349.45 493.499 -311.575L768.924 -36.15C806.798 1.72425 821.59 56.9272 807.727 108.664L706.914 484.903C693.051 536.64 652.64 577.051 600.903 590.914L224.664 691.727C172.927 705.59 117.724 690.798 79.8499 652.924L-195.576 377.499C-233.45 339.624 -248.241 284.421 -234.378 232.684L-133.566 -143.554Z" fill="white"/>
<path fill-rule="evenodd" clip-rule="evenodd" d="M465.143 1336.91L1 1199.83V1496.75H1440V1137L1229.06 1348.35C1135.35 1442.23 997.979 1478.84 868.649 1444.39L465.143 1336.91Z" fill="white"/>
<path d="M448.005 710.881C452.164 695.36 464.288 683.236 479.809 679.077L596.173 647.898C611.695 643.739 628.255 648.176 639.618 659.538L724.802 744.723C736.165 756.085 740.602 772.646 736.443 788.168L705.264 904.532C701.105 920.053 688.981 932.177 673.46 936.336L557.096 967.515C541.574 971.674 525.014 967.237 513.651 955.874L428.467 870.69C417.104 859.327 412.667 842.766 416.826 827.245L448.005 710.881Z" fill="currentcolor" class="theme-tint-10"/>
<path d="M141.03 1075.4C148.206 1048.62 169.126 1027.7 195.909 1020.52L396.701 966.717C423.484 959.541 452.061 967.198 471.667 986.804L618.657 1133.79C638.264 1153.4 645.921 1181.98 638.744 1208.76L584.942 1409.55C577.766 1436.34 556.846 1457.25 530.064 1464.43L329.271 1518.23C302.488 1525.41 273.911 1517.75 254.305 1498.15L107.315 1351.16C87.7085 1331.55 80.0514 1302.97 87.2278 1276.19L141.03 1075.4Z" fill="currentcolor" class="theme-shade-5"/>
<path d="M769.835 849.022C772.214 840.146 779.146 833.214 788.022 830.835L857.474 812.226C866.35 809.848 875.82 812.385 882.317 818.883L933.16 869.725C939.657 876.222 942.195 885.693 939.816 894.568L921.207 964.02C918.829 972.896 911.896 979.829 903.02 982.207L833.568 1000.82C824.693 1003.19 815.222 1000.66 808.725 994.16L757.883 943.317C751.385 936.82 748.848 927.35 751.226 918.474L769.835 849.022Z" stroke="currentcolor" class="theme-shade-5" stroke-width="2.24885"/>
<path d="M1387.21 -137.227C1428.06 -133.177 1463.64 -107.643 1480.56 -70.2421L1642.29 287.33C1659.21 324.731 1654.89 368.315 1630.96 401.666L1402.16 720.519C1378.23 753.869 1338.32 771.919 1297.47 767.869L906.939 729.15C866.091 725.1 830.506 699.565 813.589 662.165L651.854 304.592C634.938 267.192 639.259 223.607 663.19 190.257L891.99 -128.596C915.921 -161.947 955.827 -179.997 996.675 -175.947L1387.21 -137.227Z" stroke="url(#paint0_linear_0_1)" stroke-width="2.66317"/>
<path d="M979.085 -187.206C1008.45 -216.568 1051.24 -228.035 1091.35 -217.288L1470.43 -115.714C1510.54 -104.967 1541.87 -73.6382 1552.61 -33.5289L1654.19 345.548C1664.93 385.657 1653.47 428.453 1624.11 457.815L1346.6 735.319C1317.24 764.681 1274.44 776.148 1234.33 765.401L855.258 663.827C815.149 653.08 783.82 621.751 773.073 581.642L671.5 202.565C660.752 162.456 672.219 119.66 701.582 90.2977L979.085 -187.206Z" fill="url(#paint1_linear_0_1)"/>
<defs>
<linearGradient id="paint0_linear_0_1" x1="930.025" y1="-183.921" x2="1364.11" y2="775.784" gradientUnits="userSpaceOnUse">
<stop stop-color="currentcolor" class="theme-tint-5"/>
<stop offset="1" stop-color="currentcolor" class="theme-shade-5"/>
</linearGradient>
<linearGradient id="paint1_linear_0_1" x1="654.106" y1="137.733" x2="1671.53" y2="410.35" gradientUnits="userSpaceOnUse">
<stop stop-color="currentcolor" class="theme-tint-5"/>
<stop offset="1" stop-color="currentcolor" class="theme-shade-5"/>
</linearGradient>
</defs>
</svg>
