<svg width="1920" height="1952" viewBox="0 0 1920 1952" fill="none" xmlns="http://www.w3.org/2000/svg">
<rect width="1920" height="1884" fill="currentcolor" class="theme-tint-15"/>
<path fill-rule="evenodd" clip-rule="evenodd" d="M619.287 1669.74L0 1486.83V1883H1920V1403L1638.55 1685C1513.52 1810.26 1330.23 1859.1 1157.67 1813.14L619.287 1669.74Z" fill="white"/>
<path d="M-179.164 -268.743C-160.671 -337.761 -106.761 -391.671 -37.7429 -410.164L464.166 -544.65C533.184 -563.144 606.826 -543.411 657.351 -492.886L1024.77 -125.464C1075.3 -74.9389 1095.03 -1.29719 1076.54 67.7212L942.051 569.63C923.557 638.648 869.648 692.557 800.629 711.051L298.721 845.537C229.703 864.03 156.061 844.298 105.536 793.773L-261.886 426.351C-312.411 375.826 -332.144 302.184 -313.65 233.165L-179.164 -268.743Z" fill="white"/>
<path d="M1975.83 -96.6958L2198.48 395.541C2221.77 447.027 2215.82 507.025 2182.87 552.936L1867.91 991.871C1834.96 1037.78 1780.03 1062.63 1723.8 1057.05L1186.18 1003.75C1129.95 998.177 1080.97 963.026 1057.68 911.54L835.034 419.304C811.746 367.818 817.694 307.819 850.639 261.908L1165.61 -177.026C1198.55 -222.937 1253.48 -247.785 1309.72 -242.21L1847.33 -188.908C1903.56 -183.333 1952.55 -148.182 1975.83 -96.6958Z" stroke="url(#paint0_linear_0_1)" stroke-width="3.66614"/>
<path d="M1285.5 -257.709C1325.92 -298.129 1384.83 -313.914 1440.05 -299.12L1961.89 -159.293C2017.1 -144.498 2060.23 -101.371 2075.03 -46.1561L2214.85 475.683C2229.65 530.898 2213.86 589.811 2173.44 630.231L1791.43 1012.24C1751.01 1052.66 1692.09 1068.45 1636.88 1053.66L1115.04 913.829C1059.83 899.034 1016.7 855.907 1001.9 800.692L862.077 278.852C847.282 223.638 863.068 164.724 903.488 124.304L1285.5 -257.709Z" fill="url(#paint1_linear_0_1)"/>
<path d="M596.662 871.088C602.21 850.383 618.383 834.21 639.088 828.662L794.321 787.068C815.026 781.52 837.119 787.439 852.276 802.597L965.914 916.235C981.072 931.392 986.991 953.485 981.443 974.19L939.849 1129.42C934.301 1150.13 918.128 1166.3 897.422 1171.85L742.19 1213.44C721.485 1218.99 699.392 1213.07 684.235 1197.91L570.597 1084.28C555.439 1069.12 549.52 1047.03 555.068 1026.32L596.662 871.088Z" fill="currentcolor" class="theme-tint-10"/>
<path d="M187.151 1357.36C196.725 1321.63 224.632 1293.72 260.36 1284.15L528.222 1212.38C563.95 1202.8 602.072 1213.02 628.227 1239.17L824.315 1435.26C850.47 1461.42 860.684 1499.54 851.111 1535.27L779.338 1803.13C769.764 1838.86 741.857 1866.76 706.129 1876.34L438.268 1948.11C402.539 1957.68 364.418 1947.47 338.263 1921.31L142.175 1725.23C116.02 1699.07 105.805 1660.95 115.378 1625.22L187.151 1357.36Z" fill="currentcolor" class="theme-shade-5"/>
<path d="M1029.42 1089.16L1122.07 1064.34C1133.91 1061.16 1146.55 1064.55 1155.21 1073.22L1223.04 1141.04C1231.71 1149.71 1235.09 1162.34 1231.92 1174.18L1207.09 1266.83C1203.92 1278.67 1194.67 1287.92 1182.83 1291.09L1090.18 1315.92C1078.34 1319.09 1065.71 1315.71 1057.04 1307.04L989.216 1239.21C980.549 1230.55 977.163 1217.91 980.336 1206.07L1005.16 1113.42C1008.33 1101.58 1017.58 1092.33 1029.42 1089.16Z" stroke="currentcolor" class="theme-shade-5" stroke-width="3"/>
<defs>
<linearGradient id="paint0_linear_0_1" x1="1217.96" y1="-253.187" x2="1815.53" y2="1067.95" gradientUnits="userSpaceOnUse">
<stop stop-color="currentcolor" class="theme-tint-5"/>
<stop offset="1" stop-color="currentcolor" class="theme-shade-5"/>
</linearGradient>
<linearGradient id="paint1_linear_0_1" x1="838.134" y1="189.604" x2="2238.72" y2="564.891" gradientUnits="userSpaceOnUse">
<stop stop-color="currentcolor" class="theme-tint-5"/>
<stop offset="1" stop-color="currentcolor" class="theme-shade-5"/>
</linearGradient>
</defs>
</svg>
