<svg width="768" height="2120" viewBox="0 0 768 2120" fill="none" xmlns="http://www.w3.org/2000/svg">
    <rect y="586" width="768" height="1376" fill="currentcolor" class="theme-tint-15"/>
    <path d="M969.548 1364.53L891.014 1440.81C878.428 1453.03 860.369 1457.64 843.636 1452.89L739.22 1423.28C722.487 1418.53 709.625 1405.15 705.476 1388.19L679.595 1282.29C675.448 1265.33 680.646 1247.34 693.232 1235.12L771.766 1158.84C784.352 1146.62 802.411 1142.01 819.144 1146.75L923.56 1176.37C940.293 1181.11 953.155 1194.49 957.304 1211.46L983.182 1317.35C987.33 1334.32 982.132 1352.3 969.548 1364.53Z"
          fill="url(#bg-top-multi-1-tablet-a)"/>
    <path d="M601.191 1386.76L600.918 1387.72L601.191 1386.76L635.303 1396.43C640.423 1397.88 645.954 1396.47 649.812 1392.73L675.47 1367.81C675.47 1367.81 675.47 1367.81 675.47 1367.81C679.328 1364.06 680.92 1358.55 679.65 1353.35L679.65 1353.35L671.195 1318.75C669.925 1313.56 665.988 1309.47 660.869 1308.01L661.142 1307.05L660.869 1308.01L626.756 1298.34C621.637 1296.89 616.106 1298.3 612.247 1302.04L586.59 1326.96C582.731 1330.71 581.139 1336.22 582.41 1341.42L590.865 1376.02C590.865 1376.02 590.865 1376.02 590.865 1376.02C592.135 1381.21 596.072 1385.3 601.191 1386.76Z"
          stroke="currentcolor" class="theme-tint-10" stroke-width="2"/>
    <path d="M1066.52 826.412L592.117 1287.19C516.089 1361.03 407.002 1388.85 305.92 1360.19L-324.821 1181.3C-425.903 1152.63 -503.598 1071.82 -528.657 969.324L-684.995 329.673C-710.049 227.167 -673.932 -275.159 -597.904 -349L-128.221 -416.082C-52.1929 -489.923 56.8941 -517.747 157.976 -489.082L788.717 -310.193C889.799 -281.527 967.494 -200.716 992.553 -98.2183L1148.88 541.437C1173.93 643.943 1142.53 752.574 1066.52 826.412Z"
          fill="url(#bg-top-multi-1-tablet-b)"/>
    <path d="M768 1960H0V1972.8L45.3514 2021.77C119.946 2102.3 232.383 2136.78 340.338 2112.22L677.154 2035.58L768 2012.33V1960Z"
          fill="currentcolor" class="theme-tint-15"/>
    <path d="M129.209 1449.21L78.5962 1498.37C70.485 1506.25 58.8468 1509.22 48.0626 1506.16L-19.2296 1487.07C-30.0137 1484.02 -38.3028 1475.39 -40.9763 1464.46L-57.6556 1396.22C-60.3285 1385.28 -56.9785 1373.69 -48.8673 1365.81L1.74522 1316.65C9.85645 1308.78 21.4947 1305.81 32.2788 1308.87L99.571 1327.95C110.355 1331.01 118.644 1339.63 121.318 1350.57L137.996 1418.81C140.669 1429.74 137.319 1441.33 129.209 1449.21Z"
          fill="currentcolor" class="secondary-tint-10"/>
    <defs>
        <linearGradient id="bg-top-multi-1-tablet-a" x1="719.882" y1="1255.15" x2="940.675" y2="1402.61"
                        gradientUnits="userSpaceOnUse">
            <stop stop-color="currentcolor" class="theme-tint-10"/>
            <stop offset="1" stop-color="currentcolor" class="theme"/>
        </linearGradient>
        <linearGradient id="bg-top-multi-1-tablet-b" x1="113.096" y1="1028.5" x2="565.38" y2="362.93"
                        gradientUnits="userSpaceOnUse">
            <stop stop-color="currentcolor" class="theme-tint-10"/>
            <stop offset="0.899048" stop-color="white"/>
        </linearGradient>
    </defs>
</svg>
