<svg width="768" height="915" viewBox="0 0 768 915" fill="none" xmlns="http://www.w3.org/2000/svg">
<path d="M721.292 -82.233L902.795 342.909C917.339 376.978 912.603 416.217 890.372 445.847L612.939 815.604C590.707 845.234 554.357 860.752 517.581 856.314L58.6454 800.929C21.8693 796.49 -9.74547 772.769 -24.2899 738.701L-205.792 313.559C-220.337 279.491 -215.601 240.251 -193.369 210.621L84.0638 -159.136C106.295 -188.766 142.646 -204.284 179.422 -199.846L638.357 -144.46C675.133 -140.022 706.748 -116.301 721.292 -82.233Z" stroke="currentcolor" class="theme" stroke-width="3"/>
<path d="M494.693 -252.865C528.339 -257.89 562.366 -246.583 586.313 -222.42L963.984 158.649C992.31 187.23 1002.16 229.307 989.476 267.494L843.756 706.02C831.067 744.206 797.989 772.017 758.191 777.961L227.559 857.207C193.913 862.232 159.887 850.925 135.94 826.762L-241.732 445.693C-270.057 417.112 -279.912 375.035 -267.223 336.848L-121.503 -101.678C-108.814 -139.864 -75.7361 -167.675 -35.938 -173.619L494.693 -252.865Z" fill="currentcolor" class="theme-shade-15"/>
<path d="M111.645 707.44C114.957 694.639 124.594 684.426 137.181 680.378L230.969 650.214C244.357 645.909 259.027 649.229 269.255 658.881L336.098 721.953C346.326 731.605 350.492 746.057 346.97 759.672L322.296 855.051C318.985 867.852 309.348 878.065 296.761 882.114L202.972 912.277C189.585 916.583 174.915 913.262 164.687 903.611L97.8439 840.538C87.6157 830.887 83.4499 816.435 86.9718 802.82L111.645 707.44Z" fill="currentcolor" class="theme"/>
<path d="M150.129 587.501C151.061 583.9 153.771 581.028 157.311 579.889L185 570.984C188.765 569.773 192.891 570.707 195.768 573.422L215.533 592.072C218.41 594.787 219.582 598.852 218.591 602.681L211.307 630.839C210.375 634.44 207.665 637.312 204.125 638.451L176.436 647.356C172.671 648.567 168.545 647.633 165.668 644.918L145.903 626.268C143.026 623.553 141.854 619.488 142.845 615.659L150.129 587.501Z" fill="currentcolor" class="theme-tint-10"/>
</svg>
