<svg width="1440" height="1992" viewBox="0 0 1440 1992" fill="none" xmlns="http://www.w3.org/2000/svg">
    <rect y="316" width="1440" height="1376" fill="currentcolor" class="theme-tint-15"/>
    <path d="M1440 1692H0V1716L85.0339 1807.81C224.898 1958.81 435.718 2023.45 638.134 1977.41L1269.66 1833.72L1440 1790.11V1692Z"
          fill="currentcolor" class="theme-tint-15"/>
    <path d="M1525.92 826.412L1051.52 1287.19C975.493 1361.03 866.406 1388.85 765.324 1360.19L134.583 1181.3C33.501 1152.63 -44.1941 1071.82 -69.2529 969.324L-225.591 329.673C-250.645 227.167 -214.528 -275.159 -138.5 -349L331.183 -416.082C407.211 -489.923 516.298 -517.747 617.379 -489.082L1248.12 -310.193C1349.2 -281.527 1426.9 -200.716 1451.96 -98.2183L1608.28 541.437C1633.34 643.943 1601.93 752.574 1525.92 826.412Z"
          fill="url(#bg-top-multi-1-laptop-a)"/>
    <path d="M1809.4 1345.21L1665.35 1485.13C1642.26 1507.55 1609.14 1516 1578.44 1507.29L1386.92 1452.98C1356.23 1444.27 1332.64 1419.73 1325.03 1388.61L1277.56 1194.38C1269.95 1163.26 1279.48 1130.27 1302.57 1107.85L1446.62 967.936C1469.71 945.514 1502.83 937.065 1533.52 945.77L1725.04 1000.09C1755.74 1008.79 1779.33 1033.33 1786.94 1064.45L1834.41 1258.68C1842.01 1289.81 1832.48 1322.79 1809.4 1345.21Z"
          fill="url(#bg-top-multi-1-laptop-b)"/>
    <path d="M1243.44 1240.75L1243.71 1239.79L1243.44 1240.75L1180.87 1223.01C1171.19 1220.26 1160.73 1222.93 1153.44 1230.01L1106.38 1275.72C1099.09 1282.8 1096.08 1293.21 1098.49 1303.03L1113.99 1366.49C1116.4 1376.31 1123.84 1384.04 1133.52 1386.79L1196.09 1404.54C1205.77 1407.28 1216.22 1404.62 1223.51 1397.54L1270.57 1351.83C1277.86 1344.75 1280.87 1334.34 1278.47 1324.51L1279.44 1324.28L1278.47 1324.51L1262.96 1261.06C1260.56 1251.24 1253.12 1243.5 1243.44 1240.75Z"
          stroke="currentcolor" class="theme-tint-10" stroke-width="2"/>
    <path d="M243.097 1393.7L186.666 1448.51C177.623 1457.29 164.647 1460.6 152.623 1457.19L77.5952 1435.91C65.5715 1432.5 56.3295 1422.89 53.3487 1410.7L34.7521 1334.61C31.7719 1322.42 35.507 1309.49 44.5507 1300.71L100.981 1245.9C110.025 1237.12 123.001 1233.81 135.025 1237.22L210.052 1258.5C222.076 1261.91 231.318 1271.52 234.299 1283.71L252.894 1359.8C255.874 1371.99 252.139 1384.91 243.097 1393.7Z"
          fill="currentcolor" class="secondary-tint-10"/>
    <path d="M656.585 1542.9L657.556 1542.66L656.585 1542.9L622.547 1403.62C617.176 1381.65 600.524 1364.33 578.863 1358.19L579.136 1357.23L578.863 1358.19L441.528 1319.24C419.867 1313.1 396.483 1319.06 380.183 1334.89L276.889 1435.22L276.192 1434.5L276.889 1435.22C260.588 1451.05 253.857 1474.34 259.228 1496.31L293.268 1635.59C298.639 1657.56 315.291 1674.88 336.952 1681.02L474.287 1719.97C495.948 1726.11 519.332 1720.15 535.632 1704.32L638.926 1603.99C655.224 1588.16 661.955 1564.87 656.585 1542.9Z"
          stroke="white" stroke-width="2"/>
    <defs>
        <linearGradient id="bg-top-multi-1-laptop-a" x1="572.5" y1="1028.5" x2="1024.78" y2="362.93"
                        gradientUnits="userSpaceOnUse">
            <stop stop-color="currentcolor" class="theme-tint-10"/>
            <stop offset="0.899048" stop-color="white"/>
        </linearGradient>
        <linearGradient id="bg-top-multi-1-laptop-b" x1="1351.45" y1="1144.59" x2="1756.44" y2="1415.06"
                        gradientUnits="userSpaceOnUse">
            <stop stop-color="currentcolor" class="theme-tint-10"/>
            <stop offset="1" stop-color="currentcolor" class="theme"/>
        </linearGradient>
    </defs>
</svg>
