<svg width="428" height="801" viewBox="0 0 428 801" fill="none" xmlns="http://www.w3.org/2000/svg">
<path d="M721.292 -149.428L902.795 275.714C917.339 309.782 912.603 349.022 890.372 378.652L612.939 748.409C590.707 778.038 554.357 793.557 517.581 789.119L58.6454 733.733C21.8693 729.295 -9.74547 705.574 -24.2899 671.506L-205.792 246.363C-220.337 212.295 -215.601 173.056 -193.369 143.426L84.0638 -226.331C106.295 -255.961 142.646 -271.48 179.422 -267.041L638.357 -211.656C675.133 -207.217 706.748 -183.497 721.292 -149.428Z" stroke="currentcolor" class="theme" stroke-width="3"/>
<path d="M494.693 -351.865C528.339 -356.89 562.366 -345.583 586.313 -321.42L963.984 59.6493C992.31 88.2301 1002.16 130.307 989.476 168.494L843.756 607.02C831.067 645.206 797.989 673.017 758.191 678.961L227.559 758.207C193.914 763.232 159.887 751.925 135.94 727.762L-241.731 346.693C-270.057 318.112 -279.912 276.035 -267.223 237.848L-121.503 -200.678C-108.814 -238.864 -75.7361 -266.675 -35.9379 -272.619L494.693 -351.865Z" fill="currentcolor" class="theme-shade-15"/>
<path d="M37.8198 696.975C39.6819 689.777 45.1009 684.034 52.1789 681.758L97.6946 667.119C105.223 664.698 113.471 666.566 119.223 671.993L151.487 702.437C157.239 707.864 159.581 715.991 157.601 723.646L145.626 769.934C143.764 777.133 138.345 782.875 131.267 785.152L85.7517 799.79C78.2238 802.211 69.9748 800.344 64.2234 794.917L31.9591 764.473C26.2077 759.046 23.8652 750.919 25.8456 743.263L37.8198 696.975Z" fill="currentcolor" class="theme"/>
<path d="M79.0149 625.971C79.5386 623.946 81.0627 622.331 83.0534 621.691L100.111 616.205C102.228 615.524 104.548 616.049 106.166 617.575L118.377 629.097C119.994 630.624 120.653 632.909 120.096 635.062L115.609 652.41C115.085 654.434 113.561 656.049 111.57 656.689L94.5125 662.175C92.3953 662.856 90.0753 662.331 88.4577 660.805L76.2468 649.283C74.6292 647.756 73.9704 645.471 74.5274 643.318L79.0149 625.971Z" fill="currentcolor" class="theme-tint-10"/>
</svg>
