<svg width="1900" height="1230" viewBox="0 0 1900 1230" fill="none" xmlns="http://www.w3.org/2000/svg">
    <path d="M2081.91 370.443L1649.56 782.782C1580.27 848.86 1481.49 873.097 1390.41 846.368L822.1 679.569C731.023 652.84 661.502 579.198 639.71 486.398L503.752 -92.7276C481.964 -185.534 511.225 -283.409 580.514 -349.487L1012.87 -761.826C1082.16 -827.904 1180.93 -852.141 1272.01 -825.412L1840.32 -658.612C1931.4 -631.884 2000.92 -558.242 2022.71 -465.442L2158.66 113.686C2180.45 206.493 2151.18 304.368 2081.91 370.443Z"
          fill="url(#bg-top-multi-5-a)"/>
    <path opacity="0.35"
          d="M615.419 505.635L641.942 607.146C646.192 623.414 641.406 640.746 629.386 652.617L554.381 726.692C542.361 738.563 524.934 743.166 508.665 738.771L407.139 711.335C390.869 706.938 378.228 694.209 373.978 677.941L347.456 576.429C343.206 560.161 347.991 542.829 360.011 530.958L435.016 456.883C447.036 445.012 464.464 440.409 480.733 444.804L582.258 472.243C598.528 476.639 611.168 489.369 615.419 505.635Z"
          fill="currentcolor" class="theme-tint-15"/>
    <path opacity="0.5"
          d="M-51.9155 -230.558L-52.3742 -231.058L-51.9156 -230.557L-284.481 -17.6176C-321.488 16.2687 -337.634 67.1713 -326.846 115.927L-259.037 422.348C-248.249 471.103 -212.164 510.3 -164.37 525.174L135.998 618.653C183.79 633.524 236.032 621.818 273.039 587.931L505.604 374.991C542.612 341.105 558.758 290.202 547.97 241.447L480.16 -64.9745C469.37 -113.723 433.286 -152.92 385.492 -167.794L385.789 -168.749L385.492 -167.794L85.1261 -261.28C37.3339 -276.15 -14.9079 -264.444 -51.9155 -230.558Z"
          stroke="url(#bg-top-multi-5-b)" stroke-opacity="0.5" stroke-width="2"/>
    <path d="M296.408 1048.38L137.397 1201.75C111.914 1226.33 75.4402 1235.5 41.7064 1225.81L-168.79 1165.32C-202.524 1155.62 -228.385 1128.54 -236.637 1094.27L-288.121 880.406C-296.372 846.134 -285.757 809.882 -260.273 785.303L-101.262 631.927C-75.7788 607.348 -39.3052 598.179 -5.57132 607.873L204.925 668.363C238.659 678.056 264.52 705.142 272.772 739.411L324.252 953.274C332.503 987.546 321.887 1023.8 296.408 1048.38Z"
          fill="currentcolor" class="theme"/>
    <defs>
        <linearGradient id="bg-top-multi-5-a" x1="1179.71" y1="59.3324" x2="889.348" y2="731.504"
                        gradientUnits="userSpaceOnUse">
            <stop stop-color="currentcolor" class="theme-tint-5"/>
            <stop offset="1" stop-color="currentcolor" class="theme-tint-15"/>
        </linearGradient>
        <linearGradient id="bg-top-multi-5-b" x1="211.538" y1="740.993" x2="396.935" y2="178.687"
                        gradientUnits="userSpaceOnUse">
            <stop stop-color="currentcolor" class="theme-shade-15"/>
            <stop offset="1" stop-color="currentcolor" class="theme-tint-15"/>
        </linearGradient>
    </defs>
</svg>
