<svg width="1900" height="969" viewBox="0 0 1900 969" fill="none" xmlns="http://www.w3.org/2000/svg">
    <path d="M2112.94 -248.129L1580.19 269.323C1494.81 352.246 1372.3 383.493 1258.79 351.302L550.467 150.41C436.952 118.219 349.701 27.4674 321.56 -87.6376L145.992 -805.966C117.856 -921.081 153.119 -1043.07 238.498 -1126L771.249 -1643.45C856.628 -1726.37 979.133 -1757.62 1092.65 -1725.43L1800.97 -1524.54C1914.48 -1492.34 2001.74 -1401.59 2029.88 -1286.49L2205.43 -568.155C2233.56 -453.041 2198.3 -331.048 2112.94 -248.129Z"
          fill="url(#bg-top-multi-4-a)"/>
    <path d="M2139.46 235.371L2139.74 234.409L2139.46 235.371L1862.72 156.88C1818.71 144.401 1771.22 156.513 1738.11 188.666L1529.96 390.84C1496.85 422.993 1483.18 470.294 1494.09 514.925L1562.69 795.584C1573.6 840.209 1607.42 875.388 1651.42 887.867L1928.17 966.358C1972.18 978.837 2019.67 966.725 2052.78 934.572L2260.93 732.398C2294.03 700.246 2307.7 652.945 2296.79 608.315L2228.2 327.654C2217.29 283.029 2183.47 247.85 2139.46 235.371Z"
          stroke="currentcolor" class="secondary-tint-5" stroke-width="2"/>
    <path d="M277.483 39.0177L134.218 178.169C111.258 200.468 78.3144 208.871 47.7884 200.215L-142.691 146.191C-173.217 137.535 -196.681 113.13 -204.248 82.1765L-251.461 -110.994C-259.027 -141.95 -249.545 -174.756 -226.585 -197.056L-83.3193 -336.207C-60.3593 -358.506 -27.4158 -366.909 3.11018 -358.252L193.59 -304.229C224.116 -295.572 247.579 -271.168 255.147 -240.214L302.356 -47.0428C309.922 -16.0866 300.439 16.7193 277.483 39.0177Z"
          fill="currentcolor" class="theme-tint-10"/>
    <path d="M1412.76 621.774L1329.39 702.75C1316.03 715.726 1296.86 720.616 1279.1 715.579L1168.25 684.141C1150.49 679.103 1136.83 664.902 1132.43 646.889L1104.96 534.478C1100.55 516.463 1106.07 497.373 1119.43 484.396L1202.8 403.42C1216.16 390.444 1235.33 385.554 1253.1 390.591L1363.94 422.029C1381.71 427.066 1395.36 441.268 1399.77 459.281L1427.24 571.693C1431.64 589.707 1426.12 608.798 1412.76 621.774Z"
          fill="currentcolor" class="secondary-tint-10"/>
    <defs>
        <linearGradient id="bg-top-multi-4-a" x1="2218.99" y1="-673.806" x2="132.894" y2="-718.466"
                        gradientUnits="userSpaceOnUse">
            <stop offset="0.107639" stop-color="currentcolor" class="theme-tint-10"/>
            <stop offset="0.623264" stop-color="currentcolor" class="theme-shade-5"/>
        </linearGradient>
    </defs>
</svg>
