<svg width="16" height="19" viewBox="0 0 16 19" fill="none" xmlns="http://www.w3.org/2000/svg">
<path d="M8.23405 9.52532L4.72405 10.5153C4.15405 10.6753 3.55405 10.5253 3.13405 10.1153L0.494051 7.59532C0.0740507 7.18532 -0.0859493 6.59532 0.0440507 6.03532L0.944051 2.51532C1.08405 1.96532 1.52405 1.51532 2.08405 1.36532L5.60405 0.375323C6.17405 0.215323 6.77405 0.365323 7.19405 0.775323L9.82405 3.30532C10.2441 3.71532 10.4241 4.30532 10.2741 4.86532L9.37405 8.36532C9.24405 8.92532 8.80405 9.37532 8.23405 9.52532Z" fill="#DFDEDC"/>
<path d="M14.9341 11.2055L13.3041 11.6655C13.0441 11.7355 12.7641 11.6655 12.5741 11.4855L11.3541 10.3155C11.1641 10.1255 11.0841 9.85547 11.1441 9.59547L11.5641 7.97547C11.6341 7.71547 11.8241 7.50547 12.0941 7.43547L13.7141 6.97547C13.9741 6.90547 14.2541 6.97547 14.4441 7.15547L15.6541 8.32547C15.8441 8.51547 15.9341 8.78547 15.8641 9.04547L15.4541 10.6655C15.3941 10.9255 15.1841 11.1355 14.9341 11.2055Z" fill="#55575A"/>
<path d="M8.73402 12.3652L8.76402 12.3752L10.544 14.0852C10.574 14.1152 10.574 14.1452 10.574 14.1752L9.96402 16.5652C9.95402 16.6052 9.92402 16.6352 9.89402 16.6352L7.50402 17.3252C7.47402 17.3352 7.44402 17.3252 7.40402 17.3052C7.39402 17.3052 7.39402 17.3052 7.38402 17.2952L5.59402 15.5752C5.56402 15.5652 5.55402 15.5252 5.56402 15.4852L6.17402 13.0952C6.18402 13.0552 6.21402 13.0252 6.24402 13.0252L8.63402 12.3552C8.66402 12.3452 8.70402 12.3452 8.73402 12.3652ZM9.20402 11.4852C8.95402 11.3452 8.65402 11.3152 8.37402 11.3952L5.97402 12.0652C5.58402 12.1752 5.29402 12.4752 5.19402 12.8652L4.58402 15.2552C4.48402 15.6352 4.60402 16.0452 4.89402 16.3152L6.68402 18.0352C6.75402 18.1052 6.84402 18.1652 6.93402 18.2152C7.19402 18.3552 7.48402 18.3852 7.76402 18.3152L10.154 17.6452C10.544 17.5352 10.834 17.2352 10.934 16.8452L11.544 14.4552C11.644 14.0752 11.524 13.6652 11.234 13.3952L9.45402 11.6852C9.37402 11.5852 9.29402 11.5352 9.20402 11.4852Z" fill="#BABAB9"/>
</svg>
