<svg width="16" height="19" viewBox="0 0 16 19" fill="none" xmlns="http://www.w3.org/2000/svg">
<path d="M8.23405 9.33001L4.72405 10.32C4.15405 10.48 3.55405 10.33 3.13405 9.92001L0.494051 7.40001C0.0740507 6.99001 -0.0859493 6.40001 0.0440507 5.84001L0.944051 2.32001C1.08405 1.77001 1.52405 1.32001 2.08405 1.17001L5.60405 0.18001C6.17405 0.0200103 6.77405 0.17001 7.19405 0.58001L9.82405 3.11001C10.2441 3.52001 10.4241 4.11001 10.2741 4.67001L9.37405 8.17001C9.24405 8.73001 8.80405 9.18001 8.23405 9.33001Z" fill="#E0BEFF"/>
<path d="M14.9341 11.0102L13.3041 11.4702C13.0441 11.5402 12.7641 11.4702 12.5741 11.2902L11.3541 10.1202C11.1641 9.93016 11.0841 9.66016 11.1441 9.40016L11.5641 7.78016C11.6341 7.52016 11.8241 7.31016 12.0941 7.24016L13.7141 6.78016C13.9741 6.71016 14.2541 6.78016 14.4441 6.96016L15.6541 8.13016C15.8441 8.32016 15.9341 8.59016 15.8641 8.85016L15.4541 10.4702C15.3941 10.7302 15.1841 10.9402 14.9341 11.0102Z" fill="#794FCD"/>
<path d="M8.73402 12.1699L8.76402 12.1799L10.544 13.8899C10.574 13.9199 10.574 13.9499 10.574 13.9799L9.96402 16.3699C9.95402 16.4099 9.92402 16.4399 9.89402 16.4399L7.50402 17.1299C7.47402 17.1399 7.44402 17.1299 7.40402 17.1099C7.39402 17.1099 7.39402 17.1099 7.38402 17.0999L5.59402 15.3799C5.56402 15.3699 5.55402 15.3299 5.56402 15.2899L6.17402 12.8999C6.18402 12.8599 6.21402 12.8299 6.24402 12.8299L8.63402 12.1599C8.66402 12.1499 8.70402 12.1499 8.73402 12.1699ZM9.20402 11.2899C8.95402 11.1499 8.65402 11.1199 8.37402 11.1999L5.97402 11.8699C5.58402 11.9799 5.29402 12.2799 5.19402 12.6699L4.58402 15.0599C4.48402 15.4399 4.60402 15.8499 4.89402 16.1199L6.68402 17.8399C6.75402 17.9099 6.84402 17.9699 6.93402 18.0199C7.19402 18.1599 7.48402 18.1899 7.76402 18.1199L10.154 17.4499C10.544 17.3399 10.834 17.0399 10.934 16.6499L11.544 14.2599C11.644 13.8799 11.524 13.4699 11.234 13.1999L9.45402 11.4899C9.37402 11.3899 9.29402 11.3399 9.20402 11.2899Z" fill="#A168FF"/>
</svg>
