<svg width="16" height="19" viewBox="0 0 16 19" fill="none" xmlns="http://www.w3.org/2000/svg">
<path d="M8.23405 9.40814L4.72405 10.3981C4.15405 10.5581 3.55405 10.4081 3.13405 9.99814L0.494051 7.47814C0.0740507 7.06814 -0.0859493 6.47814 0.0440507 5.91814L0.944051 2.39814C1.08405 1.84814 1.52405 1.39814 2.08405 1.24814L5.60405 0.258135C6.17405 0.0981353 6.77405 0.248135 7.19405 0.658135L9.82405 3.18814C10.2441 3.59814 10.4241 4.18814 10.2741 4.74814L9.37405 8.24814C9.24405 8.80814 8.80405 9.25814 8.23405 9.40814Z" fill="#FFC9B5"/>
<path d="M14.9341 11.0883L13.3041 11.5483C13.0441 11.6183 12.7641 11.5483 12.5741 11.3683L11.3541 10.1983C11.1641 10.0083 11.0841 9.73828 11.1441 9.47828L11.5641 7.85828C11.6341 7.59828 11.8241 7.38828 12.0941 7.31828L13.7141 6.85828C13.9741 6.78828 14.2541 6.85828 14.4441 7.03828L15.6541 8.20828C15.8441 8.39828 15.9341 8.66828 15.8641 8.92828L15.4541 10.5483C15.3941 10.8083 15.1841 11.0183 14.9341 11.0883Z" fill="#CE4537"/>
<path d="M8.73402 12.248L8.76402 12.258L10.544 13.968C10.574 13.998 10.574 14.028 10.574 14.058L9.96402 16.448C9.95402 16.488 9.92402 16.518 9.89402 16.518L7.50402 17.208C7.47402 17.218 7.44402 17.208 7.40402 17.188C7.39402 17.188 7.39402 17.188 7.38402 17.178L5.59402 15.458C5.56402 15.448 5.55402 15.408 5.56402 15.368L6.17402 12.978C6.18402 12.938 6.21402 12.908 6.24402 12.908L8.63402 12.238C8.66402 12.228 8.70402 12.228 8.73402 12.248ZM9.20402 11.368C8.95402 11.228 8.65402 11.198 8.37402 11.278L5.97402 11.948C5.58402 12.058 5.29402 12.358 5.19402 12.748L4.58402 15.138C4.48402 15.518 4.60402 15.928 4.89402 16.198L6.68402 17.918C6.75402 17.988 6.84402 18.048 6.93402 18.098C7.19402 18.238 7.48402 18.268 7.76402 18.198L10.154 17.528C10.544 17.418 10.834 17.118 10.934 16.728L11.544 14.338C11.644 13.958 11.524 13.548 11.234 13.278L9.45402 11.568C9.37402 11.468 9.29402 11.418 9.20402 11.368Z" fill="#FF5F3F"/>
</svg>
