<svg width="8" height="7" viewBox="0 0 8 7" fill="none" xmlns="http://www.w3.org/2000/svg">
<path d="M4.1847 1.01364L4.2147 1.02364L5.9947 2.73364C6.0247 2.76364 6.0247 2.79364 6.0247 2.82364L5.4147 5.21364C5.4047 5.25364 5.3747 5.28364 5.3447 5.28364L2.9547 5.97364C2.9247 5.98364 2.8947 5.97364 2.8547 5.95364C2.8447 5.95364 2.8447 5.95364 2.8347 5.94364L1.0447 4.22364C1.0147 4.21364 1.0047 4.17364 1.0147 4.13364L1.6247 1.74364C1.6347 1.70364 1.6647 1.67364 1.6947 1.67364L4.0847 1.00364C4.1147 0.993636 4.1547 0.993637 4.1847 1.01364ZM4.6547 0.133636C4.4047 -0.00636353 4.1047 -0.0363637 3.8247 0.0436363L1.4247 0.713636C1.0347 0.823636 0.744702 1.12364 0.644702 1.51364L0.0347019 3.90364C-0.0652981 4.28364 0.0547018 4.69364 0.344702 4.96364L2.1347 6.68364C2.2047 6.75364 2.2947 6.81364 2.3847 6.86364C2.6447 7.00364 2.9347 7.03364 3.2147 6.96364L5.6047 6.29364C5.9947 6.18364 6.2847 5.88364 6.3847 5.49364L6.9947 3.10364C7.0947 2.72364 6.9747 2.31364 6.6847 2.04364L4.9047 0.333636C4.8247 0.233636 4.7447 0.183636 4.6547 0.133636Z" fill="#FF5D88"/>
</svg>
