<svg width="16" height="19" viewBox="0 0 16 19" fill="none" xmlns="http://www.w3.org/2000/svg">
<path d="M8.23405 9.21282L4.72405 10.2028C4.15405 10.3628 3.55405 10.2128 3.13405 9.80282L0.494051 7.28282C0.0740507 6.87282 -0.0859493 6.28282 0.0440507 5.72282L0.944051 2.20282C1.08405 1.65282 1.52405 1.20282 2.08405 1.05282L5.60405 0.0628228C6.17405 -0.0971772 6.77405 0.0528228 7.19405 0.462823L9.82405 2.99282C10.244 3.40282 10.4241 3.99282 10.2741 4.55282L9.37405 8.05282C9.24405 8.61282 8.80405 9.06282 8.23405 9.21282Z" fill="#D5FE81"/>
<path d="M14.9341 10.893L13.3041 11.353C13.0441 11.423 12.7641 11.353 12.5741 11.173L11.3541 10.003C11.1641 9.81297 11.0841 9.54297 11.1441 9.28297L11.5641 7.66297C11.6341 7.40297 11.8241 7.19297 12.0941 7.12297L13.7141 6.66297C13.9741 6.59297 14.2541 6.66297 14.4441 6.84297L15.6541 8.01297C15.8441 8.20297 15.9341 8.47297 15.8641 8.73297L15.4541 10.353C15.3941 10.613 15.1841 10.823 14.9341 10.893Z" fill="#1D9336"/>
<path d="M8.73402 12.0527L8.76402 12.0627L10.544 13.7727C10.574 13.8027 10.574 13.8327 10.574 13.8627L9.96402 16.2527C9.95402 16.2927 9.92402 16.3227 9.89402 16.3227L7.50402 17.0127C7.47402 17.0227 7.44402 17.0127 7.40402 16.9927C7.39402 16.9927 7.39402 16.9927 7.38402 16.9827L5.59402 15.2627C5.56402 15.2527 5.55402 15.2127 5.56402 15.1727L6.17402 12.7827C6.18402 12.7427 6.21402 12.7127 6.24402 12.7127L8.63402 12.0427C8.66402 12.0327 8.70402 12.0327 8.73402 12.0527ZM9.20402 11.1727C8.95402 11.0327 8.65402 11.0027 8.37402 11.0827L5.97402 11.7527C5.58402 11.8627 5.29402 12.1627 5.19402 12.5527L4.58402 14.9427C4.48402 15.3227 4.60402 15.7327 4.89402 16.0027L6.68402 17.7227C6.75402 17.7927 6.84402 17.8527 6.93402 17.9027C7.19402 18.0427 7.48402 18.0727 7.76402 18.0027L10.154 17.3327C10.544 17.2227 10.834 16.9227 10.934 16.5327L11.544 14.1427C11.644 13.7627 11.524 13.3527 11.234 13.0827L9.45402 11.3727C9.37402 11.2727 9.29402 11.2227 9.20402 11.1727Z" fill="#73C41D"/>
</svg>
