<svg width="16" height="19" viewBox="0 0 16 19" fill="none" xmlns="http://www.w3.org/2000/svg">
<path d="M8.23405 9.48626L4.72405 10.4763C4.15405 10.6363 3.55405 10.4863 3.13405 10.0763L0.494051 7.55626C0.0740507 7.14626 -0.0859493 6.55626 0.0440507 5.99626L0.944051 2.47626C1.08405 1.92626 1.52405 1.47626 2.08405 1.32626L5.60405 0.33626C6.17405 0.17626 6.77405 0.32626 7.19405 0.73626L9.82405 3.26626C10.2441 3.67626 10.4241 4.26626 10.2741 4.82626L9.37405 8.32626C9.24405 8.88626 8.80405 9.33626 8.23405 9.48626Z" fill="#FFF58F"/>
<path d="M14.9341 11.1664L13.3041 11.6264C13.0441 11.6964 12.7641 11.6264 12.5741 11.4464L11.3541 10.2764C11.1641 10.0864 11.0841 9.81641 11.1441 9.55641L11.5641 7.93641C11.6341 7.67641 11.8241 7.46641 12.0941 7.39641L13.7141 6.93641C13.9741 6.86641 14.2541 6.93641 14.4441 7.11641L15.6541 8.28641C15.8441 8.47641 15.9341 8.74641 15.8641 9.00641L15.4541 10.6264C15.3941 10.8864 15.1841 11.0964 14.9341 11.1664Z" fill="#DBB412"/>
<path d="M8.73402 12.3261L8.76402 12.3361L10.544 14.0461C10.574 14.0761 10.574 14.1061 10.574 14.1361L9.96402 16.5261C9.95402 16.5661 9.92402 16.5961 9.89402 16.5961L7.50402 17.2861C7.47402 17.2961 7.44402 17.2861 7.40402 17.2661C7.39402 17.2661 7.39402 17.2661 7.38402 17.2561L5.59402 15.5361C5.56402 15.5261 5.55402 15.4861 5.56402 15.4461L6.17402 13.0561C6.18402 13.0161 6.21402 12.9861 6.24402 12.9861L8.63402 12.3161C8.66402 12.3061 8.70402 12.3061 8.73402 12.3261ZM9.20402 11.4461C8.95402 11.3061 8.65402 11.2761 8.37402 11.3561L5.97402 12.0261C5.58402 12.1361 5.29402 12.4361 5.19402 12.8261L4.58402 15.2161C4.48402 15.5961 4.60402 16.0061 4.89402 16.2761L6.68402 17.9961C6.75402 18.0661 6.84402 18.1261 6.93402 18.1761C7.19402 18.3161 7.48402 18.3461 7.76402 18.2761L10.154 17.6061C10.544 17.4961 10.834 17.1961 10.934 16.8061L11.544 14.4161C11.644 14.0361 11.524 13.6261 11.234 13.3561L9.45402 11.6461C9.37402 11.5461 9.29402 11.4961 9.20402 11.4461Z" fill="#FFE619"/>
</svg>
