<svg width="16" height="19" viewBox="0 0 16 19" fill="none" xmlns="http://www.w3.org/2000/svg">
<path d="M8.23405 9.36907L4.72405 10.3591C4.15405 10.5191 3.55405 10.3691 3.13405 9.95907L0.494051 7.43907C0.0740507 7.02907 -0.0859493 6.43907 0.0440507 5.87907L0.944051 2.35907C1.08405 1.80907 1.52405 1.35907 2.08405 1.20907L5.60405 0.219073C6.17405 0.0590728 6.77405 0.209073 7.19405 0.619073L9.82405 3.14907C10.2441 3.55907 10.4241 4.14907 10.2741 4.70907L9.37405 8.20907C9.24405 8.76907 8.80405 9.21907 8.23405 9.36907Z" fill="#FFBDC8"/>
<path d="M14.9341 11.0492L13.3041 11.5092C13.0441 11.5792 12.7641 11.5092 12.5741 11.3292L11.3541 10.1592C11.1641 9.96922 11.0841 9.69922 11.1441 9.43922L11.5641 7.81922C11.6341 7.55922 11.8241 7.34922 12.0941 7.27922L13.7141 6.81922C13.9741 6.74922 14.2541 6.81922 14.4441 6.99922L15.6541 8.16922C15.8441 8.35922 15.9341 8.62922 15.8641 8.88922L15.4541 10.5092C15.3941 10.7692 15.1841 10.9792 14.9341 11.0492Z" fill="#CC4373"/>
<path d="M8.73402 12.2089L8.76402 12.2189L10.544 13.9289C10.574 13.9589 10.574 13.9889 10.574 14.0189L9.96402 16.4089C9.95402 16.4489 9.92402 16.4789 9.89402 16.4789L7.50402 17.1689C7.47402 17.1789 7.44402 17.1689 7.40402 17.1489C7.39402 17.1489 7.39402 17.1489 7.38402 17.1389L5.59402 15.4189C5.56402 15.4089 5.55402 15.3689 5.56402 15.3289L6.17402 12.9389C6.18402 12.8989 6.21402 12.8689 6.24402 12.8689L8.63402 12.1989C8.66402 12.1889 8.70402 12.1889 8.73402 12.2089ZM9.20402 11.3289C8.95402 11.1889 8.65402 11.1589 8.37402 11.2389L5.97402 11.9089C5.58402 12.0189 5.29402 12.3189 5.19402 12.7089L4.58402 15.0989C4.48402 15.4789 4.60402 15.8889 4.89402 16.1589L6.68402 17.8789C6.75402 17.9489 6.84402 18.0089 6.93402 18.0589C7.19402 18.1989 7.48402 18.2289 7.76402 18.1589L10.154 17.4889C10.544 17.3789 10.834 17.0789 10.934 16.6889L11.544 14.2989C11.644 13.9189 11.524 13.5089 11.234 13.2389L9.45402 11.5289C9.37402 11.4289 9.29402 11.3789 9.20402 11.3289Z" fill="#FF5D88"/>
</svg>
