<svg width="16" height="19" viewBox="0 0 16 19" fill="none" xmlns="http://www.w3.org/2000/svg">
<path d="M8.23405 9.4472L4.72405 10.4372C4.15405 10.5972 3.55405 10.4472 3.13405 10.0372L0.494051 7.5172C0.0740507 7.1072 -0.0859493 6.5172 0.0440507 5.9572L0.944051 2.4372C1.08405 1.8872 1.52405 1.4372 2.08405 1.2872L5.60405 0.297198C6.17405 0.137198 6.77405 0.287198 7.19405 0.697198L9.82405 3.2272C10.2441 3.6372 10.4241 4.2272 10.2741 4.7872L9.37405 8.2872C9.24405 8.8472 8.80405 9.2972 8.23405 9.4472Z" fill="#FFD9A3"/>
<path d="M14.9341 11.1273L13.3041 11.5873C13.0441 11.6573 12.7641 11.5873 12.5741 11.4073L11.3541 10.2373C11.1641 10.0473 11.0841 9.77734 11.1441 9.51734L11.5641 7.89734C11.6341 7.63734 11.8241 7.42734 12.0941 7.35734L13.7141 6.89734C13.9741 6.82734 14.2541 6.89734 14.4441 7.07734L15.6541 8.24734C15.8441 8.43734 15.9341 8.70734 15.8641 8.96734L15.4541 10.5873C15.3941 10.8473 15.1841 11.0573 14.9341 11.1273Z" fill="#D26914"/>
<path d="M8.73402 12.2871L8.76402 12.2971L10.544 14.0071C10.574 14.0371 10.574 14.0671 10.574 14.0971L9.96402 16.4871C9.95402 16.5271 9.92402 16.5571 9.89402 16.5571L7.50402 17.2471C7.47402 17.2571 7.44402 17.2471 7.40402 17.2271C7.39402 17.2271 7.39402 17.2271 7.38402 17.2171L5.59402 15.4971C5.56402 15.4871 5.55402 15.4471 5.56402 15.4071L6.17402 13.0171C6.18402 12.9771 6.21402 12.9471 6.24402 12.9471L8.63402 12.2771C8.66402 12.2671 8.70402 12.2671 8.73402 12.2871ZM9.20402 11.4071C8.95402 11.2671 8.65402 11.2371 8.37402 11.3171L5.97402 11.9871C5.58402 12.0971 5.29402 12.3971 5.19402 12.7871L4.58402 15.1771C4.48402 15.5571 4.60402 15.9671 4.89402 16.2371L6.68402 17.9571C6.75402 18.0271 6.84402 18.0871 6.93402 18.1371C7.19402 18.2771 7.48402 18.3071 7.76402 18.2371L10.154 17.5671C10.544 17.4571 10.834 17.1571 10.934 16.7671L11.544 14.3771C11.644 13.9971 11.524 13.5871 11.234 13.3171L9.45402 11.6071C9.37402 11.5071 9.29402 11.4571 9.20402 11.4071Z" fill="#FE961C"/>
</svg>
