<svg width="1440" height="651" viewBox="0 0 1440 651" fill="none" xmlns="http://www.w3.org/2000/svg">
<g clip-path="url(#clip0_171_54)">
<path d="M1628.29 1123.86C1654.07 1281.08 1594.02 1440.11 1470.76 1541.05L1083.84 1857.89C960.576 1958.83 792.828 1986.34 643.783 1930.07L175.922 1753.4C26.877 1697.13 -80.8225 1565.61 -106.607 1408.39L-187.544 914.881C-213.328 757.665 -153.279 598.635 -30.0179 497.697L356.905 180.849C480.167 79.9107 647.915 52.3994 796.96 108.678L1264.82 285.339C1413.87 341.618 1521.57 473.136 1547.35 630.352L1628.29 1123.86Z" stroke="url(#paint0_linear_171_54)" stroke-width="3"/>
<path d="M1661.46 658.786C1776.44 769.833 1823.45 933.788 1784.77 1088.89L1637.29 1680.35C1598.61 1835.45 1480.13 1958.14 1326.46 2002.2L740.502 2170.2C586.841 2214.26 421.348 2172.99 306.363 2061.94L-132.113 1638.49C-247.098 1527.44 -294.106 1363.49 -255.43 1208.38L-107.943 616.923C-69.2669 461.82 49.2183 339.132 202.88 295.075L788.842 127.072C942.504 83.0157 1108 124.283 1222.98 235.329L1661.46 658.786Z" fill="#00673B"/>
</g>
<defs>
<linearGradient id="paint0_linear_171_54" x1="1507.04" y1="375.188" x2="-66.2331" y2="1663.53" gradientUnits="userSpaceOnUse">
<stop stop-color="#9FE12D"/>
<stop offset="1" stop-color="#34B9AC"/>
</linearGradient>
<clipPath id="clip0_171_54">
<rect width="1440" height="651" fill="white"/>
</clipPath>
</defs>
</svg>
