<svg width="1651" height="773" viewBox="0 0 1651 773" fill="none" xmlns="http://www.w3.org/2000/svg">
<path d="M1604.44 102.613C1613.27 111.209 1616.83 123.903 1613.76 135.895L1594.84 209.873C1591.78 221.828 1582.6 231.271 1570.76 234.65L1497.23 255.635C1485.39 259.014 1472.68 255.818 1463.88 247.248L1409.4 194.216C1400.57 185.619 1397.02 172.926 1400.09 160.934L1419.01 86.9554C1422.07 75.0001 1431.24 65.5577 1443.08 62.1786L1516.62 41.1931C1528.46 37.814 1541.17 41.0106 1549.97 49.5808L1604.44 102.613Z" stroke="#96E1FD"/>
<path d="M434.918 179.474C449.891 194.051 455.915 215.575 450.714 235.909L415.885 372.07C410.699 392.342 395.143 408.353 375.066 414.083L239.74 452.703C219.662 458.432 198.108 453.012 183.181 438.48L82.919 340.872C67.9461 326.295 61.9216 304.771 67.123 284.437L101.952 148.276C107.138 128.004 122.694 111.993 142.771 106.263L278.097 67.6432C298.175 61.9135 319.729 67.3337 334.656 81.8659L434.918 179.474Z" stroke="#96E1FD" stroke-opacity="0.5" stroke-width="3"/>
<path d="M585.517 419.147C595.755 429.114 599.874 443.831 596.318 457.735L583.691 507.1C580.145 520.961 569.508 531.909 555.78 535.826L506.647 549.848C492.919 553.766 478.181 550.06 467.974 540.123L431.624 504.736C421.387 494.769 417.267 480.052 420.824 466.148L433.451 416.783C436.997 402.922 447.633 391.974 461.361 388.057L510.495 374.035C524.223 370.117 538.961 373.823 549.168 383.76L585.517 419.147Z" fill="#E1F3FD"/>
<path d="M1273.24 106.037C1304.58 98.8917 1337.42 109.111 1359.32 132.832L1497.04 281.943C1518.88 305.592 1526.55 339.069 1517.16 369.787L1457.74 564.164C1448.34 594.881 1423.32 618.183 1392.07 625.306L1195.04 670.221C1163.7 677.366 1130.86 667.146 1108.96 643.425L971.24 494.314C949.398 470.666 941.732 437.188 951.122 406.471L1010.54 212.094C1019.94 181.376 1044.96 158.075 1076.21 150.951L1273.24 106.037Z" fill="#E1F3FD"/>
</svg>
