<?xml version="1.0" encoding="UTF-8"?>
<svg width="50px" height="50px" viewBox="0 0 50 50" version="1.1" xmlns="http://www.w3.org/2000/svg" xmlns:xlink="http://www.w3.org/1999/xlink">
    <!-- Generator: Sketch 55.1 (78136) - https://sketchapp.com -->
    <title>Sync Frequency</title>
    <g stroke="none" stroke-width="1" fill="none" fill-rule="evenodd">
        <g id="sync-frequency" transform="translate(4.000000, 2.000000)">
            <g transform="translate(0.000000, 5.000000)">
                <circle stroke="#73C41D" stroke-width="2" cx="21" cy="21" r="21"></circle>
                <rect fill="#73C41D" fill-rule="nonzero" x="20" y="36" width="2" height="3"></rect>
                <rect fill="#73C41D" fill-rule="nonzero" x="20" y="3" width="2" height="3"></rect>
                <rect fill="#73C41D" fill-rule="nonzero" transform="translate(32.667262, 9.332738) rotate(45.000000) translate(-32.667262, -9.332738) " x="31.6672619" y="7.83273801" width="2" height="3"></rect>
                <rect fill="#73C41D" fill-rule="nonzero" transform="translate(9.332738, 32.667262) rotate(45.000000) translate(-9.332738, -32.667262) " x="8.33273815" y="31.167262" width="2" height="3"></rect>
                <rect fill="#73C41D" fill-rule="nonzero" transform="translate(37.500000, 21.000000) rotate(90.000000) translate(-37.500000, -21.000000) " x="36.5" y="19.5" width="2" height="3"></rect>
                <rect fill="#73C41D" fill-rule="nonzero" transform="translate(4.500000, 21.000000) rotate(90.000000) translate(-4.500000, -21.000000) " x="3.5" y="19.5" width="2" height="3"></rect>
                <rect fill="#73C41D" fill-rule="nonzero" x="20" y="8" width="2" height="20"></rect>
                <rect fill="#73C41D" fill-rule="nonzero" transform="translate(32.667262, 32.667262) rotate(135.000000) translate(-32.667262, -32.667262) " x="31.6672621" y="31.167262" width="2" height="3"></rect>
                <rect fill="#73C41D" fill-rule="nonzero" transform="translate(9.332738, 9.332738) rotate(135.000000) translate(-9.332738, -9.332738) " x="8.33273784" y="7.832738" width="2" height="3"></rect>
            </g>
            <circle stroke="#73C41D" stroke-width="2" fill="#FFFFFF" fill-rule="nonzero" cx="21" cy="26" r="3"></circle>
            <g transform="translate(17.000000, 0.000000)" fill="#73C41D" fill-rule="nonzero">
                <rect x="2" y="1" width="4" height="4"></rect>
                <rect x="0" y="0" width="8" height="2"></rect>
            </g>
            <g transform="translate(37.000000, 9.500000) rotate(45.000000) translate(-37.000000, -9.500000) translate(33.000000, 7.000000)" fill="#73C41D" fill-rule="nonzero">
                <rect x="2" y="1" width="4" height="4"></rect>
                <rect x="0" y="0" width="8" height="2"></rect>
            </g>
        </g>
    </g>
</svg>
